{
	"asset":{
		"generator":"Khronos glTF Blender I/O v3.5.30",
		"version":"2.0"
	},
	"scene":0,
	"scenes":[
		{
			"name":"Scene",
			"nodes":[
				0
			]
		}
	],
	"nodes":[
		{
			"mesh":0,
			"name":"\u7403"
		}
	],
	"materials":[
		{
			"doubleSided":true,
			"name":"\u30de\u30c6\u30ea\u30a2\u30eb",
			"pbrMetallicRoughness":{
				"baseColorTexture":{
					"index":0
				},
				"metallicFactor":0,
				"roughnessFactor":0.5
			}
		}
	],
	"meshes":[
		{
			"name":"\u7403",
			"primitives":[
				{
					"attributes":{
						"POSITION":0,
						"TEXCOORD_0":1,
						"NORMAL":2
					},
					"indices":3,
					"material":0
				}
			]
		}
	],
	"textures":[
		{
			"sampler":0,
			"source":0
		}
	],
	"images":[
		{
			"mimeType":"image/png",
			"name":"Candy.png",
			"uri":"Candy.png"
		}
	],
	"accessors":[
		{
			"bufferView":0,
			"componentType":5126,
			"count":757,
			"max":[
				1.0915273427963257,
				1,
				1.0915271043777466
			],
			"min":[
				-1.0915266275405884,
				-1,
				-1.0915275812149048
			],
			"type":"VEC3"
		},
		{
			"bufferView":1,
			"componentType":5126,
			"count":757,
			"type":"VEC2"
		},
		{
			"bufferView":2,
			"componentType":5126,
			"count":757,
			"type":"VEC3"
		},
		{
			"bufferView":3,
			"componentType":5123,
			"count":3264,
			"type":"SCALAR"
		}
	],
	"bufferViews":[
		{
			"buffer":0,
			"byteLength":9084,
			"byteOffset":0,
			"target":34962
		},
		{
			"buffer":0,
			"byteLength":6056,
			"byteOffset":9084,
			"target":34962
		},
		{
			"buffer":0,
			"byteLength":9084,
			"byteOffset":15140,
			"target":34962
		},
		{
			"buffer":0,
			"byteLength":6528,
			"byteOffset":24224,
			"target":34963
		}
	],
	"samplers":[
		{
			"magFilter":9729,
			"minFilter":9987
		}
	],
	"buffers":[
		{
			"byteLength":30752,
			"uri":"Candy.bin"
		}
	]
}
