{
	"asset":{
		"generator":"Khronos glTF Blender I/O v4.1.63",
		"version":"2.0"
	},
	"scene":0,
	"scenes":[
		{
			"name":"Scene",
			"nodes":[
				4
			]
		}
	],
	"nodes":[
		{
			"name":"Bone.002",
			"rotation":[
				5.782121760149238e-15,
				-6.1238836224219995e-09,
				1.246767978270551e-21,
				1
			],
			"translation":[
				-2.5568239571822532e-21,
				0.7967839241027832,
				8.881784197001252e-15
			]
		},
		{
			"children":[
				0
			],
			"name":"Bone.001",
			"rotation":[
				-1.92010531857112e-15,
				1.0944114592348342e-07,
				-2.8623364824240454e-22,
				1
			],
			"scale":[
				1,
				0.9999999403953552,
				1
			],
			"translation":[
				-3.3087224502121107e-23,
				0.7548357248306274,
				2.220446049250313e-16
			]
		},
		{
			"children":[
				1
			],
			"name":"Bone",
			"rotation":[
				-8.557136332854043e-09,
				1.7114272665708086e-08,
				-2.928983286277023e-16,
				1
			]
		},
		{
			"mesh":0,
			"name":"\u5186.002",
			"skin":0
		},
		{
			"children":[
				3,
				2
			],
			"name":"\u30a2\u30fc\u30de\u30c1\u30e5\u30a2",
			"translation":[
				0,
				-0.6742017269134521,
				0
			]
		}
	],
	"animations":[
		{
			"channels":[
				{
					"sampler":0,
					"target":{
						"node":2,
						"path":"translation"
					}
				},
				{
					"sampler":1,
					"target":{
						"node":2,
						"path":"rotation"
					}
				},
				{
					"sampler":2,
					"target":{
						"node":2,
						"path":"scale"
					}
				},
				{
					"sampler":3,
					"target":{
						"node":1,
						"path":"translation"
					}
				},
				{
					"sampler":4,
					"target":{
						"node":1,
						"path":"rotation"
					}
				},
				{
					"sampler":5,
					"target":{
						"node":1,
						"path":"scale"
					}
				},
				{
					"sampler":6,
					"target":{
						"node":0,
						"path":"translation"
					}
				},
				{
					"sampler":7,
					"target":{
						"node":0,
						"path":"rotation"
					}
				},
				{
					"sampler":8,
					"target":{
						"node":0,
						"path":"scale"
					}
				}
			],
			"name":"\u30a2\u30fc\u30de\u30c1\u30e5\u30a2Action.001",
			"samplers":[
				{
					"input":19,
					"interpolation":"STEP",
					"output":20
				},
				{
					"input":21,
					"interpolation":"LINEAR",
					"output":22
				},
				{
					"input":19,
					"interpolation":"STEP",
					"output":23
				},
				{
					"input":19,
					"interpolation":"LINEAR",
					"output":24
				},
				{
					"input":21,
					"interpolation":"LINEAR",
					"output":25
				},
				{
					"input":19,
					"interpolation":"STEP",
					"output":26
				},
				{
					"input":19,
					"interpolation":"LINEAR",
					"output":27
				},
				{
					"input":21,
					"interpolation":"LINEAR",
					"output":28
				},
				{
					"input":19,
					"interpolation":"LINEAR",
					"output":29
				}
			]
		},
		{
			"channels":[
				{
					"sampler":0,
					"target":{
						"node":2,
						"path":"translation"
					}
				},
				{
					"sampler":1,
					"target":{
						"node":2,
						"path":"rotation"
					}
				},
				{
					"sampler":2,
					"target":{
						"node":2,
						"path":"scale"
					}
				},
				{
					"sampler":3,
					"target":{
						"node":1,
						"path":"translation"
					}
				},
				{
					"sampler":4,
					"target":{
						"node":1,
						"path":"rotation"
					}
				},
				{
					"sampler":5,
					"target":{
						"node":1,
						"path":"scale"
					}
				},
				{
					"sampler":6,
					"target":{
						"node":0,
						"path":"translation"
					}
				},
				{
					"sampler":7,
					"target":{
						"node":0,
						"path":"rotation"
					}
				},
				{
					"sampler":8,
					"target":{
						"node":0,
						"path":"scale"
					}
				}
			],
			"name":"\u30a2\u30fc\u30de\u30c1\u30e5\u30a2Action",
			"samplers":[
				{
					"input":30,
					"interpolation":"STEP",
					"output":31
				},
				{
					"input":30,
					"interpolation":"STEP",
					"output":32
				},
				{
					"input":30,
					"interpolation":"STEP",
					"output":33
				},
				{
					"input":30,
					"interpolation":"STEP",
					"output":34
				},
				{
					"input":30,
					"interpolation":"STEP",
					"output":35
				},
				{
					"input":30,
					"interpolation":"STEP",
					"output":36
				},
				{
					"input":30,
					"interpolation":"STEP",
					"output":37
				},
				{
					"input":30,
					"interpolation":"STEP",
					"output":38
				},
				{
					"input":30,
					"interpolation":"STEP",
					"output":39
				}
			]
		}
	],
	"materials":[
		{
			"doubleSided":true,
			"name":"\u30de\u30c6\u30ea\u30a2\u30eb.001",
			"pbrMetallicRoughness":{
				"baseColorTexture":{
					"index":0
				},
				"metallicFactor":0,
				"roughnessFactor":0.5
			}
		},
		{
			"doubleSided":true,
			"name":"\u30de\u30c6\u30ea\u30a2\u30eb",
			"pbrMetallicRoughness":{
				"baseColorTexture":{
					"index":1
				},
				"metallicFactor":0,
				"roughnessFactor":0.5
			}
		},
		{
			"doubleSided":true,
			"name":"\u30de\u30c6\u30ea\u30a2\u30eb.002",
			"pbrMetallicRoughness":{
				"baseColorTexture":{
					"index":2
				},
				"metallicFactor":0,
				"roughnessFactor":0.5
			}
		}
	],
	"meshes":[
		{
			"name":"\u5186.002",
			"primitives":[
				{
					"attributes":{
						"POSITION":0,
						"NORMAL":1,
						"TEXCOORD_0":2,
						"JOINTS_0":3,
						"WEIGHTS_0":4
					},
					"indices":5,
					"material":0
				},
				{
					"attributes":{
						"POSITION":6,
						"NORMAL":7,
						"TEXCOORD_0":8,
						"JOINTS_0":9,
						"WEIGHTS_0":10
					},
					"indices":11,
					"material":1
				},
				{
					"attributes":{
						"POSITION":12,
						"NORMAL":13,
						"TEXCOORD_0":14,
						"JOINTS_0":15,
						"WEIGHTS_0":16
					},
					"indices":17,
					"material":2
				}
			]
		}
	],
	"textures":[
		{
			"sampler":0,
			"source":0
		},
		{
			"sampler":0,
			"source":1
		},
		{
			"sampler":0,
			"source":2
		}
	],
	"images":[
		{
			"mimeType":"image/png",
			"name":"Cap",
			"uri":"Cap.png"
		},
		{
			"mimeType":"image/png",
			"name":"Body",
			"uri":"Body.png"
		},
		{
			"mimeType":"image/png",
			"name":"Cream",
			"uri":"Cream.png"
		}
	],
	"skins":[
		{
			"inverseBindMatrices":18,
			"joints":[
				2,
				1,
				0
			],
			"name":"\u30a2\u30fc\u30de\u30c1\u30e5\u30a2"
		}
	],
	"accessors":[
		{
			"bufferView":0,
			"componentType":5126,
			"count":272,
			"max":[
				1.077636480331421,
				0.11557620763778687,
				1.077636480331421
			],
			"min":[
				-1.077636480331421,
				-0.8625486493110657,
				-1.077636480331421
			],
			"type":"VEC3"
		},
		{
			"bufferView":1,
			"componentType":5126,
			"count":272,
			"type":"VEC3"
		},
		{
			"bufferView":2,
			"componentType":5126,
			"count":272,
			"type":"VEC2"
		},
		{
			"bufferView":3,
			"componentType":5121,
			"count":272,
			"type":"VEC4"
		},
		{
			"bufferView":4,
			"componentType":5126,
			"count":272,
			"type":"VEC4"
		},
		{
			"bufferView":5,
			"componentType":5123,
			"count":1482,
			"type":"SCALAR"
		},
		{
			"bufferView":6,
			"componentType":5126,
			"count":448,
			"max":[
				1.1553114652633667,
				1.4980504512786865,
				1.1553114652633667
			],
			"min":[
				-1.1553114652633667,
				-0.7841970324516296,
				-1.1553114652633667
			],
			"type":"VEC3"
		},
		{
			"bufferView":7,
			"componentType":5126,
			"count":448,
			"type":"VEC3"
		},
		{
			"bufferView":8,
			"componentType":5126,
			"count":448,
			"type":"VEC2"
		},
		{
			"bufferView":9,
			"componentType":5121,
			"count":448,
			"type":"VEC4"
		},
		{
			"bufferView":10,
			"componentType":5126,
			"count":448,
			"type":"VEC4"
		},
		{
			"bufferView":11,
			"componentType":5123,
			"count":672,
			"type":"SCALAR"
		},
		{
			"bufferView":12,
			"componentType":5126,
			"count":992,
			"max":[
				0.43926864862442017,
				1.984926462173462,
				0.39569008350372314
			],
			"min":[
				-0.4734588861465454,
				1.3611295223236084,
				-0.3957013785839081
			],
			"type":"VEC3"
		},
		{
			"bufferView":13,
			"componentType":5126,
			"count":992,
			"type":"VEC3"
		},
		{
			"bufferView":14,
			"componentType":5126,
			"count":992,
			"type":"VEC2"
		},
		{
			"bufferView":15,
			"componentType":5121,
			"count":992,
			"type":"VEC4"
		},
		{
			"bufferView":16,
			"componentType":5126,
			"count":992,
			"type":"VEC4"
		},
		{
			"bufferView":17,
			"componentType":5123,
			"count":1440,
			"type":"SCALAR"
		},
		{
			"bufferView":18,
			"componentType":5126,
			"count":3,
			"type":"MAT4"
		},
		{
			"bufferView":19,
			"componentType":5126,
			"count":2,
			"max":[
				2.5
			],
			"min":[
				0
			],
			"type":"SCALAR"
		},
		{
			"bufferView":20,
			"componentType":5126,
			"count":2,
			"type":"VEC3"
		},
		{
			"bufferView":21,
			"componentType":5126,
			"count":61,
			"max":[
				2.5
			],
			"min":[
				0
			],
			"type":"SCALAR"
		},
		{
			"bufferView":22,
			"componentType":5126,
			"count":61,
			"type":"VEC4"
		},
		{
			"bufferView":23,
			"componentType":5126,
			"count":2,
			"type":"VEC3"
		},
		{
			"bufferView":24,
			"componentType":5126,
			"count":2,
			"type":"VEC3"
		},
		{
			"bufferView":25,
			"componentType":5126,
			"count":61,
			"type":"VEC4"
		},
		{
			"bufferView":26,
			"componentType":5126,
			"count":2,
			"type":"VEC3"
		},
		{
			"bufferView":27,
			"componentType":5126,
			"count":2,
			"type":"VEC3"
		},
		{
			"bufferView":28,
			"componentType":5126,
			"count":61,
			"type":"VEC4"
		},
		{
			"bufferView":29,
			"componentType":5126,
			"count":2,
			"type":"VEC3"
		},
		{
			"bufferView":30,
			"componentType":5126,
			"count":1,
			"max":[
				0
			],
			"min":[
				0
			],
			"type":"SCALAR"
		},
		{
			"bufferView":31,
			"componentType":5126,
			"count":1,
			"type":"VEC3"
		},
		{
			"bufferView":32,
			"componentType":5126,
			"count":1,
			"type":"VEC4"
		},
		{
			"bufferView":33,
			"componentType":5126,
			"count":1,
			"type":"VEC3"
		},
		{
			"bufferView":34,
			"componentType":5126,
			"count":1,
			"type":"VEC3"
		},
		{
			"bufferView":35,
			"componentType":5126,
			"count":1,
			"type":"VEC4"
		},
		{
			"bufferView":36,
			"componentType":5126,
			"count":1,
			"type":"VEC3"
		},
		{
			"bufferView":37,
			"componentType":5126,
			"count":1,
			"type":"VEC3"
		},
		{
			"bufferView":38,
			"componentType":5126,
			"count":1,
			"type":"VEC4"
		},
		{
			"bufferView":39,
			"componentType":5126,
			"count":1,
			"type":"VEC3"
		}
	],
	"bufferViews":[
		{
			"buffer":0,
			"byteLength":3264,
			"byteOffset":0,
			"target":34962
		},
		{
			"buffer":0,
			"byteLength":3264,
			"byteOffset":3264,
			"target":34962
		},
		{
			"buffer":0,
			"byteLength":2176,
			"byteOffset":6528,
			"target":34962
		},
		{
			"buffer":0,
			"byteLength":1088,
			"byteOffset":8704,
			"target":34962
		},
		{
			"buffer":0,
			"byteLength":4352,
			"byteOffset":9792,
			"target":34962
		},
		{
			"buffer":0,
			"byteLength":2964,
			"byteOffset":14144,
			"target":34963
		},
		{
			"buffer":0,
			"byteLength":5376,
			"byteOffset":17108,
			"target":34962
		},
		{
			"buffer":0,
			"byteLength":5376,
			"byteOffset":22484,
			"target":34962
		},
		{
			"buffer":0,
			"byteLength":3584,
			"byteOffset":27860,
			"target":34962
		},
		{
			"buffer":0,
			"byteLength":1792,
			"byteOffset":31444,
			"target":34962
		},
		{
			"buffer":0,
			"byteLength":7168,
			"byteOffset":33236,
			"target":34962
		},
		{
			"buffer":0,
			"byteLength":1344,
			"byteOffset":40404,
			"target":34963
		},
		{
			"buffer":0,
			"byteLength":11904,
			"byteOffset":41748,
			"target":34962
		},
		{
			"buffer":0,
			"byteLength":11904,
			"byteOffset":53652,
			"target":34962
		},
		{
			"buffer":0,
			"byteLength":7936,
			"byteOffset":65556,
			"target":34962
		},
		{
			"buffer":0,
			"byteLength":3968,
			"byteOffset":73492,
			"target":34962
		},
		{
			"buffer":0,
			"byteLength":15872,
			"byteOffset":77460,
			"target":34962
		},
		{
			"buffer":0,
			"byteLength":2880,
			"byteOffset":93332,
			"target":34963
		},
		{
			"buffer":0,
			"byteLength":192,
			"byteOffset":96212
		},
		{
			"buffer":0,
			"byteLength":8,
			"byteOffset":96404
		},
		{
			"buffer":0,
			"byteLength":24,
			"byteOffset":96412
		},
		{
			"buffer":0,
			"byteLength":244,
			"byteOffset":96436
		},
		{
			"buffer":0,
			"byteLength":976,
			"byteOffset":96680
		},
		{
			"buffer":0,
			"byteLength":24,
			"byteOffset":97656
		},
		{
			"buffer":0,
			"byteLength":24,
			"byteOffset":97680
		},
		{
			"buffer":0,
			"byteLength":976,
			"byteOffset":97704
		},
		{
			"buffer":0,
			"byteLength":24,
			"byteOffset":98680
		},
		{
			"buffer":0,
			"byteLength":24,
			"byteOffset":98704
		},
		{
			"buffer":0,
			"byteLength":976,
			"byteOffset":98728
		},
		{
			"buffer":0,
			"byteLength":24,
			"byteOffset":99704
		},
		{
			"buffer":0,
			"byteLength":4,
			"byteOffset":99728
		},
		{
			"buffer":0,
			"byteLength":12,
			"byteOffset":99732
		},
		{
			"buffer":0,
			"byteLength":16,
			"byteOffset":99744
		},
		{
			"buffer":0,
			"byteLength":12,
			"byteOffset":99760
		},
		{
			"buffer":0,
			"byteLength":12,
			"byteOffset":99772
		},
		{
			"buffer":0,
			"byteLength":16,
			"byteOffset":99784
		},
		{
			"buffer":0,
			"byteLength":12,
			"byteOffset":99800
		},
		{
			"buffer":0,
			"byteLength":12,
			"byteOffset":99812
		},
		{
			"buffer":0,
			"byteLength":16,
			"byteOffset":99824
		},
		{
			"buffer":0,
			"byteLength":12,
			"byteOffset":99840
		}
	],
	"samplers":[
		{
			"magFilter":9729,
			"minFilter":9987
		}
	],
	"buffers":[
		{
			"byteLength":99852,
			"uri":"CapCakeDown.bin"
		}
	]
}
