{
	"asset":{
		"generator":"Khronos glTF Blender I/O v3.5.30",
		"version":"2.0"
	},
	"scene":0,
	"scenes":[
		{
			"name":"Scene",
			"nodes":[
				12,
				13,
				14,
				15,
				16,
				17
			]
		}
	],
	"nodes":[
		{
			"name":"Bone",
			"rotation":[
				-0.7071067690849304,
				-7.852640493410945e-08,
				2.8243762884017087e-08,
				0.7071067690849304
			]
		},
		{
			"name":"Bone.002.L",
			"rotation":[
				0.0498080775141716,
				3.733159914531825e-08,
				6.890583659213689e-09,
				0.9987587928771973
			],
			"translation":[
				2.4684055688339868e-08,
				0.716157078742981,
				7.535423947047093e-07
			]
		},
		{
			"children":[
				1
			],
			"name":"Bone.001.L",
			"rotation":[
				-0.5550044178962708,
				-0.4381442070007324,
				-0.5550040006637573,
				0.4381442368030548
			],
			"scale":[
				1,
				0.9999999403953552,
				1
			]
		},
		{
			"name":"Bone.005.L",
			"rotation":[
				-0.4023240804672241,
				1.7477078984029504e-07,
				-4.6916875362512656e-06,
				0.9154973030090332
			],
			"scale":[
				1,
				0.9999999403953552,
				1
			],
			"translation":[
				-7.037328941805754e-08,
				0.5319570899009705,
				-4.391215497889789e-07
			]
		},
		{
			"children":[
				3
			],
			"name":"Bone.004.L",
			"rotation":[
				0.44438615441322327,
				3.662137970650292e-08,
				5.07856111653382e-06,
				0.8958353400230408
			],
			"scale":[
				1,
				0.9999998807907104,
				0.9999999403953552
			],
			"translation":[
				-6.539210062328493e-08,
				1.2903859615325928,
				4.106368578504771e-10
			]
		},
		{
			"name":"Bone.005.R",
			"rotation":[
				-0.40232422947883606,
				-1.492341397124619e-07,
				4.561424248095136e-06,
				0.9154972434043884
			],
			"scale":[
				1,
				1.0000001192092896,
				1
			],
			"translation":[
				2.801516529871151e-08,
				0.5319570899009705,
				-3.229342837585136e-08
			]
		},
		{
			"children":[
				5
			],
			"name":"Bone.004.R",
			"rotation":[
				4.9123912049253704e-08,
				0.8903154730796814,
				-0.45534417033195496,
				1.0043801921710838e-05
			],
			"scale":[
				1,
				0.9999999403953552,
				1
			],
			"translation":[
				2.896512114602956e-07,
				1.2899993658065796,
				-0.03166104108095169
			]
		},
		{
			"children":[
				4,
				6
			],
			"name":"Bone.003",
			"rotation":[
				-0.7070894837379456,
				-0.004338015336543322,
				-0.7070974707603455,
				0.004337661433964968
			],
			"scale":[
				1,
				0.9999998807907104,
				1
			]
		},
		{
			"mesh":1,
			"name":"\u5186\u67f1",
			"rotation":[
				0.7071067690849304,
				-4.647473608753762e-14,
				2.763361642375145e-14,
				0.7071067690849304
			],
			"scale":[
				1,
				1.0000001192092896,
				1.0000001192092896
			],
			"translation":[
				0.7038408517837524,
				1.5538305044174194,
				1.3151888847351074
			]
		},
		{
			"children":[
				8
			],
			"name":"Bone.002.R",
			"rotation":[
				0.0498080775141716,
				-3.733159914531825e-08,
				-6.890583659213689e-09,
				0.9987587928771973
			],
			"translation":[
				-2.4684055688339868e-08,
				0.716157078742981,
				7.535423947047093e-07
			]
		},
		{
			"children":[
				9
			],
			"name":"Bone.001.R",
			"rotation":[
				-0.5550044178962708,
				0.4381442070007324,
				0.5550040006637573,
				0.4381442368030548
			],
			"scale":[
				1,
				0.9999999403953552,
				1
			]
		},
		{
			"mesh":0,
			"name":"\u5186",
			"skin":0
		},
		{
			"children":[
				11,
				0,
				2,
				7,
				10
			],
			"name":"\u30a2\u30fc\u30de\u30c1\u30e5\u30a2.001",
			"translation":[
				0,
				3.4541738033294678,
				0.11821048706769943
			]
		},
		{
			"name":"\u5e73\u9762",
			"rotation":[
				0.7071070671081543,
				0,
				0,
				0.7071065306663513
			],
			"scale":[
				0.22702592611312866,
				0.22702594101428986,
				0.22702594101428986
			],
			"translation":[
				-0.3486100137233734,
				4.9858598709106445,
				-0.6692748665809631
			]
		},
		{
			"name":"\u30c8\u30fc\u30e9\u30b9.001",
			"rotation":[
				0.7071070671081543,
				0,
				0,
				0.7071065306663513
			],
			"scale":[
				0.16387946903705597,
				0.16387945413589478,
				0.16387945413589478
			],
			"translation":[
				0,
				3.2512571811676025,
				-0.5913844108581543
			]
		},
		{
			"name":"\u30c8\u30fc\u30e9\u30b9.002",
			"rotation":[
				0.7071070671081543,
				0,
				0,
				0.7071065306663513
			],
			"scale":[
				0.16387946903705597,
				0.16387945413589478,
				0.16387945413589478
			],
			"translation":[
				0,
				3.2512571811676025,
				-0.5913844108581543
			]
		},
		{
			"mesh":2,
			"name":"Button2"
		},
		{
			"mesh":3,
			"name":"Button1"
		}
	],
	"animations":[
		{
			"channels":[
				{
					"sampler":0,
					"target":{
						"node":0,
						"path":"translation"
					}
				},
				{
					"sampler":1,
					"target":{
						"node":0,
						"path":"rotation"
					}
				},
				{
					"sampler":2,
					"target":{
						"node":0,
						"path":"scale"
					}
				},
				{
					"sampler":3,
					"target":{
						"node":2,
						"path":"translation"
					}
				},
				{
					"sampler":4,
					"target":{
						"node":2,
						"path":"rotation"
					}
				},
				{
					"sampler":5,
					"target":{
						"node":2,
						"path":"scale"
					}
				},
				{
					"sampler":6,
					"target":{
						"node":1,
						"path":"translation"
					}
				},
				{
					"sampler":7,
					"target":{
						"node":1,
						"path":"rotation"
					}
				},
				{
					"sampler":8,
					"target":{
						"node":1,
						"path":"scale"
					}
				},
				{
					"sampler":9,
					"target":{
						"node":7,
						"path":"translation"
					}
				},
				{
					"sampler":10,
					"target":{
						"node":7,
						"path":"rotation"
					}
				},
				{
					"sampler":11,
					"target":{
						"node":7,
						"path":"scale"
					}
				},
				{
					"sampler":12,
					"target":{
						"node":4,
						"path":"translation"
					}
				},
				{
					"sampler":13,
					"target":{
						"node":4,
						"path":"rotation"
					}
				},
				{
					"sampler":14,
					"target":{
						"node":4,
						"path":"scale"
					}
				},
				{
					"sampler":15,
					"target":{
						"node":3,
						"path":"translation"
					}
				},
				{
					"sampler":16,
					"target":{
						"node":3,
						"path":"rotation"
					}
				},
				{
					"sampler":17,
					"target":{
						"node":3,
						"path":"scale"
					}
				},
				{
					"sampler":18,
					"target":{
						"node":6,
						"path":"translation"
					}
				},
				{
					"sampler":19,
					"target":{
						"node":6,
						"path":"rotation"
					}
				},
				{
					"sampler":20,
					"target":{
						"node":6,
						"path":"scale"
					}
				},
				{
					"sampler":21,
					"target":{
						"node":5,
						"path":"translation"
					}
				},
				{
					"sampler":22,
					"target":{
						"node":5,
						"path":"rotation"
					}
				},
				{
					"sampler":23,
					"target":{
						"node":5,
						"path":"scale"
					}
				},
				{
					"sampler":24,
					"target":{
						"node":10,
						"path":"translation"
					}
				},
				{
					"sampler":25,
					"target":{
						"node":10,
						"path":"rotation"
					}
				},
				{
					"sampler":26,
					"target":{
						"node":10,
						"path":"scale"
					}
				},
				{
					"sampler":27,
					"target":{
						"node":9,
						"path":"translation"
					}
				},
				{
					"sampler":28,
					"target":{
						"node":9,
						"path":"rotation"
					}
				},
				{
					"sampler":29,
					"target":{
						"node":9,
						"path":"scale"
					}
				}
			],
			"name":"\u30a2\u30fc\u30de\u30c1\u30e5\u30a2.001Action",
			"samplers":[
				{
					"input":24,
					"interpolation":"LINEAR",
					"output":25
				},
				{
					"input":24,
					"interpolation":"LINEAR",
					"output":26
				},
				{
					"input":24,
					"interpolation":"LINEAR",
					"output":27
				},
				{
					"input":24,
					"interpolation":"LINEAR",
					"output":28
				},
				{
					"input":24,
					"interpolation":"LINEAR",
					"output":29
				},
				{
					"input":24,
					"interpolation":"LINEAR",
					"output":30
				},
				{
					"input":24,
					"interpolation":"LINEAR",
					"output":31
				},
				{
					"input":24,
					"interpolation":"LINEAR",
					"output":32
				},
				{
					"input":24,
					"interpolation":"LINEAR",
					"output":33
				},
				{
					"input":24,
					"interpolation":"LINEAR",
					"output":34
				},
				{
					"input":24,
					"interpolation":"LINEAR",
					"output":35
				},
				{
					"input":24,
					"interpolation":"LINEAR",
					"output":36
				},
				{
					"input":24,
					"interpolation":"LINEAR",
					"output":37
				},
				{
					"input":24,
					"interpolation":"LINEAR",
					"output":38
				},
				{
					"input":24,
					"interpolation":"LINEAR",
					"output":39
				},
				{
					"input":24,
					"interpolation":"LINEAR",
					"output":40
				},
				{
					"input":24,
					"interpolation":"LINEAR",
					"output":41
				},
				{
					"input":24,
					"interpolation":"LINEAR",
					"output":42
				},
				{
					"input":24,
					"interpolation":"LINEAR",
					"output":43
				},
				{
					"input":24,
					"interpolation":"LINEAR",
					"output":44
				},
				{
					"input":24,
					"interpolation":"LINEAR",
					"output":45
				},
				{
					"input":24,
					"interpolation":"LINEAR",
					"output":46
				},
				{
					"input":24,
					"interpolation":"LINEAR",
					"output":47
				},
				{
					"input":24,
					"interpolation":"LINEAR",
					"output":48
				},
				{
					"input":24,
					"interpolation":"LINEAR",
					"output":49
				},
				{
					"input":24,
					"interpolation":"LINEAR",
					"output":50
				},
				{
					"input":24,
					"interpolation":"LINEAR",
					"output":51
				},
				{
					"input":24,
					"interpolation":"LINEAR",
					"output":52
				},
				{
					"input":24,
					"interpolation":"LINEAR",
					"output":53
				},
				{
					"input":24,
					"interpolation":"LINEAR",
					"output":54
				}
			]
		}
	],
	"materials":[
		{
			"doubleSided":true,
			"name":"\u30de\u30c6\u30ea\u30a2\u30eb",
			"pbrMetallicRoughness":{
				"baseColorTexture":{
					"index":0
				},
				"metallicFactor":0,
				"roughnessFactor":0.5
			}
		},
		{
			"doubleSided":true,
			"name":"\u30de\u30c6\u30ea\u30a2\u30eb.005",
			"pbrMetallicRoughness":{
				"baseColorTexture":{
					"index":1
				},
				"metallicFactor":0,
				"roughnessFactor":0.5
			}
		},
		{
			"doubleSided":true,
			"name":"\u30de\u30c6\u30ea\u30a2\u30eb.006",
			"pbrMetallicRoughness":{
				"baseColorTexture":{
					"index":2
				},
				"metallicFactor":0,
				"roughnessFactor":0.5
			}
		},
		{
			"doubleSided":true,
			"name":"\u30de\u30c6\u30ea\u30a2\u30eb.004",
			"pbrMetallicRoughness":{
				"baseColorTexture":{
					"index":3
				},
				"metallicFactor":0,
				"roughnessFactor":0.5
			}
		},
		{
			"doubleSided":true,
			"name":"\u30de\u30c6\u30ea\u30a2\u30eb.003",
			"pbrMetallicRoughness":{
				"baseColorTexture":{
					"index":4
				},
				"metallicFactor":0,
				"roughnessFactor":0.5
			}
		}
	],
	"meshes":[
		{
			"name":"\u5186.001",
			"primitives":[
				{
					"attributes":{
						"POSITION":0,
						"TEXCOORD_0":1,
						"NORMAL":2,
						"JOINTS_0":3,
						"WEIGHTS_0":4
					},
					"indices":5,
					"material":0
				}
			]
		},
		{
			"name":"\u5186\u67f1.001",
			"primitives":[
				{
					"attributes":{
						"COLOR_0":7,
						"POSITION":8,
						"TEXCOORD_0":9,
						"NORMAL":10
					},
					"indices":11,
					"material":1
				},
				{
					"attributes":{
						"COLOR_0":12,
						"POSITION":13,
						"TEXCOORD_0":14,
						"NORMAL":15
					},
					"indices":16,
					"material":2
				}
			]
		},
		{
			"name":"\u7403.002",
			"primitives":[
				{
					"attributes":{
						"POSITION":17,
						"TEXCOORD_0":18,
						"NORMAL":19
					},
					"indices":20,
					"material":3
				}
			]
		},
		{
			"name":"\u7403.006",
			"primitives":[
				{
					"attributes":{
						"POSITION":21,
						"TEXCOORD_0":22,
						"NORMAL":23
					},
					"indices":20,
					"material":4
				}
			]
		}
	],
	"textures":[
		{
			"sampler":0,
			"source":0
		},
		{
			"sampler":0,
			"source":1
		},
		{
			"sampler":0,
			"source":2
		},
		{
			"sampler":0,
			"source":3
		},
		{
			"sampler":0,
			"source":3
		}
	],
	"images":[
		{
			"mimeType":"image/png",
			"name":"Body",
			"uri":"Body.png"
		},
		{
			"mimeType":"image/png",
			"name":"StickWhite",
			"uri":"StickWhite.png"
		},
		{
			"mimeType":"image/png",
			"name":"StickRed",
			"uri":"StickRed.png"
		},
		{
			"mimeType":"image/png",
			"name":"Botton",
			"uri":"Botton.png"
		}
	],
	"skins":[
		{
			"inverseBindMatrices":6,
			"joints":[
				0,
				2,
				1,
				7,
				4,
				3,
				6,
				5,
				10,
				9
			],
			"name":"\u30a2\u30fc\u30de\u30c1\u30e5\u30a2.001"
		}
	],
	"accessors":[
		{
			"bufferView":0,
			"componentType":5126,
			"count":400,
			"max":[
				2.580918788909912,
				5.743501663208008,
				-0.03755386918783188
			],
			"min":[
				-2.580918312072754,
				-0.09168362617492676,
				-0.584701657295227
			],
			"type":"VEC3"
		},
		{
			"bufferView":1,
			"componentType":5126,
			"count":400,
			"type":"VEC2"
		},
		{
			"bufferView":2,
			"componentType":5126,
			"count":400,
			"type":"VEC3"
		},
		{
			"bufferView":3,
			"componentType":5121,
			"count":400,
			"type":"VEC4"
		},
		{
			"bufferView":4,
			"componentType":5126,
			"count":400,
			"type":"VEC4"
		},
		{
			"bufferView":5,
			"componentType":5123,
			"count":1404,
			"type":"SCALAR"
		},
		{
			"bufferView":6,
			"componentType":5126,
			"count":10,
			"type":"MAT4"
		},
		{
			"bufferView":7,
			"componentType":5123,
			"count":31837,
			"normalized":true,
			"type":"VEC4"
		},
		{
			"bufferView":8,
			"componentType":5126,
			"count":31837,
			"max":[
				0.12040823698043823,
				2.108278751373291,
				0.49023354053497314
			],
			"min":[
				-0.12058788537979126,
				-2.6369993686676025,
				-0.9316326379776001
			],
			"type":"VEC3"
		},
		{
			"bufferView":9,
			"componentType":5126,
			"count":31837,
			"type":"VEC2"
		},
		{
			"bufferView":10,
			"componentType":5126,
			"count":31837,
			"type":"VEC3"
		},
		{
			"bufferView":11,
			"componentType":5123,
			"count":34560,
			"type":"SCALAR"
		},
		{
			"bufferView":12,
			"componentType":5123,
			"count":32185,
			"normalized":true,
			"type":"VEC4"
		},
		{
			"bufferView":13,
			"componentType":5126,
			"count":32185,
			"max":[
				0.1198691725730896,
				2.0963220596313477,
				0.49641430377960205
			],
			"min":[
				-0.12004876136779785,
				-2.4466097354888916,
				-0.986371636390686
			],
			"type":"VEC3"
		},
		{
			"bufferView":14,
			"componentType":5126,
			"count":32185,
			"type":"VEC2"
		},
		{
			"bufferView":15,
			"componentType":5126,
			"count":32185,
			"type":"VEC3"
		},
		{
			"bufferView":16,
			"componentType":5123,
			"count":34560,
			"type":"SCALAR"
		},
		{
			"bufferView":17,
			"componentType":5126,
			"count":427,
			"max":[
				0.1411978155374527,
				2.4232866764068604,
				-0.5225189924240112
			],
			"min":[
				-0.1411978006362915,
				2.1406497955322266,
				-0.741204559803009
			],
			"type":"VEC3"
		},
		{
			"bufferView":18,
			"componentType":5126,
			"count":427,
			"type":"VEC2"
		},
		{
			"bufferView":19,
			"componentType":5126,
			"count":427,
			"type":"VEC3"
		},
		{
			"bufferView":20,
			"componentType":5123,
			"count":2208,
			"type":"SCALAR"
		},
		{
			"bufferView":21,
			"componentType":5126,
			"count":427,
			"max":[
				0.1411978155374527,
				3.3025832176208496,
				-0.5225188136100769
			],
			"min":[
				-0.1411978006362915,
				3.019946575164795,
				-0.7412043809890747
			],
			"type":"VEC3"
		},
		{
			"bufferView":22,
			"componentType":5126,
			"count":427,
			"type":"VEC2"
		},
		{
			"bufferView":23,
			"componentType":5126,
			"count":427,
			"type":"VEC3"
		},
		{
			"bufferView":24,
			"componentType":5126,
			"count":60,
			"max":[
				2.5
			],
			"min":[
				0.041666666666666664
			],
			"type":"SCALAR"
		},
		{
			"bufferView":25,
			"componentType":5126,
			"count":60,
			"type":"VEC3"
		},
		{
			"bufferView":26,
			"componentType":5126,
			"count":60,
			"type":"VEC4"
		},
		{
			"bufferView":27,
			"componentType":5126,
			"count":60,
			"type":"VEC3"
		},
		{
			"bufferView":28,
			"componentType":5126,
			"count":60,
			"type":"VEC3"
		},
		{
			"bufferView":29,
			"componentType":5126,
			"count":60,
			"type":"VEC4"
		},
		{
			"bufferView":30,
			"componentType":5126,
			"count":60,
			"type":"VEC3"
		},
		{
			"bufferView":31,
			"componentType":5126,
			"count":60,
			"type":"VEC3"
		},
		{
			"bufferView":32,
			"componentType":5126,
			"count":60,
			"type":"VEC4"
		},
		{
			"bufferView":33,
			"componentType":5126,
			"count":60,
			"type":"VEC3"
		},
		{
			"bufferView":34,
			"componentType":5126,
			"count":60,
			"type":"VEC3"
		},
		{
			"bufferView":35,
			"componentType":5126,
			"count":60,
			"type":"VEC4"
		},
		{
			"bufferView":36,
			"componentType":5126,
			"count":60,
			"type":"VEC3"
		},
		{
			"bufferView":37,
			"componentType":5126,
			"count":60,
			"type":"VEC3"
		},
		{
			"bufferView":38,
			"componentType":5126,
			"count":60,
			"type":"VEC4"
		},
		{
			"bufferView":39,
			"componentType":5126,
			"count":60,
			"type":"VEC3"
		},
		{
			"bufferView":40,
			"componentType":5126,
			"count":60,
			"type":"VEC3"
		},
		{
			"bufferView":41,
			"componentType":5126,
			"count":60,
			"type":"VEC4"
		},
		{
			"bufferView":42,
			"componentType":5126,
			"count":60,
			"type":"VEC3"
		},
		{
			"bufferView":43,
			"componentType":5126,
			"count":60,
			"type":"VEC3"
		},
		{
			"bufferView":44,
			"componentType":5126,
			"count":60,
			"type":"VEC4"
		},
		{
			"bufferView":45,
			"componentType":5126,
			"count":60,
			"type":"VEC3"
		},
		{
			"bufferView":46,
			"componentType":5126,
			"count":60,
			"type":"VEC3"
		},
		{
			"bufferView":47,
			"componentType":5126,
			"count":60,
			"type":"VEC4"
		},
		{
			"bufferView":48,
			"componentType":5126,
			"count":60,
			"type":"VEC3"
		},
		{
			"bufferView":49,
			"componentType":5126,
			"count":60,
			"type":"VEC3"
		},
		{
			"bufferView":50,
			"componentType":5126,
			"count":60,
			"type":"VEC4"
		},
		{
			"bufferView":51,
			"componentType":5126,
			"count":60,
			"type":"VEC3"
		},
		{
			"bufferView":52,
			"componentType":5126,
			"count":60,
			"type":"VEC3"
		},
		{
			"bufferView":53,
			"componentType":5126,
			"count":60,
			"type":"VEC4"
		},
		{
			"bufferView":54,
			"componentType":5126,
			"count":60,
			"type":"VEC3"
		}
	],
	"bufferViews":[
		{
			"buffer":0,
			"byteLength":4800,
			"byteOffset":0,
			"target":34962
		},
		{
			"buffer":0,
			"byteLength":3200,
			"byteOffset":4800,
			"target":34962
		},
		{
			"buffer":0,
			"byteLength":4800,
			"byteOffset":8000,
			"target":34962
		},
		{
			"buffer":0,
			"byteLength":1600,
			"byteOffset":12800,
			"target":34962
		},
		{
			"buffer":0,
			"byteLength":6400,
			"byteOffset":14400,
			"target":34962
		},
		{
			"buffer":0,
			"byteLength":2808,
			"byteOffset":20800,
			"target":34963
		},
		{
			"buffer":0,
			"byteLength":640,
			"byteOffset":23608
		},
		{
			"buffer":0,
			"byteLength":254696,
			"byteOffset":24248,
			"target":34962
		},
		{
			"buffer":0,
			"byteLength":382044,
			"byteOffset":278944,
			"target":34962
		},
		{
			"buffer":0,
			"byteLength":254696,
			"byteOffset":660988,
			"target":34962
		},
		{
			"buffer":0,
			"byteLength":382044,
			"byteOffset":915684,
			"target":34962
		},
		{
			"buffer":0,
			"byteLength":69120,
			"byteOffset":1297728,
			"target":34963
		},
		{
			"buffer":0,
			"byteLength":257480,
			"byteOffset":1366848,
			"target":34962
		},
		{
			"buffer":0,
			"byteLength":386220,
			"byteOffset":1624328,
			"target":34962
		},
		{
			"buffer":0,
			"byteLength":257480,
			"byteOffset":2010548,
			"target":34962
		},
		{
			"buffer":0,
			"byteLength":386220,
			"byteOffset":2268028,
			"target":34962
		},
		{
			"buffer":0,
			"byteLength":69120,
			"byteOffset":2654248,
			"target":34963
		},
		{
			"buffer":0,
			"byteLength":5124,
			"byteOffset":2723368,
			"target":34962
		},
		{
			"buffer":0,
			"byteLength":3416,
			"byteOffset":2728492,
			"target":34962
		},
		{
			"buffer":0,
			"byteLength":5124,
			"byteOffset":2731908,
			"target":34962
		},
		{
			"buffer":0,
			"byteLength":4416,
			"byteOffset":2737032,
			"target":34963
		},
		{
			"buffer":0,
			"byteLength":5124,
			"byteOffset":2741448,
			"target":34962
		},
		{
			"buffer":0,
			"byteLength":3416,
			"byteOffset":2746572,
			"target":34962
		},
		{
			"buffer":0,
			"byteLength":5124,
			"byteOffset":2749988,
			"target":34962
		},
		{
			"buffer":0,
			"byteLength":240,
			"byteOffset":2755112
		},
		{
			"buffer":0,
			"byteLength":720,
			"byteOffset":2755352
		},
		{
			"buffer":0,
			"byteLength":960,
			"byteOffset":2756072
		},
		{
			"buffer":0,
			"byteLength":720,
			"byteOffset":2757032
		},
		{
			"buffer":0,
			"byteLength":720,
			"byteOffset":2757752
		},
		{
			"buffer":0,
			"byteLength":960,
			"byteOffset":2758472
		},
		{
			"buffer":0,
			"byteLength":720,
			"byteOffset":2759432
		},
		{
			"buffer":0,
			"byteLength":720,
			"byteOffset":2760152
		},
		{
			"buffer":0,
			"byteLength":960,
			"byteOffset":2760872
		},
		{
			"buffer":0,
			"byteLength":720,
			"byteOffset":2761832
		},
		{
			"buffer":0,
			"byteLength":720,
			"byteOffset":2762552
		},
		{
			"buffer":0,
			"byteLength":960,
			"byteOffset":2763272
		},
		{
			"buffer":0,
			"byteLength":720,
			"byteOffset":2764232
		},
		{
			"buffer":0,
			"byteLength":720,
			"byteOffset":2764952
		},
		{
			"buffer":0,
			"byteLength":960,
			"byteOffset":2765672
		},
		{
			"buffer":0,
			"byteLength":720,
			"byteOffset":2766632
		},
		{
			"buffer":0,
			"byteLength":720,
			"byteOffset":2767352
		},
		{
			"buffer":0,
			"byteLength":960,
			"byteOffset":2768072
		},
		{
			"buffer":0,
			"byteLength":720,
			"byteOffset":2769032
		},
		{
			"buffer":0,
			"byteLength":720,
			"byteOffset":2769752
		},
		{
			"buffer":0,
			"byteLength":960,
			"byteOffset":2770472
		},
		{
			"buffer":0,
			"byteLength":720,
			"byteOffset":2771432
		},
		{
			"buffer":0,
			"byteLength":720,
			"byteOffset":2772152
		},
		{
			"buffer":0,
			"byteLength":960,
			"byteOffset":2772872
		},
		{
			"buffer":0,
			"byteLength":720,
			"byteOffset":2773832
		},
		{
			"buffer":0,
			"byteLength":720,
			"byteOffset":2774552
		},
		{
			"buffer":0,
			"byteLength":960,
			"byteOffset":2775272
		},
		{
			"buffer":0,
			"byteLength":720,
			"byteOffset":2776232
		},
		{
			"buffer":0,
			"byteLength":720,
			"byteOffset":2776952
		},
		{
			"buffer":0,
			"byteLength":960,
			"byteOffset":2777672
		},
		{
			"buffer":0,
			"byteLength":720,
			"byteOffset":2778632
		}
	],
	"samplers":[
		{
			"magFilter":9729,
			"minFilter":9987
		}
	],
	"buffers":[
		{
			"byteLength":2779352,
			"uri":"GingerManAttack.bin"
		}
	]
}
