{
	"asset":{
		"generator":"Khronos glTF Blender I/O v4.3.47",
		"version":"2.0"
	},
	"scene":0,
	"scenes":[
		{
			"name":"Scene",
			"nodes":[
				7
			]
		}
	],
	"nodes":[
		{
			"name":"Bone.002.L",
			"rotation":[
				4.515658957870983e-08,
				4.484120808001535e-08,
				-0.49910616874694824,
				0.8665408492088318
			],
			"translation":[
				-2.0132715050635852e-08,
				1.3865047693252563,
				1.4210854715202004e-14
			]
		},
		{
			"children":[
				0
			],
			"name":"Bone.001.L",
			"rotation":[
				7.823358316727536e-08,
				-6.3749254763934e-08,
				-0.5188197493553162,
				0.8548836708068848
			],
			"scale":[
				1,
				1.0000001192092896,
				0.9999999403953552
			],
			"translation":[
				5.9604619906394873e-08,
				1.2180535793304443,
				2.220446049250313e-15
			]
		},
		{
			"children":[
				1
			],
			"name":"Bone.L",
			"rotation":[
				7.843785709837903e-08,
				3.704009188254531e-08,
				-0.8548836708068848,
				0.5188197493553162
			],
			"scale":[
				0.9999998211860657,
				0.9999998211860657,
				0.9999999403953552
			],
			"translation":[
				0.058862894773483276,
				0.05795121192932129,
				8.16452327967454e-08
			]
		},
		{
			"name":"Bone",
			"rotation":[
				-0.12443041056394577,
				0.8230029344558716,
				-0.5177463293075562,
				0.19779279828071594
			],
			"scale":[
				1,
				1.0000001192092896,
				1
			],
			"translation":[
				-7.460698725481052e-14,
				1.4863083362579346,
				2.4214523719479075e-08
			]
		},
		{
			"children":[
				3
			],
			"name":"Bone.L.002",
			"rotation":[
				-0.5339810252189636,
				-5.66728033390973e-08,
				1.0007770612219247e-07,
				0.8454964756965637
			],
			"scale":[
				1,
				1,
				0.9999998807907104
			],
			"translation":[
				0,
				1.2238459587097168,
				8.940698137394065e-08
			]
		},
		{
			"children":[
				4
			],
			"name":"Bone.L.001",
			"rotation":[
				-0.5932832360267639,
				0.3847271502017975,
				0.5932832956314087,
				0.3847271203994751
			],
			"scale":[
				1,
				1.0000001192092896,
				1
			],
			"translation":[
				0.058862894773483276,
				0.05795121192932129,
				8.16452327967454e-08
			]
		},
		{
			"mesh":0,
			"name":"\u30c8\u30fc\u30e9\u30b9",
			"skin":0
		},
		{
			"children":[
				6,
				2,
				5
			],
			"name":"\u30a2\u30fc\u30de\u30c1\u30e5\u30a2",
			"scale":[
				0.16889123618602753,
				0.16889123618602753,
				0.16889123618602753
			],
			"translation":[
				0,
				0.20525875687599182,
				0
			]
		}
	],
	"animations":[
		{
			"channels":[
				{
					"sampler":0,
					"target":{
						"node":2,
						"path":"translation"
					}
				},
				{
					"sampler":1,
					"target":{
						"node":2,
						"path":"rotation"
					}
				},
				{
					"sampler":2,
					"target":{
						"node":2,
						"path":"scale"
					}
				},
				{
					"sampler":3,
					"target":{
						"node":1,
						"path":"translation"
					}
				},
				{
					"sampler":4,
					"target":{
						"node":1,
						"path":"rotation"
					}
				},
				{
					"sampler":5,
					"target":{
						"node":1,
						"path":"scale"
					}
				},
				{
					"sampler":6,
					"target":{
						"node":0,
						"path":"translation"
					}
				},
				{
					"sampler":7,
					"target":{
						"node":0,
						"path":"rotation"
					}
				},
				{
					"sampler":8,
					"target":{
						"node":0,
						"path":"scale"
					}
				},
				{
					"sampler":9,
					"target":{
						"node":5,
						"path":"translation"
					}
				},
				{
					"sampler":10,
					"target":{
						"node":5,
						"path":"rotation"
					}
				},
				{
					"sampler":11,
					"target":{
						"node":5,
						"path":"scale"
					}
				},
				{
					"sampler":12,
					"target":{
						"node":4,
						"path":"translation"
					}
				},
				{
					"sampler":13,
					"target":{
						"node":4,
						"path":"rotation"
					}
				},
				{
					"sampler":14,
					"target":{
						"node":4,
						"path":"scale"
					}
				},
				{
					"sampler":15,
					"target":{
						"node":3,
						"path":"translation"
					}
				},
				{
					"sampler":16,
					"target":{
						"node":3,
						"path":"rotation"
					}
				},
				{
					"sampler":17,
					"target":{
						"node":3,
						"path":"scale"
					}
				}
			],
			"name":"\u30a2\u30fc\u30de\u30c1\u30e5\u30a2\u30a2\u30af\u30b7\u30e7\u30f3",
			"samplers":[
				{
					"input":13,
					"interpolation":"LINEAR",
					"output":14
				},
				{
					"input":13,
					"interpolation":"LINEAR",
					"output":15
				},
				{
					"input":16,
					"interpolation":"STEP",
					"output":17
				},
				{
					"input":16,
					"interpolation":"LINEAR",
					"output":18
				},
				{
					"input":16,
					"interpolation":"LINEAR",
					"output":19
				},
				{
					"input":16,
					"interpolation":"STEP",
					"output":20
				},
				{
					"input":16,
					"interpolation":"LINEAR",
					"output":21
				},
				{
					"input":16,
					"interpolation":"LINEAR",
					"output":22
				},
				{
					"input":16,
					"interpolation":"STEP",
					"output":23
				},
				{
					"input":13,
					"interpolation":"LINEAR",
					"output":24
				},
				{
					"input":13,
					"interpolation":"LINEAR",
					"output":25
				},
				{
					"input":16,
					"interpolation":"STEP",
					"output":26
				},
				{
					"input":16,
					"interpolation":"LINEAR",
					"output":27
				},
				{
					"input":16,
					"interpolation":"LINEAR",
					"output":28
				},
				{
					"input":16,
					"interpolation":"LINEAR",
					"output":29
				},
				{
					"input":16,
					"interpolation":"LINEAR",
					"output":30
				},
				{
					"input":16,
					"interpolation":"LINEAR",
					"output":31
				},
				{
					"input":16,
					"interpolation":"STEP",
					"output":32
				}
			]
		}
	],
	"materials":[
		{
			"doubleSided":true,
			"name":"donut",
			"pbrMetallicRoughness":{
				"baseColorTexture":{
					"index":0
				},
				"metallicFactor":0,
				"roughnessFactor":0.5
			}
		},
		{
			"doubleSided":true,
			"name":"\u30de\u30c6\u30ea\u30a2\u30eb",
			"pbrMetallicRoughness":{
				"baseColorTexture":{
					"index":1
				},
				"metallicFactor":0,
				"roughnessFactor":0.5
			}
		}
	],
	"meshes":[
		{
			"name":"\u30c8\u30fc\u30e9\u30b9",
			"primitives":[
				{
					"attributes":{
						"POSITION":0,
						"NORMAL":1,
						"TEXCOORD_0":2,
						"JOINTS_0":3,
						"WEIGHTS_0":4
					},
					"indices":5,
					"material":0
				},
				{
					"attributes":{
						"POSITION":6,
						"NORMAL":7,
						"TEXCOORD_0":8,
						"JOINTS_0":9,
						"WEIGHTS_0":10
					},
					"indices":11,
					"material":1
				}
			]
		}
	],
	"textures":[
		{
			"sampler":0,
			"source":0
		},
		{
			"sampler":0,
			"source":1
		}
	],
	"images":[
		{
			"mimeType":"image/png",
			"name":"Donut.png",
			"uri":"Donut.png"
		},
		{
			"mimeType":"image/png",
			"name":"Icing.png",
			"uri":"Icing.png"
		}
	],
	"skins":[
		{
			"inverseBindMatrices":12,
			"joints":[
				2,
				1,
				0,
				5,
				4,
				3
			],
			"name":"\u30a2\u30fc\u30de\u30c1\u30e5\u30a2"
		}
	],
	"accessors":[
		{
			"bufferView":0,
			"componentType":5126,
			"count":86016,
			"max":[
				0.29685381054878235,
				0.29685378074645996,
				0.11091947555541992
			],
			"min":[
				-0.29685384035110474,
				-0.29685384035110474,
				-0.08797456324100494
			],
			"type":"VEC3"
		},
		{
			"bufferView":1,
			"componentType":5126,
			"count":86016,
			"type":"VEC3"
		},
		{
			"bufferView":2,
			"componentType":5126,
			"count":86016,
			"type":"VEC2"
		},
		{
			"bufferView":3,
			"componentType":5121,
			"count":86016,
			"type":"VEC4"
		},
		{
			"bufferView":4,
			"componentType":5126,
			"count":86016,
			"type":"VEC4"
		},
		{
			"bufferView":5,
			"componentType":5125,
			"count":129024,
			"type":"SCALAR"
		},
		{
			"bufferView":6,
			"componentType":5126,
			"count":17920,
			"max":[
				0.30160754919052124,
				0.30129486322402954,
				0.13302190601825714
			],
			"min":[
				-0.2931046783924103,
				-0.29981282353401184,
				0.030314339324831963
			],
			"type":"VEC3"
		},
		{
			"bufferView":7,
			"componentType":5126,
			"count":17920,
			"type":"VEC3"
		},
		{
			"bufferView":8,
			"componentType":5126,
			"count":17920,
			"type":"VEC2"
		},
		{
			"bufferView":9,
			"componentType":5121,
			"count":17920,
			"type":"VEC4"
		},
		{
			"bufferView":10,
			"componentType":5126,
			"count":17920,
			"type":"VEC4"
		},
		{
			"bufferView":11,
			"componentType":5123,
			"count":26880,
			"type":"SCALAR"
		},
		{
			"bufferView":12,
			"componentType":5126,
			"count":6,
			"type":"MAT4"
		},
		{
			"bufferView":13,
			"componentType":5126,
			"count":60,
			"max":[
				2.5
			],
			"min":[
				0.041666666666666664
			],
			"type":"SCALAR"
		},
		{
			"bufferView":14,
			"componentType":5126,
			"count":60,
			"type":"VEC3"
		},
		{
			"bufferView":15,
			"componentType":5126,
			"count":60,
			"type":"VEC4"
		},
		{
			"bufferView":16,
			"componentType":5126,
			"count":2,
			"max":[
				2.5
			],
			"min":[
				0.041666666666666664
			],
			"type":"SCALAR"
		},
		{
			"bufferView":17,
			"componentType":5126,
			"count":2,
			"type":"VEC3"
		},
		{
			"bufferView":18,
			"componentType":5126,
			"count":2,
			"type":"VEC3"
		},
		{
			"bufferView":19,
			"componentType":5126,
			"count":2,
			"type":"VEC4"
		},
		{
			"bufferView":20,
			"componentType":5126,
			"count":2,
			"type":"VEC3"
		},
		{
			"bufferView":21,
			"componentType":5126,
			"count":2,
			"type":"VEC3"
		},
		{
			"bufferView":22,
			"componentType":5126,
			"count":2,
			"type":"VEC4"
		},
		{
			"bufferView":23,
			"componentType":5126,
			"count":2,
			"type":"VEC3"
		},
		{
			"bufferView":24,
			"componentType":5126,
			"count":60,
			"type":"VEC3"
		},
		{
			"bufferView":25,
			"componentType":5126,
			"count":60,
			"type":"VEC4"
		},
		{
			"bufferView":26,
			"componentType":5126,
			"count":2,
			"type":"VEC3"
		},
		{
			"bufferView":27,
			"componentType":5126,
			"count":2,
			"type":"VEC3"
		},
		{
			"bufferView":28,
			"componentType":5126,
			"count":2,
			"type":"VEC4"
		},
		{
			"bufferView":29,
			"componentType":5126,
			"count":2,
			"type":"VEC3"
		},
		{
			"bufferView":30,
			"componentType":5126,
			"count":2,
			"type":"VEC3"
		},
		{
			"bufferView":31,
			"componentType":5126,
			"count":2,
			"type":"VEC4"
		},
		{
			"bufferView":32,
			"componentType":5126,
			"count":2,
			"type":"VEC3"
		}
	],
	"bufferViews":[
		{
			"buffer":0,
			"byteLength":1032192,
			"byteOffset":0,
			"target":34962
		},
		{
			"buffer":0,
			"byteLength":1032192,
			"byteOffset":1032192,
			"target":34962
		},
		{
			"buffer":0,
			"byteLength":688128,
			"byteOffset":2064384,
			"target":34962
		},
		{
			"buffer":0,
			"byteLength":344064,
			"byteOffset":2752512,
			"target":34962
		},
		{
			"buffer":0,
			"byteLength":1376256,
			"byteOffset":3096576,
			"target":34962
		},
		{
			"buffer":0,
			"byteLength":516096,
			"byteOffset":4472832,
			"target":34963
		},
		{
			"buffer":0,
			"byteLength":215040,
			"byteOffset":4988928,
			"target":34962
		},
		{
			"buffer":0,
			"byteLength":215040,
			"byteOffset":5203968,
			"target":34962
		},
		{
			"buffer":0,
			"byteLength":143360,
			"byteOffset":5419008,
			"target":34962
		},
		{
			"buffer":0,
			"byteLength":71680,
			"byteOffset":5562368,
			"target":34962
		},
		{
			"buffer":0,
			"byteLength":286720,
			"byteOffset":5634048,
			"target":34962
		},
		{
			"buffer":0,
			"byteLength":53760,
			"byteOffset":5920768,
			"target":34963
		},
		{
			"buffer":0,
			"byteLength":384,
			"byteOffset":5974528
		},
		{
			"buffer":0,
			"byteLength":240,
			"byteOffset":5974912
		},
		{
			"buffer":0,
			"byteLength":720,
			"byteOffset":5975152
		},
		{
			"buffer":0,
			"byteLength":960,
			"byteOffset":5975872
		},
		{
			"buffer":0,
			"byteLength":8,
			"byteOffset":5976832
		},
		{
			"buffer":0,
			"byteLength":24,
			"byteOffset":5976840
		},
		{
			"buffer":0,
			"byteLength":24,
			"byteOffset":5976864
		},
		{
			"buffer":0,
			"byteLength":32,
			"byteOffset":5976888
		},
		{
			"buffer":0,
			"byteLength":24,
			"byteOffset":5976920
		},
		{
			"buffer":0,
			"byteLength":24,
			"byteOffset":5976944
		},
		{
			"buffer":0,
			"byteLength":32,
			"byteOffset":5976968
		},
		{
			"buffer":0,
			"byteLength":24,
			"byteOffset":5977000
		},
		{
			"buffer":0,
			"byteLength":720,
			"byteOffset":5977024
		},
		{
			"buffer":0,
			"byteLength":960,
			"byteOffset":5977744
		},
		{
			"buffer":0,
			"byteLength":24,
			"byteOffset":5978704
		},
		{
			"buffer":0,
			"byteLength":24,
			"byteOffset":5978728
		},
		{
			"buffer":0,
			"byteLength":32,
			"byteOffset":5978752
		},
		{
			"buffer":0,
			"byteLength":24,
			"byteOffset":5978784
		},
		{
			"buffer":0,
			"byteLength":24,
			"byteOffset":5978808
		},
		{
			"buffer":0,
			"byteLength":32,
			"byteOffset":5978832
		},
		{
			"buffer":0,
			"byteLength":24,
			"byteOffset":5978864
		}
	],
	"samplers":[
		{
			"magFilter":9729,
			"minFilter":9987
		}
	],
	"buffers":[
		{
			"byteLength":5978888,
			"uri":"DonutAttack1.5.bin"
		}
	]
}
