{
	"asset":{
		"generator":"Khronos glTF Blender I/O v4.1.63",
		"version":"2.0"
	},
	"scene":0,
	"scenes":[
		{
			"name":"Scene",
			"nodes":[
				13
			]
		}
	],
	"nodes":[
		{
			"name":"Bone",
			"rotation":[
				-8.557135444675623e-09,
				1.4901161193847656e-08,
				-2.928983286277023e-16,
				1
			]
		},
		{
			"name":"Bone.002.L",
			"rotation":[
				0.049808040261268616,
				3.199070874870813e-08,
				8.88679885235888e-09,
				0.998758852481842
			],
			"scale":[
				1,
				0.9999998807907104,
				1
			],
			"translation":[
				-2.142996891052462e-11,
				0.7161573767662048,
				-2.026790753006935e-07
			]
		},
		{
			"children":[
				1
			],
			"name":"Bone.001.L",
			"rotation":[
				-0.5550042986869812,
				-0.4381442070007324,
				-0.5550041198730469,
				0.43814417719841003
			],
			"scale":[
				0.9999999403953552,
				0.9999999403953552,
				1
			]
		},
		{
			"name":"Bone.005.L",
			"rotation":[
				-0.40232428908348083,
				1.1579129477468086e-07,
				-4.6202330850064754e-06,
				0.9154972434043884
			],
			"scale":[
				0.9999999403953552,
				1,
				1
			],
			"translation":[
				-2.8911017579957843e-08,
				0.5319566130638123,
				-9.918585419654846e-08
			]
		},
		{
			"children":[
				3
			],
			"name":"Bone.004.L",
			"rotation":[
				0.4443861246109009,
				6.855434264707583e-08,
				5.013397640141193e-06,
				0.8958353400230408
			],
			"scale":[
				1,
				0.9999999403953552,
				1
			],
			"translation":[
				-2.9358488973230124e-08,
				1.2903861999511719,
				4.6566128730773926e-09
			]
		},
		{
			"name":"Bone.005.R",
			"rotation":[
				-0.4023244082927704,
				-1.1820990408750731e-07,
				4.622407232091064e-06,
				0.9154971837997437
			],
			"scale":[
				0.9999999403953552,
				0.9999998211860657,
				0.9999999403953552
			],
			"translation":[
				1.7162165022455156e-08,
				0.5319566130638123,
				-1.257285475730896e-07
			]
		},
		{
			"children":[
				5
			],
			"name":"Bone.004.R",
			"rotation":[
				-3.8611219110862294e-08,
				0.890315592288971,
				-0.45534399151802063,
				1.0048011063190643e-05
			],
			"scale":[
				1,
				1.0000001192092896,
				1
			],
			"translation":[
				3.5516129059942614e-07,
				1.289997935295105,
				-0.03166121244430542
			]
		},
		{
			"children":[
				4,
				6
			],
			"name":"Bone.003",
			"rotation":[
				-0.7070894837379456,
				-0.004337911028414965,
				-0.7070974707603455,
				0.004337766207754612
			],
			"scale":[
				1,
				0.9999998807907104,
				0.9999998807907104
			]
		},
		{
			"name":"Bone.002.R.002",
			"rotation":[
				-0.005535699427127838,
				0.00018385871953796595,
				-0.006685095373541117,
				0.999962329864502
			],
			"scale":[
				0.9999999403953552,
				0.9999998807907104,
				0.9999999403953552
			],
			"translation":[
				-2.7939677238464355e-08,
				1.40181303024292,
				5.103647708892822e-07
			]
		},
		{
			"children":[
				8
			],
			"name":"Bone.002.R.001",
			"rotation":[
				0.7488792538642883,
				0.00018928979989141226,
				0.013684077188372612,
				0.6625651121139526
			],
			"scale":[
				0.9999999403953552,
				1.0000001192092896,
				1
			],
			"translation":[
				2.596012649291879e-08,
				1.4277393817901611,
				-3.403984010219574e-07
			]
		},
		{
			"children":[
				9
			],
			"name":"Bone.002.R",
			"rotation":[
				0.044784124940633774,
				-7.817336467041969e-08,
				-6.481190251150792e-09,
				0.9989967346191406
			],
			"translation":[
				-2.422203237983922e-08,
				0.7161574363708496,
				3.4458935260772705e-08
			]
		},
		{
			"children":[
				10
			],
			"name":"Bone.001.R",
			"rotation":[
				-0.5550042986869812,
				0.4381442070007324,
				0.5550040602684021,
				0.43814417719841003
			],
			"scale":[
				0.9999998807907104,
				0.9999999403953552,
				1
			]
		},
		{
			"mesh":0,
			"name":"\u5186",
			"skin":0
		},
		{
			"children":[
				12,
				0,
				2,
				7,
				11
			],
			"name":"\u30a2\u30fc\u30de\u30c1\u30e5\u30a2.001",
			"rotation":[
				0,
				0.04310092329978943,
				0,
				0.9990708231925964
			],
			"translation":[
				0,
				3.4541738033294678,
				0.11821048706769943
			]
		}
	],
	"animations":[
		{
			"channels":[
				{
					"sampler":0,
					"target":{
						"node":0,
						"path":"translation"
					}
				},
				{
					"sampler":1,
					"target":{
						"node":0,
						"path":"rotation"
					}
				},
				{
					"sampler":2,
					"target":{
						"node":0,
						"path":"scale"
					}
				},
				{
					"sampler":3,
					"target":{
						"node":2,
						"path":"translation"
					}
				},
				{
					"sampler":4,
					"target":{
						"node":2,
						"path":"rotation"
					}
				},
				{
					"sampler":5,
					"target":{
						"node":2,
						"path":"scale"
					}
				},
				{
					"sampler":6,
					"target":{
						"node":1,
						"path":"translation"
					}
				},
				{
					"sampler":7,
					"target":{
						"node":1,
						"path":"rotation"
					}
				},
				{
					"sampler":8,
					"target":{
						"node":1,
						"path":"scale"
					}
				},
				{
					"sampler":9,
					"target":{
						"node":7,
						"path":"translation"
					}
				},
				{
					"sampler":10,
					"target":{
						"node":7,
						"path":"rotation"
					}
				},
				{
					"sampler":11,
					"target":{
						"node":7,
						"path":"scale"
					}
				},
				{
					"sampler":12,
					"target":{
						"node":4,
						"path":"translation"
					}
				},
				{
					"sampler":13,
					"target":{
						"node":4,
						"path":"rotation"
					}
				},
				{
					"sampler":14,
					"target":{
						"node":4,
						"path":"scale"
					}
				},
				{
					"sampler":15,
					"target":{
						"node":3,
						"path":"translation"
					}
				},
				{
					"sampler":16,
					"target":{
						"node":3,
						"path":"rotation"
					}
				},
				{
					"sampler":17,
					"target":{
						"node":3,
						"path":"scale"
					}
				},
				{
					"sampler":18,
					"target":{
						"node":6,
						"path":"translation"
					}
				},
				{
					"sampler":19,
					"target":{
						"node":6,
						"path":"rotation"
					}
				},
				{
					"sampler":20,
					"target":{
						"node":6,
						"path":"scale"
					}
				},
				{
					"sampler":21,
					"target":{
						"node":5,
						"path":"translation"
					}
				},
				{
					"sampler":22,
					"target":{
						"node":5,
						"path":"rotation"
					}
				},
				{
					"sampler":23,
					"target":{
						"node":5,
						"path":"scale"
					}
				},
				{
					"sampler":24,
					"target":{
						"node":11,
						"path":"translation"
					}
				},
				{
					"sampler":25,
					"target":{
						"node":11,
						"path":"rotation"
					}
				},
				{
					"sampler":26,
					"target":{
						"node":11,
						"path":"scale"
					}
				},
				{
					"sampler":27,
					"target":{
						"node":10,
						"path":"translation"
					}
				},
				{
					"sampler":28,
					"target":{
						"node":10,
						"path":"rotation"
					}
				},
				{
					"sampler":29,
					"target":{
						"node":10,
						"path":"scale"
					}
				},
				{
					"sampler":30,
					"target":{
						"node":9,
						"path":"translation"
					}
				},
				{
					"sampler":31,
					"target":{
						"node":9,
						"path":"rotation"
					}
				},
				{
					"sampler":32,
					"target":{
						"node":9,
						"path":"scale"
					}
				},
				{
					"sampler":33,
					"target":{
						"node":8,
						"path":"translation"
					}
				},
				{
					"sampler":34,
					"target":{
						"node":8,
						"path":"rotation"
					}
				},
				{
					"sampler":35,
					"target":{
						"node":8,
						"path":"scale"
					}
				},
				{
					"sampler":36,
					"target":{
						"node":13,
						"path":"translation"
					}
				},
				{
					"sampler":37,
					"target":{
						"node":13,
						"path":"rotation"
					}
				},
				{
					"sampler":38,
					"target":{
						"node":13,
						"path":"scale"
					}
				}
			],
			"name":"\u30a2\u30fc\u30de\u30c1\u30e5\u30a2.001Action",
			"samplers":[
				{
					"input":25,
					"interpolation":"STEP",
					"output":26
				},
				{
					"input":27,
					"interpolation":"LINEAR",
					"output":28
				},
				{
					"input":25,
					"interpolation":"STEP",
					"output":29
				},
				{
					"input":25,
					"interpolation":"STEP",
					"output":30
				},
				{
					"input":27,
					"interpolation":"LINEAR",
					"output":31
				},
				{
					"input":25,
					"interpolation":"STEP",
					"output":32
				},
				{
					"input":25,
					"interpolation":"LINEAR",
					"output":33
				},
				{
					"input":27,
					"interpolation":"LINEAR",
					"output":34
				},
				{
					"input":25,
					"interpolation":"LINEAR",
					"output":35
				},
				{
					"input":25,
					"interpolation":"STEP",
					"output":36
				},
				{
					"input":27,
					"interpolation":"LINEAR",
					"output":37
				},
				{
					"input":25,
					"interpolation":"STEP",
					"output":38
				},
				{
					"input":25,
					"interpolation":"LINEAR",
					"output":39
				},
				{
					"input":25,
					"interpolation":"LINEAR",
					"output":40
				},
				{
					"input":25,
					"interpolation":"STEP",
					"output":41
				},
				{
					"input":25,
					"interpolation":"LINEAR",
					"output":42
				},
				{
					"input":25,
					"interpolation":"LINEAR",
					"output":43
				},
				{
					"input":25,
					"interpolation":"STEP",
					"output":44
				},
				{
					"input":25,
					"interpolation":"LINEAR",
					"output":45
				},
				{
					"input":27,
					"interpolation":"LINEAR",
					"output":46
				},
				{
					"input":25,
					"interpolation":"STEP",
					"output":47
				},
				{
					"input":25,
					"interpolation":"LINEAR",
					"output":48
				},
				{
					"input":25,
					"interpolation":"LINEAR",
					"output":49
				},
				{
					"input":25,
					"interpolation":"LINEAR",
					"output":50
				},
				{
					"input":25,
					"interpolation":"STEP",
					"output":51
				},
				{
					"input":27,
					"interpolation":"LINEAR",
					"output":52
				},
				{
					"input":25,
					"interpolation":"LINEAR",
					"output":53
				},
				{
					"input":25,
					"interpolation":"LINEAR",
					"output":54
				},
				{
					"input":27,
					"interpolation":"LINEAR",
					"output":55
				},
				{
					"input":25,
					"interpolation":"STEP",
					"output":56
				},
				{
					"input":25,
					"interpolation":"LINEAR",
					"output":57
				},
				{
					"input":25,
					"interpolation":"LINEAR",
					"output":58
				},
				{
					"input":25,
					"interpolation":"STEP",
					"output":59
				},
				{
					"input":25,
					"interpolation":"LINEAR",
					"output":60
				},
				{
					"input":25,
					"interpolation":"LINEAR",
					"output":61
				},
				{
					"input":25,
					"interpolation":"STEP",
					"output":62
				},
				{
					"input":25,
					"interpolation":"STEP",
					"output":63
				},
				{
					"input":25,
					"interpolation":"STEP",
					"output":64
				},
				{
					"input":25,
					"interpolation":"STEP",
					"output":65
				},
				{
					"input":66,
					"interpolation":"STEP",
					"output":67
				},
				{
					"input":66,
					"interpolation":"STEP",
					"output":68
				},
				{
					"input":66,
					"interpolation":"STEP",
					"output":69
				},
				{
					"input":66,
					"interpolation":"STEP",
					"output":70
				},
				{
					"input":66,
					"interpolation":"STEP",
					"output":71
				},
				{
					"input":66,
					"interpolation":"STEP",
					"output":72
				},
				{
					"input":66,
					"interpolation":"STEP",
					"output":73
				},
				{
					"input":66,
					"interpolation":"STEP",
					"output":74
				},
				{
					"input":66,
					"interpolation":"STEP",
					"output":75
				},
				{
					"input":66,
					"interpolation":"STEP",
					"output":76
				},
				{
					"input":66,
					"interpolation":"STEP",
					"output":77
				},
				{
					"input":66,
					"interpolation":"STEP",
					"output":78
				},
				{
					"input":66,
					"interpolation":"STEP",
					"output":79
				},
				{
					"input":66,
					"interpolation":"STEP",
					"output":80
				},
				{
					"input":66,
					"interpolation":"STEP",
					"output":81
				},
				{
					"input":66,
					"interpolation":"STEP",
					"output":82
				},
				{
					"input":66,
					"interpolation":"STEP",
					"output":83
				},
				{
					"input":66,
					"interpolation":"STEP",
					"output":84
				},
				{
					"input":66,
					"interpolation":"STEP",
					"output":85
				},
				{
					"input":66,
					"interpolation":"STEP",
					"output":86
				},
				{
					"input":66,
					"interpolation":"STEP",
					"output":87
				},
				{
					"input":66,
					"interpolation":"STEP",
					"output":88
				},
				{
					"input":66,
					"interpolation":"STEP",
					"output":89
				},
				{
					"input":66,
					"interpolation":"STEP",
					"output":90
				},
				{
					"input":66,
					"interpolation":"STEP",
					"output":91
				},
				{
					"input":66,
					"interpolation":"STEP",
					"output":92
				},
				{
					"input":66,
					"interpolation":"STEP",
					"output":93
				},
				{
					"input":66,
					"interpolation":"STEP",
					"output":94
				},
				{
					"input":66,
					"interpolation":"STEP",
					"output":95
				},
				{
					"input":66,
					"interpolation":"STEP",
					"output":96
				},
				{
					"input":66,
					"interpolation":"STEP",
					"output":97
				},
				{
					"input":66,
					"interpolation":"STEP",
					"output":98
				},
				{
					"input":66,
					"interpolation":"STEP",
					"output":99
				},
				{
					"input":66,
					"interpolation":"STEP",
					"output":100
				},
				{
					"input":66,
					"interpolation":"STEP",
					"output":101
				},
				{
					"input":66,
					"interpolation":"STEP",
					"output":102
				}
			]
		}
	],
	"materials":[
		{
			"doubleSided":true,
			"name":"\u30de\u30c6\u30ea\u30a2\u30eb.008",
			"pbrMetallicRoughness":{
				"baseColorTexture":{
					"index":0
				},
				"metallicFactor":0,
				"roughnessFactor":0.5
			}
		},
		{
			"doubleSided":true,
			"name":"\u30de\u30c6\u30ea\u30a2\u30eb.009",
			"pbrMetallicRoughness":{
				"baseColorTexture":{
					"index":1
				},
				"metallicFactor":0,
				"roughnessFactor":0.5
			}
		},
		{
			"doubleSided":true,
			"name":"\u30de\u30c6\u30ea\u30a2\u30eb.005",
			"pbrMetallicRoughness":{
				"baseColorTexture":{
					"index":2
				},
				"metallicFactor":0,
				"roughnessFactor":0.5
			}
		},
		{
			"doubleSided":true,
			"name":"\u30de\u30c6\u30ea\u30a2\u30eb.006",
			"pbrMetallicRoughness":{
				"baseColorTexture":{
					"index":3
				},
				"metallicFactor":0,
				"roughnessFactor":0.5
			}
		}
	],
	"meshes":[
		{
			"name":"\u5186.001",
			"primitives":[
				{
					"attributes":{
						"POSITION":0,
						"NORMAL":1,
						"TEXCOORD_0":2,
						"JOINTS_0":3,
						"WEIGHTS_0":4
					},
					"indices":5,
					"material":0
				},
				{
					"attributes":{
						"POSITION":6,
						"NORMAL":7,
						"TEXCOORD_0":8,
						"JOINTS_0":9,
						"WEIGHTS_0":10
					},
					"indices":11,
					"material":1
				},
				{
					"attributes":{
						"POSITION":12,
						"NORMAL":13,
						"TEXCOORD_0":14,
						"JOINTS_0":15,
						"WEIGHTS_0":16
					},
					"indices":17,
					"material":2
				},
				{
					"attributes":{
						"POSITION":18,
						"NORMAL":19,
						"TEXCOORD_0":20,
						"JOINTS_0":21,
						"WEIGHTS_0":22
					},
					"indices":23,
					"material":3
				}
			]
		}
	],
	"textures":[
		{
			"sampler":0,
			"source":0
		},
		{
			"sampler":0,
			"source":1
		},
		{
			"sampler":0,
			"source":2
		},
		{
			"sampler":0,
			"source":3
		}
	],
	"images":[
		{
			"mimeType":"image/png",
			"name":"Body",
			"uri":"Body.png"
		},
		{
			"mimeType":"image/png",
			"name":"Botton",
			"uri":"Botton.png"
		},
		{
			"mimeType":"image/png",
			"name":"StickRed",
			"uri":"StickRed.png"
		},
		{
			"mimeType":"image/png",
			"name":"StickWhite",
			"uri":"StickWhite.png"
		}
	],
	"skins":[
		{
			"inverseBindMatrices":24,
			"joints":[
				0,
				2,
				1,
				7,
				4,
				3,
				6,
				5,
				11,
				10,
				9,
				8
			],
			"name":"\u30a2\u30fc\u30de\u30c1\u30e5\u30a2.001"
		}
	],
	"accessors":[
		{
			"bufferView":0,
			"componentType":5126,
			"count":4418,
			"max":[
				2.5058443546295166,
				5.715978622436523,
				0.14792372286319733
			],
			"min":[
				-2.5797951221466064,
				-0.0421910285949707,
				-0.7669888138771057
			],
			"type":"VEC3"
		},
		{
			"bufferView":1,
			"componentType":5126,
			"count":4418,
			"type":"VEC3"
		},
		{
			"bufferView":2,
			"componentType":5126,
			"count":4418,
			"type":"VEC2"
		},
		{
			"bufferView":3,
			"componentType":5121,
			"count":4418,
			"type":"VEC4"
		},
		{
			"bufferView":4,
			"componentType":5126,
			"count":4418,
			"type":"VEC4"
		},
		{
			"bufferView":5,
			"componentType":5123,
			"count":22464,
			"type":"SCALAR"
		},
		{
			"bufferView":6,
			"componentType":5126,
			"count":854,
			"max":[
				0.08048747479915619,
				3.3025834560394287,
				-0.5152469873428345
			],
			"min":[
				-0.202520489692688,
				2.1406500339508057,
				-0.7380114197731018
			],
			"type":"VEC3"
		},
		{
			"bufferView":7,
			"componentType":5126,
			"count":854,
			"type":"VEC3"
		},
		{
			"bufferView":8,
			"componentType":5126,
			"count":854,
			"type":"VEC2"
		},
		{
			"bufferView":9,
			"componentType":5121,
			"count":854,
			"type":"VEC4"
		},
		{
			"bufferView":10,
			"componentType":5126,
			"count":854,
			"type":"VEC4"
		},
		{
			"bufferView":11,
			"componentType":5123,
			"count":4416,
			"type":"SCALAR"
		},
		{
			"bufferView":12,
			"componentType":5126,
			"count":32153,
			"max":[
				-2.131697654724121,
				6.445254325866699,
				-0.16872873902320862
			],
			"min":[
				-3.584084987640381,
				1.753346562385559,
				-0.5107710957527161
			],
			"type":"VEC3"
		},
		{
			"bufferView":13,
			"componentType":5126,
			"count":32153,
			"type":"VEC3"
		},
		{
			"bufferView":14,
			"componentType":5126,
			"count":32153,
			"type":"VEC2"
		},
		{
			"bufferView":15,
			"componentType":5121,
			"count":32153,
			"type":"VEC4"
		},
		{
			"bufferView":16,
			"componentType":5126,
			"count":32153,
			"type":"VEC4"
		},
		{
			"bufferView":17,
			"componentType":5123,
			"count":34560,
			"type":"SCALAR"
		},
		{
			"bufferView":18,
			"componentType":5126,
			"count":32433,
			"max":[
				-2.131697654724121,
				6.414823532104492,
				-0.16872873902320862
			],
			"min":[
				-3.606694459915161,
				1.9320777654647827,
				-0.5107710957527161
			],
			"type":"VEC3"
		},
		{
			"bufferView":19,
			"componentType":5126,
			"count":32433,
			"type":"VEC3"
		},
		{
			"bufferView":20,
			"componentType":5126,
			"count":32433,
			"type":"VEC2"
		},
		{
			"bufferView":21,
			"componentType":5121,
			"count":32433,
			"type":"VEC4"
		},
		{
			"bufferView":22,
			"componentType":5126,
			"count":32433,
			"type":"VEC4"
		},
		{
			"bufferView":23,
			"componentType":5123,
			"count":34560,
			"type":"SCALAR"
		},
		{
			"bufferView":24,
			"componentType":5126,
			"count":12,
			"type":"MAT4"
		},
		{
			"bufferView":25,
			"componentType":5126,
			"count":2,
			"max":[
				2.5
			],
			"min":[
				0
			],
			"type":"SCALAR"
		},
		{
			"bufferView":26,
			"componentType":5126,
			"count":2,
			"type":"VEC3"
		},
		{
			"bufferView":27,
			"componentType":5126,
			"count":61,
			"max":[
				2.5
			],
			"min":[
				0
			],
			"type":"SCALAR"
		},
		{
			"bufferView":28,
			"componentType":5126,
			"count":61,
			"type":"VEC4"
		},
		{
			"bufferView":29,
			"componentType":5126,
			"count":2,
			"type":"VEC3"
		},
		{
			"bufferView":30,
			"componentType":5126,
			"count":2,
			"type":"VEC3"
		},
		{
			"bufferView":31,
			"componentType":5126,
			"count":61,
			"type":"VEC4"
		},
		{
			"bufferView":32,
			"componentType":5126,
			"count":2,
			"type":"VEC3"
		},
		{
			"bufferView":33,
			"componentType":5126,
			"count":2,
			"type":"VEC3"
		},
		{
			"bufferView":34,
			"componentType":5126,
			"count":61,
			"type":"VEC4"
		},
		{
			"bufferView":35,
			"componentType":5126,
			"count":2,
			"type":"VEC3"
		},
		{
			"bufferView":36,
			"componentType":5126,
			"count":2,
			"type":"VEC3"
		},
		{
			"bufferView":37,
			"componentType":5126,
			"count":61,
			"type":"VEC4"
		},
		{
			"bufferView":38,
			"componentType":5126,
			"count":2,
			"type":"VEC3"
		},
		{
			"bufferView":39,
			"componentType":5126,
			"count":2,
			"type":"VEC3"
		},
		{
			"bufferView":40,
			"componentType":5126,
			"count":2,
			"type":"VEC4"
		},
		{
			"bufferView":41,
			"componentType":5126,
			"count":2,
			"type":"VEC3"
		},
		{
			"bufferView":42,
			"componentType":5126,
			"count":2,
			"type":"VEC3"
		},
		{
			"bufferView":43,
			"componentType":5126,
			"count":2,
			"type":"VEC4"
		},
		{
			"bufferView":44,
			"componentType":5126,
			"count":2,
			"type":"VEC3"
		},
		{
			"bufferView":45,
			"componentType":5126,
			"count":2,
			"type":"VEC3"
		},
		{
			"bufferView":46,
			"componentType":5126,
			"count":61,
			"type":"VEC4"
		},
		{
			"bufferView":47,
			"componentType":5126,
			"count":2,
			"type":"VEC3"
		},
		{
			"bufferView":48,
			"componentType":5126,
			"count":2,
			"type":"VEC3"
		},
		{
			"bufferView":49,
			"componentType":5126,
			"count":2,
			"type":"VEC4"
		},
		{
			"bufferView":50,
			"componentType":5126,
			"count":2,
			"type":"VEC3"
		},
		{
			"bufferView":51,
			"componentType":5126,
			"count":2,
			"type":"VEC3"
		},
		{
			"bufferView":52,
			"componentType":5126,
			"count":61,
			"type":"VEC4"
		},
		{
			"bufferView":53,
			"componentType":5126,
			"count":2,
			"type":"VEC3"
		},
		{
			"bufferView":54,
			"componentType":5126,
			"count":2,
			"type":"VEC3"
		},
		{
			"bufferView":55,
			"componentType":5126,
			"count":61,
			"type":"VEC4"
		},
		{
			"bufferView":56,
			"componentType":5126,
			"count":2,
			"type":"VEC3"
		},
		{
			"bufferView":57,
			"componentType":5126,
			"count":2,
			"type":"VEC3"
		},
		{
			"bufferView":58,
			"componentType":5126,
			"count":2,
			"type":"VEC4"
		},
		{
			"bufferView":59,
			"componentType":5126,
			"count":2,
			"type":"VEC3"
		},
		{
			"bufferView":60,
			"componentType":5126,
			"count":2,
			"type":"VEC3"
		},
		{
			"bufferView":61,
			"componentType":5126,
			"count":2,
			"type":"VEC4"
		},
		{
			"bufferView":62,
			"componentType":5126,
			"count":2,
			"type":"VEC3"
		},
		{
			"bufferView":63,
			"componentType":5126,
			"count":2,
			"type":"VEC3"
		},
		{
			"bufferView":64,
			"componentType":5126,
			"count":2,
			"type":"VEC4"
		},
		{
			"bufferView":65,
			"componentType":5126,
			"count":2,
			"type":"VEC3"
		},
		{
			"bufferView":66,
			"componentType":5126,
			"count":1,
			"max":[
				0
			],
			"min":[
				0
			],
			"type":"SCALAR"
		},
		{
			"bufferView":67,
			"componentType":5126,
			"count":1,
			"type":"VEC3"
		},
		{
			"bufferView":68,
			"componentType":5126,
			"count":1,
			"type":"VEC4"
		},
		{
			"bufferView":69,
			"componentType":5126,
			"count":1,
			"type":"VEC3"
		},
		{
			"bufferView":70,
			"componentType":5126,
			"count":1,
			"type":"VEC3"
		},
		{
			"bufferView":71,
			"componentType":5126,
			"count":1,
			"type":"VEC4"
		},
		{
			"bufferView":72,
			"componentType":5126,
			"count":1,
			"type":"VEC3"
		},
		{
			"bufferView":73,
			"componentType":5126,
			"count":1,
			"type":"VEC3"
		},
		{
			"bufferView":74,
			"componentType":5126,
			"count":1,
			"type":"VEC4"
		},
		{
			"bufferView":75,
			"componentType":5126,
			"count":1,
			"type":"VEC3"
		},
		{
			"bufferView":76,
			"componentType":5126,
			"count":1,
			"type":"VEC3"
		},
		{
			"bufferView":77,
			"componentType":5126,
			"count":1,
			"type":"VEC4"
		},
		{
			"bufferView":78,
			"componentType":5126,
			"count":1,
			"type":"VEC3"
		},
		{
			"bufferView":79,
			"componentType":5126,
			"count":1,
			"type":"VEC3"
		},
		{
			"bufferView":80,
			"componentType":5126,
			"count":1,
			"type":"VEC4"
		},
		{
			"bufferView":81,
			"componentType":5126,
			"count":1,
			"type":"VEC3"
		},
		{
			"bufferView":82,
			"componentType":5126,
			"count":1,
			"type":"VEC3"
		},
		{
			"bufferView":83,
			"componentType":5126,
			"count":1,
			"type":"VEC4"
		},
		{
			"bufferView":84,
			"componentType":5126,
			"count":1,
			"type":"VEC3"
		},
		{
			"bufferView":85,
			"componentType":5126,
			"count":1,
			"type":"VEC3"
		},
		{
			"bufferView":86,
			"componentType":5126,
			"count":1,
			"type":"VEC4"
		},
		{
			"bufferView":87,
			"componentType":5126,
			"count":1,
			"type":"VEC3"
		},
		{
			"bufferView":88,
			"componentType":5126,
			"count":1,
			"type":"VEC3"
		},
		{
			"bufferView":89,
			"componentType":5126,
			"count":1,
			"type":"VEC4"
		},
		{
			"bufferView":90,
			"componentType":5126,
			"count":1,
			"type":"VEC3"
		},
		{
			"bufferView":91,
			"componentType":5126,
			"count":1,
			"type":"VEC3"
		},
		{
			"bufferView":92,
			"componentType":5126,
			"count":1,
			"type":"VEC4"
		},
		{
			"bufferView":93,
			"componentType":5126,
			"count":1,
			"type":"VEC3"
		},
		{
			"bufferView":94,
			"componentType":5126,
			"count":1,
			"type":"VEC3"
		},
		{
			"bufferView":95,
			"componentType":5126,
			"count":1,
			"type":"VEC4"
		},
		{
			"bufferView":96,
			"componentType":5126,
			"count":1,
			"type":"VEC3"
		},
		{
			"bufferView":97,
			"componentType":5126,
			"count":1,
			"type":"VEC3"
		},
		{
			"bufferView":98,
			"componentType":5126,
			"count":1,
			"type":"VEC4"
		},
		{
			"bufferView":99,
			"componentType":5126,
			"count":1,
			"type":"VEC3"
		},
		{
			"bufferView":100,
			"componentType":5126,
			"count":1,
			"type":"VEC3"
		},
		{
			"bufferView":101,
			"componentType":5126,
			"count":1,
			"type":"VEC4"
		},
		{
			"bufferView":102,
			"componentType":5126,
			"count":1,
			"type":"VEC3"
		}
	],
	"bufferViews":[
		{
			"buffer":0,
			"byteLength":53016,
			"byteOffset":0,
			"target":34962
		},
		{
			"buffer":0,
			"byteLength":53016,
			"byteOffset":53016,
			"target":34962
		},
		{
			"buffer":0,
			"byteLength":35344,
			"byteOffset":106032,
			"target":34962
		},
		{
			"buffer":0,
			"byteLength":17672,
			"byteOffset":141376,
			"target":34962
		},
		{
			"buffer":0,
			"byteLength":70688,
			"byteOffset":159048,
			"target":34962
		},
		{
			"buffer":0,
			"byteLength":44928,
			"byteOffset":229736,
			"target":34963
		},
		{
			"buffer":0,
			"byteLength":10248,
			"byteOffset":274664,
			"target":34962
		},
		{
			"buffer":0,
			"byteLength":10248,
			"byteOffset":284912,
			"target":34962
		},
		{
			"buffer":0,
			"byteLength":6832,
			"byteOffset":295160,
			"target":34962
		},
		{
			"buffer":0,
			"byteLength":3416,
			"byteOffset":301992,
			"target":34962
		},
		{
			"buffer":0,
			"byteLength":13664,
			"byteOffset":305408,
			"target":34962
		},
		{
			"buffer":0,
			"byteLength":8832,
			"byteOffset":319072,
			"target":34963
		},
		{
			"buffer":0,
			"byteLength":385836,
			"byteOffset":327904,
			"target":34962
		},
		{
			"buffer":0,
			"byteLength":385836,
			"byteOffset":713740,
			"target":34962
		},
		{
			"buffer":0,
			"byteLength":257224,
			"byteOffset":1099576,
			"target":34962
		},
		{
			"buffer":0,
			"byteLength":128612,
			"byteOffset":1356800,
			"target":34962
		},
		{
			"buffer":0,
			"byteLength":514448,
			"byteOffset":1485412,
			"target":34962
		},
		{
			"buffer":0,
			"byteLength":69120,
			"byteOffset":1999860,
			"target":34963
		},
		{
			"buffer":0,
			"byteLength":389196,
			"byteOffset":2068980,
			"target":34962
		},
		{
			"buffer":0,
			"byteLength":389196,
			"byteOffset":2458176,
			"target":34962
		},
		{
			"buffer":0,
			"byteLength":259464,
			"byteOffset":2847372,
			"target":34962
		},
		{
			"buffer":0,
			"byteLength":129732,
			"byteOffset":3106836,
			"target":34962
		},
		{
			"buffer":0,
			"byteLength":518928,
			"byteOffset":3236568,
			"target":34962
		},
		{
			"buffer":0,
			"byteLength":69120,
			"byteOffset":3755496,
			"target":34963
		},
		{
			"buffer":0,
			"byteLength":768,
			"byteOffset":3824616
		},
		{
			"buffer":0,
			"byteLength":8,
			"byteOffset":3825384
		},
		{
			"buffer":0,
			"byteLength":24,
			"byteOffset":3825392
		},
		{
			"buffer":0,
			"byteLength":244,
			"byteOffset":3825416
		},
		{
			"buffer":0,
			"byteLength":976,
			"byteOffset":3825660
		},
		{
			"buffer":0,
			"byteLength":24,
			"byteOffset":3826636
		},
		{
			"buffer":0,
			"byteLength":24,
			"byteOffset":3826660
		},
		{
			"buffer":0,
			"byteLength":976,
			"byteOffset":3826684
		},
		{
			"buffer":0,
			"byteLength":24,
			"byteOffset":3827660
		},
		{
			"buffer":0,
			"byteLength":24,
			"byteOffset":3827684
		},
		{
			"buffer":0,
			"byteLength":976,
			"byteOffset":3827708
		},
		{
			"buffer":0,
			"byteLength":24,
			"byteOffset":3828684
		},
		{
			"buffer":0,
			"byteLength":24,
			"byteOffset":3828708
		},
		{
			"buffer":0,
			"byteLength":976,
			"byteOffset":3828732
		},
		{
			"buffer":0,
			"byteLength":24,
			"byteOffset":3829708
		},
		{
			"buffer":0,
			"byteLength":24,
			"byteOffset":3829732
		},
		{
			"buffer":0,
			"byteLength":32,
			"byteOffset":3829756
		},
		{
			"buffer":0,
			"byteLength":24,
			"byteOffset":3829788
		},
		{
			"buffer":0,
			"byteLength":24,
			"byteOffset":3829812
		},
		{
			"buffer":0,
			"byteLength":32,
			"byteOffset":3829836
		},
		{
			"buffer":0,
			"byteLength":24,
			"byteOffset":3829868
		},
		{
			"buffer":0,
			"byteLength":24,
			"byteOffset":3829892
		},
		{
			"buffer":0,
			"byteLength":976,
			"byteOffset":3829916
		},
		{
			"buffer":0,
			"byteLength":24,
			"byteOffset":3830892
		},
		{
			"buffer":0,
			"byteLength":24,
			"byteOffset":3830916
		},
		{
			"buffer":0,
			"byteLength":32,
			"byteOffset":3830940
		},
		{
			"buffer":0,
			"byteLength":24,
			"byteOffset":3830972
		},
		{
			"buffer":0,
			"byteLength":24,
			"byteOffset":3830996
		},
		{
			"buffer":0,
			"byteLength":976,
			"byteOffset":3831020
		},
		{
			"buffer":0,
			"byteLength":24,
			"byteOffset":3831996
		},
		{
			"buffer":0,
			"byteLength":24,
			"byteOffset":3832020
		},
		{
			"buffer":0,
			"byteLength":976,
			"byteOffset":3832044
		},
		{
			"buffer":0,
			"byteLength":24,
			"byteOffset":3833020
		},
		{
			"buffer":0,
			"byteLength":24,
			"byteOffset":3833044
		},
		{
			"buffer":0,
			"byteLength":32,
			"byteOffset":3833068
		},
		{
			"buffer":0,
			"byteLength":24,
			"byteOffset":3833100
		},
		{
			"buffer":0,
			"byteLength":24,
			"byteOffset":3833124
		},
		{
			"buffer":0,
			"byteLength":32,
			"byteOffset":3833148
		},
		{
			"buffer":0,
			"byteLength":24,
			"byteOffset":3833180
		},
		{
			"buffer":0,
			"byteLength":24,
			"byteOffset":3833204
		},
		{
			"buffer":0,
			"byteLength":32,
			"byteOffset":3833228
		},
		{
			"buffer":0,
			"byteLength":24,
			"byteOffset":3833260
		},
		{
			"buffer":0,
			"byteLength":4,
			"byteOffset":3833284
		},
		{
			"buffer":0,
			"byteLength":12,
			"byteOffset":3833288
		},
		{
			"buffer":0,
			"byteLength":16,
			"byteOffset":3833300
		},
		{
			"buffer":0,
			"byteLength":12,
			"byteOffset":3833316
		},
		{
			"buffer":0,
			"byteLength":12,
			"byteOffset":3833328
		},
		{
			"buffer":0,
			"byteLength":16,
			"byteOffset":3833340
		},
		{
			"buffer":0,
			"byteLength":12,
			"byteOffset":3833356
		},
		{
			"buffer":0,
			"byteLength":12,
			"byteOffset":3833368
		},
		{
			"buffer":0,
			"byteLength":16,
			"byteOffset":3833380
		},
		{
			"buffer":0,
			"byteLength":12,
			"byteOffset":3833396
		},
		{
			"buffer":0,
			"byteLength":12,
			"byteOffset":3833408
		},
		{
			"buffer":0,
			"byteLength":16,
			"byteOffset":3833420
		},
		{
			"buffer":0,
			"byteLength":12,
			"byteOffset":3833436
		},
		{
			"buffer":0,
			"byteLength":12,
			"byteOffset":3833448
		},
		{
			"buffer":0,
			"byteLength":16,
			"byteOffset":3833460
		},
		{
			"buffer":0,
			"byteLength":12,
			"byteOffset":3833476
		},
		{
			"buffer":0,
			"byteLength":12,
			"byteOffset":3833488
		},
		{
			"buffer":0,
			"byteLength":16,
			"byteOffset":3833500
		},
		{
			"buffer":0,
			"byteLength":12,
			"byteOffset":3833516
		},
		{
			"buffer":0,
			"byteLength":12,
			"byteOffset":3833528
		},
		{
			"buffer":0,
			"byteLength":16,
			"byteOffset":3833540
		},
		{
			"buffer":0,
			"byteLength":12,
			"byteOffset":3833556
		},
		{
			"buffer":0,
			"byteLength":12,
			"byteOffset":3833568
		},
		{
			"buffer":0,
			"byteLength":16,
			"byteOffset":3833580
		},
		{
			"buffer":0,
			"byteLength":12,
			"byteOffset":3833596
		},
		{
			"buffer":0,
			"byteLength":12,
			"byteOffset":3833608
		},
		{
			"buffer":0,
			"byteLength":16,
			"byteOffset":3833620
		},
		{
			"buffer":0,
			"byteLength":12,
			"byteOffset":3833636
		},
		{
			"buffer":0,
			"byteLength":12,
			"byteOffset":3833648
		},
		{
			"buffer":0,
			"byteLength":16,
			"byteOffset":3833660
		},
		{
			"buffer":0,
			"byteLength":12,
			"byteOffset":3833676
		},
		{
			"buffer":0,
			"byteLength":12,
			"byteOffset":3833688
		},
		{
			"buffer":0,
			"byteLength":16,
			"byteOffset":3833700
		},
		{
			"buffer":0,
			"byteLength":12,
			"byteOffset":3833716
		},
		{
			"buffer":0,
			"byteLength":12,
			"byteOffset":3833728
		},
		{
			"buffer":0,
			"byteLength":16,
			"byteOffset":3833740
		},
		{
			"buffer":0,
			"byteLength":12,
			"byteOffset":3833756
		}
	],
	"samplers":[
		{
			"magFilter":9729,
			"minFilter":9987
		}
	],
	"buffers":[
		{
			"byteLength":3833768,
			"uri":"GentlmanAttackEnd2.bin"
		}
	]
}
