{
	"asset":{
		"generator":"Khronos glTF Blender I/O v4.1.63",
		"version":"2.0"
	},
	"scene":0,
	"scenes":[
		{
			"name":"Scene",
			"nodes":[
				32
			]
		}
	],
	"nodes":[
		{
			"name":"Neck",
			"rotation":[
				-7.105427357601002e-15,
				0,
				0,
				1
			],
			"translation":[
				0,
				0.5146140456199646,
				-1.7763568394002505e-15
			]
		},
		{
			"name":"UnderLip.L.001",
			"rotation":[
				-0.005243928637355566,
				2.1623344892418572e-08,
				-5.502972655335725e-08,
				0.9999862909317017
			],
			"scale":[
				1,
				0.9999998807907104,
				0.9999998807907104
			],
			"translation":[
				4.172666123736235e-08,
				0.35664886236190796,
				1.8097523479809752e-11
			]
		},
		{
			"name":"UnderTooth.L.001",
			"rotation":[
				-0.005243963561952114,
				2.2356219986363612e-08,
				-1.0300144070995998e-09,
				0.9999862909317017
			],
			"scale":[
				1,
				1,
				0.9999998807907104
			],
			"translation":[
				4.691325106165323e-10,
				0.27657267451286316,
				-8.956941854876277e-09
			]
		},
		{
			"children":[
				2
			],
			"name":"UnderTooth.L",
			"rotation":[
				3.725290653733282e-08,
				-1.2191292420027366e-08,
				-5.387792256783541e-08,
				1
			],
			"scale":[
				1,
				0.9999999403953552,
				0.9999999403953552
			],
			"translation":[
				-0.06696188449859619,
				0.009501278400421143,
				0.07621708512306213
			]
		},
		{
			"children":[
				1,
				3
			],
			"name":"UnderLip.L",
			"rotation":[
				0.1858801543712616,
				-0.6822378039360046,
				0.18588025867938995,
				0.682237982749939
			],
			"scale":[
				1,
				1.0000001192092896,
				1.0000001192092896
			],
			"translation":[
				0.5652454495429993,
				0.24220889806747437,
				1.1164621114730835
			]
		},
		{
			"name":"Arm.L",
			"rotation":[
				-1.4850137786126538e-09,
				1.864903538262297e-07,
				0.18076227605342865,
				0.9835268259048462
			],
			"scale":[
				1,
				1.0000001192092896,
				1
			],
			"translation":[
				-3.725297403889272e-09,
				0.8612068295478821,
				-1.2434497875801753e-14
			]
		},
		{
			"name":"UpperTooth.L.001",
			"rotation":[
				0.01548258401453495,
				0.00018375150102656335,
				-0.08537504076957703,
				0.9962285757064819
			],
			"scale":[
				1,
				1,
				1.0000001192092896
			],
			"translation":[
				1.862645149230957e-08,
				0.3467836380004883,
				-2.9802322387695312e-08
			]
		},
		{
			"children":[
				6
			],
			"name":"UpperTooth.L",
			"rotation":[
				5.3318217396736145e-08,
				-4.0046870708465576e-08,
				4.8137735575437546e-08,
				1
			],
			"translation":[
				0.2803833782672882,
				0.046470433473587036,
				-0.04772193357348442
			]
		},
		{
			"name":"UpperLip.L.001",
			"rotation":[
				0.015482649207115173,
				0.00018382004054728895,
				-0.08537501096725464,
				0.9962285757064819
			],
			"scale":[
				0.9999998807907104,
				1,
				1
			],
			"translation":[
				3.725290298461914e-08,
				0.4633335471153259,
				8.940696716308594e-08
			]
		},
		{
			"children":[
				7,
				8
			],
			"name":"UpperLip.L",
			"rotation":[
				-0.007682197727262974,
				0.11717233806848526,
				0.10663444548845291,
				0.9873402714729309
			],
			"scale":[
				1,
				0.9999998807907104,
				1
			],
			"translation":[
				-0.20003825426101685,
				-0.07677143067121506,
				1.1338945627212524
			]
		},
		{
			"children":[
				4,
				5,
				9
			],
			"name":"Shoulder.L",
			"rotation":[
				-7.561938275557623e-08,
				-5.008059034139478e-08,
				-0.8337376117706299,
				0.5521608591079712
			],
			"scale":[
				1.0000001192092896,
				1,
				1
			],
			"translation":[
				0,
				0.5146140456199646,
				-1.7763568394002505e-15
			]
		},
		{
			"name":"UnderLip.R.001",
			"rotation":[
				-0.043288473039865494,
				0.0029035676270723343,
				-0.06435124576091766,
				0.9969837665557861
			],
			"scale":[
				0.9999998807907104,
				0.9999998807907104,
				0.9999999403953552
			],
			"translation":[
				-2.2351741790771484e-08,
				0.36322253942489624,
				2.3748725652694702e-08
			]
		},
		{
			"name":"UnderTooth.R.001",
			"rotation":[
				-0.0432884655892849,
				0.002903588814660907,
				-0.06435112655162811,
				0.9969837665557861
			],
			"scale":[
				0.9999999403953552,
				0.9999998211860657,
				0.9999999403953552
			],
			"translation":[
				4.6566128730773926e-09,
				0.28167033195495605,
				-1.0384246706962585e-07
			]
		},
		{
			"children":[
				12
			],
			"name":"UnderTooth.R",
			"rotation":[
				0,
				-2.671731991199522e-08,
				-1.0660734517387027e-07,
				1
			],
			"scale":[
				0.9999999403953552,
				0.9999998807907104,
				0.9999999403953552
			],
			"translation":[
				0.0781124085187912,
				0.0007918531773611903,
				-0.06542953103780746
			]
		},
		{
			"children":[
				11,
				13
			],
			"name":"UnderLip.R",
			"rotation":[
				0.027414819225668907,
				0.004744713194668293,
				-0.22224271297454834,
				0.9745942950248718
			],
			"scale":[
				1.0000001192092896,
				1.0000001192092896,
				1
			],
			"translation":[
				-0.5671386122703552,
				0.23774220049381256,
				1.1164621114730835
			]
		},
		{
			"name":"UpperLip.R.001",
			"rotation":[
				-0.10691426694393158,
				6.057862833586114e-08,
				6.652790762728955e-09,
				0.9942682385444641
			],
			"scale":[
				1,
				0.9999999403953552,
				0.9999999403953552
			],
			"translation":[
				-6.283765063841429e-09,
				0.4615916609764099,
				1.3253029784721093e-08
			]
		},
		{
			"name":"UpperTooth.R.001",
			"rotation":[
				-0.10691428184509277,
				5.163842331512569e-08,
				-1.1526256393779022e-08,
				0.9942682385444641
			],
			"scale":[
				1,
				0.9999999403953552,
				0.9999999403953552
			],
			"translation":[
				-2.487251471450236e-08,
				0.3454797863960266,
				2.8558403641909536e-08
			]
		},
		{
			"children":[
				16
			],
			"name":"UpperTooth.R",
			"rotation":[
				3.725290076417309e-09,
				3.9953576447260275e-08,
				1.0782946979759345e-08,
				1
			],
			"translation":[
				0.11128354072570801,
				0.04099505767226219,
				-0.2626539468765259
			]
		},
		{
			"children":[
				15,
				17
			],
			"name":"UpperLip.R",
			"rotation":[
				0.08922439068555832,
				0.7014548182487488,
				-0.0892244279384613,
				0.7014550566673279
			],
			"scale":[
				1,
				0.9999999403953552,
				1
			],
			"translation":[
				0.19428008794784546,
				-0.09035711735486984,
				1.1338945627212524
			]
		},
		{
			"name":"Arm.R",
			"rotation":[
				-1.4850137786126538e-09,
				-1.864903538262297e-07,
				-0.18076227605342865,
				0.9835268259048462
			],
			"scale":[
				1,
				1.0000001192092896,
				1
			],
			"translation":[
				3.725297403889272e-09,
				0.8612068295478821,
				-1.2434497875801753e-14
			]
		},
		{
			"children":[
				14,
				18,
				19
			],
			"name":"Shoulder.R",
			"rotation":[
				-7.561938275557623e-08,
				5.008059034139478e-08,
				0.8337376117706299,
				0.5521608591079712
			],
			"scale":[
				1.0000001192092896,
				1,
				1
			],
			"translation":[
				0,
				0.5146140456199646,
				-1.7763568394002505e-15
			]
		},
		{
			"children":[
				0,
				10,
				20
			],
			"name":"UpperBody",
			"rotation":[
				-6.717940692624325e-08,
				0,
				0,
				1
			],
			"translation":[
				0,
				0.4725271463394165,
				0
			]
		},
		{
			"children":[
				21
			],
			"name":"LowerBody",
			"translation":[
				0,
				-0.6132078766822815,
				0
			]
		},
		{
			"name":"Foot.L",
			"rotation":[
				-0.5280036926269531,
				1.192103695757396e-07,
				-1.3769651729944599e-07,
				0.849242091178894
			],
			"scale":[
				1,
				0.9999999403953552,
				0.9999999403953552
			],
			"translation":[
				-1.7763568394002505e-15,
				0.6323840022087097,
				-5.960464477539063e-08
			]
		},
		{
			"children":[
				23
			],
			"name":"Thigh.L",
			"rotation":[
				-0.6005048751831055,
				-0.373354971408844,
				-0.6005048155784607,
				0.373354971408844
			],
			"scale":[
				0.9999999403953552,
				0.9999998807907104,
				0.9999999403953552
			],
			"translation":[
				0,
				-0.6132078766822815,
				0
			]
		},
		{
			"name":"Foot.R",
			"rotation":[
				-0.5280036926269531,
				-1.192103695757396e-07,
				1.3769651729944599e-07,
				0.849242091178894
			],
			"scale":[
				1,
				0.9999999403953552,
				0.9999999403953552
			],
			"translation":[
				1.7763568394002505e-15,
				0.6323840022087097,
				-5.960464477539063e-08
			]
		},
		{
			"children":[
				25
			],
			"name":"Thigh.R",
			"rotation":[
				-0.6005048751831055,
				0.373354971408844,
				0.6005048155784607,
				0.373354971408844
			],
			"scale":[
				0.9999999403953552,
				0.9999998807907104,
				0.9999999403953552
			],
			"translation":[
				0,
				-0.6132078766822815,
				0
			]
		},
		{
			"mesh":0,
			"name":"Body",
			"skin":0
		},
		{
			"mesh":1,
			"name":"downMouth",
			"skin":0
		},
		{
			"mesh":2,
			"name":"downTooth",
			"skin":0
		},
		{
			"mesh":3,
			"name":"upMouth",
			"skin":0
		},
		{
			"mesh":4,
			"name":"upTooth",
			"skin":0
		},
		{
			"children":[
				27,
				28,
				29,
				30,
				31,
				22,
				24,
				26
			],
			"name":"Player"
		}
	],
	"materials":[
		{
			"doubleSided":true,
			"name":"\u30de\u30c6\u30ea\u30a2\u30eb.002",
			"pbrMetallicRoughness":{
				"baseColorTexture":{
					"index":0
				},
				"metallicFactor":0,
				"roughnessFactor":0.5
			}
		},
		{
			"doubleSided":true,
			"name":"\u30de\u30c6\u30ea\u30a2\u30eb",
			"pbrMetallicRoughness":{
				"baseColorTexture":{
					"index":1
				},
				"metallicFactor":0,
				"roughnessFactor":0.5
			}
		},
		{
			"doubleSided":true,
			"name":"\u30de\u30c6\u30ea\u30a2\u30eb.001",
			"pbrMetallicRoughness":{
				"baseColorTexture":{
					"index":2
				},
				"metallicFactor":0,
				"roughnessFactor":0.5
			}
		}
	],
	"meshes":[
		{
			"name":"\u7acb\u65b9\u4f53.001",
			"primitives":[
				{
					"attributes":{
						"POSITION":0,
						"NORMAL":1,
						"TEXCOORD_0":2,
						"JOINTS_0":3,
						"WEIGHTS_0":4
					},
					"indices":5,
					"material":0
				}
			]
		},
		{
			"name":"\u5e73\u9762",
			"primitives":[
				{
					"attributes":{
						"POSITION":7,
						"NORMAL":8,
						"TEXCOORD_0":9,
						"JOINTS_0":10,
						"WEIGHTS_0":11
					},
					"indices":12,
					"material":1
				}
			]
		},
		{
			"name":"\u5e73\u9762.001",
			"primitives":[
				{
					"attributes":{
						"POSITION":13,
						"NORMAL":14,
						"TEXCOORD_0":15,
						"JOINTS_0":16,
						"WEIGHTS_0":17
					},
					"indices":18
				}
			]
		},
		{
			"name":"\u5e73\u9762.003",
			"primitives":[
				{
					"attributes":{
						"POSITION":19,
						"NORMAL":20,
						"TEXCOORD_0":21,
						"JOINTS_0":22,
						"WEIGHTS_0":23
					},
					"indices":24,
					"material":2
				}
			]
		},
		{
			"name":"\u5e73\u9762.002",
			"primitives":[
				{
					"attributes":{
						"POSITION":25,
						"NORMAL":26,
						"TEXCOORD_0":27,
						"JOINTS_0":28,
						"WEIGHTS_0":29
					},
					"indices":30
				}
			]
		}
	],
	"textures":[
		{
			"sampler":0,
			"source":0
		},
		{
			"sampler":0,
			"source":1
		},
		{
			"sampler":0,
			"source":1
		}
	],
	"images":[
		{
			"mimeType":"image/png",
			"name":"body",
			"uri":"body.png"
		},
		{
			"mimeType":"image/png",
			"name":"mouth",
			"uri":"mouth.png"
		}
	],
	"skins":[
		{
			"inverseBindMatrices":6,
			"joints":[
				22,
				21,
				0,
				10,
				4,
				1,
				3,
				2,
				5,
				9,
				7,
				6,
				8,
				20,
				14,
				11,
				13,
				12,
				18,
				15,
				17,
				16,
				19,
				24,
				23,
				26,
				25
			],
			"name":"Player"
		}
	],
	"accessors":[
		{
			"bufferView":0,
			"componentType":5126,
			"count":1920,
			"max":[
				2.032651901245117,
				1.0000001192092896,
				1.0000001192092896
			],
			"min":[
				-2.052729606628418,
				-1.5409338474273682,
				-1.0000001192092896
			],
			"type":"VEC3"
		},
		{
			"bufferView":1,
			"componentType":5126,
			"count":1920,
			"type":"VEC3"
		},
		{
			"bufferView":2,
			"componentType":5126,
			"count":1920,
			"type":"VEC2"
		},
		{
			"bufferView":3,
			"componentType":5121,
			"count":1920,
			"type":"VEC4"
		},
		{
			"bufferView":4,
			"componentType":5126,
			"count":1920,
			"type":"VEC4"
		},
		{
			"bufferView":5,
			"componentType":5123,
			"count":2820,
			"type":"SCALAR"
		},
		{
			"bufferView":6,
			"componentType":5126,
			"count":27,
			"type":"MAT4"
		},
		{
			"bufferView":7,
			"componentType":5126,
			"count":12266,
			"max":[
				0.9418588876724243,
				-0.045393817126750946,
				1.2716338634490967
			],
			"min":[
				-0.9381362199783325,
				-0.4187658429145813,
				0.9823680520057678
			],
			"type":"VEC3"
		},
		{
			"bufferView":8,
			"componentType":5126,
			"count":12266,
			"type":"VEC3"
		},
		{
			"bufferView":9,
			"componentType":5126,
			"count":12266,
			"type":"VEC2"
		},
		{
			"bufferView":10,
			"componentType":5121,
			"count":12266,
			"type":"VEC4"
		},
		{
			"bufferView":11,
			"componentType":5126,
			"count":12266,
			"type":"VEC4"
		},
		{
			"bufferView":12,
			"componentType":5123,
			"count":12288,
			"type":"SCALAR"
		},
		{
			"bufferView":13,
			"componentType":5126,
			"count":163,
			"max":[
				0.7290143370628357,
				0.0071933576837182045,
				1.1214885711669922
			],
			"min":[
				-0.7290143370628357,
				-0.29623943567276,
				0.8613030910491943
			],
			"type":"VEC3"
		},
		{
			"bufferView":14,
			"componentType":5126,
			"count":163,
			"type":"VEC3"
		},
		{
			"bufferView":15,
			"componentType":5126,
			"count":163,
			"type":"VEC2"
		},
		{
			"bufferView":16,
			"componentType":5121,
			"count":163,
			"type":"VEC4"
		},
		{
			"bufferView":17,
			"componentType":5126,
			"count":163,
			"type":"VEC4"
		},
		{
			"bufferView":18,
			"componentType":5123,
			"count":336,
			"type":"SCALAR"
		},
		{
			"bufferView":19,
			"componentType":5126,
			"count":8064,
			"max":[
				0.9929713606834412,
				0.8289600610733032,
				1.3345853090286255
			],
			"min":[
				-0.9936951994895935,
				0.33266782760620117,
				0.985750675201416
			],
			"type":"VEC3"
		},
		{
			"bufferView":20,
			"componentType":5126,
			"count":8064,
			"type":"VEC3"
		},
		{
			"bufferView":21,
			"componentType":5126,
			"count":8064,
			"type":"VEC2"
		},
		{
			"bufferView":22,
			"componentType":5121,
			"count":8064,
			"type":"VEC4"
		},
		{
			"bufferView":23,
			"componentType":5126,
			"count":8064,
			"type":"VEC4"
		},
		{
			"bufferView":24,
			"componentType":5123,
			"count":12096,
			"type":"SCALAR"
		},
		{
			"bufferView":25,
			"componentType":5126,
			"count":156,
			"max":[
				0.7257571816444397,
				0.5273213386535645,
				1.1214884519577026
			],
			"min":[
				-0.7257571816444397,
				0.24468539655208588,
				0.8541865348815918
			],
			"type":"VEC3"
		},
		{
			"bufferView":26,
			"componentType":5126,
			"count":156,
			"type":"VEC3"
		},
		{
			"bufferView":27,
			"componentType":5126,
			"count":156,
			"type":"VEC2"
		},
		{
			"bufferView":28,
			"componentType":5121,
			"count":156,
			"type":"VEC4"
		},
		{
			"bufferView":29,
			"componentType":5126,
			"count":156,
			"type":"VEC4"
		},
		{
			"bufferView":30,
			"componentType":5123,
			"count":336,
			"type":"SCALAR"
		}
	],
	"bufferViews":[
		{
			"buffer":0,
			"byteLength":23040,
			"byteOffset":0,
			"target":34962
		},
		{
			"buffer":0,
			"byteLength":23040,
			"byteOffset":23040,
			"target":34962
		},
		{
			"buffer":0,
			"byteLength":15360,
			"byteOffset":46080,
			"target":34962
		},
		{
			"buffer":0,
			"byteLength":7680,
			"byteOffset":61440,
			"target":34962
		},
		{
			"buffer":0,
			"byteLength":30720,
			"byteOffset":69120,
			"target":34962
		},
		{
			"buffer":0,
			"byteLength":5640,
			"byteOffset":99840,
			"target":34963
		},
		{
			"buffer":0,
			"byteLength":1728,
			"byteOffset":105480
		},
		{
			"buffer":0,
			"byteLength":147192,
			"byteOffset":107208,
			"target":34962
		},
		{
			"buffer":0,
			"byteLength":147192,
			"byteOffset":254400,
			"target":34962
		},
		{
			"buffer":0,
			"byteLength":98128,
			"byteOffset":401592,
			"target":34962
		},
		{
			"buffer":0,
			"byteLength":49064,
			"byteOffset":499720,
			"target":34962
		},
		{
			"buffer":0,
			"byteLength":196256,
			"byteOffset":548784,
			"target":34962
		},
		{
			"buffer":0,
			"byteLength":24576,
			"byteOffset":745040,
			"target":34963
		},
		{
			"buffer":0,
			"byteLength":1956,
			"byteOffset":769616,
			"target":34962
		},
		{
			"buffer":0,
			"byteLength":1956,
			"byteOffset":771572,
			"target":34962
		},
		{
			"buffer":0,
			"byteLength":1304,
			"byteOffset":773528,
			"target":34962
		},
		{
			"buffer":0,
			"byteLength":652,
			"byteOffset":774832,
			"target":34962
		},
		{
			"buffer":0,
			"byteLength":2608,
			"byteOffset":775484,
			"target":34962
		},
		{
			"buffer":0,
			"byteLength":672,
			"byteOffset":778092,
			"target":34963
		},
		{
			"buffer":0,
			"byteLength":96768,
			"byteOffset":778764,
			"target":34962
		},
		{
			"buffer":0,
			"byteLength":96768,
			"byteOffset":875532,
			"target":34962
		},
		{
			"buffer":0,
			"byteLength":64512,
			"byteOffset":972300,
			"target":34962
		},
		{
			"buffer":0,
			"byteLength":32256,
			"byteOffset":1036812,
			"target":34962
		},
		{
			"buffer":0,
			"byteLength":129024,
			"byteOffset":1069068,
			"target":34962
		},
		{
			"buffer":0,
			"byteLength":24192,
			"byteOffset":1198092,
			"target":34963
		},
		{
			"buffer":0,
			"byteLength":1872,
			"byteOffset":1222284,
			"target":34962
		},
		{
			"buffer":0,
			"byteLength":1872,
			"byteOffset":1224156,
			"target":34962
		},
		{
			"buffer":0,
			"byteLength":1248,
			"byteOffset":1226028,
			"target":34962
		},
		{
			"buffer":0,
			"byteLength":624,
			"byteOffset":1227276,
			"target":34962
		},
		{
			"buffer":0,
			"byteLength":2496,
			"byteOffset":1227900,
			"target":34962
		},
		{
			"buffer":0,
			"byteLength":672,
			"byteOffset":1230396,
			"target":34963
		}
	],
	"samplers":[
		{
			"magFilter":9729,
			"minFilter":9987
		}
	],
	"buffers":[
		{
			"byteLength":1231068,
			"uri":"Player3.bin"
		}
	]
}
