{
	"asset":{
		"generator":"Khronos glTF Blender I/O v4.1.63",
		"version":"2.0"
	},
	"scene":0,
	"scenes":[
		{
			"name":"Scene",
			"nodes":[
				13
			]
		}
	],
	"nodes":[
		{
			"name":"Bone",
			"rotation":[
				-8.557136332854043e-09,
				1.7114272665708086e-08,
				-2.928983286277023e-16,
				1
			]
		},
		{
			"name":"Bone.002.L",
			"rotation":[
				0.04980804771184921,
				3.174433871322435e-08,
				7.96931143298707e-09,
				0.998758852481842
			],
			"translation":[
				1.016183404090043e-08,
				0.7161574363708496,
				-6.346894565467665e-08
			]
		},
		{
			"children":[
				1
			],
			"name":"Bone.001.L",
			"rotation":[
				-0.5550042986869812,
				-0.4381442070007324,
				-0.5550041198730469,
				0.43814417719841003
			],
			"scale":[
				0.9999999403953552,
				0.9999999403953552,
				1
			]
		},
		{
			"name":"Bone.005.L",
			"rotation":[
				-0.4023243188858032,
				1.1199709604170494e-07,
				-4.618082584784133e-06,
				0.9154971837997437
			],
			"translation":[
				-8.902816261979751e-09,
				0.5319564938545227,
				9.578684512234759e-08
			]
		},
		{
			"children":[
				3
			],
			"name":"Bone.004.L",
			"rotation":[
				0.44438615441322327,
				7.11647984985575e-08,
				5.011054327042075e-06,
				0.8958353400230408
			],
			"scale":[
				1,
				0.9999999403953552,
				1
			],
			"translation":[
				-3.760543165753916e-08,
				1.2903859615325928,
				4.127173269807827e-09
			]
		},
		{
			"name":"Bone.005.R",
			"rotation":[
				-0.4023244082927704,
				-1.175426831423465e-07,
				4.624215762305539e-06,
				0.9154971837997437
			],
			"scale":[
				1,
				0.9999999403953552,
				1
			],
			"translation":[
				2.0792640498257242e-08,
				0.5319566130638123,
				6.527136520162458e-08
			]
		},
		{
			"children":[
				5
			],
			"name":"Bone.004.R",
			"rotation":[
				-3.8161996229746364e-08,
				0.890315592288971,
				-0.45534396171569824,
				1.0043801921710838e-05
			],
			"scale":[
				1,
				1.0000001192092896,
				1.0000001192092896
			],
			"translation":[
				3.471269280908018e-07,
				1.2899976968765259,
				-0.03166121616959572
			]
		},
		{
			"children":[
				4,
				6
			],
			"name":"Bone.003",
			"rotation":[
				-0.7070895433425903,
				-0.004337911028414965,
				-0.7070974707603455,
				0.004337766673415899
			],
			"scale":[
				1,
				0.9999998807907104,
				0.9999999403953552
			]
		},
		{
			"name":"Bone.002.R.002",
			"rotation":[
				-0.005535699427127838,
				0.0001838610478444025,
				-0.006685094907879829,
				0.999962329864502
			],
			"scale":[
				0.9999999403953552,
				0.9999999403953552,
				0.9999999403953552
			],
			"translation":[
				-1.862645149230957e-08,
				1.4018135070800781,
				9.080395102500916e-08
			]
		},
		{
			"children":[
				8
			],
			"name":"Bone.002.R.001",
			"rotation":[
				0.7488791942596436,
				0.00018928732606582344,
				0.013684079051017761,
				0.6625651717185974
			],
			"scale":[
				1,
				1.0000001192092896,
				1.0000001192092896
			],
			"translation":[
				-4.893884408829763e-09,
				1.4277392625808716,
				-4.472273076316924e-07
			]
		},
		{
			"children":[
				9
			],
			"name":"Bone.002.R",
			"rotation":[
				0.044784124940633774,
				-7.702833215716964e-08,
				-8.332348144790558e-09,
				0.9989967346191406
			],
			"translation":[
				-2.2974397495545418e-08,
				0.7161574363708496,
				1.5781444062668015e-07
			]
		},
		{
			"children":[
				10
			],
			"name":"Bone.001.R",
			"rotation":[
				-0.5550042986869812,
				0.4381442070007324,
				0.5550040602684021,
				0.43814417719841003
			],
			"scale":[
				0.9999999403953552,
				0.9999999403953552,
				1
			]
		},
		{
			"mesh":0,
			"name":"\u5186",
			"skin":0
		},
		{
			"children":[
				12,
				0,
				2,
				7,
				11
			],
			"name":"\u30a2\u30fc\u30de\u30c1\u30e5\u30a2.001",
			"translation":[
				0,
				3.4541738033294678,
				0.11821048706769943
			]
		}
	],
	"animations":[
		{
			"channels":[
				{
					"sampler":0,
					"target":{
						"node":0,
						"path":"translation"
					}
				},
				{
					"sampler":1,
					"target":{
						"node":0,
						"path":"rotation"
					}
				},
				{
					"sampler":2,
					"target":{
						"node":0,
						"path":"scale"
					}
				},
				{
					"sampler":3,
					"target":{
						"node":2,
						"path":"translation"
					}
				},
				{
					"sampler":4,
					"target":{
						"node":2,
						"path":"rotation"
					}
				},
				{
					"sampler":5,
					"target":{
						"node":2,
						"path":"scale"
					}
				},
				{
					"sampler":6,
					"target":{
						"node":1,
						"path":"translation"
					}
				},
				{
					"sampler":7,
					"target":{
						"node":1,
						"path":"rotation"
					}
				},
				{
					"sampler":8,
					"target":{
						"node":1,
						"path":"scale"
					}
				},
				{
					"sampler":9,
					"target":{
						"node":7,
						"path":"translation"
					}
				},
				{
					"sampler":10,
					"target":{
						"node":7,
						"path":"rotation"
					}
				},
				{
					"sampler":11,
					"target":{
						"node":7,
						"path":"scale"
					}
				},
				{
					"sampler":12,
					"target":{
						"node":4,
						"path":"translation"
					}
				},
				{
					"sampler":13,
					"target":{
						"node":4,
						"path":"rotation"
					}
				},
				{
					"sampler":14,
					"target":{
						"node":4,
						"path":"scale"
					}
				},
				{
					"sampler":15,
					"target":{
						"node":3,
						"path":"translation"
					}
				},
				{
					"sampler":16,
					"target":{
						"node":3,
						"path":"rotation"
					}
				},
				{
					"sampler":17,
					"target":{
						"node":3,
						"path":"scale"
					}
				},
				{
					"sampler":18,
					"target":{
						"node":6,
						"path":"translation"
					}
				},
				{
					"sampler":19,
					"target":{
						"node":6,
						"path":"rotation"
					}
				},
				{
					"sampler":20,
					"target":{
						"node":6,
						"path":"scale"
					}
				},
				{
					"sampler":21,
					"target":{
						"node":5,
						"path":"translation"
					}
				},
				{
					"sampler":22,
					"target":{
						"node":5,
						"path":"rotation"
					}
				},
				{
					"sampler":23,
					"target":{
						"node":5,
						"path":"scale"
					}
				},
				{
					"sampler":24,
					"target":{
						"node":11,
						"path":"translation"
					}
				},
				{
					"sampler":25,
					"target":{
						"node":11,
						"path":"rotation"
					}
				},
				{
					"sampler":26,
					"target":{
						"node":11,
						"path":"scale"
					}
				},
				{
					"sampler":27,
					"target":{
						"node":10,
						"path":"translation"
					}
				},
				{
					"sampler":28,
					"target":{
						"node":10,
						"path":"rotation"
					}
				},
				{
					"sampler":29,
					"target":{
						"node":10,
						"path":"scale"
					}
				},
				{
					"sampler":30,
					"target":{
						"node":9,
						"path":"translation"
					}
				},
				{
					"sampler":31,
					"target":{
						"node":9,
						"path":"rotation"
					}
				},
				{
					"sampler":32,
					"target":{
						"node":9,
						"path":"scale"
					}
				},
				{
					"sampler":33,
					"target":{
						"node":8,
						"path":"translation"
					}
				},
				{
					"sampler":34,
					"target":{
						"node":8,
						"path":"rotation"
					}
				},
				{
					"sampler":35,
					"target":{
						"node":8,
						"path":"scale"
					}
				}
			],
			"name":"\u30a2\u30fc\u30de\u30c1\u30e5\u30a2.001Action",
			"samplers":[
				{
					"input":25,
					"interpolation":"STEP",
					"output":26
				},
				{
					"input":27,
					"interpolation":"LINEAR",
					"output":28
				},
				{
					"input":25,
					"interpolation":"STEP",
					"output":29
				},
				{
					"input":25,
					"interpolation":"STEP",
					"output":30
				},
				{
					"input":27,
					"interpolation":"LINEAR",
					"output":31
				},
				{
					"input":25,
					"interpolation":"STEP",
					"output":32
				},
				{
					"input":25,
					"interpolation":"LINEAR",
					"output":33
				},
				{
					"input":27,
					"interpolation":"LINEAR",
					"output":34
				},
				{
					"input":25,
					"interpolation":"LINEAR",
					"output":35
				},
				{
					"input":25,
					"interpolation":"STEP",
					"output":36
				},
				{
					"input":25,
					"interpolation":"STEP",
					"output":37
				},
				{
					"input":25,
					"interpolation":"STEP",
					"output":38
				},
				{
					"input":25,
					"interpolation":"LINEAR",
					"output":39
				},
				{
					"input":27,
					"interpolation":"LINEAR",
					"output":40
				},
				{
					"input":25,
					"interpolation":"STEP",
					"output":41
				},
				{
					"input":25,
					"interpolation":"LINEAR",
					"output":42
				},
				{
					"input":27,
					"interpolation":"LINEAR",
					"output":43
				},
				{
					"input":25,
					"interpolation":"LINEAR",
					"output":44
				},
				{
					"input":25,
					"interpolation":"LINEAR",
					"output":45
				},
				{
					"input":27,
					"interpolation":"LINEAR",
					"output":46
				},
				{
					"input":25,
					"interpolation":"STEP",
					"output":47
				},
				{
					"input":25,
					"interpolation":"LINEAR",
					"output":48
				},
				{
					"input":27,
					"interpolation":"LINEAR",
					"output":49
				},
				{
					"input":25,
					"interpolation":"STEP",
					"output":50
				},
				{
					"input":25,
					"interpolation":"STEP",
					"output":51
				},
				{
					"input":27,
					"interpolation":"LINEAR",
					"output":52
				},
				{
					"input":25,
					"interpolation":"STEP",
					"output":53
				},
				{
					"input":25,
					"interpolation":"LINEAR",
					"output":54
				},
				{
					"input":27,
					"interpolation":"LINEAR",
					"output":55
				},
				{
					"input":25,
					"interpolation":"STEP",
					"output":56
				},
				{
					"input":25,
					"interpolation":"LINEAR",
					"output":57
				},
				{
					"input":25,
					"interpolation":"LINEAR",
					"output":58
				},
				{
					"input":25,
					"interpolation":"LINEAR",
					"output":59
				},
				{
					"input":25,
					"interpolation":"LINEAR",
					"output":60
				},
				{
					"input":25,
					"interpolation":"LINEAR",
					"output":61
				},
				{
					"input":25,
					"interpolation":"LINEAR",
					"output":62
				},
				{
					"input":63,
					"interpolation":"STEP",
					"output":64
				},
				{
					"input":63,
					"interpolation":"STEP",
					"output":65
				},
				{
					"input":63,
					"interpolation":"STEP",
					"output":66
				},
				{
					"input":63,
					"interpolation":"STEP",
					"output":67
				},
				{
					"input":63,
					"interpolation":"STEP",
					"output":68
				},
				{
					"input":63,
					"interpolation":"STEP",
					"output":69
				},
				{
					"input":63,
					"interpolation":"STEP",
					"output":70
				},
				{
					"input":63,
					"interpolation":"STEP",
					"output":71
				},
				{
					"input":63,
					"interpolation":"STEP",
					"output":72
				},
				{
					"input":63,
					"interpolation":"STEP",
					"output":73
				},
				{
					"input":63,
					"interpolation":"STEP",
					"output":74
				},
				{
					"input":63,
					"interpolation":"STEP",
					"output":75
				},
				{
					"input":63,
					"interpolation":"STEP",
					"output":76
				},
				{
					"input":63,
					"interpolation":"STEP",
					"output":77
				},
				{
					"input":63,
					"interpolation":"STEP",
					"output":78
				},
				{
					"input":63,
					"interpolation":"STEP",
					"output":79
				},
				{
					"input":63,
					"interpolation":"STEP",
					"output":80
				},
				{
					"input":63,
					"interpolation":"STEP",
					"output":81
				},
				{
					"input":63,
					"interpolation":"STEP",
					"output":82
				},
				{
					"input":63,
					"interpolation":"STEP",
					"output":83
				},
				{
					"input":63,
					"interpolation":"STEP",
					"output":84
				},
				{
					"input":63,
					"interpolation":"STEP",
					"output":85
				},
				{
					"input":63,
					"interpolation":"STEP",
					"output":86
				},
				{
					"input":63,
					"interpolation":"STEP",
					"output":87
				},
				{
					"input":63,
					"interpolation":"STEP",
					"output":88
				},
				{
					"input":63,
					"interpolation":"STEP",
					"output":89
				},
				{
					"input":63,
					"interpolation":"STEP",
					"output":90
				},
				{
					"input":63,
					"interpolation":"STEP",
					"output":91
				},
				{
					"input":63,
					"interpolation":"STEP",
					"output":92
				},
				{
					"input":63,
					"interpolation":"STEP",
					"output":93
				},
				{
					"input":63,
					"interpolation":"STEP",
					"output":94
				},
				{
					"input":63,
					"interpolation":"STEP",
					"output":95
				},
				{
					"input":63,
					"interpolation":"STEP",
					"output":96
				},
				{
					"input":63,
					"interpolation":"STEP",
					"output":97
				},
				{
					"input":63,
					"interpolation":"STEP",
					"output":98
				},
				{
					"input":63,
					"interpolation":"STEP",
					"output":99
				}
			]
		}
	],
	"materials":[
		{
			"doubleSided":true,
			"name":"\u30de\u30c6\u30ea\u30a2\u30eb.008",
			"pbrMetallicRoughness":{
				"baseColorTexture":{
					"index":0
				},
				"metallicFactor":0,
				"roughnessFactor":0.5
			}
		},
		{
			"doubleSided":true,
			"name":"\u30de\u30c6\u30ea\u30a2\u30eb.009",
			"pbrMetallicRoughness":{
				"baseColorTexture":{
					"index":1
				},
				"metallicFactor":0,
				"roughnessFactor":0.5
			}
		},
		{
			"doubleSided":true,
			"name":"\u30de\u30c6\u30ea\u30a2\u30eb.005",
			"pbrMetallicRoughness":{
				"baseColorTexture":{
					"index":2
				},
				"metallicFactor":0,
				"roughnessFactor":0.5
			}
		},
		{
			"doubleSided":true,
			"name":"\u30de\u30c6\u30ea\u30a2\u30eb.006",
			"pbrMetallicRoughness":{
				"baseColorTexture":{
					"index":3
				},
				"metallicFactor":0,
				"roughnessFactor":0.5
			}
		}
	],
	"meshes":[
		{
			"name":"\u5186.001",
			"primitives":[
				{
					"attributes":{
						"POSITION":0,
						"NORMAL":1,
						"TEXCOORD_0":2,
						"JOINTS_0":3,
						"WEIGHTS_0":4
					},
					"indices":5,
					"material":0
				},
				{
					"attributes":{
						"POSITION":6,
						"NORMAL":7,
						"TEXCOORD_0":8,
						"JOINTS_0":9,
						"WEIGHTS_0":10
					},
					"indices":11,
					"material":1
				},
				{
					"attributes":{
						"POSITION":12,
						"NORMAL":13,
						"TEXCOORD_0":14,
						"JOINTS_0":15,
						"WEIGHTS_0":16
					},
					"indices":17,
					"material":2
				},
				{
					"attributes":{
						"POSITION":18,
						"NORMAL":19,
						"TEXCOORD_0":20,
						"JOINTS_0":21,
						"WEIGHTS_0":22
					},
					"indices":23,
					"material":3
				}
			]
		}
	],
	"textures":[
		{
			"sampler":0,
			"source":0
		},
		{
			"sampler":0,
			"source":1
		},
		{
			"sampler":0,
			"source":2
		},
		{
			"sampler":0,
			"source":3
		}
	],
	"images":[
		{
			"mimeType":"image/png",
			"name":"Body",
			"uri":"Body.png"
		},
		{
			"mimeType":"image/png",
			"name":"Botton",
			"uri":"Botton.png"
		},
		{
			"mimeType":"image/png",
			"name":"StickRed",
			"uri":"StickRed.png"
		},
		{
			"mimeType":"image/png",
			"name":"StickWhite",
			"uri":"StickWhite.png"
		}
	],
	"skins":[
		{
			"inverseBindMatrices":24,
			"joints":[
				0,
				2,
				1,
				7,
				4,
				3,
				6,
				5,
				11,
				10,
				9,
				8
			],
			"name":"\u30a2\u30fc\u30de\u30c1\u30e5\u30a2.001"
		}
	],
	"accessors":[
		{
			"bufferView":0,
			"componentType":5126,
			"count":4418,
			"max":[
				2.552302598953247,
				5.715978622436523,
				-0.03755433112382889
			],
			"min":[
				-2.552302598953247,
				-0.0421910285949707,
				-0.5847008228302002
			],
			"type":"VEC3"
		},
		{
			"bufferView":1,
			"componentType":5126,
			"count":4418,
			"type":"VEC3"
		},
		{
			"bufferView":2,
			"componentType":5126,
			"count":4418,
			"type":"VEC2"
		},
		{
			"bufferView":3,
			"componentType":5121,
			"count":4418,
			"type":"VEC4"
		},
		{
			"bufferView":4,
			"componentType":5126,
			"count":4418,
			"type":"VEC4"
		},
		{
			"bufferView":5,
			"componentType":5123,
			"count":22464,
			"type":"SCALAR"
		},
		{
			"bufferView":6,
			"componentType":5126,
			"count":854,
			"max":[
				0.14119793474674225,
				3.3025834560394287,
				-0.5225187540054321
			],
			"min":[
				-0.14119777083396912,
				2.1406500339508057,
				-0.7412044405937195
			],
			"type":"VEC3"
		},
		{
			"bufferView":7,
			"componentType":5126,
			"count":854,
			"type":"VEC3"
		},
		{
			"bufferView":8,
			"componentType":5126,
			"count":854,
			"type":"VEC2"
		},
		{
			"bufferView":9,
			"componentType":5121,
			"count":854,
			"type":"VEC4"
		},
		{
			"bufferView":10,
			"componentType":5126,
			"count":854,
			"type":"VEC4"
		},
		{
			"bufferView":11,
			"componentType":5123,
			"count":4416,
			"type":"SCALAR"
		},
		{
			"bufferView":12,
			"componentType":5126,
			"count":32153,
			"max":[
				-2.0792648792266846,
				6.445254325866699,
				-0.4650416374206543
			],
			"min":[
				-3.536128282546997,
				1.753346562385559,
				-0.7060377597808838
			],
			"type":"VEC3"
		},
		{
			"bufferView":13,
			"componentType":5126,
			"count":32153,
			"type":"VEC3"
		},
		{
			"bufferView":14,
			"componentType":5126,
			"count":32153,
			"type":"VEC2"
		},
		{
			"bufferView":15,
			"componentType":5121,
			"count":32153,
			"type":"VEC4"
		},
		{
			"bufferView":16,
			"componentType":5126,
			"count":32153,
			"type":"VEC4"
		},
		{
			"bufferView":17,
			"componentType":5123,
			"count":34560,
			"type":"SCALAR"
		},
		{
			"bufferView":18,
			"componentType":5126,
			"count":32433,
			"max":[
				-2.079293966293335,
				6.414823532104492,
				-0.4655808210372925
			],
			"min":[
				-3.5593104362487793,
				1.9320777654647827,
				-0.7054986357688904
			],
			"type":"VEC3"
		},
		{
			"bufferView":19,
			"componentType":5126,
			"count":32433,
			"type":"VEC3"
		},
		{
			"bufferView":20,
			"componentType":5126,
			"count":32433,
			"type":"VEC2"
		},
		{
			"bufferView":21,
			"componentType":5121,
			"count":32433,
			"type":"VEC4"
		},
		{
			"bufferView":22,
			"componentType":5126,
			"count":32433,
			"type":"VEC4"
		},
		{
			"bufferView":23,
			"componentType":5123,
			"count":34560,
			"type":"SCALAR"
		},
		{
			"bufferView":24,
			"componentType":5126,
			"count":12,
			"type":"MAT4"
		},
		{
			"bufferView":25,
			"componentType":5126,
			"count":2,
			"max":[
				3.5833333333333335
			],
			"min":[
				0
			],
			"type":"SCALAR"
		},
		{
			"bufferView":26,
			"componentType":5126,
			"count":2,
			"type":"VEC3"
		},
		{
			"bufferView":27,
			"componentType":5126,
			"count":87,
			"max":[
				3.5833333333333335
			],
			"min":[
				0
			],
			"type":"SCALAR"
		},
		{
			"bufferView":28,
			"componentType":5126,
			"count":87,
			"type":"VEC4"
		},
		{
			"bufferView":29,
			"componentType":5126,
			"count":2,
			"type":"VEC3"
		},
		{
			"bufferView":30,
			"componentType":5126,
			"count":2,
			"type":"VEC3"
		},
		{
			"bufferView":31,
			"componentType":5126,
			"count":87,
			"type":"VEC4"
		},
		{
			"bufferView":32,
			"componentType":5126,
			"count":2,
			"type":"VEC3"
		},
		{
			"bufferView":33,
			"componentType":5126,
			"count":2,
			"type":"VEC3"
		},
		{
			"bufferView":34,
			"componentType":5126,
			"count":87,
			"type":"VEC4"
		},
		{
			"bufferView":35,
			"componentType":5126,
			"count":2,
			"type":"VEC3"
		},
		{
			"bufferView":36,
			"componentType":5126,
			"count":2,
			"type":"VEC3"
		},
		{
			"bufferView":37,
			"componentType":5126,
			"count":2,
			"type":"VEC4"
		},
		{
			"bufferView":38,
			"componentType":5126,
			"count":2,
			"type":"VEC3"
		},
		{
			"bufferView":39,
			"componentType":5126,
			"count":2,
			"type":"VEC3"
		},
		{
			"bufferView":40,
			"componentType":5126,
			"count":87,
			"type":"VEC4"
		},
		{
			"bufferView":41,
			"componentType":5126,
			"count":2,
			"type":"VEC3"
		},
		{
			"bufferView":42,
			"componentType":5126,
			"count":2,
			"type":"VEC3"
		},
		{
			"bufferView":43,
			"componentType":5126,
			"count":87,
			"type":"VEC4"
		},
		{
			"bufferView":44,
			"componentType":5126,
			"count":2,
			"type":"VEC3"
		},
		{
			"bufferView":45,
			"componentType":5126,
			"count":2,
			"type":"VEC3"
		},
		{
			"bufferView":46,
			"componentType":5126,
			"count":87,
			"type":"VEC4"
		},
		{
			"bufferView":47,
			"componentType":5126,
			"count":2,
			"type":"VEC3"
		},
		{
			"bufferView":48,
			"componentType":5126,
			"count":2,
			"type":"VEC3"
		},
		{
			"bufferView":49,
			"componentType":5126,
			"count":87,
			"type":"VEC4"
		},
		{
			"bufferView":50,
			"componentType":5126,
			"count":2,
			"type":"VEC3"
		},
		{
			"bufferView":51,
			"componentType":5126,
			"count":2,
			"type":"VEC3"
		},
		{
			"bufferView":52,
			"componentType":5126,
			"count":87,
			"type":"VEC4"
		},
		{
			"bufferView":53,
			"componentType":5126,
			"count":2,
			"type":"VEC3"
		},
		{
			"bufferView":54,
			"componentType":5126,
			"count":2,
			"type":"VEC3"
		},
		{
			"bufferView":55,
			"componentType":5126,
			"count":87,
			"type":"VEC4"
		},
		{
			"bufferView":56,
			"componentType":5126,
			"count":2,
			"type":"VEC3"
		},
		{
			"bufferView":57,
			"componentType":5126,
			"count":2,
			"type":"VEC3"
		},
		{
			"bufferView":58,
			"componentType":5126,
			"count":2,
			"type":"VEC4"
		},
		{
			"bufferView":59,
			"componentType":5126,
			"count":2,
			"type":"VEC3"
		},
		{
			"bufferView":60,
			"componentType":5126,
			"count":2,
			"type":"VEC3"
		},
		{
			"bufferView":61,
			"componentType":5126,
			"count":2,
			"type":"VEC4"
		},
		{
			"bufferView":62,
			"componentType":5126,
			"count":2,
			"type":"VEC3"
		},
		{
			"bufferView":63,
			"componentType":5126,
			"count":1,
			"max":[
				0
			],
			"min":[
				0
			],
			"type":"SCALAR"
		},
		{
			"bufferView":64,
			"componentType":5126,
			"count":1,
			"type":"VEC3"
		},
		{
			"bufferView":65,
			"componentType":5126,
			"count":1,
			"type":"VEC4"
		},
		{
			"bufferView":66,
			"componentType":5126,
			"count":1,
			"type":"VEC3"
		},
		{
			"bufferView":67,
			"componentType":5126,
			"count":1,
			"type":"VEC3"
		},
		{
			"bufferView":68,
			"componentType":5126,
			"count":1,
			"type":"VEC4"
		},
		{
			"bufferView":69,
			"componentType":5126,
			"count":1,
			"type":"VEC3"
		},
		{
			"bufferView":70,
			"componentType":5126,
			"count":1,
			"type":"VEC3"
		},
		{
			"bufferView":71,
			"componentType":5126,
			"count":1,
			"type":"VEC4"
		},
		{
			"bufferView":72,
			"componentType":5126,
			"count":1,
			"type":"VEC3"
		},
		{
			"bufferView":73,
			"componentType":5126,
			"count":1,
			"type":"VEC3"
		},
		{
			"bufferView":74,
			"componentType":5126,
			"count":1,
			"type":"VEC4"
		},
		{
			"bufferView":75,
			"componentType":5126,
			"count":1,
			"type":"VEC3"
		},
		{
			"bufferView":76,
			"componentType":5126,
			"count":1,
			"type":"VEC3"
		},
		{
			"bufferView":77,
			"componentType":5126,
			"count":1,
			"type":"VEC4"
		},
		{
			"bufferView":78,
			"componentType":5126,
			"count":1,
			"type":"VEC3"
		},
		{
			"bufferView":79,
			"componentType":5126,
			"count":1,
			"type":"VEC3"
		},
		{
			"bufferView":80,
			"componentType":5126,
			"count":1,
			"type":"VEC4"
		},
		{
			"bufferView":81,
			"componentType":5126,
			"count":1,
			"type":"VEC3"
		},
		{
			"bufferView":82,
			"componentType":5126,
			"count":1,
			"type":"VEC3"
		},
		{
			"bufferView":83,
			"componentType":5126,
			"count":1,
			"type":"VEC4"
		},
		{
			"bufferView":84,
			"componentType":5126,
			"count":1,
			"type":"VEC3"
		},
		{
			"bufferView":85,
			"componentType":5126,
			"count":1,
			"type":"VEC3"
		},
		{
			"bufferView":86,
			"componentType":5126,
			"count":1,
			"type":"VEC4"
		},
		{
			"bufferView":87,
			"componentType":5126,
			"count":1,
			"type":"VEC3"
		},
		{
			"bufferView":88,
			"componentType":5126,
			"count":1,
			"type":"VEC3"
		},
		{
			"bufferView":89,
			"componentType":5126,
			"count":1,
			"type":"VEC4"
		},
		{
			"bufferView":90,
			"componentType":5126,
			"count":1,
			"type":"VEC3"
		},
		{
			"bufferView":91,
			"componentType":5126,
			"count":1,
			"type":"VEC3"
		},
		{
			"bufferView":92,
			"componentType":5126,
			"count":1,
			"type":"VEC4"
		},
		{
			"bufferView":93,
			"componentType":5126,
			"count":1,
			"type":"VEC3"
		},
		{
			"bufferView":94,
			"componentType":5126,
			"count":1,
			"type":"VEC3"
		},
		{
			"bufferView":95,
			"componentType":5126,
			"count":1,
			"type":"VEC4"
		},
		{
			"bufferView":96,
			"componentType":5126,
			"count":1,
			"type":"VEC3"
		},
		{
			"bufferView":97,
			"componentType":5126,
			"count":1,
			"type":"VEC3"
		},
		{
			"bufferView":98,
			"componentType":5126,
			"count":1,
			"type":"VEC4"
		},
		{
			"bufferView":99,
			"componentType":5126,
			"count":1,
			"type":"VEC3"
		}
	],
	"bufferViews":[
		{
			"buffer":0,
			"byteLength":53016,
			"byteOffset":0,
			"target":34962
		},
		{
			"buffer":0,
			"byteLength":53016,
			"byteOffset":53016,
			"target":34962
		},
		{
			"buffer":0,
			"byteLength":35344,
			"byteOffset":106032,
			"target":34962
		},
		{
			"buffer":0,
			"byteLength":17672,
			"byteOffset":141376,
			"target":34962
		},
		{
			"buffer":0,
			"byteLength":70688,
			"byteOffset":159048,
			"target":34962
		},
		{
			"buffer":0,
			"byteLength":44928,
			"byteOffset":229736,
			"target":34963
		},
		{
			"buffer":0,
			"byteLength":10248,
			"byteOffset":274664,
			"target":34962
		},
		{
			"buffer":0,
			"byteLength":10248,
			"byteOffset":284912,
			"target":34962
		},
		{
			"buffer":0,
			"byteLength":6832,
			"byteOffset":295160,
			"target":34962
		},
		{
			"buffer":0,
			"byteLength":3416,
			"byteOffset":301992,
			"target":34962
		},
		{
			"buffer":0,
			"byteLength":13664,
			"byteOffset":305408,
			"target":34962
		},
		{
			"buffer":0,
			"byteLength":8832,
			"byteOffset":319072,
			"target":34963
		},
		{
			"buffer":0,
			"byteLength":385836,
			"byteOffset":327904,
			"target":34962
		},
		{
			"buffer":0,
			"byteLength":385836,
			"byteOffset":713740,
			"target":34962
		},
		{
			"buffer":0,
			"byteLength":257224,
			"byteOffset":1099576,
			"target":34962
		},
		{
			"buffer":0,
			"byteLength":128612,
			"byteOffset":1356800,
			"target":34962
		},
		{
			"buffer":0,
			"byteLength":514448,
			"byteOffset":1485412,
			"target":34962
		},
		{
			"buffer":0,
			"byteLength":69120,
			"byteOffset":1999860,
			"target":34963
		},
		{
			"buffer":0,
			"byteLength":389196,
			"byteOffset":2068980,
			"target":34962
		},
		{
			"buffer":0,
			"byteLength":389196,
			"byteOffset":2458176,
			"target":34962
		},
		{
			"buffer":0,
			"byteLength":259464,
			"byteOffset":2847372,
			"target":34962
		},
		{
			"buffer":0,
			"byteLength":129732,
			"byteOffset":3106836,
			"target":34962
		},
		{
			"buffer":0,
			"byteLength":518928,
			"byteOffset":3236568,
			"target":34962
		},
		{
			"buffer":0,
			"byteLength":69120,
			"byteOffset":3755496,
			"target":34963
		},
		{
			"buffer":0,
			"byteLength":768,
			"byteOffset":3824616
		},
		{
			"buffer":0,
			"byteLength":8,
			"byteOffset":3825384
		},
		{
			"buffer":0,
			"byteLength":24,
			"byteOffset":3825392
		},
		{
			"buffer":0,
			"byteLength":348,
			"byteOffset":3825416
		},
		{
			"buffer":0,
			"byteLength":1392,
			"byteOffset":3825764
		},
		{
			"buffer":0,
			"byteLength":24,
			"byteOffset":3827156
		},
		{
			"buffer":0,
			"byteLength":24,
			"byteOffset":3827180
		},
		{
			"buffer":0,
			"byteLength":1392,
			"byteOffset":3827204
		},
		{
			"buffer":0,
			"byteLength":24,
			"byteOffset":3828596
		},
		{
			"buffer":0,
			"byteLength":24,
			"byteOffset":3828620
		},
		{
			"buffer":0,
			"byteLength":1392,
			"byteOffset":3828644
		},
		{
			"buffer":0,
			"byteLength":24,
			"byteOffset":3830036
		},
		{
			"buffer":0,
			"byteLength":24,
			"byteOffset":3830060
		},
		{
			"buffer":0,
			"byteLength":32,
			"byteOffset":3830084
		},
		{
			"buffer":0,
			"byteLength":24,
			"byteOffset":3830116
		},
		{
			"buffer":0,
			"byteLength":24,
			"byteOffset":3830140
		},
		{
			"buffer":0,
			"byteLength":1392,
			"byteOffset":3830164
		},
		{
			"buffer":0,
			"byteLength":24,
			"byteOffset":3831556
		},
		{
			"buffer":0,
			"byteLength":24,
			"byteOffset":3831580
		},
		{
			"buffer":0,
			"byteLength":1392,
			"byteOffset":3831604
		},
		{
			"buffer":0,
			"byteLength":24,
			"byteOffset":3832996
		},
		{
			"buffer":0,
			"byteLength":24,
			"byteOffset":3833020
		},
		{
			"buffer":0,
			"byteLength":1392,
			"byteOffset":3833044
		},
		{
			"buffer":0,
			"byteLength":24,
			"byteOffset":3834436
		},
		{
			"buffer":0,
			"byteLength":24,
			"byteOffset":3834460
		},
		{
			"buffer":0,
			"byteLength":1392,
			"byteOffset":3834484
		},
		{
			"buffer":0,
			"byteLength":24,
			"byteOffset":3835876
		},
		{
			"buffer":0,
			"byteLength":24,
			"byteOffset":3835900
		},
		{
			"buffer":0,
			"byteLength":1392,
			"byteOffset":3835924
		},
		{
			"buffer":0,
			"byteLength":24,
			"byteOffset":3837316
		},
		{
			"buffer":0,
			"byteLength":24,
			"byteOffset":3837340
		},
		{
			"buffer":0,
			"byteLength":1392,
			"byteOffset":3837364
		},
		{
			"buffer":0,
			"byteLength":24,
			"byteOffset":3838756
		},
		{
			"buffer":0,
			"byteLength":24,
			"byteOffset":3838780
		},
		{
			"buffer":0,
			"byteLength":32,
			"byteOffset":3838804
		},
		{
			"buffer":0,
			"byteLength":24,
			"byteOffset":3838836
		},
		{
			"buffer":0,
			"byteLength":24,
			"byteOffset":3838860
		},
		{
			"buffer":0,
			"byteLength":32,
			"byteOffset":3838884
		},
		{
			"buffer":0,
			"byteLength":24,
			"byteOffset":3838916
		},
		{
			"buffer":0,
			"byteLength":4,
			"byteOffset":3838940
		},
		{
			"buffer":0,
			"byteLength":12,
			"byteOffset":3838944
		},
		{
			"buffer":0,
			"byteLength":16,
			"byteOffset":3838956
		},
		{
			"buffer":0,
			"byteLength":12,
			"byteOffset":3838972
		},
		{
			"buffer":0,
			"byteLength":12,
			"byteOffset":3838984
		},
		{
			"buffer":0,
			"byteLength":16,
			"byteOffset":3838996
		},
		{
			"buffer":0,
			"byteLength":12,
			"byteOffset":3839012
		},
		{
			"buffer":0,
			"byteLength":12,
			"byteOffset":3839024
		},
		{
			"buffer":0,
			"byteLength":16,
			"byteOffset":3839036
		},
		{
			"buffer":0,
			"byteLength":12,
			"byteOffset":3839052
		},
		{
			"buffer":0,
			"byteLength":12,
			"byteOffset":3839064
		},
		{
			"buffer":0,
			"byteLength":16,
			"byteOffset":3839076
		},
		{
			"buffer":0,
			"byteLength":12,
			"byteOffset":3839092
		},
		{
			"buffer":0,
			"byteLength":12,
			"byteOffset":3839104
		},
		{
			"buffer":0,
			"byteLength":16,
			"byteOffset":3839116
		},
		{
			"buffer":0,
			"byteLength":12,
			"byteOffset":3839132
		},
		{
			"buffer":0,
			"byteLength":12,
			"byteOffset":3839144
		},
		{
			"buffer":0,
			"byteLength":16,
			"byteOffset":3839156
		},
		{
			"buffer":0,
			"byteLength":12,
			"byteOffset":3839172
		},
		{
			"buffer":0,
			"byteLength":12,
			"byteOffset":3839184
		},
		{
			"buffer":0,
			"byteLength":16,
			"byteOffset":3839196
		},
		{
			"buffer":0,
			"byteLength":12,
			"byteOffset":3839212
		},
		{
			"buffer":0,
			"byteLength":12,
			"byteOffset":3839224
		},
		{
			"buffer":0,
			"byteLength":16,
			"byteOffset":3839236
		},
		{
			"buffer":0,
			"byteLength":12,
			"byteOffset":3839252
		},
		{
			"buffer":0,
			"byteLength":12,
			"byteOffset":3839264
		},
		{
			"buffer":0,
			"byteLength":16,
			"byteOffset":3839276
		},
		{
			"buffer":0,
			"byteLength":12,
			"byteOffset":3839292
		},
		{
			"buffer":0,
			"byteLength":12,
			"byteOffset":3839304
		},
		{
			"buffer":0,
			"byteLength":16,
			"byteOffset":3839316
		},
		{
			"buffer":0,
			"byteLength":12,
			"byteOffset":3839332
		},
		{
			"buffer":0,
			"byteLength":12,
			"byteOffset":3839344
		},
		{
			"buffer":0,
			"byteLength":16,
			"byteOffset":3839356
		},
		{
			"buffer":0,
			"byteLength":12,
			"byteOffset":3839372
		},
		{
			"buffer":0,
			"byteLength":12,
			"byteOffset":3839384
		},
		{
			"buffer":0,
			"byteLength":16,
			"byteOffset":3839396
		},
		{
			"buffer":0,
			"byteLength":12,
			"byteOffset":3839412
		}
	],
	"samplers":[
		{
			"magFilter":9729,
			"minFilter":9987
		}
	],
	"buffers":[
		{
			"byteLength":3839424,
			"uri":"GentlmanAttack.bin"
		}
	]
}
