{
	"asset":{
		"generator":"Khronos glTF Blender I/O v4.3.47",
		"version":"2.0"
	},
	"scene":0,
	"scenes":[
		{
			"name":"Scene",
			"nodes":[
				7
			]
		}
	],
	"nodes":[
		{
			"name":"Bone.002",
			"rotation":[
				3.485965649474565e-08,
				-7.217444419893582e-08,
				-0.5082583427429199,
				0.8612046837806702
			],
			"scale":[
				1,
				0.9999999403953552,
				1
			],
			"translation":[
				2.9802317058624794e-08,
				1.2726588249206543,
				-1.0658141036401503e-14
			]
		},
		{
			"children":[
				0
			],
			"name":"Bone.001",
			"rotation":[
				1.509246345676729e-07,
				4.8254758411303555e-08,
				-0.5344297885894775,
				0.8452129364013672
			],
			"scale":[
				0.9999999403953552,
				0.9999998807907104,
				1
			],
			"translation":[
				-5.960463056453591e-08,
				0.8081862330436707,
				-7.105427357601002e-15
			]
		},
		{
			"children":[
				1
			],
			"name":"Bone",
			"rotation":[
				-9.043132109809449e-08,
				-4.521563123915939e-09,
				0.5667440891265869,
				0.8238939046859741
			],
			"scale":[
				0.9999997615814209,
				0.9999998807907104,
				0.9999998807907104
			]
		},
		{
			"name":"Bone.005",
			"rotation":[
				0.5200225710868835,
				1.295281322200026e-07,
				-3.9352320868601964e-07,
				0.8541525602340698
			],
			"translation":[
				-5.684341886080802e-14,
				1.2866597175598145,
				-5.215426313043281e-08
			]
		},
		{
			"children":[
				3
			],
			"name":"Bone.004",
			"rotation":[
				0.5548349618911743,
				-2.659650419900572e-07,
				-3.249348026201915e-07,
				0.8319604396820068
			],
			"translation":[
				5.3290705182007514e-14,
				0.8667712807655334,
				5.9604641222676946e-08
			]
		},
		{
			"children":[
				4
			],
			"name":"Bone.003",
			"rotation":[
				-0.40597736835479736,
				-0.5789494514465332,
				-0.4059773087501526,
				0.5789493322372437
			],
			"scale":[
				1.0000001192092896,
				1,
				1
			]
		},
		{
			"mesh":0,
			"name":"\u30c8\u30fc\u30e9\u30b9.001",
			"skin":0
		},
		{
			"children":[
				6,
				2,
				5
			],
			"name":"\u30a2\u30fc\u30de\u30c1\u30e5\u30a2",
			"translation":[
				0,
				0.4703477621078491,
				0
			]
		}
	],
	"animations":[
		{
			"channels":[
				{
					"sampler":0,
					"target":{
						"node":2,
						"path":"translation"
					}
				},
				{
					"sampler":1,
					"target":{
						"node":2,
						"path":"rotation"
					}
				},
				{
					"sampler":2,
					"target":{
						"node":2,
						"path":"scale"
					}
				},
				{
					"sampler":3,
					"target":{
						"node":1,
						"path":"translation"
					}
				},
				{
					"sampler":4,
					"target":{
						"node":1,
						"path":"rotation"
					}
				},
				{
					"sampler":5,
					"target":{
						"node":1,
						"path":"scale"
					}
				},
				{
					"sampler":6,
					"target":{
						"node":0,
						"path":"translation"
					}
				},
				{
					"sampler":7,
					"target":{
						"node":0,
						"path":"rotation"
					}
				},
				{
					"sampler":8,
					"target":{
						"node":0,
						"path":"scale"
					}
				},
				{
					"sampler":9,
					"target":{
						"node":5,
						"path":"translation"
					}
				},
				{
					"sampler":10,
					"target":{
						"node":5,
						"path":"rotation"
					}
				},
				{
					"sampler":11,
					"target":{
						"node":5,
						"path":"scale"
					}
				},
				{
					"sampler":12,
					"target":{
						"node":4,
						"path":"translation"
					}
				},
				{
					"sampler":13,
					"target":{
						"node":4,
						"path":"rotation"
					}
				},
				{
					"sampler":14,
					"target":{
						"node":4,
						"path":"scale"
					}
				},
				{
					"sampler":15,
					"target":{
						"node":3,
						"path":"translation"
					}
				},
				{
					"sampler":16,
					"target":{
						"node":3,
						"path":"rotation"
					}
				},
				{
					"sampler":17,
					"target":{
						"node":3,
						"path":"scale"
					}
				}
			],
			"name":"\u30a2\u30fc\u30de\u30c1\u30e5\u30a2\u30a2\u30af\u30b7\u30e7\u30f3",
			"samplers":[
				{
					"input":13,
					"interpolation":"STEP",
					"output":14
				},
				{
					"input":15,
					"interpolation":"LINEAR",
					"output":16
				},
				{
					"input":13,
					"interpolation":"STEP",
					"output":17
				},
				{
					"input":15,
					"interpolation":"LINEAR",
					"output":18
				},
				{
					"input":13,
					"interpolation":"LINEAR",
					"output":19
				},
				{
					"input":13,
					"interpolation":"STEP",
					"output":20
				},
				{
					"input":15,
					"interpolation":"LINEAR",
					"output":21
				},
				{
					"input":13,
					"interpolation":"LINEAR",
					"output":22
				},
				{
					"input":13,
					"interpolation":"STEP",
					"output":23
				},
				{
					"input":13,
					"interpolation":"STEP",
					"output":24
				},
				{
					"input":15,
					"interpolation":"LINEAR",
					"output":25
				},
				{
					"input":13,
					"interpolation":"STEP",
					"output":26
				},
				{
					"input":15,
					"interpolation":"LINEAR",
					"output":27
				},
				{
					"input":13,
					"interpolation":"LINEAR",
					"output":28
				},
				{
					"input":13,
					"interpolation":"STEP",
					"output":29
				},
				{
					"input":15,
					"interpolation":"LINEAR",
					"output":30
				},
				{
					"input":13,
					"interpolation":"LINEAR",
					"output":31
				},
				{
					"input":13,
					"interpolation":"LINEAR",
					"output":32
				}
			]
		}
	],
	"materials":[
		{
			"doubleSided":true,
			"name":"\u30de\u30c6\u30ea\u30a2\u30eb",
			"pbrMetallicRoughness":{
				"baseColorTexture":{
					"index":0
				},
				"metallicFactor":0,
				"roughnessFactor":0.5
			}
		},
		{
			"doubleSided":true,
			"name":"\u30de\u30c6\u30ea\u30a2\u30eb.001",
			"pbrMetallicRoughness":{
				"baseColorTexture":{
					"index":1
				},
				"metallicFactor":0,
				"roughnessFactor":0.5
			}
		}
	],
	"meshes":[
		{
			"name":"\u30c8\u30fc\u30e9\u30b9.001",
			"primitives":[
				{
					"attributes":{
						"POSITION":0,
						"NORMAL":1,
						"TEXCOORD_0":2,
						"JOINTS_0":3,
						"WEIGHTS_0":4
					},
					"indices":5,
					"material":0
				},
				{
					"attributes":{
						"POSITION":6,
						"NORMAL":7,
						"TEXCOORD_0":8,
						"JOINTS_0":9,
						"WEIGHTS_0":10
					},
					"indices":11,
					"material":1
				}
			]
		}
	],
	"textures":[
		{
			"sampler":0,
			"source":0
		},
		{
			"sampler":0,
			"source":1
		}
	],
	"images":[
		{
			"mimeType":"image/png",
			"name":"Donut",
			"uri":"Donut.png"
		},
		{
			"mimeType":"image/png",
			"name":"Icing",
			"uri":"Icing.png"
		}
	],
	"skins":[
		{
			"inverseBindMatrices":12,
			"joints":[
				2,
				1,
				0,
				5,
				4,
				3
			],
			"name":"\u30a2\u30fc\u30de\u30c1\u30e5\u30a2"
		}
	],
	"accessors":[
		{
			"bufferView":0,
			"componentType":5126,
			"count":3185,
			"max":[
				1.3936219215393066,
				2.8716654777526855,
				0.42990392446517944
			],
			"min":[
				-1.3936222791671753,
				0.08442151546478271,
				-0.42990395426750183
			],
			"type":"VEC3"
		},
		{
			"bufferView":1,
			"componentType":5126,
			"count":3185,
			"type":"VEC3"
		},
		{
			"bufferView":2,
			"componentType":5126,
			"count":3185,
			"type":"VEC2"
		},
		{
			"bufferView":3,
			"componentType":5121,
			"count":3185,
			"type":"VEC4"
		},
		{
			"bufferView":4,
			"componentType":5126,
			"count":3185,
			"type":"VEC4"
		},
		{
			"bufferView":5,
			"componentType":5123,
			"count":18432,
			"type":"SCALAR"
		},
		{
			"bufferView":6,
			"componentType":5126,
			"count":3640,
			"max":[
				1.472874641418457,
				2.9509191513061523,
				0.5838059186935425
			],
			"min":[
				-1.4728747606277466,
				0.005168795585632324,
				-0.019576944410800934
			],
			"type":"VEC3"
		},
		{
			"bufferView":7,
			"componentType":5126,
			"count":3640,
			"type":"VEC3"
		},
		{
			"bufferView":8,
			"componentType":5126,
			"count":3640,
			"type":"VEC2"
		},
		{
			"bufferView":9,
			"componentType":5121,
			"count":3640,
			"type":"VEC4"
		},
		{
			"bufferView":10,
			"componentType":5126,
			"count":3640,
			"type":"VEC4"
		},
		{
			"bufferView":11,
			"componentType":5123,
			"count":21504,
			"type":"SCALAR"
		},
		{
			"bufferView":12,
			"componentType":5126,
			"count":6,
			"type":"MAT4"
		},
		{
			"bufferView":13,
			"componentType":5126,
			"count":2,
			"max":[
				2.5
			],
			"min":[
				0.041666666666666664
			],
			"type":"SCALAR"
		},
		{
			"bufferView":14,
			"componentType":5126,
			"count":2,
			"type":"VEC3"
		},
		{
			"bufferView":15,
			"componentType":5126,
			"count":60,
			"max":[
				2.5
			],
			"min":[
				0.041666666666666664
			],
			"type":"SCALAR"
		},
		{
			"bufferView":16,
			"componentType":5126,
			"count":60,
			"type":"VEC4"
		},
		{
			"bufferView":17,
			"componentType":5126,
			"count":2,
			"type":"VEC3"
		},
		{
			"bufferView":18,
			"componentType":5126,
			"count":60,
			"type":"VEC3"
		},
		{
			"bufferView":19,
			"componentType":5126,
			"count":2,
			"type":"VEC4"
		},
		{
			"bufferView":20,
			"componentType":5126,
			"count":2,
			"type":"VEC3"
		},
		{
			"bufferView":21,
			"componentType":5126,
			"count":60,
			"type":"VEC3"
		},
		{
			"bufferView":22,
			"componentType":5126,
			"count":2,
			"type":"VEC4"
		},
		{
			"bufferView":23,
			"componentType":5126,
			"count":2,
			"type":"VEC3"
		},
		{
			"bufferView":24,
			"componentType":5126,
			"count":2,
			"type":"VEC3"
		},
		{
			"bufferView":25,
			"componentType":5126,
			"count":60,
			"type":"VEC4"
		},
		{
			"bufferView":26,
			"componentType":5126,
			"count":2,
			"type":"VEC3"
		},
		{
			"bufferView":27,
			"componentType":5126,
			"count":60,
			"type":"VEC3"
		},
		{
			"bufferView":28,
			"componentType":5126,
			"count":2,
			"type":"VEC4"
		},
		{
			"bufferView":29,
			"componentType":5126,
			"count":2,
			"type":"VEC3"
		},
		{
			"bufferView":30,
			"componentType":5126,
			"count":60,
			"type":"VEC3"
		},
		{
			"bufferView":31,
			"componentType":5126,
			"count":2,
			"type":"VEC4"
		},
		{
			"bufferView":32,
			"componentType":5126,
			"count":2,
			"type":"VEC3"
		}
	],
	"bufferViews":[
		{
			"buffer":0,
			"byteLength":38220,
			"byteOffset":0,
			"target":34962
		},
		{
			"buffer":0,
			"byteLength":38220,
			"byteOffset":38220,
			"target":34962
		},
		{
			"buffer":0,
			"byteLength":25480,
			"byteOffset":76440,
			"target":34962
		},
		{
			"buffer":0,
			"byteLength":12740,
			"byteOffset":101920,
			"target":34962
		},
		{
			"buffer":0,
			"byteLength":50960,
			"byteOffset":114660,
			"target":34962
		},
		{
			"buffer":0,
			"byteLength":36864,
			"byteOffset":165620,
			"target":34963
		},
		{
			"buffer":0,
			"byteLength":43680,
			"byteOffset":202484,
			"target":34962
		},
		{
			"buffer":0,
			"byteLength":43680,
			"byteOffset":246164,
			"target":34962
		},
		{
			"buffer":0,
			"byteLength":29120,
			"byteOffset":289844,
			"target":34962
		},
		{
			"buffer":0,
			"byteLength":14560,
			"byteOffset":318964,
			"target":34962
		},
		{
			"buffer":0,
			"byteLength":58240,
			"byteOffset":333524,
			"target":34962
		},
		{
			"buffer":0,
			"byteLength":43008,
			"byteOffset":391764,
			"target":34963
		},
		{
			"buffer":0,
			"byteLength":384,
			"byteOffset":434772
		},
		{
			"buffer":0,
			"byteLength":8,
			"byteOffset":435156
		},
		{
			"buffer":0,
			"byteLength":24,
			"byteOffset":435164
		},
		{
			"buffer":0,
			"byteLength":240,
			"byteOffset":435188
		},
		{
			"buffer":0,
			"byteLength":960,
			"byteOffset":435428
		},
		{
			"buffer":0,
			"byteLength":24,
			"byteOffset":436388
		},
		{
			"buffer":0,
			"byteLength":720,
			"byteOffset":436412
		},
		{
			"buffer":0,
			"byteLength":32,
			"byteOffset":437132
		},
		{
			"buffer":0,
			"byteLength":24,
			"byteOffset":437164
		},
		{
			"buffer":0,
			"byteLength":720,
			"byteOffset":437188
		},
		{
			"buffer":0,
			"byteLength":32,
			"byteOffset":437908
		},
		{
			"buffer":0,
			"byteLength":24,
			"byteOffset":437940
		},
		{
			"buffer":0,
			"byteLength":24,
			"byteOffset":437964
		},
		{
			"buffer":0,
			"byteLength":960,
			"byteOffset":437988
		},
		{
			"buffer":0,
			"byteLength":24,
			"byteOffset":438948
		},
		{
			"buffer":0,
			"byteLength":720,
			"byteOffset":438972
		},
		{
			"buffer":0,
			"byteLength":32,
			"byteOffset":439692
		},
		{
			"buffer":0,
			"byteLength":24,
			"byteOffset":439724
		},
		{
			"buffer":0,
			"byteLength":720,
			"byteOffset":439748
		},
		{
			"buffer":0,
			"byteLength":32,
			"byteOffset":440468
		},
		{
			"buffer":0,
			"byteLength":24,
			"byteOffset":440500
		}
	],
	"samplers":[
		{
			"magFilter":9729,
			"minFilter":9987
		}
	],
	"buffers":[
		{
			"byteLength":440524,
			"uri":"Donut_AttackStandby.bin"
		}
	]
}
