{
	"asset":{
		"generator":"Khronos glTF Blender I/O v3.5.30",
		"version":"2.0"
	},
	"scene":0,
	"scenes":[
		{
			"name":"Scene",
			"nodes":[
				14,
				15,
				16,
				17,
				18
			]
		}
	],
	"nodes":[
		{
			"name":"Bone"
		},
		{
			"name":"Bone.002.L",
			"rotation":[
				0.04980804771184921,
				3.095655287665977e-08,
				9.589914640173447e-09,
				0.9987587928771973
			],
			"translation":[
				8.817712782160925e-09,
				0.7161574959754944,
				-8.799904094303201e-08
			]
		},
		{
			"children":[
				1
			],
			"name":"Bone.001.L",
			"rotation":[
				-0.5550042390823364,
				-0.43814417719841003,
				-0.5550041794776917,
				0.43814414739608765
			],
			"scale":[
				0.9999999403953552,
				0.9999999403953552,
				1
			]
		},
		{
			"name":"Bone.005.L",
			"rotation":[
				-0.40232446789741516,
				1.040052168832517e-07,
				-4.609449661074905e-06,
				0.9154971241950989
			],
			"scale":[
				1,
				0.9999999403953552,
				0.9999998807907104
			],
			"translation":[
				1.2287500794627704e-08,
				0.5319564938545227,
				4.67164227302419e-08
			]
		},
		{
			"children":[
				3
			],
			"name":"Bone.004.L",
			"rotation":[
				0.44438621401786804,
				6.645861816423349e-08,
				5.007769686926622e-06,
				0.895835280418396
			],
			"scale":[
				1,
				1,
				1.0000001192092896
			],
			"translation":[
				-5.398637092923764e-09,
				1.2903857231140137,
				6.157392817840446e-09
			]
		},
		{
			"name":"Bone.005.R",
			"rotation":[
				-0.40232446789741516,
				-9.298724279460657e-08,
				4.614292265614495e-06,
				0.9154971241950989
			],
			"scale":[
				1,
				1.0000001192092896,
				1
			],
			"translation":[
				-1.1596057447604835e-11,
				0.5319564938545227,
				1.3911426322010811e-07
			]
		},
		{
			"children":[
				5
			],
			"name":"Bone.004.R",
			"rotation":[
				-3.9181749400540866e-08,
				0.890315592288971,
				-0.45534396171569824,
				1.0043801921710838e-05
			],
			"scale":[
				1,
				0.9999998211860657,
				1
			],
			"translation":[
				3.4904613244179927e-07,
				1.2899974584579468,
				-0.03166113793849945
			]
		},
		{
			"children":[
				4,
				6
			],
			"name":"Bone.003",
			"rotation":[
				-0.7070895433425903,
				-0.0043378728441894054,
				-0.7070974707603455,
				0.004337809979915619
			],
			"scale":[
				1,
				0.9999998807907104,
				0.9999999403953552
			]
		},
		{
			"name":"Bone.002.R",
			"rotation":[
				0.032848648726940155,
				-1.5752780413436085e-08,
				-5.587835971709865e-09,
				0.9994603395462036
			],
			"scale":[
				1,
				0.9999999403953552,
				1
			],
			"translation":[
				-8.817712782160925e-09,
				0.7161574959754944,
				-8.799904094303201e-08
			]
		},
		{
			"children":[
				8
			],
			"name":"Bone.001.R",
			"rotation":[
				-0.5550042390823364,
				0.43814417719841003,
				0.5550041794776917,
				0.43814414739608765
			],
			"scale":[
				0.9999999403953552,
				0.9999999403953552,
				1
			]
		},
		{
			"mesh":0,
			"name":"Button1",
			"skin":0
		},
		{
			"mesh":1,
			"name":"Button2",
			"skin":0
		},
		{
			"mesh":2,
			"name":"\u5186",
			"skin":0
		},
		{
			"mesh":3,
			"name":"\u5186\u67f1",
			"skin":0
		},
		{
			"children":[
				10,
				11,
				12,
				13,
				0,
				2,
				7,
				9
			],
			"name":"\u30a2\u30fc\u30de\u30c1\u30e5\u30a2.001",
			"translation":[
				0,
				3.4541738033294678,
				0.11821048706769943
			]
		},
		{
			"mesh":4,
			"name":"Body",
			"rotation":[
				0.7071068286895752,
				0,
				0,
				0.7071068286895752
			],
			"translation":[
				0,
				4.597020149230957,
				1.0274276733398438
			]
		},
		{
			"name":"\u5e73\u9762",
			"rotation":[
				0.7071068286895752,
				0,
				0,
				0.7071068286895752
			],
			"scale":[
				0.22702592611312866,
				0.22702592611312866,
				0.22702592611312866
			],
			"translation":[
				-0.3486100137233734,
				4.9858598709106445,
				-0.6692748665809631
			]
		},
		{
			"name":"\u30c8\u30fc\u30e9\u30b9.001",
			"rotation":[
				0.7071068286895752,
				0,
				0,
				0.7071068286895752
			],
			"scale":[
				0.16387946903705597,
				0.16387946903705597,
				0.16387946903705597
			],
			"translation":[
				0,
				3.2512571811676025,
				-0.5913844108581543
			]
		},
		{
			"name":"\u30c8\u30fc\u30e9\u30b9.002",
			"rotation":[
				0.7071068286895752,
				0,
				0,
				0.7071068286895752
			],
			"scale":[
				0.16387946903705597,
				0.16387946903705597,
				0.16387946903705597
			],
			"translation":[
				0,
				3.2512571811676025,
				-0.5913844108581543
			]
		}
	],
	"animations":[
		{
			"channels":[
				{
					"sampler":0,
					"target":{
						"node":0,
						"path":"translation"
					}
				},
				{
					"sampler":1,
					"target":{
						"node":0,
						"path":"rotation"
					}
				},
				{
					"sampler":2,
					"target":{
						"node":0,
						"path":"scale"
					}
				},
				{
					"sampler":3,
					"target":{
						"node":2,
						"path":"translation"
					}
				},
				{
					"sampler":4,
					"target":{
						"node":2,
						"path":"rotation"
					}
				},
				{
					"sampler":5,
					"target":{
						"node":2,
						"path":"scale"
					}
				},
				{
					"sampler":6,
					"target":{
						"node":1,
						"path":"translation"
					}
				},
				{
					"sampler":7,
					"target":{
						"node":1,
						"path":"rotation"
					}
				},
				{
					"sampler":8,
					"target":{
						"node":1,
						"path":"scale"
					}
				},
				{
					"sampler":9,
					"target":{
						"node":7,
						"path":"translation"
					}
				},
				{
					"sampler":10,
					"target":{
						"node":7,
						"path":"rotation"
					}
				},
				{
					"sampler":11,
					"target":{
						"node":7,
						"path":"scale"
					}
				},
				{
					"sampler":12,
					"target":{
						"node":4,
						"path":"translation"
					}
				},
				{
					"sampler":13,
					"target":{
						"node":4,
						"path":"rotation"
					}
				},
				{
					"sampler":14,
					"target":{
						"node":4,
						"path":"scale"
					}
				},
				{
					"sampler":15,
					"target":{
						"node":3,
						"path":"translation"
					}
				},
				{
					"sampler":16,
					"target":{
						"node":3,
						"path":"rotation"
					}
				},
				{
					"sampler":17,
					"target":{
						"node":3,
						"path":"scale"
					}
				},
				{
					"sampler":18,
					"target":{
						"node":6,
						"path":"translation"
					}
				},
				{
					"sampler":19,
					"target":{
						"node":6,
						"path":"rotation"
					}
				},
				{
					"sampler":20,
					"target":{
						"node":6,
						"path":"scale"
					}
				},
				{
					"sampler":21,
					"target":{
						"node":5,
						"path":"translation"
					}
				},
				{
					"sampler":22,
					"target":{
						"node":5,
						"path":"rotation"
					}
				},
				{
					"sampler":23,
					"target":{
						"node":5,
						"path":"scale"
					}
				},
				{
					"sampler":24,
					"target":{
						"node":9,
						"path":"translation"
					}
				},
				{
					"sampler":25,
					"target":{
						"node":9,
						"path":"rotation"
					}
				},
				{
					"sampler":26,
					"target":{
						"node":9,
						"path":"scale"
					}
				},
				{
					"sampler":27,
					"target":{
						"node":8,
						"path":"translation"
					}
				},
				{
					"sampler":28,
					"target":{
						"node":8,
						"path":"rotation"
					}
				},
				{
					"sampler":29,
					"target":{
						"node":8,
						"path":"scale"
					}
				}
			],
			"name":"\u30a2\u30fc\u30de\u30c1\u30e5\u30a2.001Action",
			"samplers":[
				{
					"input":34,
					"interpolation":"LINEAR",
					"output":35
				},
				{
					"input":34,
					"interpolation":"LINEAR",
					"output":36
				},
				{
					"input":34,
					"interpolation":"LINEAR",
					"output":37
				},
				{
					"input":34,
					"interpolation":"LINEAR",
					"output":38
				},
				{
					"input":34,
					"interpolation":"LINEAR",
					"output":39
				},
				{
					"input":34,
					"interpolation":"LINEAR",
					"output":40
				},
				{
					"input":34,
					"interpolation":"LINEAR",
					"output":41
				},
				{
					"input":34,
					"interpolation":"LINEAR",
					"output":42
				},
				{
					"input":34,
					"interpolation":"LINEAR",
					"output":43
				},
				{
					"input":34,
					"interpolation":"LINEAR",
					"output":44
				},
				{
					"input":34,
					"interpolation":"LINEAR",
					"output":45
				},
				{
					"input":34,
					"interpolation":"LINEAR",
					"output":46
				},
				{
					"input":34,
					"interpolation":"LINEAR",
					"output":47
				},
				{
					"input":34,
					"interpolation":"LINEAR",
					"output":48
				},
				{
					"input":34,
					"interpolation":"LINEAR",
					"output":49
				},
				{
					"input":34,
					"interpolation":"LINEAR",
					"output":50
				},
				{
					"input":34,
					"interpolation":"LINEAR",
					"output":51
				},
				{
					"input":34,
					"interpolation":"LINEAR",
					"output":52
				},
				{
					"input":34,
					"interpolation":"LINEAR",
					"output":53
				},
				{
					"input":34,
					"interpolation":"LINEAR",
					"output":54
				},
				{
					"input":34,
					"interpolation":"LINEAR",
					"output":55
				},
				{
					"input":34,
					"interpolation":"LINEAR",
					"output":56
				},
				{
					"input":34,
					"interpolation":"LINEAR",
					"output":57
				},
				{
					"input":34,
					"interpolation":"LINEAR",
					"output":58
				},
				{
					"input":34,
					"interpolation":"LINEAR",
					"output":59
				},
				{
					"input":34,
					"interpolation":"LINEAR",
					"output":60
				},
				{
					"input":34,
					"interpolation":"LINEAR",
					"output":61
				},
				{
					"input":34,
					"interpolation":"LINEAR",
					"output":62
				},
				{
					"input":34,
					"interpolation":"LINEAR",
					"output":63
				},
				{
					"input":34,
					"interpolation":"LINEAR",
					"output":64
				}
			]
		}
	],
	"materials":[
		{
			"doubleSided":true,
			"name":"\u30de\u30c6\u30ea\u30a2\u30eb.009",
			"pbrMetallicRoughness":{
				"baseColorTexture":{
					"index":0
				},
				"metallicFactor":0,
				"roughnessFactor":0.5
			}
		},
		{
			"doubleSided":true,
			"name":"\u30de\u30c6\u30ea\u30a2\u30eb.008",
			"pbrMetallicRoughness":{
				"baseColorTexture":{
					"index":1
				},
				"metallicFactor":0,
				"roughnessFactor":0.5
			}
		},
		{
			"doubleSided":true,
			"name":"\u30de\u30c6\u30ea\u30a2\u30eb.005",
			"pbrMetallicRoughness":{
				"baseColorTexture":{
					"index":2
				},
				"metallicFactor":0,
				"roughnessFactor":0.5
			}
		},
		{
			"doubleSided":true,
			"name":"\u30de\u30c6\u30ea\u30a2\u30eb.006",
			"pbrMetallicRoughness":{
				"baseColorTexture":{
					"index":3
				},
				"metallicFactor":0,
				"roughnessFactor":0.5
			}
		}
	],
	"meshes":[
		{
			"name":"\u7403.006",
			"primitives":[
				{
					"attributes":{
						"POSITION":0,
						"TEXCOORD_0":1,
						"NORMAL":2,
						"JOINTS_0":3,
						"WEIGHTS_0":4
					},
					"indices":5,
					"material":0
				}
			]
		},
		{
			"name":"\u7403.002",
			"primitives":[
				{
					"attributes":{
						"POSITION":7,
						"TEXCOORD_0":8,
						"NORMAL":9,
						"JOINTS_0":10,
						"WEIGHTS_0":11
					},
					"indices":5,
					"material":0
				}
			]
		},
		{
			"name":"\u5186.001",
			"primitives":[
				{
					"attributes":{
						"POSITION":12,
						"TEXCOORD_0":13,
						"NORMAL":14,
						"JOINTS_0":15,
						"WEIGHTS_0":16
					},
					"indices":17,
					"material":1
				}
			]
		},
		{
			"name":"\u5186\u67f1.001",
			"primitives":[
				{
					"attributes":{
						"POSITION":18,
						"TEXCOORD_0":19,
						"NORMAL":20,
						"JOINTS_0":21,
						"WEIGHTS_0":22
					},
					"indices":23,
					"material":2
				},
				{
					"attributes":{
						"POSITION":24,
						"TEXCOORD_0":25,
						"NORMAL":26,
						"JOINTS_0":27,
						"WEIGHTS_0":28
					},
					"indices":29,
					"material":3
				}
			]
		},
		{
			"name":"\u5186",
			"primitives":[
				{
					"attributes":{
						"POSITION":30,
						"TEXCOORD_0":31,
						"NORMAL":32
					},
					"indices":33
				}
			]
		}
	],
	"textures":[
		{
			"sampler":0,
			"source":0
		},
		{
			"sampler":0,
			"source":1
		},
		{
			"sampler":0,
			"source":2
		},
		{
			"sampler":0,
			"source":3
		}
	],
	"images":[
		{
			"mimeType":"image/png",
			"name":"Botton.png.001",
			"uri":"Botton.png"
		},
		{
			"mimeType":"image/png",
			"name":"Body.png",
			"uri":"Body.png"
		},
		{
			"mimeType":"image/png",
			"name":"StickRed.png.001",
			"uri":"StickRed.png"
		},
		{
			"mimeType":"image/png",
			"name":"StickWhite.png.001",
			"uri":"StickWhite.png"
		}
	],
	"skins":[
		{
			"inverseBindMatrices":6,
			"joints":[
				0,
				2,
				1,
				7,
				4,
				3,
				6,
				5,
				9,
				8
			],
			"name":"\u30a2\u30fc\u30de\u30c1\u30e5\u30a2.001"
		}
	],
	"accessors":[
		{
			"bufferView":0,
			"componentType":5126,
			"count":427,
			"max":[
				0.1411978155374527,
				3.302583694458008,
				-0.5225187540054321
			],
			"min":[
				-0.1411978006362915,
				3.019946575164795,
				-0.7412043809890747
			],
			"type":"VEC3"
		},
		{
			"bufferView":1,
			"componentType":5126,
			"count":427,
			"type":"VEC2"
		},
		{
			"bufferView":2,
			"componentType":5126,
			"count":427,
			"type":"VEC3"
		},
		{
			"bufferView":3,
			"componentType":5121,
			"count":427,
			"type":"VEC4"
		},
		{
			"bufferView":4,
			"componentType":5126,
			"count":427,
			"type":"VEC4"
		},
		{
			"bufferView":5,
			"componentType":5123,
			"count":2208,
			"type":"SCALAR"
		},
		{
			"bufferView":6,
			"componentType":5126,
			"count":10,
			"type":"MAT4"
		},
		{
			"bufferView":7,
			"componentType":5126,
			"count":427,
			"max":[
				0.1411978155374527,
				2.4232869148254395,
				-0.5225187540054321
			],
			"min":[
				-0.1411978006362915,
				2.1406500339508057,
				-0.7412043809890747
			],
			"type":"VEC3"
		},
		{
			"bufferView":8,
			"componentType":5126,
			"count":427,
			"type":"VEC2"
		},
		{
			"bufferView":9,
			"componentType":5126,
			"count":427,
			"type":"VEC3"
		},
		{
			"bufferView":10,
			"componentType":5121,
			"count":427,
			"type":"VEC4"
		},
		{
			"bufferView":11,
			"componentType":5126,
			"count":427,
			"type":"VEC4"
		},
		{
			"bufferView":12,
			"componentType":5126,
			"count":4342,
			"max":[
				2.552302598953247,
				5.715978622436523,
				-0.037554387003183365
			],
			"min":[
				-2.552302360534668,
				-0.04218967258930206,
				-0.5847007036209106
			],
			"type":"VEC3"
		},
		{
			"bufferView":13,
			"componentType":5126,
			"count":4342,
			"type":"VEC2"
		},
		{
			"bufferView":14,
			"componentType":5126,
			"count":4342,
			"type":"VEC3"
		},
		{
			"bufferView":15,
			"componentType":5121,
			"count":4342,
			"type":"VEC4"
		},
		{
			"bufferView":16,
			"componentType":5126,
			"count":4342,
			"type":"VEC4"
		},
		{
			"bufferView":17,
			"componentType":5123,
			"count":22464,
			"type":"SCALAR"
		},
		{
			"bufferView":18,
			"componentType":5126,
			"count":30774,
			"max":[
				-2.0792646408081055,
				6.445255279541016,
				-0.46504127979278564
			],
			"min":[
				-3.5361275672912598,
				1.753346562385559,
				-0.7060373425483704
			],
			"type":"VEC3"
		},
		{
			"bufferView":19,
			"componentType":5126,
			"count":30774,
			"type":"VEC2"
		},
		{
			"bufferView":20,
			"componentType":5126,
			"count":30774,
			"type":"VEC3"
		},
		{
			"bufferView":21,
			"componentType":5121,
			"count":30774,
			"type":"VEC4"
		},
		{
			"bufferView":22,
			"componentType":5126,
			"count":30774,
			"type":"VEC4"
		},
		{
			"bufferView":23,
			"componentType":5123,
			"count":34560,
			"type":"SCALAR"
		},
		{
			"bufferView":24,
			"componentType":5126,
			"count":31158,
			"max":[
				-2.079293966293335,
				6.414824485778809,
				-0.46558040380477905
			],
			"min":[
				-3.559309482574463,
				1.9320778846740723,
				-0.7054982781410217
			],
			"type":"VEC3"
		},
		{
			"bufferView":25,
			"componentType":5126,
			"count":31158,
			"type":"VEC2"
		},
		{
			"bufferView":26,
			"componentType":5126,
			"count":31158,
			"type":"VEC3"
		},
		{
			"bufferView":27,
			"componentType":5121,
			"count":31158,
			"type":"VEC4"
		},
		{
			"bufferView":28,
			"componentType":5126,
			"count":31158,
			"type":"VEC4"
		},
		{
			"bufferView":29,
			"componentType":5123,
			"count":34560,
			"type":"SCALAR"
		},
		{
			"bufferView":30,
			"componentType":5126,
			"count":4217,
			"max":[
				2.564297676086426,
				0.003050361992791295,
				4.633002281188965
			],
			"min":[
				-2.564297676086426,
				-0.5471205711364746,
				-1.0602830648422241
			],
			"type":"VEC3"
		},
		{
			"bufferView":31,
			"componentType":5126,
			"count":4217,
			"type":"VEC2"
		},
		{
			"bufferView":32,
			"componentType":5126,
			"count":4217,
			"type":"VEC3"
		},
		{
			"bufferView":33,
			"componentType":5123,
			"count":25290,
			"type":"SCALAR"
		},
		{
			"bufferView":34,
			"componentType":5126,
			"count":20,
			"max":[
				0.8333333333333334
			],
			"min":[
				0.041666666666666664
			],
			"type":"SCALAR"
		},
		{
			"bufferView":35,
			"componentType":5126,
			"count":20,
			"type":"VEC3"
		},
		{
			"bufferView":36,
			"componentType":5126,
			"count":20,
			"type":"VEC4"
		},
		{
			"bufferView":37,
			"componentType":5126,
			"count":20,
			"type":"VEC3"
		},
		{
			"bufferView":38,
			"componentType":5126,
			"count":20,
			"type":"VEC3"
		},
		{
			"bufferView":39,
			"componentType":5126,
			"count":20,
			"type":"VEC4"
		},
		{
			"bufferView":40,
			"componentType":5126,
			"count":20,
			"type":"VEC3"
		},
		{
			"bufferView":41,
			"componentType":5126,
			"count":20,
			"type":"VEC3"
		},
		{
			"bufferView":42,
			"componentType":5126,
			"count":20,
			"type":"VEC4"
		},
		{
			"bufferView":43,
			"componentType":5126,
			"count":20,
			"type":"VEC3"
		},
		{
			"bufferView":44,
			"componentType":5126,
			"count":20,
			"type":"VEC3"
		},
		{
			"bufferView":45,
			"componentType":5126,
			"count":20,
			"type":"VEC4"
		},
		{
			"bufferView":46,
			"componentType":5126,
			"count":20,
			"type":"VEC3"
		},
		{
			"bufferView":47,
			"componentType":5126,
			"count":20,
			"type":"VEC3"
		},
		{
			"bufferView":48,
			"componentType":5126,
			"count":20,
			"type":"VEC4"
		},
		{
			"bufferView":49,
			"componentType":5126,
			"count":20,
			"type":"VEC3"
		},
		{
			"bufferView":50,
			"componentType":5126,
			"count":20,
			"type":"VEC3"
		},
		{
			"bufferView":51,
			"componentType":5126,
			"count":20,
			"type":"VEC4"
		},
		{
			"bufferView":52,
			"componentType":5126,
			"count":20,
			"type":"VEC3"
		},
		{
			"bufferView":53,
			"componentType":5126,
			"count":20,
			"type":"VEC3"
		},
		{
			"bufferView":54,
			"componentType":5126,
			"count":20,
			"type":"VEC4"
		},
		{
			"bufferView":55,
			"componentType":5126,
			"count":20,
			"type":"VEC3"
		},
		{
			"bufferView":56,
			"componentType":5126,
			"count":20,
			"type":"VEC3"
		},
		{
			"bufferView":57,
			"componentType":5126,
			"count":20,
			"type":"VEC4"
		},
		{
			"bufferView":58,
			"componentType":5126,
			"count":20,
			"type":"VEC3"
		},
		{
			"bufferView":59,
			"componentType":5126,
			"count":20,
			"type":"VEC3"
		},
		{
			"bufferView":60,
			"componentType":5126,
			"count":20,
			"type":"VEC4"
		},
		{
			"bufferView":61,
			"componentType":5126,
			"count":20,
			"type":"VEC3"
		},
		{
			"bufferView":62,
			"componentType":5126,
			"count":20,
			"type":"VEC3"
		},
		{
			"bufferView":63,
			"componentType":5126,
			"count":20,
			"type":"VEC4"
		},
		{
			"bufferView":64,
			"componentType":5126,
			"count":20,
			"type":"VEC3"
		}
	],
	"bufferViews":[
		{
			"buffer":0,
			"byteLength":5124,
			"byteOffset":0,
			"target":34962
		},
		{
			"buffer":0,
			"byteLength":3416,
			"byteOffset":5124,
			"target":34962
		},
		{
			"buffer":0,
			"byteLength":5124,
			"byteOffset":8540,
			"target":34962
		},
		{
			"buffer":0,
			"byteLength":1708,
			"byteOffset":13664,
			"target":34962
		},
		{
			"buffer":0,
			"byteLength":6832,
			"byteOffset":15372,
			"target":34962
		},
		{
			"buffer":0,
			"byteLength":4416,
			"byteOffset":22204,
			"target":34963
		},
		{
			"buffer":0,
			"byteLength":640,
			"byteOffset":26620
		},
		{
			"buffer":0,
			"byteLength":5124,
			"byteOffset":27260,
			"target":34962
		},
		{
			"buffer":0,
			"byteLength":3416,
			"byteOffset":32384,
			"target":34962
		},
		{
			"buffer":0,
			"byteLength":5124,
			"byteOffset":35800,
			"target":34962
		},
		{
			"buffer":0,
			"byteLength":1708,
			"byteOffset":40924,
			"target":34962
		},
		{
			"buffer":0,
			"byteLength":6832,
			"byteOffset":42632,
			"target":34962
		},
		{
			"buffer":0,
			"byteLength":52104,
			"byteOffset":49464,
			"target":34962
		},
		{
			"buffer":0,
			"byteLength":34736,
			"byteOffset":101568,
			"target":34962
		},
		{
			"buffer":0,
			"byteLength":52104,
			"byteOffset":136304,
			"target":34962
		},
		{
			"buffer":0,
			"byteLength":17368,
			"byteOffset":188408,
			"target":34962
		},
		{
			"buffer":0,
			"byteLength":69472,
			"byteOffset":205776,
			"target":34962
		},
		{
			"buffer":0,
			"byteLength":44928,
			"byteOffset":275248,
			"target":34963
		},
		{
			"buffer":0,
			"byteLength":369288,
			"byteOffset":320176,
			"target":34962
		},
		{
			"buffer":0,
			"byteLength":246192,
			"byteOffset":689464,
			"target":34962
		},
		{
			"buffer":0,
			"byteLength":369288,
			"byteOffset":935656,
			"target":34962
		},
		{
			"buffer":0,
			"byteLength":123096,
			"byteOffset":1304944,
			"target":34962
		},
		{
			"buffer":0,
			"byteLength":492384,
			"byteOffset":1428040,
			"target":34962
		},
		{
			"buffer":0,
			"byteLength":69120,
			"byteOffset":1920424,
			"target":34963
		},
		{
			"buffer":0,
			"byteLength":373896,
			"byteOffset":1989544,
			"target":34962
		},
		{
			"buffer":0,
			"byteLength":249264,
			"byteOffset":2363440,
			"target":34962
		},
		{
			"buffer":0,
			"byteLength":373896,
			"byteOffset":2612704,
			"target":34962
		},
		{
			"buffer":0,
			"byteLength":124632,
			"byteOffset":2986600,
			"target":34962
		},
		{
			"buffer":0,
			"byteLength":498528,
			"byteOffset":3111232,
			"target":34962
		},
		{
			"buffer":0,
			"byteLength":69120,
			"byteOffset":3609760,
			"target":34963
		},
		{
			"buffer":0,
			"byteLength":50604,
			"byteOffset":3678880,
			"target":34962
		},
		{
			"buffer":0,
			"byteLength":33736,
			"byteOffset":3729484,
			"target":34962
		},
		{
			"buffer":0,
			"byteLength":50604,
			"byteOffset":3763220,
			"target":34962
		},
		{
			"buffer":0,
			"byteLength":50580,
			"byteOffset":3813824,
			"target":34963
		},
		{
			"buffer":0,
			"byteLength":80,
			"byteOffset":3864404
		},
		{
			"buffer":0,
			"byteLength":240,
			"byteOffset":3864484
		},
		{
			"buffer":0,
			"byteLength":320,
			"byteOffset":3864724
		},
		{
			"buffer":0,
			"byteLength":240,
			"byteOffset":3865044
		},
		{
			"buffer":0,
			"byteLength":240,
			"byteOffset":3865284
		},
		{
			"buffer":0,
			"byteLength":320,
			"byteOffset":3865524
		},
		{
			"buffer":0,
			"byteLength":240,
			"byteOffset":3865844
		},
		{
			"buffer":0,
			"byteLength":240,
			"byteOffset":3866084
		},
		{
			"buffer":0,
			"byteLength":320,
			"byteOffset":3866324
		},
		{
			"buffer":0,
			"byteLength":240,
			"byteOffset":3866644
		},
		{
			"buffer":0,
			"byteLength":240,
			"byteOffset":3866884
		},
		{
			"buffer":0,
			"byteLength":320,
			"byteOffset":3867124
		},
		{
			"buffer":0,
			"byteLength":240,
			"byteOffset":3867444
		},
		{
			"buffer":0,
			"byteLength":240,
			"byteOffset":3867684
		},
		{
			"buffer":0,
			"byteLength":320,
			"byteOffset":3867924
		},
		{
			"buffer":0,
			"byteLength":240,
			"byteOffset":3868244
		},
		{
			"buffer":0,
			"byteLength":240,
			"byteOffset":3868484
		},
		{
			"buffer":0,
			"byteLength":320,
			"byteOffset":3868724
		},
		{
			"buffer":0,
			"byteLength":240,
			"byteOffset":3869044
		},
		{
			"buffer":0,
			"byteLength":240,
			"byteOffset":3869284
		},
		{
			"buffer":0,
			"byteLength":320,
			"byteOffset":3869524
		},
		{
			"buffer":0,
			"byteLength":240,
			"byteOffset":3869844
		},
		{
			"buffer":0,
			"byteLength":240,
			"byteOffset":3870084
		},
		{
			"buffer":0,
			"byteLength":320,
			"byteOffset":3870324
		},
		{
			"buffer":0,
			"byteLength":240,
			"byteOffset":3870644
		},
		{
			"buffer":0,
			"byteLength":240,
			"byteOffset":3870884
		},
		{
			"buffer":0,
			"byteLength":320,
			"byteOffset":3871124
		},
		{
			"buffer":0,
			"byteLength":240,
			"byteOffset":3871444
		},
		{
			"buffer":0,
			"byteLength":240,
			"byteOffset":3871684
		},
		{
			"buffer":0,
			"byteLength":320,
			"byteOffset":3871924
		},
		{
			"buffer":0,
			"byteLength":240,
			"byteOffset":3872244
		}
	],
	"samplers":[
		{
			"magFilter":9729,
			"minFilter":9987
		}
	],
	"buffers":[
		{
			"byteLength":3872484,
			"uri":"Gentlman.bin"
		}
	]
}
