# Blender v3.5.0 OBJ File: ''
# www.blender.org
mtllib IceBlock.mtl
o Solid
v -0.709809 0.000000 0.438686
v 0.709809 -0.000000 0.438686
v -0.709809 -0.000000 -0.438686
v 0.709809 0.000000 -0.438686
v -0.438686 0.709809 0.000000
v -0.438686 -0.709809 -0.000000
v 0.438686 0.709809 -0.000000
v 0.438686 -0.709809 0.000000
v 0.000000 0.438686 0.709809
v 0.000000 0.438686 -0.709809
v 0.000000 -0.438686 0.709809
v 0.000000 -0.438686 -0.709809
v -0.810448 0.000000 0.000000
v 0.810448 0.000000 0.000000
v -0.655666 0.405224 -0.250442
v -0.655666 0.405224 0.250442
v -0.655666 -0.405224 0.250442
v -0.655666 -0.405224 -0.250442
v 0.655666 0.405224 0.250442
v 0.655666 0.405224 -0.250442
v 0.000000 0.810448 0.000000
v 0.000000 -0.810448 0.000000
v 0.655666 -0.405224 -0.250442
v 0.655666 -0.405224 0.250442
v -0.405224 0.250442 0.655666
v 0.405224 0.250442 0.655666
v 0.250442 0.655666 0.405224
v -0.250442 0.655666 0.405224
v -0.250442 0.655666 -0.405224
v 0.250442 0.655666 -0.405224
v 0.405224 0.250442 -0.655666
v -0.405224 0.250442 -0.655666
v -0.250442 -0.655666 0.405224
v 0.250442 -0.655666 0.405224
v 0.405224 -0.250442 0.655666
v 0.000000 0.000000 0.810448
v -0.405224 -0.250442 0.655666
v -0.405224 -0.250442 -0.655666
v 0.000000 0.000000 -0.810448
v 0.405224 -0.250442 -0.655666
v 0.250442 -0.655666 -0.405224
v -0.250442 -0.655666 -0.405224
v -0.458794 0.458794 0.458794
v -0.458794 -0.458794 0.458794
v -0.458794 0.458794 -0.458794
v -0.458794 -0.458794 -0.458794
v 0.458794 0.458794 0.458794
v 0.458794 -0.458794 0.458794
v 0.458794 0.458794 -0.458794
v 0.458794 -0.458794 -0.458794
v -0.283550 0.000000 0.742344
v 0.283550 0.000000 0.742344
v -0.283550 0.000000 -0.742344
v 0.283550 0.000000 -0.742344
v -0.742344 0.283550 0.000000
v -0.742344 -0.283550 0.000000
v 0.742344 0.283550 0.000000
v 0.742344 -0.283550 0.000000
v 0.000000 0.742344 0.283550
v 0.000000 0.742344 -0.283550
v 0.000000 -0.742344 0.283550
v 0.000000 -0.742344 -0.283550
vt 0.889086 0.726241
vt 0.971990 0.596961
vt 1.000000 0.663546
vt 0.666667 0.232293
vt 0.739376 0.097016
vt 0.769673 0.166372
vt 0.810915 0.241538
vt 0.769807 0.311426
vt 0.739620 0.362746
vt 0.667785 0.339592
vt 0.810915 0.604658
vt 0.896651 0.604181
vt 0.555519 0.254084
vt 0.638656 0.129280
vt 0.666533 0.207749
vt 0.666667 0.278559
vt 0.603347 0.335396
vt 0.522903 0.363120
vt 0.461080 0.328597
vt 0.406042 0.266104
vt 0.436340 0.196749
vt 0.477582 0.121583
vt 0.563317 0.122060
vt 0.888852 0.109037
vt 0.856237 0.000000
vt 0.936680 0.027725
vt 1.000000 0.084562
vt 0.999867 0.155372
vt 0.971990 0.233841
vt 0.896651 0.241060
vt 0.794413 0.034523
vt 0.333333 0.130828
vt 0.406287 0.000374
vt 0.436473 0.051695
vt 0.334236 0.258231
vt 0.000000 0.646573
vt 0.072709 0.511296
vt 0.103007 0.580652
vt 0.144248 0.655818
vt 0.103140 0.725706
vt 0.222186 0.305243
vt 0.189570 0.414280
vt 0.127746 0.379756
vt 0.072709 0.317263
vt 0.103007 0.247908
vt 0.144248 0.172742
vt 0.229984 0.173220
vt 0.305323 0.180439
vt 0.333200 0.258908
vt 0.333333 0.329718
vt 0.270013 0.386555
vt 0.333333 0.595413
vt 0.406287 0.725866
vt 0.334452 0.702712
vt 0.889086 0.363120
vt 1.000000 0.300426
vt 0.406042 0.460137
vt 0.436340 0.529492
vt 0.477582 0.604658
vt 0.436473 0.674546
vt 0.555753 0.000000
vt 0.000000 0.181987
vt 0.072953 0.051534
vt 0.103140 0.102854
vt 0.000902 0.309391
vt 0.555519 0.472157
vt 0.638656 0.596961
vt 0.563317 0.604181
vt 0.461080 0.397644
vt 0.522903 0.363120
vt 0.603347 0.390845
vt 0.666667 0.447682
vt 0.666533 0.518492
vt 0.888852 0.472158
vt 0.769673 0.529492
vt 0.739376 0.460137
vt 0.794413 0.397644
vt 0.856237 0.363120
vt 0.936680 0.390845
vt 1.000000 0.447682
vt 0.999866 0.518492
vt 0.222419 0.051159
vt 0.128096 0.000000
vt 0.222419 0.777400
vt 0.229984 0.655340
vt 0.305323 0.648120
vt 0.333333 0.714706
vt 0.666667 0.595413
vt 0.739620 0.725866
vt 0.667785 0.702712
vt 0.555753 0.726241
vt 0.666667 0.663546
vt 0.769807 0.674546
vt 0.222186 0.523317
vt 0.333333 0.498842
vt 0.333200 0.569651
vt 0.127746 0.448803
vt 0.189570 0.414280
vt 0.270014 0.442005
vt 0.667569 0.104889
vt 0.334452 0.023529
vt 0.000902 0.519169
vt 0.334236 0.468010
vt 0.666667 0.062695
vt 0.001118 0.074688
vt 0.333333 0.113854
vt 0.667569 0.468010
vn -0.7211 0.3688 0.5865
vn -0.9490 0.2279 0.2177
vn -0.9490 -0.2279 0.2177
vn -0.7211 -0.3688 0.5865
vn -0.5802 -0.0000 0.8145
vn 0.7211 0.3688 0.5865
vn 0.5802 0.0000 0.8145
vn 0.7211 -0.3688 0.5865
vn 0.9490 -0.2279 0.2177
vn 0.9490 0.2279 0.2177
vn -0.7211 0.3688 -0.5865
vn -0.5802 0.0000 -0.8145
vn -0.7211 -0.3688 -0.5865
vn -0.9490 -0.2279 -0.2177
vn -0.9490 0.2279 -0.2177
vn 0.7211 0.3688 -0.5865
vn 0.9490 0.2279 -0.2177
vn 0.9490 -0.2279 -0.2177
vn 0.7211 -0.3688 -0.5865
vn 0.5802 -0.0000 -0.8145
vn -0.5865 0.7211 0.3688
vn -0.2177 0.9490 0.2279
vn -0.2177 0.9490 -0.2279
vn -0.5865 0.7211 -0.3688
vn -0.8145 0.5802 -0.0000
vn -0.5865 -0.7211 0.3688
vn -0.8145 -0.5802 0.0000
vn -0.5865 -0.7211 -0.3688
vn -0.2177 -0.9490 -0.2279
vn -0.2177 -0.9490 0.2279
vn 0.5865 0.7211 0.3688
vn 0.8145 0.5802 0.0000
vn 0.5865 0.7211 -0.3688
vn 0.2177 0.9490 -0.2279
vn 0.2177 0.9490 0.2279
vn 0.5865 -0.7211 0.3688
vn 0.2177 -0.9490 0.2279
vn 0.2177 -0.9490 -0.2279
vn 0.5865 -0.7211 -0.3688
vn 0.8145 -0.5802 -0.0000
vn -0.3688 0.5865 0.7211
vn -0.2279 0.2177 0.9490
vn 0.2279 0.2177 0.9490
vn 0.3688 0.5865 0.7211
vn 0.0000 0.8145 0.5802
vn -0.3688 0.5865 -0.7211
vn -0.0000 0.8145 -0.5802
vn 0.3688 0.5865 -0.7211
vn 0.2279 0.2177 -0.9490
vn -0.2279 0.2177 -0.9490
vn -0.3688 -0.5865 0.7211
vn -0.0000 -0.8145 0.5802
vn 0.3688 -0.5865 0.7211
vn 0.2279 -0.2177 0.9490
vn -0.2279 -0.2177 0.9490
vn -0.3688 -0.5865 -0.7211
vn -0.2279 -0.2177 -0.9490
vn 0.2279 -0.2177 -0.9490
vn 0.3688 -0.5865 -0.7211
vn 0.0000 -0.8145 -0.5802
usemtl マテリアル
s off
f 1/1/1 43/2/1 16/3/1
f 1/4/2 55/5/2 13/6/2
f 1/4/3 56/7/3 17/8/3
f 1/4/4 44/9/4 37/10/4
f 1/1/5 51/11/5 25/12/5
f 2/13/6 47/14/6 26/15/6
f 2/13/7 52/16/7 35/17/7
f 2/13/8 48/18/8 24/19/8
f 2/13/9 58/20/9 14/21/9
f 2/13/10 57/22/10 19/23/10
f 3/24/11 45/25/11 32/26/11
f 3/24/12 53/27/12 38/28/12
f 3/24/13 46/29/13 18/30/13
f 3/24/14 56/7/14 13/6/14
f 3/24/15 55/5/15 15/31/15
f 4/32/16 49/33/16 20/34/16
f 4/32/17 57/22/17 14/21/17
f 4/32/18 58/20/18 23/35/18
f 4/36/19 50/37/19 40/38/19
f 4/36/20 54/39/20 31/40/20
f 5/41/21 43/42/21 28/43/21
f 5/41/22 59/44/22 21/45/22
f 5/41/23 60/46/23 29/47/23
f 5/41/24 45/48/24 15/49/24
f 5/41/25 55/50/25 16/51/25
f 6/52/26 44/53/26 17/54/26
f 6/55/27 56/7/27 18/30/27
f 6/55/28 46/29/28 42/56/28
f 6/52/29 62/57/29 22/58/29
f 6/52/30 61/59/30 33/60/30
f 7/61/31 47/14/31 19/23/31
f 7/61/32 57/22/32 20/34/32
f 7/62/33 49/63/33 30/64/33
f 7/62/34 60/46/34 21/45/34
f 7/62/35 59/44/35 27/65/35
f 8/66/36 48/67/36 34/68/36
f 8/66/37 61/59/37 22/58/37
f 8/66/38 62/57/38 41/69/38
f 8/66/39 50/70/39 23/71/39
f 8/66/40 58/72/40 24/73/40
f 9/74/41 43/2/41 25/12/41
f 9/74/42 51/11/42 36/75/42
f 9/74/43 52/76/43 26/77/43
f 9/74/44 47/78/44 27/79/44
f 9/74/45 59/80/45 28/81/45
f 10/82/46 45/48/46 29/47/46
f 10/82/47 60/46/47 30/64/47
f 10/82/48 49/63/48 31/83/48
f 10/84/49 54/39/49 39/85/49
f 10/84/50 53/86/50 32/87/50
f 11/88/51 44/89/51 33/90/51
f 11/91/52 61/59/52 34/68/52
f 11/91/53 48/67/53 35/92/53
f 11/88/54 52/76/54 36/75/54
f 11/88/55 51/11/55 37/93/55
f 12/94/56 46/95/56 38/96/56
f 12/94/57 53/86/57 39/85/57
f 12/94/58 54/39/58 40/38/58
f 12/94/59 50/37/59 41/97/59
f 12/94/60 62/98/60 42/99/60
f 1/1/1 25/12/1 43/2/1
f 1/4/2 16/100/2 55/5/2
f 1/4/3 13/6/3 56/7/3
f 1/4/4 17/8/4 44/9/4
f 1/1/5 37/93/5 51/11/5
f 2/13/6 19/23/6 47/14/6
f 2/13/7 26/15/7 52/16/7
f 2/13/8 35/17/8 48/18/8
f 2/13/9 24/19/9 58/20/9
f 2/13/10 14/21/10 57/22/10
f 3/24/11 15/31/11 45/25/11
f 3/24/12 32/26/12 53/27/12
f 3/24/13 38/28/13 46/29/13
f 3/24/14 18/30/14 56/7/14
f 3/24/15 13/6/15 55/5/15
f 4/32/16 31/101/16 49/33/16
f 4/32/17 20/34/17 57/22/17
f 4/32/18 14/21/18 58/20/18
f 4/36/19 23/102/19 50/37/19
f 4/36/20 40/38/20 54/39/20
f 5/41/21 16/51/21 43/42/21
f 5/41/22 28/43/22 59/44/22
f 5/41/23 21/45/23 60/46/23
f 5/41/24 29/47/24 45/48/24
f 5/41/25 15/49/25 55/50/25
f 6/52/26 33/60/26 44/53/26
f 6/55/27 17/8/27 56/7/27
f 6/55/28 18/30/28 46/29/28
f 6/52/29 42/103/29 62/57/29
f 6/52/30 22/58/30 61/59/30
f 7/61/31 27/104/31 47/14/31
f 7/61/32 19/23/32 57/22/32
f 7/62/33 20/105/33 49/63/33
f 7/62/34 30/64/34 60/46/34
f 7/62/35 21/45/35 59/44/35
f 8/66/36 24/73/36 48/67/36
f 8/66/37 34/68/37 61/59/37
f 8/66/38 22/58/38 62/57/38
f 8/66/39 41/69/39 50/70/39
f 8/66/40 23/71/40 58/72/40
f 9/74/41 28/81/41 43/2/41
f 9/74/42 25/12/42 51/11/42
f 9/74/43 36/75/43 52/76/43
f 9/74/44 26/77/44 47/78/44
f 9/74/45 27/79/45 59/80/45
f 10/82/46 32/106/46 45/48/46
f 10/82/47 29/47/47 60/46/47
f 10/82/48 30/64/48 49/63/48
f 10/84/49 31/40/49 54/39/49
f 10/84/50 39/85/50 53/86/50
f 11/88/51 37/93/51 44/89/51
f 11/91/52 33/60/52 61/59/52
f 11/91/53 34/68/53 48/67/53
f 11/88/54 35/107/54 52/76/54
f 11/88/55 36/75/55 51/11/55
f 12/94/56 42/99/56 46/95/56
f 12/94/57 38/96/57 53/86/57
f 12/94/58 39/85/58 54/39/58
f 12/94/59 40/38/59 50/37/59
f 12/94/60 41/97/60 62/98/60
