{
	"asset":{
		"generator":"Khronos glTF Blender I/O v4.3.47",
		"version":"2.0"
	},
	"scene":0,
	"scenes":[
		{
			"name":"Scene",
			"nodes":[
				11,
				12,
				13,
				14
			]
		}
	],
	"nodes":[
		{
			"name":"Bone"
		},
		{
			"name":"Bone.002.L",
			"rotation":[
				0.04980804771184921,
				3.095655287665977e-08,
				9.589914640173447e-09,
				0.9987587928771973
			],
			"translation":[
				8.817712782160925e-09,
				0.7161574959754944,
				-8.799904094303201e-08
			]
		},
		{
			"children":[
				1
			],
			"name":"Bone.001.L",
			"rotation":[
				-0.5550042390823364,
				-0.43814417719841003,
				-0.5550041794776917,
				0.43814414739608765
			],
			"scale":[
				0.9999999403953552,
				0.9999999403953552,
				1
			]
		},
		{
			"name":"Bone.005.L",
			"rotation":[
				-0.40232446789741516,
				1.040052168832517e-07,
				-4.609449661074905e-06,
				0.9154971241950989
			],
			"scale":[
				1,
				0.9999999403953552,
				0.9999998807907104
			],
			"translation":[
				1.2287500794627704e-08,
				0.5319564938545227,
				4.67164227302419e-08
			]
		},
		{
			"children":[
				3
			],
			"name":"Bone.004.L",
			"rotation":[
				0.44438621401786804,
				6.645861816423349e-08,
				5.007769686926622e-06,
				0.895835280418396
			],
			"scale":[
				1,
				1,
				1.0000001192092896
			],
			"translation":[
				-5.398637092923764e-09,
				1.2903857231140137,
				6.157392817840446e-09
			]
		},
		{
			"name":"Bone.005.R",
			"rotation":[
				-0.40232446789741516,
				-9.298724279460657e-08,
				4.614292265614495e-06,
				0.9154971241950989
			],
			"scale":[
				1,
				1.0000001192092896,
				1
			],
			"translation":[
				-1.1596057447604835e-11,
				0.5319564938545227,
				1.3911426322010811e-07
			]
		},
		{
			"children":[
				5
			],
			"name":"Bone.004.R",
			"rotation":[
				-3.9181749400540866e-08,
				0.890315592288971,
				-0.45534396171569824,
				1.0043801921710838e-05
			],
			"scale":[
				1,
				0.9999998211860657,
				1
			],
			"translation":[
				3.4904613244179927e-07,
				1.2899974584579468,
				-0.03166113793849945
			]
		},
		{
			"children":[
				4,
				6
			],
			"name":"Bone.003",
			"rotation":[
				-0.7070895433425903,
				-0.0043378728441894054,
				-0.7070974707603455,
				0.004337809979915619
			],
			"scale":[
				1,
				0.9999998807907104,
				0.9999999403953552
			]
		},
		{
			"name":"Bone.002.R",
			"rotation":[
				0.032848648726940155,
				-1.5752780413436085e-08,
				-5.587835971709865e-09,
				0.9994603395462036
			],
			"scale":[
				1,
				0.9999999403953552,
				1
			],
			"translation":[
				-8.817712782160925e-09,
				0.7161574959754944,
				-8.799904094303201e-08
			]
		},
		{
			"children":[
				8
			],
			"name":"Bone.001.R",
			"rotation":[
				-0.5550042390823364,
				0.43814417719841003,
				0.5550041794776917,
				0.43814414739608765
			],
			"scale":[
				0.9999999403953552,
				0.9999999403953552,
				1
			]
		},
		{
			"mesh":0,
			"name":"\u5186",
			"skin":0
		},
		{
			"children":[
				10,
				0,
				2,
				7,
				9
			],
			"name":"\u30a2\u30fc\u30de\u30c1\u30e5\u30a2.001",
			"translation":[
				0,
				3.4541738033294678,
				0.11821048706769943
			]
		},
		{
			"name":"\u5e73\u9762",
			"rotation":[
				0.7071068286895752,
				0,
				0,
				0.7071068286895752
			],
			"scale":[
				0.22702592611312866,
				0.22702592611312866,
				0.22702592611312866
			],
			"translation":[
				-0.3486100137233734,
				4.9858598709106445,
				-0.6692748665809631
			]
		},
		{
			"name":"\u30c8\u30fc\u30e9\u30b9.001",
			"rotation":[
				0.7071068286895752,
				0,
				0,
				0.7071068286895752
			],
			"scale":[
				0.16387946903705597,
				0.16387946903705597,
				0.16387946903705597
			],
			"translation":[
				0,
				3.2512571811676025,
				-0.5913844108581543
			]
		},
		{
			"name":"\u30c8\u30fc\u30e9\u30b9.002",
			"rotation":[
				0.7071068286895752,
				0,
				0,
				0.7071068286895752
			],
			"scale":[
				0.16387946903705597,
				0.16387946903705597,
				0.16387946903705597
			],
			"translation":[
				0,
				3.2512571811676025,
				-0.5913844108581543
			]
		}
	],
	"animations":[
		{
			"channels":[
				{
					"sampler":0,
					"target":{
						"node":0,
						"path":"translation"
					}
				},
				{
					"sampler":1,
					"target":{
						"node":0,
						"path":"rotation"
					}
				},
				{
					"sampler":2,
					"target":{
						"node":0,
						"path":"scale"
					}
				},
				{
					"sampler":3,
					"target":{
						"node":2,
						"path":"translation"
					}
				},
				{
					"sampler":4,
					"target":{
						"node":2,
						"path":"rotation"
					}
				},
				{
					"sampler":5,
					"target":{
						"node":2,
						"path":"scale"
					}
				},
				{
					"sampler":6,
					"target":{
						"node":1,
						"path":"translation"
					}
				},
				{
					"sampler":7,
					"target":{
						"node":1,
						"path":"rotation"
					}
				},
				{
					"sampler":8,
					"target":{
						"node":1,
						"path":"scale"
					}
				},
				{
					"sampler":9,
					"target":{
						"node":7,
						"path":"translation"
					}
				},
				{
					"sampler":10,
					"target":{
						"node":7,
						"path":"rotation"
					}
				},
				{
					"sampler":11,
					"target":{
						"node":7,
						"path":"scale"
					}
				},
				{
					"sampler":12,
					"target":{
						"node":4,
						"path":"translation"
					}
				},
				{
					"sampler":13,
					"target":{
						"node":4,
						"path":"rotation"
					}
				},
				{
					"sampler":14,
					"target":{
						"node":4,
						"path":"scale"
					}
				},
				{
					"sampler":15,
					"target":{
						"node":3,
						"path":"translation"
					}
				},
				{
					"sampler":16,
					"target":{
						"node":3,
						"path":"rotation"
					}
				},
				{
					"sampler":17,
					"target":{
						"node":3,
						"path":"scale"
					}
				},
				{
					"sampler":18,
					"target":{
						"node":6,
						"path":"translation"
					}
				},
				{
					"sampler":19,
					"target":{
						"node":6,
						"path":"rotation"
					}
				},
				{
					"sampler":20,
					"target":{
						"node":6,
						"path":"scale"
					}
				},
				{
					"sampler":21,
					"target":{
						"node":5,
						"path":"translation"
					}
				},
				{
					"sampler":22,
					"target":{
						"node":5,
						"path":"rotation"
					}
				},
				{
					"sampler":23,
					"target":{
						"node":5,
						"path":"scale"
					}
				},
				{
					"sampler":24,
					"target":{
						"node":9,
						"path":"translation"
					}
				},
				{
					"sampler":25,
					"target":{
						"node":9,
						"path":"rotation"
					}
				},
				{
					"sampler":26,
					"target":{
						"node":9,
						"path":"scale"
					}
				},
				{
					"sampler":27,
					"target":{
						"node":8,
						"path":"translation"
					}
				},
				{
					"sampler":28,
					"target":{
						"node":8,
						"path":"rotation"
					}
				},
				{
					"sampler":29,
					"target":{
						"node":8,
						"path":"scale"
					}
				}
			],
			"name":"\u30a2\u30fc\u30de\u30c1\u30e5\u30a2.001Action",
			"samplers":[
				{
					"input":25,
					"interpolation":"LINEAR",
					"output":26
				},
				{
					"input":25,
					"interpolation":"LINEAR",
					"output":27
				},
				{
					"input":28,
					"interpolation":"STEP",
					"output":29
				},
				{
					"input":25,
					"interpolation":"LINEAR",
					"output":30
				},
				{
					"input":25,
					"interpolation":"LINEAR",
					"output":31
				},
				{
					"input":28,
					"interpolation":"STEP",
					"output":32
				},
				{
					"input":28,
					"interpolation":"LINEAR",
					"output":33
				},
				{
					"input":25,
					"interpolation":"LINEAR",
					"output":34
				},
				{
					"input":28,
					"interpolation":"STEP",
					"output":35
				},
				{
					"input":25,
					"interpolation":"LINEAR",
					"output":36
				},
				{
					"input":25,
					"interpolation":"LINEAR",
					"output":37
				},
				{
					"input":28,
					"interpolation":"STEP",
					"output":38
				},
				{
					"input":28,
					"interpolation":"LINEAR",
					"output":39
				},
				{
					"input":28,
					"interpolation":"LINEAR",
					"output":40
				},
				{
					"input":28,
					"interpolation":"LINEAR",
					"output":41
				},
				{
					"input":28,
					"interpolation":"LINEAR",
					"output":42
				},
				{
					"input":25,
					"interpolation":"LINEAR",
					"output":43
				},
				{
					"input":28,
					"interpolation":"STEP",
					"output":44
				},
				{
					"input":28,
					"interpolation":"LINEAR",
					"output":45
				},
				{
					"input":25,
					"interpolation":"LINEAR",
					"output":46
				},
				{
					"input":28,
					"interpolation":"STEP",
					"output":47
				},
				{
					"input":28,
					"interpolation":"LINEAR",
					"output":48
				},
				{
					"input":25,
					"interpolation":"LINEAR",
					"output":49
				},
				{
					"input":28,
					"interpolation":"LINEAR",
					"output":50
				},
				{
					"input":25,
					"interpolation":"LINEAR",
					"output":51
				},
				{
					"input":25,
					"interpolation":"LINEAR",
					"output":52
				},
				{
					"input":28,
					"interpolation":"STEP",
					"output":53
				},
				{
					"input":28,
					"interpolation":"LINEAR",
					"output":54
				},
				{
					"input":25,
					"interpolation":"LINEAR",
					"output":55
				},
				{
					"input":28,
					"interpolation":"LINEAR",
					"output":56
				}
			]
		}
	],
	"materials":[
		{
			"doubleSided":true,
			"name":"\u30de\u30c6\u30ea\u30a2\u30eb.008",
			"pbrMetallicRoughness":{
				"baseColorTexture":{
					"index":0
				},
				"metallicFactor":0,
				"roughnessFactor":0.5
			}
		},
		{
			"doubleSided":true,
			"name":"\u30de\u30c6\u30ea\u30a2\u30eb.009",
			"pbrMetallicRoughness":{
				"baseColorTexture":{
					"index":1
				},
				"metallicFactor":0,
				"roughnessFactor":0.5
			}
		},
		{
			"doubleSided":true,
			"name":"\u30de\u30c6\u30ea\u30a2\u30eb.005",
			"pbrMetallicRoughness":{
				"baseColorTexture":{
					"index":2
				},
				"metallicFactor":0,
				"roughnessFactor":0.5
			}
		},
		{
			"doubleSided":true,
			"name":"\u30de\u30c6\u30ea\u30a2\u30eb.006",
			"pbrMetallicRoughness":{
				"baseColorTexture":{
					"index":3
				},
				"metallicFactor":0,
				"roughnessFactor":0.5
			}
		}
	],
	"meshes":[
		{
			"name":"\u5186.001",
			"primitives":[
				{
					"attributes":{
						"POSITION":0,
						"NORMAL":1,
						"TEXCOORD_0":2,
						"JOINTS_0":3,
						"WEIGHTS_0":4
					},
					"indices":5,
					"material":0
				},
				{
					"attributes":{
						"POSITION":6,
						"NORMAL":7,
						"TEXCOORD_0":8,
						"JOINTS_0":9,
						"WEIGHTS_0":10
					},
					"indices":11,
					"material":1
				},
				{
					"attributes":{
						"POSITION":12,
						"NORMAL":13,
						"TEXCOORD_0":14,
						"JOINTS_0":15,
						"WEIGHTS_0":16
					},
					"indices":17,
					"material":2
				},
				{
					"attributes":{
						"POSITION":18,
						"NORMAL":19,
						"TEXCOORD_0":20,
						"JOINTS_0":21,
						"WEIGHTS_0":22
					},
					"indices":23,
					"material":3
				}
			]
		}
	],
	"textures":[
		{
			"sampler":0,
			"source":0
		},
		{
			"sampler":0,
			"source":1
		},
		{
			"sampler":0,
			"source":2
		},
		{
			"sampler":0,
			"source":3
		}
	],
	"images":[
		{
			"mimeType":"image/png",
			"name":"Body.png.001",
			"uri":"Body.png"
		},
		{
			"mimeType":"image/png",
			"name":"Botton.png.002",
			"uri":"Botton.png"
		},
		{
			"mimeType":"image/png",
			"name":"StickRed.png.002",
			"uri":"StickRed.png"
		},
		{
			"mimeType":"image/png",
			"name":"StickWhite.png",
			"uri":"StickWhite.png"
		}
	],
	"skins":[
		{
			"inverseBindMatrices":24,
			"joints":[
				0,
				2,
				1,
				7,
				4,
				3,
				6,
				5,
				9,
				8
			],
			"name":"\u30a2\u30fc\u30de\u30c1\u30e5\u30a2.001"
		}
	],
	"accessors":[
		{
			"bufferView":0,
			"componentType":5126,
			"count":4342,
			"max":[
				2.552302598953247,
				5.715978622436523,
				-0.037554387003183365
			],
			"min":[
				-2.552302360534668,
				-0.04218967258930206,
				-0.5847007036209106
			],
			"type":"VEC3"
		},
		{
			"bufferView":1,
			"componentType":5126,
			"count":4342,
			"type":"VEC3"
		},
		{
			"bufferView":2,
			"componentType":5126,
			"count":4342,
			"type":"VEC2"
		},
		{
			"bufferView":3,
			"componentType":5121,
			"count":4342,
			"type":"VEC4"
		},
		{
			"bufferView":4,
			"componentType":5126,
			"count":4342,
			"type":"VEC4"
		},
		{
			"bufferView":5,
			"componentType":5123,
			"count":22464,
			"type":"SCALAR"
		},
		{
			"bufferView":6,
			"componentType":5126,
			"count":854,
			"max":[
				0.1411978155374527,
				3.302583694458008,
				-0.5225187540054321
			],
			"min":[
				-0.1411978006362915,
				2.1406500339508057,
				-0.7412043809890747
			],
			"type":"VEC3"
		},
		{
			"bufferView":7,
			"componentType":5126,
			"count":854,
			"type":"VEC3"
		},
		{
			"bufferView":8,
			"componentType":5126,
			"count":854,
			"type":"VEC2"
		},
		{
			"bufferView":9,
			"componentType":5121,
			"count":854,
			"type":"VEC4"
		},
		{
			"bufferView":10,
			"componentType":5126,
			"count":854,
			"type":"VEC4"
		},
		{
			"bufferView":11,
			"componentType":5123,
			"count":4416,
			"type":"SCALAR"
		},
		{
			"bufferView":12,
			"componentType":5126,
			"count":31816,
			"max":[
				-2.0792648792266846,
				6.445255279541016,
				-0.46504124999046326
			],
			"min":[
				-3.5361275672912598,
				1.7533466815948486,
				-0.7060373425483704
			],
			"type":"VEC3"
		},
		{
			"bufferView":13,
			"componentType":5126,
			"count":31816,
			"type":"VEC3"
		},
		{
			"bufferView":14,
			"componentType":5126,
			"count":31816,
			"type":"VEC2"
		},
		{
			"bufferView":15,
			"componentType":5121,
			"count":31816,
			"type":"VEC4"
		},
		{
			"bufferView":16,
			"componentType":5126,
			"count":31816,
			"type":"VEC4"
		},
		{
			"bufferView":17,
			"componentType":5123,
			"count":34560,
			"type":"SCALAR"
		},
		{
			"bufferView":18,
			"componentType":5126,
			"count":32093,
			"max":[
				-2.079293966293335,
				6.414824485778809,
				-0.46558037400245667
			],
			"min":[
				-3.559309720993042,
				1.9320780038833618,
				-0.705498218536377
			],
			"type":"VEC3"
		},
		{
			"bufferView":19,
			"componentType":5126,
			"count":32093,
			"type":"VEC3"
		},
		{
			"bufferView":20,
			"componentType":5126,
			"count":32093,
			"type":"VEC2"
		},
		{
			"bufferView":21,
			"componentType":5121,
			"count":32093,
			"type":"VEC4"
		},
		{
			"bufferView":22,
			"componentType":5126,
			"count":32093,
			"type":"VEC4"
		},
		{
			"bufferView":23,
			"componentType":5123,
			"count":34560,
			"type":"SCALAR"
		},
		{
			"bufferView":24,
			"componentType":5126,
			"count":10,
			"type":"MAT4"
		},
		{
			"bufferView":25,
			"componentType":5126,
			"count":60,
			"max":[
				2.5
			],
			"min":[
				0.041666666666666664
			],
			"type":"SCALAR"
		},
		{
			"bufferView":26,
			"componentType":5126,
			"count":60,
			"type":"VEC3"
		},
		{
			"bufferView":27,
			"componentType":5126,
			"count":60,
			"type":"VEC4"
		},
		{
			"bufferView":28,
			"componentType":5126,
			"count":2,
			"max":[
				2.5
			],
			"min":[
				0.041666666666666664
			],
			"type":"SCALAR"
		},
		{
			"bufferView":29,
			"componentType":5126,
			"count":2,
			"type":"VEC3"
		},
		{
			"bufferView":30,
			"componentType":5126,
			"count":60,
			"type":"VEC3"
		},
		{
			"bufferView":31,
			"componentType":5126,
			"count":60,
			"type":"VEC4"
		},
		{
			"bufferView":32,
			"componentType":5126,
			"count":2,
			"type":"VEC3"
		},
		{
			"bufferView":33,
			"componentType":5126,
			"count":2,
			"type":"VEC3"
		},
		{
			"bufferView":34,
			"componentType":5126,
			"count":60,
			"type":"VEC4"
		},
		{
			"bufferView":35,
			"componentType":5126,
			"count":2,
			"type":"VEC3"
		},
		{
			"bufferView":36,
			"componentType":5126,
			"count":60,
			"type":"VEC3"
		},
		{
			"bufferView":37,
			"componentType":5126,
			"count":60,
			"type":"VEC4"
		},
		{
			"bufferView":38,
			"componentType":5126,
			"count":2,
			"type":"VEC3"
		},
		{
			"bufferView":39,
			"componentType":5126,
			"count":2,
			"type":"VEC3"
		},
		{
			"bufferView":40,
			"componentType":5126,
			"count":2,
			"type":"VEC4"
		},
		{
			"bufferView":41,
			"componentType":5126,
			"count":2,
			"type":"VEC3"
		},
		{
			"bufferView":42,
			"componentType":5126,
			"count":2,
			"type":"VEC3"
		},
		{
			"bufferView":43,
			"componentType":5126,
			"count":60,
			"type":"VEC4"
		},
		{
			"bufferView":44,
			"componentType":5126,
			"count":2,
			"type":"VEC3"
		},
		{
			"bufferView":45,
			"componentType":5126,
			"count":2,
			"type":"VEC3"
		},
		{
			"bufferView":46,
			"componentType":5126,
			"count":60,
			"type":"VEC4"
		},
		{
			"bufferView":47,
			"componentType":5126,
			"count":2,
			"type":"VEC3"
		},
		{
			"bufferView":48,
			"componentType":5126,
			"count":2,
			"type":"VEC3"
		},
		{
			"bufferView":49,
			"componentType":5126,
			"count":60,
			"type":"VEC4"
		},
		{
			"bufferView":50,
			"componentType":5126,
			"count":2,
			"type":"VEC3"
		},
		{
			"bufferView":51,
			"componentType":5126,
			"count":60,
			"type":"VEC3"
		},
		{
			"bufferView":52,
			"componentType":5126,
			"count":60,
			"type":"VEC4"
		},
		{
			"bufferView":53,
			"componentType":5126,
			"count":2,
			"type":"VEC3"
		},
		{
			"bufferView":54,
			"componentType":5126,
			"count":2,
			"type":"VEC3"
		},
		{
			"bufferView":55,
			"componentType":5126,
			"count":60,
			"type":"VEC4"
		},
		{
			"bufferView":56,
			"componentType":5126,
			"count":2,
			"type":"VEC3"
		}
	],
	"bufferViews":[
		{
			"buffer":0,
			"byteLength":52104,
			"byteOffset":0,
			"target":34962
		},
		{
			"buffer":0,
			"byteLength":52104,
			"byteOffset":52104,
			"target":34962
		},
		{
			"buffer":0,
			"byteLength":34736,
			"byteOffset":104208,
			"target":34962
		},
		{
			"buffer":0,
			"byteLength":17368,
			"byteOffset":138944,
			"target":34962
		},
		{
			"buffer":0,
			"byteLength":69472,
			"byteOffset":156312,
			"target":34962
		},
		{
			"buffer":0,
			"byteLength":44928,
			"byteOffset":225784,
			"target":34963
		},
		{
			"buffer":0,
			"byteLength":10248,
			"byteOffset":270712,
			"target":34962
		},
		{
			"buffer":0,
			"byteLength":10248,
			"byteOffset":280960,
			"target":34962
		},
		{
			"buffer":0,
			"byteLength":6832,
			"byteOffset":291208,
			"target":34962
		},
		{
			"buffer":0,
			"byteLength":3416,
			"byteOffset":298040,
			"target":34962
		},
		{
			"buffer":0,
			"byteLength":13664,
			"byteOffset":301456,
			"target":34962
		},
		{
			"buffer":0,
			"byteLength":8832,
			"byteOffset":315120,
			"target":34963
		},
		{
			"buffer":0,
			"byteLength":381792,
			"byteOffset":323952,
			"target":34962
		},
		{
			"buffer":0,
			"byteLength":381792,
			"byteOffset":705744,
			"target":34962
		},
		{
			"buffer":0,
			"byteLength":254528,
			"byteOffset":1087536,
			"target":34962
		},
		{
			"buffer":0,
			"byteLength":127264,
			"byteOffset":1342064,
			"target":34962
		},
		{
			"buffer":0,
			"byteLength":509056,
			"byteOffset":1469328,
			"target":34962
		},
		{
			"buffer":0,
			"byteLength":69120,
			"byteOffset":1978384,
			"target":34963
		},
		{
			"buffer":0,
			"byteLength":385116,
			"byteOffset":2047504,
			"target":34962
		},
		{
			"buffer":0,
			"byteLength":385116,
			"byteOffset":2432620,
			"target":34962
		},
		{
			"buffer":0,
			"byteLength":256744,
			"byteOffset":2817736,
			"target":34962
		},
		{
			"buffer":0,
			"byteLength":128372,
			"byteOffset":3074480,
			"target":34962
		},
		{
			"buffer":0,
			"byteLength":513488,
			"byteOffset":3202852,
			"target":34962
		},
		{
			"buffer":0,
			"byteLength":69120,
			"byteOffset":3716340,
			"target":34963
		},
		{
			"buffer":0,
			"byteLength":640,
			"byteOffset":3785460
		},
		{
			"buffer":0,
			"byteLength":240,
			"byteOffset":3786100
		},
		{
			"buffer":0,
			"byteLength":720,
			"byteOffset":3786340
		},
		{
			"buffer":0,
			"byteLength":960,
			"byteOffset":3787060
		},
		{
			"buffer":0,
			"byteLength":8,
			"byteOffset":3788020
		},
		{
			"buffer":0,
			"byteLength":24,
			"byteOffset":3788028
		},
		{
			"buffer":0,
			"byteLength":720,
			"byteOffset":3788052
		},
		{
			"buffer":0,
			"byteLength":960,
			"byteOffset":3788772
		},
		{
			"buffer":0,
			"byteLength":24,
			"byteOffset":3789732
		},
		{
			"buffer":0,
			"byteLength":24,
			"byteOffset":3789756
		},
		{
			"buffer":0,
			"byteLength":960,
			"byteOffset":3789780
		},
		{
			"buffer":0,
			"byteLength":24,
			"byteOffset":3790740
		},
		{
			"buffer":0,
			"byteLength":720,
			"byteOffset":3790764
		},
		{
			"buffer":0,
			"byteLength":960,
			"byteOffset":3791484
		},
		{
			"buffer":0,
			"byteLength":24,
			"byteOffset":3792444
		},
		{
			"buffer":0,
			"byteLength":24,
			"byteOffset":3792468
		},
		{
			"buffer":0,
			"byteLength":32,
			"byteOffset":3792492
		},
		{
			"buffer":0,
			"byteLength":24,
			"byteOffset":3792524
		},
		{
			"buffer":0,
			"byteLength":24,
			"byteOffset":3792548
		},
		{
			"buffer":0,
			"byteLength":960,
			"byteOffset":3792572
		},
		{
			"buffer":0,
			"byteLength":24,
			"byteOffset":3793532
		},
		{
			"buffer":0,
			"byteLength":24,
			"byteOffset":3793556
		},
		{
			"buffer":0,
			"byteLength":960,
			"byteOffset":3793580
		},
		{
			"buffer":0,
			"byteLength":24,
			"byteOffset":3794540
		},
		{
			"buffer":0,
			"byteLength":24,
			"byteOffset":3794564
		},
		{
			"buffer":0,
			"byteLength":960,
			"byteOffset":3794588
		},
		{
			"buffer":0,
			"byteLength":24,
			"byteOffset":3795548
		},
		{
			"buffer":0,
			"byteLength":720,
			"byteOffset":3795572
		},
		{
			"buffer":0,
			"byteLength":960,
			"byteOffset":3796292
		},
		{
			"buffer":0,
			"byteLength":24,
			"byteOffset":3797252
		},
		{
			"buffer":0,
			"byteLength":24,
			"byteOffset":3797276
		},
		{
			"buffer":0,
			"byteLength":960,
			"byteOffset":3797300
		},
		{
			"buffer":0,
			"byteLength":24,
			"byteOffset":3798260
		}
	],
	"samplers":[
		{
			"magFilter":9729,
			"minFilter":9987
		}
	],
	"buffers":[
		{
			"byteLength":3798284,
			"uri":"GentlmanDead.bin"
		}
	]
}
