{
	"asset":{
		"generator":"Khronos glTF Blender I/O v3.5.30",
		"version":"2.0"
	},
	"scene":0,
	"scenes":[
		{
			"name":"Scene",
			"nodes":[
				0,
				1
			]
		}
	],
	"nodes":[
		{
			"name":"Cube"
		},
		{
			"mesh":0,
			"name":"\u5186"
		}
	],
	"materials":[
		{
			"doubleSided":true,
			"name":"\u30de\u30c6\u30ea\u30a2\u30eb",
			"pbrMetallicRoughness":{
				"baseColorTexture":{
					"index":0
				},
				"metallicFactor":0,
				"roughnessFactor":0.5
			}
		}
	],
	"meshes":[
		{
			"name":"\u5186",
			"primitives":[
				{
					"attributes":{
						"POSITION":0,
						"TEXCOORD_0":1,
						"NORMAL":2
					},
					"indices":3,
					"material":0
				}
			]
		}
	],
	"textures":[
		{
			"sampler":0,
			"source":0
		}
	],
	"images":[
		{
			"mimeType":"image/png",
			"name":"Cream.png",
			"uri":"Cream.png"
		}
	],
	"accessors":[
		{
			"bufferView":0,
			"componentType":5126,
			"count":39936,
			"max":[
				0.6714680790901184,
				1.3246651887893677,
				0.7623440623283386
			],
			"min":[
				-0.6725797057151794,
				-0.03788949176669121,
				-0.7619649171829224
			],
			"type":"VEC3"
		},
		{
			"bufferView":1,
			"componentType":5126,
			"count":39936,
			"type":"VEC2"
		},
		{
			"bufferView":2,
			"componentType":5126,
			"count":39936,
			"type":"VEC3"
		},
		{
			"bufferView":3,
			"componentType":5123,
			"count":59904,
			"type":"SCALAR"
		}
	],
	"bufferViews":[
		{
			"buffer":0,
			"byteLength":479232,
			"byteOffset":0,
			"target":34962
		},
		{
			"buffer":0,
			"byteLength":319488,
			"byteOffset":479232,
			"target":34962
		},
		{
			"buffer":0,
			"byteLength":479232,
			"byteOffset":798720,
			"target":34962
		},
		{
			"buffer":0,
			"byteLength":119808,
			"byteOffset":1277952,
			"target":34963
		}
	],
	"samplers":[
		{
			"magFilter":9729,
			"minFilter":9987
		}
	],
	"buffers":[
		{
			"byteLength":1397760,
			"uri":"Cream.bin"
		}
	]
}
