{
	"asset":{
		"generator":"Khronos glTF Blender I/O v4.1.63",
		"version":"2.0"
	},
	"scene":0,
	"scenes":[
		{
			"name":"Scene",
			"nodes":[
				0,
				1,
				2,
				3,
				4,
				5,
				6,
				7,
				8,
				9,
				10,
				11,
				12,
				13,
				14
			]
		}
	],
	"nodes":[
		{
			"mesh":0,
			"name":"testField"
		},
		{
			"mesh":1,
			"name":"\u30c8\u30fc\u30e9\u30b9"
		},
		{
			"mesh":2,
			"name":"\u30c8\u30fc\u30e9\u30b9.001"
		},
		{
			"mesh":3,
			"name":"\u30c8\u30fc\u30e9\u30b9.002"
		},
		{
			"mesh":4,
			"name":"\u30c8\u30fc\u30e9\u30b9.004"
		},
		{
			"mesh":5,
			"name":"\u30c8\u30fc\u30e9\u30b9.005"
		},
		{
			"mesh":6,
			"name":"\u30c8\u30fc\u30e9\u30b9.006"
		},
		{
			"mesh":7,
			"name":"\u30c8\u30fc\u30e9\u30b9.007"
		},
		{
			"mesh":8,
			"name":"\u30c8\u30fc\u30e9\u30b9.003"
		},
		{
			"mesh":9,
			"name":"\u30c8\u30fc\u30e9\u30b9.008"
		},
		{
			"mesh":10,
			"name":"\u5186.002"
		},
		{
			"mesh":11,
			"name":"\u5186.001"
		},
		{
			"mesh":12,
			"name":"\u5186.004"
		},
		{
			"mesh":13,
			"name":"\u5186.005"
		},
		{
			"mesh":14,
			"name":"Pancakes"
		}
	],
	"materials":[
		{
			"doubleSided":true,
			"name":"Field",
			"pbrMetallicRoughness":{
				"metallicFactor":0,
				"roughnessFactor":0.5
			}
		},
		{
			"doubleSided":true,
			"name":"donut",
			"pbrMetallicRoughness":{
				"metallicFactor":0,
				"roughnessFactor":0.5
			}
		},
		{
			"doubleSided":true,
			"name":"\u30de\u30c6\u30ea\u30a2\u30eb",
			"pbrMetallicRoughness":{
				"metallicFactor":0,
				"roughnessFactor":0.5
			}
		},
		{
			"doubleSided":true,
			"name":"donut.001",
			"pbrMetallicRoughness":{
				"metallicFactor":0,
				"roughnessFactor":0.5
			}
		},
		{
			"doubleSided":true,
			"name":"\u30de\u30c6\u30ea\u30a2\u30eb.001",
			"pbrMetallicRoughness":{
				"metallicFactor":0,
				"roughnessFactor":0.5
			}
		},
		{
			"doubleSided":true,
			"name":"\u30de\u30c6\u30ea\u30a2\u30eb.002",
			"pbrMetallicRoughness":{
				"metallicFactor":0,
				"roughnessFactor":0.5
			}
		},
		{
			"doubleSided":true,
			"name":"\u30de\u30c6\u30ea\u30a2\u30eb.003",
			"pbrMetallicRoughness":{
				"metallicFactor":0,
				"roughnessFactor":0.5
			}
		},
		{
			"doubleSided":true,
			"name":"\u30de\u30c6\u30ea\u30a2\u30eb.004",
			"pbrMetallicRoughness":{
				"metallicFactor":0,
				"roughnessFactor":0.5
			}
		},
		{
			"doubleSided":true,
			"name":"LightBeige",
			"pbrMetallicRoughness":{
				"metallicFactor":0,
				"roughnessFactor":0.690034806728363
			}
		},
		{
			"doubleSided":true,
			"name":"Light",
			"pbrMetallicRoughness":{
				"metallicFactor":0,
				"roughnessFactor":0.690034806728363
			}
		},
		{
			"doubleSided":true,
			"name":"Yellow",
			"pbrMetallicRoughness":{
				"metallicFactor":0,
				"roughnessFactor":0.690034806728363
			}
		},
		{
			"doubleSided":true,
			"name":"Syrup",
			"pbrMetallicRoughness":{
				"metallicFactor":0,
				"roughnessFactor":0.690034806728363
			}
		}
	],
	"meshes":[
		{
			"name":"testField",
			"primitives":[
				{
					"attributes":{
						"POSITION":0,
						"NORMAL":1,
						"TEXCOORD_0":2
					},
					"indices":3,
					"material":0
				}
			]
		},
		{
			"name":"\u30c8\u30fc\u30e9\u30b9",
			"primitives":[
				{
					"attributes":{
						"POSITION":4,
						"NORMAL":5,
						"TEXCOORD_0":6
					},
					"indices":7,
					"material":1
				},
				{
					"attributes":{
						"POSITION":8,
						"NORMAL":9,
						"TEXCOORD_0":10
					},
					"indices":11,
					"material":2
				}
			]
		},
		{
			"name":"\u30c8\u30fc\u30e9\u30b9.001",
			"primitives":[
				{
					"attributes":{
						"POSITION":12,
						"NORMAL":13,
						"TEXCOORD_0":14
					},
					"indices":15,
					"material":3
				},
				{
					"attributes":{
						"POSITION":16,
						"NORMAL":17,
						"TEXCOORD_0":18
					},
					"indices":19,
					"material":4
				}
			]
		},
		{
			"name":"\u30c8\u30fc\u30e9\u30b9.002",
			"primitives":[
				{
					"attributes":{
						"POSITION":20,
						"NORMAL":21,
						"TEXCOORD_0":22
					},
					"indices":23,
					"material":1
				},
				{
					"attributes":{
						"POSITION":24,
						"NORMAL":25,
						"TEXCOORD_0":26
					},
					"indices":27,
					"material":2
				}
			]
		},
		{
			"name":"\u30c8\u30fc\u30e9\u30b9.004",
			"primitives":[
				{
					"attributes":{
						"POSITION":28,
						"NORMAL":29,
						"TEXCOORD_0":30
					},
					"indices":31,
					"material":1
				},
				{
					"attributes":{
						"POSITION":32,
						"NORMAL":33,
						"TEXCOORD_0":34
					},
					"indices":35,
					"material":2
				}
			]
		},
		{
			"name":"\u30c8\u30fc\u30e9\u30b9.005",
			"primitives":[
				{
					"attributes":{
						"POSITION":36,
						"NORMAL":37,
						"TEXCOORD_0":38
					},
					"indices":39,
					"material":1
				},
				{
					"attributes":{
						"POSITION":40,
						"NORMAL":41,
						"TEXCOORD_0":42
					},
					"indices":43,
					"material":2
				}
			]
		},
		{
			"name":"\u30c8\u30fc\u30e9\u30b9.006",
			"primitives":[
				{
					"attributes":{
						"POSITION":44,
						"NORMAL":45,
						"TEXCOORD_0":46
					},
					"indices":47,
					"material":1
				},
				{
					"attributes":{
						"POSITION":48,
						"NORMAL":49,
						"TEXCOORD_0":50
					},
					"indices":51,
					"material":2
				}
			]
		},
		{
			"name":"\u30c8\u30fc\u30e9\u30b9.007",
			"primitives":[
				{
					"attributes":{
						"POSITION":52,
						"NORMAL":53,
						"TEXCOORD_0":54
					},
					"indices":47,
					"material":1
				},
				{
					"attributes":{
						"POSITION":55,
						"NORMAL":56,
						"TEXCOORD_0":57
					},
					"indices":51,
					"material":2
				}
			]
		},
		{
			"name":"\u30c8\u30fc\u30e9\u30b9.008",
			"primitives":[
				{
					"attributes":{
						"POSITION":58,
						"NORMAL":59,
						"TEXCOORD_0":60
					},
					"indices":61,
					"material":1
				},
				{
					"attributes":{
						"POSITION":62,
						"NORMAL":63,
						"TEXCOORD_0":64
					},
					"indices":65,
					"material":2
				}
			]
		},
		{
			"name":"\u30c8\u30fc\u30e9\u30b9.009",
			"primitives":[
				{
					"attributes":{
						"POSITION":66,
						"NORMAL":67,
						"TEXCOORD_0":68
					},
					"indices":69,
					"material":1
				},
				{
					"attributes":{
						"POSITION":70,
						"NORMAL":71,
						"TEXCOORD_0":72
					},
					"indices":73,
					"material":2
				}
			]
		},
		{
			"name":"\u5186.002",
			"primitives":[
				{
					"attributes":{
						"POSITION":74,
						"NORMAL":75,
						"TEXCOORD_0":76
					},
					"indices":77,
					"material":5
				},
				{
					"attributes":{
						"POSITION":78,
						"NORMAL":79,
						"TEXCOORD_0":80
					},
					"indices":81,
					"material":6
				},
				{
					"attributes":{
						"POSITION":82,
						"NORMAL":83,
						"TEXCOORD_0":84
					},
					"indices":85,
					"material":7
				}
			]
		},
		{
			"name":"\u5186.001",
			"primitives":[
				{
					"attributes":{
						"POSITION":86,
						"NORMAL":87,
						"TEXCOORD_0":88
					},
					"indices":77,
					"material":5
				},
				{
					"attributes":{
						"POSITION":89,
						"NORMAL":90,
						"TEXCOORD_0":91
					},
					"indices":92,
					"material":6
				},
				{
					"attributes":{
						"POSITION":93,
						"NORMAL":94,
						"TEXCOORD_0":95
					},
					"indices":96,
					"material":7
				}
			]
		},
		{
			"name":"\u5186.004",
			"primitives":[
				{
					"attributes":{
						"POSITION":97,
						"NORMAL":98,
						"TEXCOORD_0":99
					},
					"indices":77,
					"material":5
				},
				{
					"attributes":{
						"POSITION":100,
						"NORMAL":101,
						"TEXCOORD_0":102
					},
					"indices":103,
					"material":6
				},
				{
					"attributes":{
						"POSITION":104,
						"NORMAL":105,
						"TEXCOORD_0":106
					},
					"indices":107,
					"material":7
				}
			]
		},
		{
			"name":"\u5186.005",
			"primitives":[
				{
					"attributes":{
						"POSITION":108,
						"NORMAL":109,
						"TEXCOORD_0":110
					},
					"indices":77,
					"material":5
				},
				{
					"attributes":{
						"POSITION":111,
						"NORMAL":112,
						"TEXCOORD_0":113
					},
					"indices":114,
					"material":6
				},
				{
					"attributes":{
						"POSITION":115,
						"NORMAL":116,
						"TEXCOORD_0":117
					},
					"indices":118,
					"material":7
				}
			]
		},
		{
			"name":"Cylinder.033",
			"primitives":[
				{
					"attributes":{
						"POSITION":119,
						"NORMAL":120,
						"TEXCOORD_0":121
					},
					"indices":122,
					"material":8
				},
				{
					"attributes":{
						"POSITION":123,
						"NORMAL":124,
						"TEXCOORD_0":125
					},
					"indices":126,
					"material":9
				},
				{
					"attributes":{
						"POSITION":127,
						"NORMAL":128,
						"TEXCOORD_0":129
					},
					"indices":130,
					"material":10
				},
				{
					"attributes":{
						"POSITION":131,
						"NORMAL":132,
						"TEXCOORD_0":133
					},
					"indices":134,
					"material":11
				}
			]
		}
	],
	"accessors":[
		{
			"bufferView":0,
			"componentType":5126,
			"count":1487580,
			"max":[
				19.339359283447266,
				14.337977409362793,
				19.039295196533203
			],
			"min":[
				-18.094970703125,
				0.18747010827064514,
				-18.395034790039062
			],
			"type":"VEC3"
		},
		{
			"bufferView":1,
			"componentType":5126,
			"count":1487580,
			"type":"VEC3"
		},
		{
			"bufferView":2,
			"componentType":5126,
			"count":1487580,
			"type":"VEC2"
		},
		{
			"bufferView":3,
			"componentType":5125,
			"count":1491093,
			"type":"SCALAR"
		},
		{
			"bufferView":4,
			"componentType":5126,
			"count":498,
			"max":[
				-8.556111335754395,
				7.5035881996154785,
				-4.777162551879883
			],
			"min":[
				-11.401180267333984,
				3.9542410373687744,
				-8.69727897644043
			],
			"type":"VEC3"
		},
		{
			"bufferView":5,
			"componentType":5126,
			"count":498,
			"type":"VEC3"
		},
		{
			"bufferView":6,
			"componentType":5126,
			"count":498,
			"type":"VEC2"
		},
		{
			"bufferView":7,
			"componentType":5123,
			"count":504,
			"type":"SCALAR"
		},
		{
			"bufferView":8,
			"componentType":5126,
			"count":262,
			"max":[
				-8.482680320739746,
				7.513489246368408,
				-4.74815559387207
			],
			"min":[
				-11.02861213684082,
				4.2454142570495605,
				-8.69727897644043
			],
			"type":"VEC3"
		},
		{
			"bufferView":9,
			"componentType":5126,
			"count":262,
			"type":"VEC3"
		},
		{
			"bufferView":10,
			"componentType":5126,
			"count":262,
			"type":"VEC2"
		},
		{
			"bufferView":11,
			"componentType":5123,
			"count":264,
			"type":"SCALAR"
		},
		{
			"bufferView":12,
			"componentType":5126,
			"count":498,
			"max":[
				2.176069736480713,
				7.4280266761779785,
				11.13339900970459
			],
			"min":[
				-0.9568252563476562,
				4.070590019226074,
				7.3122382164001465
			],
			"type":"VEC3"
		},
		{
			"bufferView":13,
			"componentType":5126,
			"count":498,
			"type":"VEC3"
		},
		{
			"bufferView":14,
			"componentType":5126,
			"count":498,
			"type":"VEC2"
		},
		{
			"bufferView":15,
			"componentType":5123,
			"count":504,
			"type":"SCALAR"
		},
		{
			"bufferView":16,
			"componentType":5126,
			"count":262,
			"max":[
				2.3778977394104004,
				7.4280266761779785,
				11.195892333984375
			],
			"min":[
				-0.7537152767181396,
				4.349194049835205,
				7.3709588050842285
			],
			"type":"VEC3"
		},
		{
			"bufferView":17,
			"componentType":5126,
			"count":262,
			"type":"VEC3"
		},
		{
			"bufferView":18,
			"componentType":5126,
			"count":262,
			"type":"VEC2"
		},
		{
			"bufferView":19,
			"componentType":5123,
			"count":264,
			"type":"SCALAR"
		},
		{
			"bufferView":20,
			"componentType":5126,
			"count":498,
			"max":[
				15.629103660583496,
				5.554500102996826,
				0.16258935630321503
			],
			"min":[
				11.993548393249512,
				2.825408935546875,
				-3.802349328994751
			],
			"type":"VEC3"
		},
		{
			"bufferView":21,
			"componentType":5126,
			"count":498,
			"type":"VEC3"
		},
		{
			"bufferView":22,
			"componentType":5126,
			"count":498,
			"type":"VEC2"
		},
		{
			"bufferView":23,
			"componentType":5123,
			"count":504,
			"type":"SCALAR"
		},
		{
			"bufferView":24,
			"componentType":5126,
			"count":262,
			"max":[
				15.458830833435059,
				5.694296360015869,
				0.1519770324230194
			],
			"min":[
				11.993548393249512,
				3.3989837169647217,
				-3.8380515575408936
			],
			"type":"VEC3"
		},
		{
			"bufferView":25,
			"componentType":5126,
			"count":262,
			"type":"VEC3"
		},
		{
			"bufferView":26,
			"componentType":5126,
			"count":262,
			"type":"VEC2"
		},
		{
			"bufferView":27,
			"componentType":5123,
			"count":264,
			"type":"SCALAR"
		},
		{
			"bufferView":28,
			"componentType":5126,
			"count":498,
			"max":[
				17.918575286865234,
				5.413924217224121,
				14.284706115722656
			],
			"min":[
				14.599943161010742,
				1.5932457447052002,
				11.058841705322266
			],
			"type":"VEC3"
		},
		{
			"bufferView":29,
			"componentType":5126,
			"count":498,
			"type":"VEC3"
		},
		{
			"bufferView":30,
			"componentType":5126,
			"count":498,
			"type":"VEC2"
		},
		{
			"bufferView":31,
			"componentType":5123,
			"count":504,
			"type":"SCALAR"
		},
		{
			"bufferView":32,
			"componentType":5126,
			"count":262,
			"max":[
				18.036697387695312,
				5.492158889770508,
				14.361300468444824
			],
			"min":[
				15.023693084716797,
				1.6017181873321533,
				11.452872276306152
			],
			"type":"VEC3"
		},
		{
			"bufferView":33,
			"componentType":5126,
			"count":262,
			"type":"VEC3"
		},
		{
			"bufferView":34,
			"componentType":5126,
			"count":262,
			"type":"VEC2"
		},
		{
			"bufferView":35,
			"componentType":5123,
			"count":264,
			"type":"SCALAR"
		},
		{
			"bufferView":36,
			"componentType":5126,
			"count":498,
			"max":[
				-3.114598274230957,
				2.5367116928100586,
				-14.467720031738281
			],
			"min":[
				-6.584662437438965,
				-1.1981313228607178,
				-17.59571647644043
			],
			"type":"VEC3"
		},
		{
			"bufferView":37,
			"componentType":5126,
			"count":498,
			"type":"VEC3"
		},
		{
			"bufferView":38,
			"componentType":5126,
			"count":498,
			"type":"VEC2"
		},
		{
			"bufferView":39,
			"componentType":5123,
			"count":504,
			"type":"SCALAR"
		},
		{
			"bufferView":40,
			"componentType":5126,
			"count":262,
			"max":[
				-3.3242805004119873,
				2.3850913047790527,
				-14.873465538024902
			],
			"min":[
				-6.584662437438965,
				-1.3186008930206299,
				-17.657066345214844
			],
			"type":"VEC3"
		},
		{
			"bufferView":41,
			"componentType":5126,
			"count":262,
			"type":"VEC3"
		},
		{
			"bufferView":42,
			"componentType":5126,
			"count":262,
			"type":"VEC2"
		},
		{
			"bufferView":43,
			"componentType":5123,
			"count":264,
			"type":"SCALAR"
		},
		{
			"bufferView":44,
			"componentType":5126,
			"count":498,
			"max":[
				4.668220520019531,
				4.489592552185059,
				1.2218070030212402
			],
			"min":[
				1.56895911693573,
				0.830459475517273,
				-2.3869898319244385
			],
			"type":"VEC3"
		},
		{
			"bufferView":45,
			"componentType":5126,
			"count":498,
			"type":"VEC3"
		},
		{
			"bufferView":46,
			"componentType":5126,
			"count":498,
			"type":"VEC2"
		},
		{
			"bufferView":47,
			"componentType":5123,
			"count":504,
			"type":"SCALAR"
		},
		{
			"bufferView":48,
			"componentType":5126,
			"count":262,
			"max":[
				4.780341625213623,
				4.548578262329102,
				1.3127295970916748
			],
			"min":[
				1.9938280582427979,
				0.9996496438980103,
				-2.1040196418762207
			],
			"type":"VEC3"
		},
		{
			"bufferView":49,
			"componentType":5126,
			"count":262,
			"type":"VEC3"
		},
		{
			"bufferView":50,
			"componentType":5126,
			"count":262,
			"type":"VEC2"
		},
		{
			"bufferView":51,
			"componentType":5123,
			"count":264,
			"type":"SCALAR"
		},
		{
			"bufferView":52,
			"componentType":5126,
			"count":498,
			"max":[
				-11.581080436706543,
				11.570366859436035,
				-6.253833293914795
			],
			"min":[
				-20.164939880371094,
				1.4358601570129395,
				-16.248924255371094
			],
			"type":"VEC3"
		},
		{
			"bufferView":53,
			"componentType":5126,
			"count":498,
			"type":"VEC3"
		},
		{
			"bufferView":54,
			"componentType":5126,
			"count":498,
			"type":"VEC2"
		},
		{
			"bufferView":55,
			"componentType":5126,
			"count":262,
			"max":[
				-11.270545959472656,
				11.733736991882324,
				-6.002009391784668
			],
			"min":[
				-18.988204956054688,
				1.9044573307037354,
				-15.465198516845703
			],
			"type":"VEC3"
		},
		{
			"bufferView":56,
			"componentType":5126,
			"count":262,
			"type":"VEC3"
		},
		{
			"bufferView":57,
			"componentType":5126,
			"count":262,
			"type":"VEC2"
		},
		{
			"bufferView":58,
			"componentType":5126,
			"count":498,
			"max":[
				10.64175796508789,
				4.802968978881836,
				6.780544757843018
			],
			"min":[
				7.403048515319824,
				1.0284364223480225,
				3.4332642555236816
			],
			"type":"VEC3"
		},
		{
			"bufferView":59,
			"componentType":5126,
			"count":498,
			"type":"VEC3"
		},
		{
			"bufferView":60,
			"componentType":5126,
			"count":498,
			"type":"VEC2"
		},
		{
			"bufferView":61,
			"componentType":5123,
			"count":504,
			"type":"SCALAR"
		},
		{
			"bufferView":62,
			"componentType":5126,
			"count":262,
			"max":[
				10.300178527832031,
				4.705639362335205,
				6.490469455718994
			],
			"min":[
				7.381696701049805,
				0.9232102632522583,
				3.3217673301696777
			],
			"type":"VEC3"
		},
		{
			"bufferView":63,
			"componentType":5126,
			"count":262,
			"type":"VEC3"
		},
		{
			"bufferView":64,
			"componentType":5126,
			"count":262,
			"type":"VEC2"
		},
		{
			"bufferView":65,
			"componentType":5123,
			"count":264,
			"type":"SCALAR"
		},
		{
			"bufferView":66,
			"componentType":5126,
			"count":498,
			"max":[
				1.2350249290466309,
				17.317031860351562,
				21.595273971557617
			],
			"min":[
				-20.579269409179688,
				-3.637072801589966,
				6.276768684387207
			],
			"type":"VEC3"
		},
		{
			"bufferView":67,
			"componentType":5126,
			"count":498,
			"type":"VEC3"
		},
		{
			"bufferView":68,
			"componentType":5126,
			"count":498,
			"type":"VEC2"
		},
		{
			"bufferView":69,
			"componentType":5123,
			"count":504,
			"type":"SCALAR"
		},
		{
			"bufferView":70,
			"componentType":5126,
			"count":262,
			"max":[
				1.2350249290466309,
				17.974714279174805,
				19.33955955505371
			],
			"min":[
				-19.53145980834961,
				-3.7399065494537354,
				5.839006423950195
			],
			"type":"VEC3"
		},
		{
			"bufferView":71,
			"componentType":5126,
			"count":262,
			"type":"VEC3"
		},
		{
			"bufferView":72,
			"componentType":5126,
			"count":262,
			"type":"VEC2"
		},
		{
			"bufferView":73,
			"componentType":5123,
			"count":264,
			"type":"SCALAR"
		},
		{
			"bufferView":74,
			"componentType":5126,
			"count":272,
			"max":[
				-1.0643377304077148,
				6.780051231384277,
				5.944022178649902
			],
			"min":[
				-4.116201400756836,
				4.034088134765625,
				2.9030697345733643
			],
			"type":"VEC3"
		},
		{
			"bufferView":75,
			"componentType":5126,
			"count":272,
			"type":"VEC3"
		},
		{
			"bufferView":76,
			"componentType":5126,
			"count":272,
			"type":"VEC2"
		},
		{
			"bufferView":77,
			"componentType":5123,
			"count":1482,
			"type":"SCALAR"
		},
		{
			"bufferView":78,
			"componentType":5126,
			"count":624,
			"max":[
				-0.5343818664550781,
				7.820122241973877,
				5.492809295654297
			],
			"min":[
				-3.7227401733398438,
				4.426133632659912,
				2.294666051864624
			],
			"type":"VEC3"
		},
		{
			"bufferView":79,
			"componentType":5126,
			"count":624,
			"type":"VEC3"
		},
		{
			"bufferView":80,
			"componentType":5126,
			"count":624,
			"type":"VEC2"
		},
		{
			"bufferView":81,
			"componentType":5123,
			"count":672,
			"type":"SCALAR"
		},
		{
			"bufferView":82,
			"componentType":5126,
			"count":1434,
			"max":[
				-1.0725479125976562,
				7.938261032104492,
				3.7993834018707275
			],
			"min":[
				-2.2181341648101807,
				6.955904006958008,
				2.7378180027008057
			],
			"type":"VEC3"
		},
		{
			"bufferView":83,
			"componentType":5126,
			"count":1434,
			"type":"VEC3"
		},
		{
			"bufferView":84,
			"componentType":5126,
			"count":1434,
			"type":"VEC2"
		},
		{
			"bufferView":85,
			"componentType":5123,
			"count":1440,
			"type":"SCALAR"
		},
		{
			"bufferView":86,
			"componentType":5126,
			"count":272,
			"max":[
				-8.442083358764648,
				5.0106329917907715,
				-7.521048069000244
			],
			"min":[
				-11.441102027893066,
				3.1434266567230225,
				-10.53435230255127
			],
			"type":"VEC3"
		},
		{
			"bufferView":87,
			"componentType":5126,
			"count":272,
			"type":"VEC3"
		},
		{
			"bufferView":88,
			"componentType":5126,
			"count":272,
			"type":"VEC2"
		},
		{
			"bufferView":89,
			"componentType":5126,
			"count":624,
			"max":[
				-8.190985679626465,
				6.659470081329346,
				-7.320772647857666
			],
			"min":[
				-11.464807510375977,
				3.3654532432556152,
				-10.582740783691406
			],
			"type":"VEC3"
		},
		{
			"bufferView":90,
			"componentType":5126,
			"count":624,
			"type":"VEC3"
		},
		{
			"bufferView":91,
			"componentType":5126,
			"count":624,
			"type":"VEC2"
		},
		{
			"bufferView":92,
			"componentType":5123,
			"count":672,
			"type":"SCALAR"
		},
		{
			"bufferView":93,
			"componentType":5126,
			"count":1434,
			"max":[
				-9.048531532287598,
				7.325928211212158,
				-8.189068794250488
			],
			"min":[
				-10.152650833129883,
				6.384321212768555,
				-9.437747955322266
			],
			"type":"VEC3"
		},
		{
			"bufferView":94,
			"componentType":5126,
			"count":1434,
			"type":"VEC3"
		},
		{
			"bufferView":95,
			"componentType":5126,
			"count":1434,
			"type":"VEC2"
		},
		{
			"bufferView":96,
			"componentType":5123,
			"count":1440,
			"type":"SCALAR"
		},
		{
			"bufferView":97,
			"componentType":5126,
			"count":272,
			"max":[
				8.260326385498047,
				6.368706226348877,
				16.298961639404297
			],
			"min":[
				5.221470832824707,
				4.839901447296143,
				13.26278018951416
			],
			"type":"VEC3"
		},
		{
			"bufferView":98,
			"componentType":5126,
			"count":272,
			"type":"VEC3"
		},
		{
			"bufferView":99,
			"componentType":5126,
			"count":272,
			"type":"VEC2"
		},
		{
			"bufferView":100,
			"componentType":5126,
			"count":624,
			"max":[
				8.355125427246094,
				8.238057136535645,
				16.381744384765625
			],
			"min":[
				5.097229480743408,
				4.985676288604736,
				13.126714706420898
			],
			"type":"VEC3"
		},
		{
			"bufferView":101,
			"componentType":5126,
			"count":624,
			"type":"VEC3"
		},
		{
			"bufferView":102,
			"componentType":5126,
			"count":624,
			"type":"VEC2"
		},
		{
			"bufferView":103,
			"componentType":5123,
			"count":672,
			"type":"SCALAR"
		},
		{
			"bufferView":104,
			"componentType":5126,
			"count":1434,
			"max":[
				7.232685565948486,
				8.93109130859375,
				15.283260345458984
			],
			"min":[
				6.107719898223877,
				8.015887260437012,
				14.034880638122559
			],
			"type":"VEC3"
		},
		{
			"bufferView":105,
			"componentType":5126,
			"count":1434,
			"type":"VEC3"
		},
		{
			"bufferView":106,
			"componentType":5126,
			"count":1434,
			"type":"VEC2"
		},
		{
			"bufferView":107,
			"componentType":5123,
			"count":1440,
			"type":"SCALAR"
		},
		{
			"bufferView":108,
			"componentType":5126,
			"count":272,
			"max":[
				13.675315856933594,
				7.205607891082764,
				-11.166871070861816
			],
			"min":[
				9.399955749511719,
				3.009024143218994,
				-15.557231903076172
			],
			"type":"VEC3"
		},
		{
			"bufferView":109,
			"componentType":5126,
			"count":272,
			"type":"VEC3"
		},
		{
			"bufferView":110,
			"componentType":5126,
			"count":272,
			"type":"VEC2"
		},
		{
			"bufferView":111,
			"componentType":5126,
			"count":624,
			"max":[
				13.041169166564941,
				8.467244148254395,
				-10.36835765838623
			],
			"min":[
				8.295299530029297,
				3.6220333576202393,
				-14.916998863220215
			],
			"type":"VEC3"
		},
		{
			"bufferView":112,
			"componentType":5126,
			"count":624,
			"type":"VEC3"
		},
		{
			"bufferView":113,
			"componentType":5126,
			"count":624,
			"type":"VEC2"
		},
		{
			"bufferView":114,
			"componentType":5123,
			"count":672,
			"type":"SCALAR"
		},
		{
			"bufferView":115,
			"componentType":5126,
			"count":1434,
			"max":[
				9.99534797668457,
				8.31339168548584,
				-11.02047061920166
			],
			"min":[
				8.594188690185547,
				6.9049072265625,
				-12.772040367126465
			],
			"type":"VEC3"
		},
		{
			"bufferView":116,
			"componentType":5126,
			"count":1434,
			"type":"VEC3"
		},
		{
			"bufferView":117,
			"componentType":5126,
			"count":1434,
			"type":"VEC2"
		},
		{
			"bufferView":118,
			"componentType":5123,
			"count":1440,
			"type":"SCALAR"
		},
		{
			"bufferView":119,
			"componentType":5126,
			"count":448,
			"max":[
				-11.642213821411133,
				11.322698593139648,
				8.353083610534668
			],
			"min":[
				-20.642269134521484,
				4.430016994476318,
				-0.7961371541023254
			],
			"type":"VEC3"
		},
		{
			"bufferView":120,
			"componentType":5126,
			"count":448,
			"type":"VEC3"
		},
		{
			"bufferView":121,
			"componentType":5126,
			"count":448,
			"type":"VEC2"
		},
		{
			"bufferView":122,
			"componentType":5123,
			"count":804,
			"type":"SCALAR"
		},
		{
			"bufferView":123,
			"componentType":5126,
			"count":29,
			"max":[
				-12.242478370666504,
				10.93457317352295,
				7.565733909606934
			],
			"min":[
				-19.74752426147461,
				5.537619113922119,
				-0.1544145941734314
			],
			"type":"VEC3"
		},
		{
			"bufferView":124,
			"componentType":5126,
			"count":29,
			"type":"VEC3"
		},
		{
			"bufferView":125,
			"componentType":5126,
			"count":29,
			"type":"VEC2"
		},
		{
			"bufferView":126,
			"componentType":5123,
			"count":69,
			"type":"SCALAR"
		},
		{
			"bufferView":127,
			"componentType":5126,
			"count":12,
			"max":[
				-14.899859428405762,
				10.415651321411133,
				4.37831449508667
			],
			"min":[
				-17.254913330078125,
				8.757824897766113,
				2.3874855041503906
			],
			"type":"VEC3"
		},
		{
			"bufferView":128,
			"componentType":5126,
			"count":12,
			"type":"VEC3"
		},
		{
			"bufferView":129,
			"componentType":5126,
			"count":12,
			"type":"VEC2"
		},
		{
			"bufferView":130,
			"componentType":5123,
			"count":54,
			"type":"SCALAR"
		},
		{
			"bufferView":131,
			"componentType":5126,
			"count":238,
			"max":[
				-12.180562973022461,
				10.761117935180664,
				5.983522415161133
			],
			"min":[
				-19.255573272705078,
				4.765193939208984,
				0.5680521726608276
			],
			"type":"VEC3"
		},
		{
			"bufferView":132,
			"componentType":5126,
			"count":238,
			"type":"VEC3"
		},
		{
			"bufferView":133,
			"componentType":5126,
			"count":238,
			"type":"VEC2"
		},
		{
			"bufferView":134,
			"componentType":5123,
			"count":663,
			"type":"SCALAR"
		}
	],
	"bufferViews":[
		{
			"buffer":0,
			"byteLength":17850960,
			"byteOffset":0,
			"target":34962
		},
		{
			"buffer":0,
			"byteLength":17850960,
			"byteOffset":17850960,
			"target":34962
		},
		{
			"buffer":0,
			"byteLength":11900640,
			"byteOffset":35701920,
			"target":34962
		},
		{
			"buffer":0,
			"byteLength":5964372,
			"byteOffset":47602560,
			"target":34963
		},
		{
			"buffer":0,
			"byteLength":5976,
			"byteOffset":53566932,
			"target":34962
		},
		{
			"buffer":0,
			"byteLength":5976,
			"byteOffset":53572908,
			"target":34962
		},
		{
			"buffer":0,
			"byteLength":3984,
			"byteOffset":53578884,
			"target":34962
		},
		{
			"buffer":0,
			"byteLength":1008,
			"byteOffset":53582868,
			"target":34963
		},
		{
			"buffer":0,
			"byteLength":3144,
			"byteOffset":53583876,
			"target":34962
		},
		{
			"buffer":0,
			"byteLength":3144,
			"byteOffset":53587020,
			"target":34962
		},
		{
			"buffer":0,
			"byteLength":2096,
			"byteOffset":53590164,
			"target":34962
		},
		{
			"buffer":0,
			"byteLength":528,
			"byteOffset":53592260,
			"target":34963
		},
		{
			"buffer":0,
			"byteLength":5976,
			"byteOffset":53592788,
			"target":34962
		},
		{
			"buffer":0,
			"byteLength":5976,
			"byteOffset":53598764,
			"target":34962
		},
		{
			"buffer":0,
			"byteLength":3984,
			"byteOffset":53604740,
			"target":34962
		},
		{
			"buffer":0,
			"byteLength":1008,
			"byteOffset":53608724,
			"target":34963
		},
		{
			"buffer":0,
			"byteLength":3144,
			"byteOffset":53609732,
			"target":34962
		},
		{
			"buffer":0,
			"byteLength":3144,
			"byteOffset":53612876,
			"target":34962
		},
		{
			"buffer":0,
			"byteLength":2096,
			"byteOffset":53616020,
			"target":34962
		},
		{
			"buffer":0,
			"byteLength":528,
			"byteOffset":53618116,
			"target":34963
		},
		{
			"buffer":0,
			"byteLength":5976,
			"byteOffset":53618644,
			"target":34962
		},
		{
			"buffer":0,
			"byteLength":5976,
			"byteOffset":53624620,
			"target":34962
		},
		{
			"buffer":0,
			"byteLength":3984,
			"byteOffset":53630596,
			"target":34962
		},
		{
			"buffer":0,
			"byteLength":1008,
			"byteOffset":53634580,
			"target":34963
		},
		{
			"buffer":0,
			"byteLength":3144,
			"byteOffset":53635588,
			"target":34962
		},
		{
			"buffer":0,
			"byteLength":3144,
			"byteOffset":53638732,
			"target":34962
		},
		{
			"buffer":0,
			"byteLength":2096,
			"byteOffset":53641876,
			"target":34962
		},
		{
			"buffer":0,
			"byteLength":528,
			"byteOffset":53643972,
			"target":34963
		},
		{
			"buffer":0,
			"byteLength":5976,
			"byteOffset":53644500,
			"target":34962
		},
		{
			"buffer":0,
			"byteLength":5976,
			"byteOffset":53650476,
			"target":34962
		},
		{
			"buffer":0,
			"byteLength":3984,
			"byteOffset":53656452,
			"target":34962
		},
		{
			"buffer":0,
			"byteLength":1008,
			"byteOffset":53660436,
			"target":34963
		},
		{
			"buffer":0,
			"byteLength":3144,
			"byteOffset":53661444,
			"target":34962
		},
		{
			"buffer":0,
			"byteLength":3144,
			"byteOffset":53664588,
			"target":34962
		},
		{
			"buffer":0,
			"byteLength":2096,
			"byteOffset":53667732,
			"target":34962
		},
		{
			"buffer":0,
			"byteLength":528,
			"byteOffset":53669828,
			"target":34963
		},
		{
			"buffer":0,
			"byteLength":5976,
			"byteOffset":53670356,
			"target":34962
		},
		{
			"buffer":0,
			"byteLength":5976,
			"byteOffset":53676332,
			"target":34962
		},
		{
			"buffer":0,
			"byteLength":3984,
			"byteOffset":53682308,
			"target":34962
		},
		{
			"buffer":0,
			"byteLength":1008,
			"byteOffset":53686292,
			"target":34963
		},
		{
			"buffer":0,
			"byteLength":3144,
			"byteOffset":53687300,
			"target":34962
		},
		{
			"buffer":0,
			"byteLength":3144,
			"byteOffset":53690444,
			"target":34962
		},
		{
			"buffer":0,
			"byteLength":2096,
			"byteOffset":53693588,
			"target":34962
		},
		{
			"buffer":0,
			"byteLength":528,
			"byteOffset":53695684,
			"target":34963
		},
		{
			"buffer":0,
			"byteLength":5976,
			"byteOffset":53696212,
			"target":34962
		},
		{
			"buffer":0,
			"byteLength":5976,
			"byteOffset":53702188,
			"target":34962
		},
		{
			"buffer":0,
			"byteLength":3984,
			"byteOffset":53708164,
			"target":34962
		},
		{
			"buffer":0,
			"byteLength":1008,
			"byteOffset":53712148,
			"target":34963
		},
		{
			"buffer":0,
			"byteLength":3144,
			"byteOffset":53713156,
			"target":34962
		},
		{
			"buffer":0,
			"byteLength":3144,
			"byteOffset":53716300,
			"target":34962
		},
		{
			"buffer":0,
			"byteLength":2096,
			"byteOffset":53719444,
			"target":34962
		},
		{
			"buffer":0,
			"byteLength":528,
			"byteOffset":53721540,
			"target":34963
		},
		{
			"buffer":0,
			"byteLength":5976,
			"byteOffset":53722068,
			"target":34962
		},
		{
			"buffer":0,
			"byteLength":5976,
			"byteOffset":53728044,
			"target":34962
		},
		{
			"buffer":0,
			"byteLength":3984,
			"byteOffset":53734020,
			"target":34962
		},
		{
			"buffer":0,
			"byteLength":3144,
			"byteOffset":53738004,
			"target":34962
		},
		{
			"buffer":0,
			"byteLength":3144,
			"byteOffset":53741148,
			"target":34962
		},
		{
			"buffer":0,
			"byteLength":2096,
			"byteOffset":53744292,
			"target":34962
		},
		{
			"buffer":0,
			"byteLength":5976,
			"byteOffset":53746388,
			"target":34962
		},
		{
			"buffer":0,
			"byteLength":5976,
			"byteOffset":53752364,
			"target":34962
		},
		{
			"buffer":0,
			"byteLength":3984,
			"byteOffset":53758340,
			"target":34962
		},
		{
			"buffer":0,
			"byteLength":1008,
			"byteOffset":53762324,
			"target":34963
		},
		{
			"buffer":0,
			"byteLength":3144,
			"byteOffset":53763332,
			"target":34962
		},
		{
			"buffer":0,
			"byteLength":3144,
			"byteOffset":53766476,
			"target":34962
		},
		{
			"buffer":0,
			"byteLength":2096,
			"byteOffset":53769620,
			"target":34962
		},
		{
			"buffer":0,
			"byteLength":528,
			"byteOffset":53771716,
			"target":34963
		},
		{
			"buffer":0,
			"byteLength":5976,
			"byteOffset":53772244,
			"target":34962
		},
		{
			"buffer":0,
			"byteLength":5976,
			"byteOffset":53778220,
			"target":34962
		},
		{
			"buffer":0,
			"byteLength":3984,
			"byteOffset":53784196,
			"target":34962
		},
		{
			"buffer":0,
			"byteLength":1008,
			"byteOffset":53788180,
			"target":34963
		},
		{
			"buffer":0,
			"byteLength":3144,
			"byteOffset":53789188,
			"target":34962
		},
		{
			"buffer":0,
			"byteLength":3144,
			"byteOffset":53792332,
			"target":34962
		},
		{
			"buffer":0,
			"byteLength":2096,
			"byteOffset":53795476,
			"target":34962
		},
		{
			"buffer":0,
			"byteLength":528,
			"byteOffset":53797572,
			"target":34963
		},
		{
			"buffer":0,
			"byteLength":3264,
			"byteOffset":53798100,
			"target":34962
		},
		{
			"buffer":0,
			"byteLength":3264,
			"byteOffset":53801364,
			"target":34962
		},
		{
			"buffer":0,
			"byteLength":2176,
			"byteOffset":53804628,
			"target":34962
		},
		{
			"buffer":0,
			"byteLength":2964,
			"byteOffset":53806804,
			"target":34963
		},
		{
			"buffer":0,
			"byteLength":7488,
			"byteOffset":53809768,
			"target":34962
		},
		{
			"buffer":0,
			"byteLength":7488,
			"byteOffset":53817256,
			"target":34962
		},
		{
			"buffer":0,
			"byteLength":4992,
			"byteOffset":53824744,
			"target":34962
		},
		{
			"buffer":0,
			"byteLength":1344,
			"byteOffset":53829736,
			"target":34963
		},
		{
			"buffer":0,
			"byteLength":17208,
			"byteOffset":53831080,
			"target":34962
		},
		{
			"buffer":0,
			"byteLength":17208,
			"byteOffset":53848288,
			"target":34962
		},
		{
			"buffer":0,
			"byteLength":11472,
			"byteOffset":53865496,
			"target":34962
		},
		{
			"buffer":0,
			"byteLength":2880,
			"byteOffset":53876968,
			"target":34963
		},
		{
			"buffer":0,
			"byteLength":3264,
			"byteOffset":53879848,
			"target":34962
		},
		{
			"buffer":0,
			"byteLength":3264,
			"byteOffset":53883112,
			"target":34962
		},
		{
			"buffer":0,
			"byteLength":2176,
			"byteOffset":53886376,
			"target":34962
		},
		{
			"buffer":0,
			"byteLength":7488,
			"byteOffset":53888552,
			"target":34962
		},
		{
			"buffer":0,
			"byteLength":7488,
			"byteOffset":53896040,
			"target":34962
		},
		{
			"buffer":0,
			"byteLength":4992,
			"byteOffset":53903528,
			"target":34962
		},
		{
			"buffer":0,
			"byteLength":1344,
			"byteOffset":53908520,
			"target":34963
		},
		{
			"buffer":0,
			"byteLength":17208,
			"byteOffset":53909864,
			"target":34962
		},
		{
			"buffer":0,
			"byteLength":17208,
			"byteOffset":53927072,
			"target":34962
		},
		{
			"buffer":0,
			"byteLength":11472,
			"byteOffset":53944280,
			"target":34962
		},
		{
			"buffer":0,
			"byteLength":2880,
			"byteOffset":53955752,
			"target":34963
		},
		{
			"buffer":0,
			"byteLength":3264,
			"byteOffset":53958632,
			"target":34962
		},
		{
			"buffer":0,
			"byteLength":3264,
			"byteOffset":53961896,
			"target":34962
		},
		{
			"buffer":0,
			"byteLength":2176,
			"byteOffset":53965160,
			"target":34962
		},
		{
			"buffer":0,
			"byteLength":7488,
			"byteOffset":53967336,
			"target":34962
		},
		{
			"buffer":0,
			"byteLength":7488,
			"byteOffset":53974824,
			"target":34962
		},
		{
			"buffer":0,
			"byteLength":4992,
			"byteOffset":53982312,
			"target":34962
		},
		{
			"buffer":0,
			"byteLength":1344,
			"byteOffset":53987304,
			"target":34963
		},
		{
			"buffer":0,
			"byteLength":17208,
			"byteOffset":53988648,
			"target":34962
		},
		{
			"buffer":0,
			"byteLength":17208,
			"byteOffset":54005856,
			"target":34962
		},
		{
			"buffer":0,
			"byteLength":11472,
			"byteOffset":54023064,
			"target":34962
		},
		{
			"buffer":0,
			"byteLength":2880,
			"byteOffset":54034536,
			"target":34963
		},
		{
			"buffer":0,
			"byteLength":3264,
			"byteOffset":54037416,
			"target":34962
		},
		{
			"buffer":0,
			"byteLength":3264,
			"byteOffset":54040680,
			"target":34962
		},
		{
			"buffer":0,
			"byteLength":2176,
			"byteOffset":54043944,
			"target":34962
		},
		{
			"buffer":0,
			"byteLength":7488,
			"byteOffset":54046120,
			"target":34962
		},
		{
			"buffer":0,
			"byteLength":7488,
			"byteOffset":54053608,
			"target":34962
		},
		{
			"buffer":0,
			"byteLength":4992,
			"byteOffset":54061096,
			"target":34962
		},
		{
			"buffer":0,
			"byteLength":1344,
			"byteOffset":54066088,
			"target":34963
		},
		{
			"buffer":0,
			"byteLength":17208,
			"byteOffset":54067432,
			"target":34962
		},
		{
			"buffer":0,
			"byteLength":17208,
			"byteOffset":54084640,
			"target":34962
		},
		{
			"buffer":0,
			"byteLength":11472,
			"byteOffset":54101848,
			"target":34962
		},
		{
			"buffer":0,
			"byteLength":2880,
			"byteOffset":54113320,
			"target":34963
		},
		{
			"buffer":0,
			"byteLength":5376,
			"byteOffset":54116200,
			"target":34962
		},
		{
			"buffer":0,
			"byteLength":5376,
			"byteOffset":54121576,
			"target":34962
		},
		{
			"buffer":0,
			"byteLength":3584,
			"byteOffset":54126952,
			"target":34962
		},
		{
			"buffer":0,
			"byteLength":1608,
			"byteOffset":54130536,
			"target":34963
		},
		{
			"buffer":0,
			"byteLength":348,
			"byteOffset":54132144,
			"target":34962
		},
		{
			"buffer":0,
			"byteLength":348,
			"byteOffset":54132492,
			"target":34962
		},
		{
			"buffer":0,
			"byteLength":232,
			"byteOffset":54132840,
			"target":34962
		},
		{
			"buffer":0,
			"byteLength":138,
			"byteOffset":54133072,
			"target":34963
		},
		{
			"buffer":0,
			"byteLength":144,
			"byteOffset":54133212,
			"target":34962
		},
		{
			"buffer":0,
			"byteLength":144,
			"byteOffset":54133356,
			"target":34962
		},
		{
			"buffer":0,
			"byteLength":96,
			"byteOffset":54133500,
			"target":34962
		},
		{
			"buffer":0,
			"byteLength":108,
			"byteOffset":54133596,
			"target":34963
		},
		{
			"buffer":0,
			"byteLength":2856,
			"byteOffset":54133704,
			"target":34962
		},
		{
			"buffer":0,
			"byteLength":2856,
			"byteOffset":54136560,
			"target":34962
		},
		{
			"buffer":0,
			"byteLength":1904,
			"byteOffset":54139416,
			"target":34962
		},
		{
			"buffer":0,
			"byteLength":1326,
			"byteOffset":54141320,
			"target":34963
		}
	],
	"buffers":[
		{
			"byteLength":54142648,
			"uri":"testfield.bin"
		}
	]
}
