{
	"asset":{
		"generator":"Khronos glTF Blender I/O v4.3.47",
		"version":"2.0"
	},
	"scene":0,
	"scenes":[
		{
			"name":"Scene",
			"nodes":[
				4
			]
		}
	],
	"nodes":[
		{
			"name":"Bone.001",
			"rotation":[
				0.5317562818527222,
				4.07819271686094e-07,
				3.8414509617723525e-07,
				0.8468974232673645
			],
			"translation":[
				-2.117582368135751e-22,
				0.30426692962646484,
				4.440892098500626e-16
			]
		},
		{
			"children":[
				0
			],
			"name":"Bone",
			"rotation":[
				-8.557133668318784e-09,
				1.2043153674312634e-07,
				-2.0610975525316242e-15,
				1
			],
			"translation":[
				0,
				0.13024850189685822,
				0
			]
		},
		{
			"name":"Bone.002",
			"rotation":[
				1.329318592979689e-07,
				-0.7306739091873169,
				-0.6827266216278076,
				1.42267523983719e-07
			],
			"scale":[
				1,
				1.000000238418579,
				1.0000051259994507
			],
			"translation":[
				0,
				0.13024850189685822,
				0
			]
		},
		{
			"mesh":0,
			"name":"\u5186.001",
			"skin":0
		},
		{
			"children":[
				3,
				1,
				2
			],
			"name":"\u30a2\u30fc\u30de\u30c1\u30e5\u30a2"
		}
	],
	"animations":[
		{
			"channels":[
				{
					"sampler":0,
					"target":{
						"node":1,
						"path":"translation"
					}
				},
				{
					"sampler":1,
					"target":{
						"node":1,
						"path":"rotation"
					}
				},
				{
					"sampler":2,
					"target":{
						"node":1,
						"path":"scale"
					}
				},
				{
					"sampler":3,
					"target":{
						"node":0,
						"path":"translation"
					}
				},
				{
					"sampler":4,
					"target":{
						"node":0,
						"path":"rotation"
					}
				},
				{
					"sampler":5,
					"target":{
						"node":0,
						"path":"scale"
					}
				},
				{
					"sampler":6,
					"target":{
						"node":2,
						"path":"translation"
					}
				},
				{
					"sampler":7,
					"target":{
						"node":2,
						"path":"rotation"
					}
				},
				{
					"sampler":8,
					"target":{
						"node":2,
						"path":"scale"
					}
				}
			],
			"name":"\u30a2\u30fc\u30de\u30c1\u30e5\u30a2\u30a2\u30af\u30b7\u30e7\u30f3.001",
			"samplers":[
				{
					"input":22,
					"interpolation":"STEP",
					"output":23
				},
				{
					"input":24,
					"interpolation":"LINEAR",
					"output":25
				},
				{
					"input":22,
					"interpolation":"STEP",
					"output":26
				},
				{
					"input":22,
					"interpolation":"LINEAR",
					"output":27
				},
				{
					"input":24,
					"interpolation":"LINEAR",
					"output":28
				},
				{
					"input":22,
					"interpolation":"STEP",
					"output":29
				},
				{
					"input":22,
					"interpolation":"STEP",
					"output":30
				},
				{
					"input":24,
					"interpolation":"LINEAR",
					"output":31
				},
				{
					"input":22,
					"interpolation":"STEP",
					"output":32
				}
			]
		}
	],
	"materials":[
		{
			"doubleSided":true,
			"name":"\u30de\u30c6\u30ea\u30a2\u30eb.001",
			"pbrMetallicRoughness":{
				"baseColorTexture":{
					"index":0
				},
				"metallicFactor":0,
				"roughnessFactor":0.5
			}
		},
		{
			"doubleSided":true,
			"name":"\u30de\u30c6\u30ea\u30a2\u30eb",
			"pbrMetallicRoughness":{
				"baseColorTexture":{
					"index":1
				},
				"metallicFactor":0,
				"roughnessFactor":0.5
			}
		},
		{
			"doubleSided":true,
			"name":"\u30de\u30c6\u30ea\u30a2\u30eb.002",
			"pbrMetallicRoughness":{
				"baseColorTexture":{
					"index":2
				},
				"metallicFactor":0,
				"roughnessFactor":0.5
			}
		},
		{
			"doubleSided":true,
			"name":"\u30de\u30c6\u30ea\u30a2\u30eb.003",
			"pbrMetallicRoughness":{
				"baseColorTexture":{
					"index":3
				},
				"metallicFactor":0,
				"roughnessFactor":0.5
			}
		}
	],
	"meshes":[
		{
			"name":"\u5186.001",
			"primitives":[
				{
					"attributes":{
						"POSITION":0,
						"NORMAL":1,
						"TEXCOORD_0":2,
						"JOINTS_0":3,
						"WEIGHTS_0":4
					},
					"indices":5,
					"material":0
				},
				{
					"attributes":{
						"POSITION":6,
						"NORMAL":7,
						"TEXCOORD_0":8,
						"JOINTS_0":9,
						"WEIGHTS_0":10
					},
					"indices":5,
					"material":1
				},
				{
					"attributes":{
						"POSITION":11,
						"NORMAL":12,
						"TEXCOORD_0":13,
						"JOINTS_0":14,
						"WEIGHTS_0":15
					},
					"indices":5,
					"material":2
				},
				{
					"attributes":{
						"POSITION":16,
						"NORMAL":17,
						"TEXCOORD_0":18,
						"JOINTS_0":19,
						"WEIGHTS_0":20
					},
					"indices":5,
					"material":3
				}
			]
		}
	],
	"textures":[
		{
			"sampler":0,
			"source":0
		},
		{
			"sampler":0,
			"source":1
		},
		{
			"sampler":0,
			"source":1
		},
		{
			"sampler":0,
			"source":0
		}
	],
	"images":[
		{
			"mimeType":"image/png",
			"name":"gum",
			"uri":"gum.png"
		},
		{
			"mimeType":"image/png",
			"name":"tooth",
			"uri":"tooth.png"
		}
	],
	"skins":[
		{
			"inverseBindMatrices":21,
			"joints":[
				1,
				0,
				2
			],
			"name":"\u30a2\u30fc\u30de\u30c1\u30e5\u30a2"
		}
	],
	"accessors":[
		{
			"bufferView":0,
			"componentType":5126,
			"count":52,
			"max":[
				0.8363388776779175,
				0.1785471886396408,
				1.0766507387161255
			],
			"min":[
				-0.8363388776779175,
				6.272511541283166e-07,
				-0.10773424804210663
			],
			"type":"VEC3"
		},
		{
			"bufferView":1,
			"componentType":5126,
			"count":52,
			"type":"VEC3"
		},
		{
			"bufferView":2,
			"componentType":5126,
			"count":52,
			"type":"VEC2"
		},
		{
			"bufferView":3,
			"componentType":5121,
			"count":52,
			"type":"VEC4"
		},
		{
			"bufferView":4,
			"componentType":5126,
			"count":52,
			"type":"VEC4"
		},
		{
			"bufferView":5,
			"componentType":5123,
			"count":300,
			"type":"SCALAR"
		},
		{
			"bufferView":6,
			"componentType":5126,
			"count":52,
			"max":[
				0.7688161730766296,
				0.2963709533214569,
				1.0585390329360962
			],
			"min":[
				-0.7688161730766296,
				0.13223955035209656,
				-0.03022328019142151
			],
			"type":"VEC3"
		},
		{
			"bufferView":7,
			"componentType":5126,
			"count":52,
			"type":"VEC3"
		},
		{
			"bufferView":8,
			"componentType":5126,
			"count":52,
			"type":"VEC2"
		},
		{
			"bufferView":9,
			"componentType":5121,
			"count":52,
			"type":"VEC4"
		},
		{
			"bufferView":10,
			"componentType":5126,
			"count":52,
			"type":"VEC4"
		},
		{
			"bufferView":11,
			"componentType":5126,
			"count":52,
			"max":[
				0.7688161730766296,
				0.8510445952415466,
				1.040826439857483
			],
			"min":[
				-0.7688161730766296,
				0.2598835527896881,
				-0.021076388657093048
			],
			"type":"VEC3"
		},
		{
			"bufferView":12,
			"componentType":5126,
			"count":52,
			"type":"VEC3"
		},
		{
			"bufferView":13,
			"componentType":5126,
			"count":52,
			"type":"VEC2"
		},
		{
			"bufferView":14,
			"componentType":5121,
			"count":52,
			"type":"VEC4"
		},
		{
			"bufferView":15,
			"componentType":5126,
			"count":52,
			"type":"VEC4"
		},
		{
			"bufferView":16,
			"componentType":5126,
			"count":52,
			"max":[
				0.8363388180732727,
				1.0085773468017578,
				1.0719348192214966
			],
			"min":[
				-0.8363389372825623,
				0.36549651622772217,
				-0.08323156088590622
			],
			"type":"VEC3"
		},
		{
			"bufferView":17,
			"componentType":5126,
			"count":52,
			"type":"VEC3"
		},
		{
			"bufferView":18,
			"componentType":5126,
			"count":52,
			"type":"VEC2"
		},
		{
			"bufferView":19,
			"componentType":5121,
			"count":52,
			"type":"VEC4"
		},
		{
			"bufferView":20,
			"componentType":5126,
			"count":52,
			"type":"VEC4"
		},
		{
			"bufferView":21,
			"componentType":5126,
			"count":3,
			"type":"MAT4"
		},
		{
			"bufferView":22,
			"componentType":5126,
			"count":2,
			"max":[
				2.5
			],
			"min":[
				0.041666666666666664
			],
			"type":"SCALAR"
		},
		{
			"bufferView":23,
			"componentType":5126,
			"count":2,
			"type":"VEC3"
		},
		{
			"bufferView":24,
			"componentType":5126,
			"count":60,
			"max":[
				2.5
			],
			"min":[
				0.041666666666666664
			],
			"type":"SCALAR"
		},
		{
			"bufferView":25,
			"componentType":5126,
			"count":60,
			"type":"VEC4"
		},
		{
			"bufferView":26,
			"componentType":5126,
			"count":2,
			"type":"VEC3"
		},
		{
			"bufferView":27,
			"componentType":5126,
			"count":2,
			"type":"VEC3"
		},
		{
			"bufferView":28,
			"componentType":5126,
			"count":60,
			"type":"VEC4"
		},
		{
			"bufferView":29,
			"componentType":5126,
			"count":2,
			"type":"VEC3"
		},
		{
			"bufferView":30,
			"componentType":5126,
			"count":2,
			"type":"VEC3"
		},
		{
			"bufferView":31,
			"componentType":5126,
			"count":60,
			"type":"VEC4"
		},
		{
			"bufferView":32,
			"componentType":5126,
			"count":2,
			"type":"VEC3"
		}
	],
	"bufferViews":[
		{
			"buffer":0,
			"byteLength":624,
			"byteOffset":0,
			"target":34962
		},
		{
			"buffer":0,
			"byteLength":624,
			"byteOffset":624,
			"target":34962
		},
		{
			"buffer":0,
			"byteLength":416,
			"byteOffset":1248,
			"target":34962
		},
		{
			"buffer":0,
			"byteLength":208,
			"byteOffset":1664,
			"target":34962
		},
		{
			"buffer":0,
			"byteLength":832,
			"byteOffset":1872,
			"target":34962
		},
		{
			"buffer":0,
			"byteLength":600,
			"byteOffset":2704,
			"target":34963
		},
		{
			"buffer":0,
			"byteLength":624,
			"byteOffset":3304,
			"target":34962
		},
		{
			"buffer":0,
			"byteLength":624,
			"byteOffset":3928,
			"target":34962
		},
		{
			"buffer":0,
			"byteLength":416,
			"byteOffset":4552,
			"target":34962
		},
		{
			"buffer":0,
			"byteLength":208,
			"byteOffset":4968,
			"target":34962
		},
		{
			"buffer":0,
			"byteLength":832,
			"byteOffset":5176,
			"target":34962
		},
		{
			"buffer":0,
			"byteLength":624,
			"byteOffset":6008,
			"target":34962
		},
		{
			"buffer":0,
			"byteLength":624,
			"byteOffset":6632,
			"target":34962
		},
		{
			"buffer":0,
			"byteLength":416,
			"byteOffset":7256,
			"target":34962
		},
		{
			"buffer":0,
			"byteLength":208,
			"byteOffset":7672,
			"target":34962
		},
		{
			"buffer":0,
			"byteLength":832,
			"byteOffset":7880,
			"target":34962
		},
		{
			"buffer":0,
			"byteLength":624,
			"byteOffset":8712,
			"target":34962
		},
		{
			"buffer":0,
			"byteLength":624,
			"byteOffset":9336,
			"target":34962
		},
		{
			"buffer":0,
			"byteLength":416,
			"byteOffset":9960,
			"target":34962
		},
		{
			"buffer":0,
			"byteLength":208,
			"byteOffset":10376,
			"target":34962
		},
		{
			"buffer":0,
			"byteLength":832,
			"byteOffset":10584,
			"target":34962
		},
		{
			"buffer":0,
			"byteLength":192,
			"byteOffset":11416
		},
		{
			"buffer":0,
			"byteLength":8,
			"byteOffset":11608
		},
		{
			"buffer":0,
			"byteLength":24,
			"byteOffset":11616
		},
		{
			"buffer":0,
			"byteLength":240,
			"byteOffset":11640
		},
		{
			"buffer":0,
			"byteLength":960,
			"byteOffset":11880
		},
		{
			"buffer":0,
			"byteLength":24,
			"byteOffset":12840
		},
		{
			"buffer":0,
			"byteLength":24,
			"byteOffset":12864
		},
		{
			"buffer":0,
			"byteLength":960,
			"byteOffset":12888
		},
		{
			"buffer":0,
			"byteLength":24,
			"byteOffset":13848
		},
		{
			"buffer":0,
			"byteLength":24,
			"byteOffset":13872
		},
		{
			"buffer":0,
			"byteLength":960,
			"byteOffset":13896
		},
		{
			"buffer":0,
			"byteLength":24,
			"byteOffset":14856
		}
	],
	"samplers":[
		{
			"magFilter":9729,
			"minFilter":9987
		}
	],
	"buffers":[
		{
			"byteLength":14880,
			"uri":"Tooth.bin"
		}
	]
}
