{
	"asset":{
		"generator":"Khronos glTF Blender I/O v4.1.63",
		"version":"2.0"
	},
	"scene":0,
	"scenes":[
		{
			"name":"Scene",
			"nodes":[
				32
			]
		}
	],
	"nodes":[
		{
			"name":"Neck",
			"rotation":[
				-7.105427357601002e-15,
				0,
				0,
				1
			],
			"translation":[
				0,
				0.5146140456199646,
				-1.7763568394002505e-15
			]
		},
		{
			"name":"UnderLip.L.001",
			"rotation":[
				-0.005243928637355566,
				2.1623344892418572e-08,
				-5.502972655335725e-08,
				0.9999862909317017
			],
			"scale":[
				1,
				0.9999998807907104,
				0.9999998807907104
			],
			"translation":[
				4.172666123736235e-08,
				0.35664886236190796,
				1.8097523479809752e-11
			]
		},
		{
			"name":"UnderTooth.L.001",
			"rotation":[
				-0.005243963561952114,
				2.2356219986363612e-08,
				-1.0300144070995998e-09,
				0.9999862909317017
			],
			"scale":[
				1,
				1,
				0.9999998807907104
			],
			"translation":[
				4.691325106165323e-10,
				0.27657267451286316,
				-8.956941854876277e-09
			]
		},
		{
			"children":[
				2
			],
			"name":"UnderTooth.L",
			"rotation":[
				3.725290653733282e-08,
				-1.2191292420027366e-08,
				-5.387792256783541e-08,
				1
			],
			"scale":[
				1,
				0.9999999403953552,
				0.9999999403953552
			],
			"translation":[
				-0.06696188449859619,
				0.009501278400421143,
				0.07621708512306213
			]
		},
		{
			"children":[
				1,
				3
			],
			"name":"UnderLip.L",
			"rotation":[
				0.1858801543712616,
				-0.6822378039360046,
				0.18588025867938995,
				0.682237982749939
			],
			"scale":[
				1,
				1.0000001192092896,
				1.0000001192092896
			],
			"translation":[
				0.5652454495429993,
				0.24220889806747437,
				1.1164621114730835
			]
		},
		{
			"name":"Arm.L",
			"rotation":[
				-1.4850137786126538e-09,
				1.864903538262297e-07,
				0.18076227605342865,
				0.9835268259048462
			],
			"scale":[
				1,
				1.0000001192092896,
				1
			],
			"translation":[
				-3.725297403889272e-09,
				0.8612068295478821,
				-1.2434497875801753e-14
			]
		},
		{
			"name":"UpperTooth.L.001",
			"rotation":[
				0.01548258401453495,
				0.00018375150102656335,
				-0.08537504076957703,
				0.9962285757064819
			],
			"scale":[
				1,
				1,
				1.0000001192092896
			],
			"translation":[
				1.862645149230957e-08,
				0.3467836380004883,
				-2.9802322387695312e-08
			]
		},
		{
			"children":[
				6
			],
			"name":"UpperTooth.L",
			"rotation":[
				5.3318217396736145e-08,
				-4.0046870708465576e-08,
				4.8137735575437546e-08,
				1
			],
			"translation":[
				0.2803833782672882,
				0.046470433473587036,
				-0.04772193357348442
			]
		},
		{
			"name":"UpperLip.L.001",
			"rotation":[
				0.015482649207115173,
				0.00018382004054728895,
				-0.08537501096725464,
				0.9962285757064819
			],
			"scale":[
				0.9999998807907104,
				1,
				1
			],
			"translation":[
				3.725290298461914e-08,
				0.4633335471153259,
				8.940696716308594e-08
			]
		},
		{
			"children":[
				7,
				8
			],
			"name":"UpperLip.L",
			"rotation":[
				-0.007682197727262974,
				0.11717233806848526,
				0.10663444548845291,
				0.9873402714729309
			],
			"scale":[
				1,
				0.9999998807907104,
				1
			],
			"translation":[
				-0.20003825426101685,
				-0.07677143067121506,
				1.1338945627212524
			]
		},
		{
			"children":[
				4,
				5,
				9
			],
			"name":"Shoulder.L",
			"rotation":[
				-7.561938275557623e-08,
				-5.008059034139478e-08,
				-0.8337376117706299,
				0.5521608591079712
			],
			"scale":[
				1.0000001192092896,
				1,
				1
			],
			"translation":[
				0,
				0.5146140456199646,
				-1.7763568394002505e-15
			]
		},
		{
			"name":"UnderLip.R.001",
			"rotation":[
				-0.043288473039865494,
				0.0029035676270723343,
				-0.06435124576091766,
				0.9969837665557861
			],
			"scale":[
				0.9999998807907104,
				0.9999998807907104,
				0.9999999403953552
			],
			"translation":[
				-2.2351741790771484e-08,
				0.36322253942489624,
				2.3748725652694702e-08
			]
		},
		{
			"name":"UnderTooth.R.001",
			"rotation":[
				-0.0432884655892849,
				0.002903588814660907,
				-0.06435112655162811,
				0.9969837665557861
			],
			"scale":[
				0.9999999403953552,
				0.9999998211860657,
				0.9999999403953552
			],
			"translation":[
				4.6566128730773926e-09,
				0.28167033195495605,
				-1.0384246706962585e-07
			]
		},
		{
			"children":[
				12
			],
			"name":"UnderTooth.R",
			"rotation":[
				0,
				-2.671731991199522e-08,
				-1.0660734517387027e-07,
				1
			],
			"scale":[
				0.9999999403953552,
				0.9999998807907104,
				0.9999999403953552
			],
			"translation":[
				0.0781124085187912,
				0.0007918531773611903,
				-0.06542953103780746
			]
		},
		{
			"children":[
				11,
				13
			],
			"name":"UnderLip.R",
			"rotation":[
				0.027414819225668907,
				0.004744713194668293,
				-0.22224271297454834,
				0.9745942950248718
			],
			"scale":[
				1.0000001192092896,
				1.0000001192092896,
				1
			],
			"translation":[
				-0.5671386122703552,
				0.23774220049381256,
				1.1164621114730835
			]
		},
		{
			"name":"UpperLip.R.001",
			"rotation":[
				-0.10691426694393158,
				6.057862833586114e-08,
				6.652790762728955e-09,
				0.9942682385444641
			],
			"scale":[
				1,
				0.9999999403953552,
				0.9999999403953552
			],
			"translation":[
				-6.283765063841429e-09,
				0.4615916609764099,
				1.3253029784721093e-08
			]
		},
		{
			"name":"UpperTooth.R.001",
			"rotation":[
				-0.10691428184509277,
				5.163842331512569e-08,
				-1.1526256393779022e-08,
				0.9942682385444641
			],
			"scale":[
				1,
				0.9999999403953552,
				0.9999999403953552
			],
			"translation":[
				-2.487251471450236e-08,
				0.3454797863960266,
				2.8558403641909536e-08
			]
		},
		{
			"children":[
				16
			],
			"name":"UpperTooth.R",
			"rotation":[
				3.725290076417309e-09,
				3.9953576447260275e-08,
				1.0782946979759345e-08,
				1
			],
			"translation":[
				0.11128354072570801,
				0.04099505767226219,
				-0.2626539468765259
			]
		},
		{
			"children":[
				15,
				17
			],
			"name":"UpperLip.R",
			"rotation":[
				0.08922439068555832,
				0.7014548182487488,
				-0.0892244279384613,
				0.7014550566673279
			],
			"scale":[
				1,
				0.9999999403953552,
				1
			],
			"translation":[
				0.19428008794784546,
				-0.09035711735486984,
				1.1338945627212524
			]
		},
		{
			"name":"Arm.R",
			"rotation":[
				-1.4850137786126538e-09,
				-1.864903538262297e-07,
				-0.18076227605342865,
				0.9835268259048462
			],
			"scale":[
				1,
				1.0000001192092896,
				1
			],
			"translation":[
				3.725297403889272e-09,
				0.8612068295478821,
				-1.2434497875801753e-14
			]
		},
		{
			"children":[
				14,
				18,
				19
			],
			"name":"Shoulder.R",
			"rotation":[
				-7.561938275557623e-08,
				5.008059034139478e-08,
				0.8337376117706299,
				0.5521608591079712
			],
			"scale":[
				1.0000001192092896,
				1,
				1
			],
			"translation":[
				0,
				0.5146140456199646,
				-1.7763568394002505e-15
			]
		},
		{
			"children":[
				0,
				10,
				20
			],
			"name":"UpperBody",
			"rotation":[
				-6.717940692624325e-08,
				0,
				0,
				1
			],
			"translation":[
				0,
				0.4725271463394165,
				0
			]
		},
		{
			"children":[
				21
			],
			"name":"LowerBody",
			"translation":[
				0,
				-0.6132078766822815,
				0
			]
		},
		{
			"name":"Foot.L",
			"rotation":[
				-0.5280036926269531,
				1.192103695757396e-07,
				-1.3769651729944599e-07,
				0.849242091178894
			],
			"scale":[
				1,
				0.9999999403953552,
				0.9999999403953552
			],
			"translation":[
				-1.7763568394002505e-15,
				0.6323840022087097,
				-5.960464477539063e-08
			]
		},
		{
			"children":[
				23
			],
			"name":"Thigh.L",
			"rotation":[
				-0.6005048751831055,
				-0.373354971408844,
				-0.6005048155784607,
				0.373354971408844
			],
			"scale":[
				0.9999999403953552,
				0.9999998807907104,
				0.9999999403953552
			],
			"translation":[
				0,
				-0.6132078766822815,
				0
			]
		},
		{
			"name":"Foot.R",
			"rotation":[
				-0.5280036926269531,
				-1.192103695757396e-07,
				1.3769651729944599e-07,
				0.849242091178894
			],
			"scale":[
				1,
				0.9999999403953552,
				0.9999999403953552
			],
			"translation":[
				1.7763568394002505e-15,
				0.6323840022087097,
				-5.960464477539063e-08
			]
		},
		{
			"children":[
				25
			],
			"name":"Thigh.R",
			"rotation":[
				-0.6005048751831055,
				0.373354971408844,
				0.6005048155784607,
				0.373354971408844
			],
			"scale":[
				0.9999999403953552,
				0.9999998807907104,
				0.9999999403953552
			],
			"translation":[
				0,
				-0.6132078766822815,
				0
			]
		},
		{
			"mesh":0,
			"name":"Body",
			"skin":0
		},
		{
			"mesh":1,
			"name":"downMouth",
			"skin":0
		},
		{
			"mesh":2,
			"name":"downTooth",
			"skin":0
		},
		{
			"mesh":3,
			"name":"upMouth",
			"skin":0
		},
		{
			"mesh":4,
			"name":"upTooth",
			"skin":0
		},
		{
			"children":[
				27,
				28,
				29,
				30,
				31,
				22,
				24,
				26
			],
			"name":"Player"
		}
	],
	"animations":[
		{
			"channels":[
				{
					"sampler":0,
					"target":{
						"node":22,
						"path":"translation"
					}
				},
				{
					"sampler":1,
					"target":{
						"node":22,
						"path":"rotation"
					}
				},
				{
					"sampler":2,
					"target":{
						"node":22,
						"path":"scale"
					}
				},
				{
					"sampler":3,
					"target":{
						"node":21,
						"path":"translation"
					}
				},
				{
					"sampler":4,
					"target":{
						"node":21,
						"path":"rotation"
					}
				},
				{
					"sampler":5,
					"target":{
						"node":21,
						"path":"scale"
					}
				},
				{
					"sampler":6,
					"target":{
						"node":0,
						"path":"translation"
					}
				},
				{
					"sampler":7,
					"target":{
						"node":0,
						"path":"rotation"
					}
				},
				{
					"sampler":8,
					"target":{
						"node":0,
						"path":"scale"
					}
				},
				{
					"sampler":9,
					"target":{
						"node":10,
						"path":"translation"
					}
				},
				{
					"sampler":10,
					"target":{
						"node":10,
						"path":"rotation"
					}
				},
				{
					"sampler":11,
					"target":{
						"node":10,
						"path":"scale"
					}
				},
				{
					"sampler":12,
					"target":{
						"node":4,
						"path":"translation"
					}
				},
				{
					"sampler":13,
					"target":{
						"node":4,
						"path":"rotation"
					}
				},
				{
					"sampler":14,
					"target":{
						"node":4,
						"path":"scale"
					}
				},
				{
					"sampler":15,
					"target":{
						"node":1,
						"path":"translation"
					}
				},
				{
					"sampler":16,
					"target":{
						"node":1,
						"path":"rotation"
					}
				},
				{
					"sampler":17,
					"target":{
						"node":1,
						"path":"scale"
					}
				},
				{
					"sampler":18,
					"target":{
						"node":3,
						"path":"translation"
					}
				},
				{
					"sampler":19,
					"target":{
						"node":3,
						"path":"rotation"
					}
				},
				{
					"sampler":20,
					"target":{
						"node":3,
						"path":"scale"
					}
				},
				{
					"sampler":21,
					"target":{
						"node":2,
						"path":"translation"
					}
				},
				{
					"sampler":22,
					"target":{
						"node":2,
						"path":"rotation"
					}
				},
				{
					"sampler":23,
					"target":{
						"node":2,
						"path":"scale"
					}
				},
				{
					"sampler":24,
					"target":{
						"node":5,
						"path":"translation"
					}
				},
				{
					"sampler":25,
					"target":{
						"node":5,
						"path":"rotation"
					}
				},
				{
					"sampler":26,
					"target":{
						"node":5,
						"path":"scale"
					}
				},
				{
					"sampler":27,
					"target":{
						"node":9,
						"path":"translation"
					}
				},
				{
					"sampler":28,
					"target":{
						"node":9,
						"path":"rotation"
					}
				},
				{
					"sampler":29,
					"target":{
						"node":9,
						"path":"scale"
					}
				},
				{
					"sampler":30,
					"target":{
						"node":7,
						"path":"translation"
					}
				},
				{
					"sampler":31,
					"target":{
						"node":7,
						"path":"rotation"
					}
				},
				{
					"sampler":32,
					"target":{
						"node":7,
						"path":"scale"
					}
				},
				{
					"sampler":33,
					"target":{
						"node":6,
						"path":"translation"
					}
				},
				{
					"sampler":34,
					"target":{
						"node":6,
						"path":"rotation"
					}
				},
				{
					"sampler":35,
					"target":{
						"node":6,
						"path":"scale"
					}
				},
				{
					"sampler":36,
					"target":{
						"node":8,
						"path":"translation"
					}
				},
				{
					"sampler":37,
					"target":{
						"node":8,
						"path":"rotation"
					}
				},
				{
					"sampler":38,
					"target":{
						"node":8,
						"path":"scale"
					}
				},
				{
					"sampler":39,
					"target":{
						"node":20,
						"path":"translation"
					}
				},
				{
					"sampler":40,
					"target":{
						"node":20,
						"path":"rotation"
					}
				},
				{
					"sampler":41,
					"target":{
						"node":20,
						"path":"scale"
					}
				},
				{
					"sampler":42,
					"target":{
						"node":14,
						"path":"translation"
					}
				},
				{
					"sampler":43,
					"target":{
						"node":14,
						"path":"rotation"
					}
				},
				{
					"sampler":44,
					"target":{
						"node":14,
						"path":"scale"
					}
				},
				{
					"sampler":45,
					"target":{
						"node":11,
						"path":"translation"
					}
				},
				{
					"sampler":46,
					"target":{
						"node":11,
						"path":"rotation"
					}
				},
				{
					"sampler":47,
					"target":{
						"node":11,
						"path":"scale"
					}
				},
				{
					"sampler":48,
					"target":{
						"node":13,
						"path":"translation"
					}
				},
				{
					"sampler":49,
					"target":{
						"node":13,
						"path":"rotation"
					}
				},
				{
					"sampler":50,
					"target":{
						"node":13,
						"path":"scale"
					}
				},
				{
					"sampler":51,
					"target":{
						"node":12,
						"path":"translation"
					}
				},
				{
					"sampler":52,
					"target":{
						"node":12,
						"path":"rotation"
					}
				},
				{
					"sampler":53,
					"target":{
						"node":12,
						"path":"scale"
					}
				},
				{
					"sampler":54,
					"target":{
						"node":18,
						"path":"translation"
					}
				},
				{
					"sampler":55,
					"target":{
						"node":18,
						"path":"rotation"
					}
				},
				{
					"sampler":56,
					"target":{
						"node":18,
						"path":"scale"
					}
				},
				{
					"sampler":57,
					"target":{
						"node":15,
						"path":"translation"
					}
				},
				{
					"sampler":58,
					"target":{
						"node":15,
						"path":"rotation"
					}
				},
				{
					"sampler":59,
					"target":{
						"node":15,
						"path":"scale"
					}
				},
				{
					"sampler":60,
					"target":{
						"node":17,
						"path":"translation"
					}
				},
				{
					"sampler":61,
					"target":{
						"node":17,
						"path":"rotation"
					}
				},
				{
					"sampler":62,
					"target":{
						"node":17,
						"path":"scale"
					}
				},
				{
					"sampler":63,
					"target":{
						"node":16,
						"path":"translation"
					}
				},
				{
					"sampler":64,
					"target":{
						"node":16,
						"path":"rotation"
					}
				},
				{
					"sampler":65,
					"target":{
						"node":16,
						"path":"scale"
					}
				},
				{
					"sampler":66,
					"target":{
						"node":19,
						"path":"translation"
					}
				},
				{
					"sampler":67,
					"target":{
						"node":19,
						"path":"rotation"
					}
				},
				{
					"sampler":68,
					"target":{
						"node":19,
						"path":"scale"
					}
				},
				{
					"sampler":69,
					"target":{
						"node":24,
						"path":"translation"
					}
				},
				{
					"sampler":70,
					"target":{
						"node":24,
						"path":"rotation"
					}
				},
				{
					"sampler":71,
					"target":{
						"node":24,
						"path":"scale"
					}
				},
				{
					"sampler":72,
					"target":{
						"node":23,
						"path":"translation"
					}
				},
				{
					"sampler":73,
					"target":{
						"node":23,
						"path":"rotation"
					}
				},
				{
					"sampler":74,
					"target":{
						"node":23,
						"path":"scale"
					}
				},
				{
					"sampler":75,
					"target":{
						"node":26,
						"path":"translation"
					}
				},
				{
					"sampler":76,
					"target":{
						"node":26,
						"path":"rotation"
					}
				},
				{
					"sampler":77,
					"target":{
						"node":26,
						"path":"scale"
					}
				},
				{
					"sampler":78,
					"target":{
						"node":25,
						"path":"translation"
					}
				},
				{
					"sampler":79,
					"target":{
						"node":25,
						"path":"rotation"
					}
				},
				{
					"sampler":80,
					"target":{
						"node":25,
						"path":"scale"
					}
				},
				{
					"sampler":81,
					"target":{
						"node":32,
						"path":"translation"
					}
				},
				{
					"sampler":82,
					"target":{
						"node":32,
						"path":"rotation"
					}
				},
				{
					"sampler":83,
					"target":{
						"node":32,
						"path":"scale"
					}
				}
			],
			"name":"Player\u30a2\u30af\u30b7\u30e7\u30f3",
			"samplers":[
				{
					"input":31,
					"interpolation":"LINEAR",
					"output":32
				},
				{
					"input":33,
					"interpolation":"STEP",
					"output":34
				},
				{
					"input":33,
					"interpolation":"STEP",
					"output":35
				},
				{
					"input":33,
					"interpolation":"STEP",
					"output":36
				},
				{
					"input":31,
					"interpolation":"LINEAR",
					"output":37
				},
				{
					"input":33,
					"interpolation":"STEP",
					"output":38
				},
				{
					"input":33,
					"interpolation":"STEP",
					"output":39
				},
				{
					"input":33,
					"interpolation":"STEP",
					"output":40
				},
				{
					"input":33,
					"interpolation":"STEP",
					"output":41
				},
				{
					"input":33,
					"interpolation":"STEP",
					"output":42
				},
				{
					"input":33,
					"interpolation":"STEP",
					"output":43
				},
				{
					"input":33,
					"interpolation":"STEP",
					"output":44
				},
				{
					"input":33,
					"interpolation":"STEP",
					"output":45
				},
				{
					"input":33,
					"interpolation":"STEP",
					"output":46
				},
				{
					"input":33,
					"interpolation":"STEP",
					"output":47
				},
				{
					"input":33,
					"interpolation":"STEP",
					"output":48
				},
				{
					"input":33,
					"interpolation":"STEP",
					"output":49
				},
				{
					"input":33,
					"interpolation":"STEP",
					"output":50
				},
				{
					"input":33,
					"interpolation":"STEP",
					"output":51
				},
				{
					"input":33,
					"interpolation":"STEP",
					"output":52
				},
				{
					"input":33,
					"interpolation":"STEP",
					"output":53
				},
				{
					"input":33,
					"interpolation":"STEP",
					"output":54
				},
				{
					"input":33,
					"interpolation":"STEP",
					"output":55
				},
				{
					"input":33,
					"interpolation":"STEP",
					"output":56
				},
				{
					"input":33,
					"interpolation":"STEP",
					"output":57
				},
				{
					"input":31,
					"interpolation":"LINEAR",
					"output":58
				},
				{
					"input":33,
					"interpolation":"STEP",
					"output":59
				},
				{
					"input":33,
					"interpolation":"STEP",
					"output":60
				},
				{
					"input":33,
					"interpolation":"STEP",
					"output":61
				},
				{
					"input":33,
					"interpolation":"STEP",
					"output":62
				},
				{
					"input":33,
					"interpolation":"STEP",
					"output":63
				},
				{
					"input":33,
					"interpolation":"STEP",
					"output":64
				},
				{
					"input":33,
					"interpolation":"STEP",
					"output":65
				},
				{
					"input":33,
					"interpolation":"STEP",
					"output":66
				},
				{
					"input":33,
					"interpolation":"STEP",
					"output":67
				},
				{
					"input":33,
					"interpolation":"STEP",
					"output":68
				},
				{
					"input":33,
					"interpolation":"STEP",
					"output":69
				},
				{
					"input":33,
					"interpolation":"STEP",
					"output":70
				},
				{
					"input":33,
					"interpolation":"STEP",
					"output":71
				},
				{
					"input":33,
					"interpolation":"STEP",
					"output":72
				},
				{
					"input":33,
					"interpolation":"STEP",
					"output":73
				},
				{
					"input":33,
					"interpolation":"STEP",
					"output":74
				},
				{
					"input":33,
					"interpolation":"STEP",
					"output":75
				},
				{
					"input":33,
					"interpolation":"STEP",
					"output":76
				},
				{
					"input":33,
					"interpolation":"STEP",
					"output":77
				},
				{
					"input":33,
					"interpolation":"STEP",
					"output":78
				},
				{
					"input":33,
					"interpolation":"STEP",
					"output":79
				},
				{
					"input":33,
					"interpolation":"STEP",
					"output":80
				},
				{
					"input":33,
					"interpolation":"STEP",
					"output":81
				},
				{
					"input":33,
					"interpolation":"STEP",
					"output":82
				},
				{
					"input":33,
					"interpolation":"STEP",
					"output":83
				},
				{
					"input":33,
					"interpolation":"STEP",
					"output":84
				},
				{
					"input":33,
					"interpolation":"STEP",
					"output":85
				},
				{
					"input":33,
					"interpolation":"STEP",
					"output":86
				},
				{
					"input":33,
					"interpolation":"STEP",
					"output":87
				},
				{
					"input":33,
					"interpolation":"STEP",
					"output":88
				},
				{
					"input":33,
					"interpolation":"STEP",
					"output":89
				},
				{
					"input":33,
					"interpolation":"STEP",
					"output":90
				},
				{
					"input":33,
					"interpolation":"STEP",
					"output":91
				},
				{
					"input":33,
					"interpolation":"STEP",
					"output":92
				},
				{
					"input":33,
					"interpolation":"STEP",
					"output":93
				},
				{
					"input":33,
					"interpolation":"STEP",
					"output":94
				},
				{
					"input":33,
					"interpolation":"STEP",
					"output":95
				},
				{
					"input":33,
					"interpolation":"STEP",
					"output":96
				},
				{
					"input":33,
					"interpolation":"STEP",
					"output":97
				},
				{
					"input":33,
					"interpolation":"STEP",
					"output":98
				},
				{
					"input":33,
					"interpolation":"STEP",
					"output":99
				},
				{
					"input":31,
					"interpolation":"LINEAR",
					"output":100
				},
				{
					"input":33,
					"interpolation":"STEP",
					"output":101
				},
				{
					"input":31,
					"interpolation":"LINEAR",
					"output":102
				},
				{
					"input":33,
					"interpolation":"STEP",
					"output":103
				},
				{
					"input":33,
					"interpolation":"STEP",
					"output":104
				},
				{
					"input":33,
					"interpolation":"STEP",
					"output":105
				},
				{
					"input":31,
					"interpolation":"LINEAR",
					"output":106
				},
				{
					"input":31,
					"interpolation":"LINEAR",
					"output":107
				},
				{
					"input":31,
					"interpolation":"LINEAR",
					"output":108
				},
				{
					"input":33,
					"interpolation":"STEP",
					"output":109
				},
				{
					"input":33,
					"interpolation":"STEP",
					"output":110
				},
				{
					"input":33,
					"interpolation":"STEP",
					"output":111
				},
				{
					"input":31,
					"interpolation":"LINEAR",
					"output":112
				},
				{
					"input":31,
					"interpolation":"LINEAR",
					"output":113
				},
				{
					"input":33,
					"interpolation":"STEP",
					"output":114
				},
				{
					"input":33,
					"interpolation":"STEP",
					"output":115
				},
				{
					"input":33,
					"interpolation":"STEP",
					"output":116
				}
			]
		}
	],
	"materials":[
		{
			"alphaMode":"BLEND",
			"doubleSided":true,
			"name":"\u30de\u30c6\u30ea\u30a2\u30eb.002",
			"pbrMetallicRoughness":{
				"baseColorTexture":{
					"index":0
				},
				"metallicFactor":0,
				"roughnessFactor":0.5
			}
		},
		{
			"alphaMode":"BLEND",
			"doubleSided":true,
			"name":"\u30de\u30c6\u30ea\u30a2\u30eb",
			"pbrMetallicRoughness":{
				"baseColorTexture":{
					"index":1
				},
				"metallicFactor":0,
				"roughnessFactor":0.5
			}
		},
		{
			"alphaMode":"BLEND",
			"doubleSided":true,
			"name":"\u30de\u30c6\u30ea\u30a2\u30eb.004",
			"pbrMetallicRoughness":{
				"baseColorTexture":{
					"index":2
				},
				"metallicFactor":0,
				"roughnessFactor":0.5
			}
		},
		{
			"alphaMode":"BLEND",
			"doubleSided":true,
			"name":"\u30de\u30c6\u30ea\u30a2\u30eb.001",
			"pbrMetallicRoughness":{
				"baseColorTexture":{
					"index":3
				},
				"metallicFactor":0,
				"roughnessFactor":0.5
			}
		},
		{
			"alphaMode":"BLEND",
			"doubleSided":true,
			"name":"\u30de\u30c6\u30ea\u30a2\u30eb.003",
			"pbrMetallicRoughness":{
				"baseColorTexture":{
					"index":4
				},
				"metallicFactor":0,
				"roughnessFactor":0.5
			}
		}
	],
	"meshes":[
		{
			"name":"\u7acb\u65b9\u4f53.001",
			"primitives":[
				{
					"attributes":{
						"POSITION":0,
						"NORMAL":1,
						"TEXCOORD_0":2,
						"JOINTS_0":3,
						"WEIGHTS_0":4
					},
					"indices":5,
					"material":0
				}
			]
		},
		{
			"name":"\u5e73\u9762",
			"primitives":[
				{
					"attributes":{
						"POSITION":7,
						"NORMAL":8,
						"TEXCOORD_0":9,
						"JOINTS_0":10,
						"WEIGHTS_0":11
					},
					"indices":12,
					"material":1
				}
			]
		},
		{
			"name":"\u5e73\u9762.001",
			"primitives":[
				{
					"attributes":{
						"POSITION":13,
						"NORMAL":14,
						"TEXCOORD_0":15,
						"JOINTS_0":16,
						"WEIGHTS_0":17
					},
					"indices":18,
					"material":2
				}
			]
		},
		{
			"name":"\u5e73\u9762.003",
			"primitives":[
				{
					"attributes":{
						"POSITION":19,
						"NORMAL":20,
						"TEXCOORD_0":21,
						"JOINTS_0":22,
						"WEIGHTS_0":23
					},
					"indices":24,
					"material":3
				}
			]
		},
		{
			"name":"\u5e73\u9762.002",
			"primitives":[
				{
					"attributes":{
						"POSITION":25,
						"NORMAL":26,
						"TEXCOORD_0":27,
						"JOINTS_0":28,
						"WEIGHTS_0":29
					},
					"indices":30,
					"material":4
				}
			]
		}
	],
	"textures":[
		{
			"sampler":0,
			"source":0
		},
		{
			"sampler":0,
			"source":1
		},
		{
			"sampler":0,
			"source":2
		},
		{
			"sampler":0,
			"source":1
		},
		{
			"sampler":0,
			"source":2
		}
	],
	"images":[
		{
			"mimeType":"image/png",
			"name":"body",
			"uri":"body.png"
		},
		{
			"mimeType":"image/png",
			"name":"mouth",
			"uri":"mouth.png"
		},
		{
			"mimeType":"image/png",
			"name":"Teeth",
			"uri":"Teeth.png"
		}
	],
	"skins":[
		{
			"inverseBindMatrices":6,
			"joints":[
				22,
				21,
				0,
				10,
				4,
				1,
				3,
				2,
				5,
				9,
				7,
				6,
				8,
				20,
				14,
				11,
				13,
				12,
				18,
				15,
				17,
				16,
				19,
				24,
				23,
				26,
				25
			],
			"name":"Player"
		}
	],
	"accessors":[
		{
			"bufferView":0,
			"componentType":5126,
			"count":2214,
			"max":[
				2.032651901245117,
				1.0000001192092896,
				1.0000001192092896
			],
			"min":[
				-2.052729606628418,
				-1.5409338474273682,
				-1.0000001192092896
			],
			"type":"VEC3"
		},
		{
			"bufferView":1,
			"componentType":5126,
			"count":2214,
			"type":"VEC3"
		},
		{
			"bufferView":2,
			"componentType":5126,
			"count":2214,
			"type":"VEC2"
		},
		{
			"bufferView":3,
			"componentType":5121,
			"count":2214,
			"type":"VEC4"
		},
		{
			"bufferView":4,
			"componentType":5126,
			"count":2214,
			"type":"VEC4"
		},
		{
			"bufferView":5,
			"componentType":5123,
			"count":2820,
			"type":"SCALAR"
		},
		{
			"bufferView":6,
			"componentType":5126,
			"count":27,
			"type":"MAT4"
		},
		{
			"bufferView":7,
			"componentType":5126,
			"count":12266,
			"max":[
				0.9418588876724243,
				-0.045393817126750946,
				1.2716338634490967
			],
			"min":[
				-0.9381362199783325,
				-0.4187658429145813,
				0.9823680520057678
			],
			"type":"VEC3"
		},
		{
			"bufferView":8,
			"componentType":5126,
			"count":12266,
			"type":"VEC3"
		},
		{
			"bufferView":9,
			"componentType":5126,
			"count":12266,
			"type":"VEC2"
		},
		{
			"bufferView":10,
			"componentType":5121,
			"count":12266,
			"type":"VEC4"
		},
		{
			"bufferView":11,
			"componentType":5126,
			"count":12266,
			"type":"VEC4"
		},
		{
			"bufferView":12,
			"componentType":5123,
			"count":12288,
			"type":"SCALAR"
		},
		{
			"bufferView":13,
			"componentType":5126,
			"count":183,
			"max":[
				0.7290143370628357,
				0.0071933576837182045,
				1.1214885711669922
			],
			"min":[
				-0.7290143370628357,
				-0.29623943567276,
				0.8613030910491943
			],
			"type":"VEC3"
		},
		{
			"bufferView":14,
			"componentType":5126,
			"count":183,
			"type":"VEC3"
		},
		{
			"bufferView":15,
			"componentType":5126,
			"count":183,
			"type":"VEC2"
		},
		{
			"bufferView":16,
			"componentType":5121,
			"count":183,
			"type":"VEC4"
		},
		{
			"bufferView":17,
			"componentType":5126,
			"count":183,
			"type":"VEC4"
		},
		{
			"bufferView":18,
			"componentType":5123,
			"count":336,
			"type":"SCALAR"
		},
		{
			"bufferView":19,
			"componentType":5126,
			"count":12080,
			"max":[
				0.9929713606834412,
				0.8289600610733032,
				1.3345853090286255
			],
			"min":[
				-0.9936951994895935,
				0.33266782760620117,
				0.985750675201416
			],
			"type":"VEC3"
		},
		{
			"bufferView":20,
			"componentType":5126,
			"count":12080,
			"type":"VEC3"
		},
		{
			"bufferView":21,
			"componentType":5126,
			"count":12080,
			"type":"VEC2"
		},
		{
			"bufferView":22,
			"componentType":5121,
			"count":12080,
			"type":"VEC4"
		},
		{
			"bufferView":23,
			"componentType":5126,
			"count":12080,
			"type":"VEC4"
		},
		{
			"bufferView":24,
			"componentType":5123,
			"count":12096,
			"type":"SCALAR"
		},
		{
			"bufferView":25,
			"componentType":5126,
			"count":172,
			"max":[
				0.7257571816444397,
				0.5273213386535645,
				1.1214884519577026
			],
			"min":[
				-0.7257571816444397,
				0.24468539655208588,
				0.8541865348815918
			],
			"type":"VEC3"
		},
		{
			"bufferView":26,
			"componentType":5126,
			"count":172,
			"type":"VEC3"
		},
		{
			"bufferView":27,
			"componentType":5126,
			"count":172,
			"type":"VEC2"
		},
		{
			"bufferView":28,
			"componentType":5121,
			"count":172,
			"type":"VEC4"
		},
		{
			"bufferView":29,
			"componentType":5126,
			"count":172,
			"type":"VEC4"
		},
		{
			"bufferView":30,
			"componentType":5123,
			"count":336,
			"type":"SCALAR"
		},
		{
			"bufferView":31,
			"componentType":5126,
			"count":60,
			"max":[
				2.5
			],
			"min":[
				0.041666666666666664
			],
			"type":"SCALAR"
		},
		{
			"bufferView":32,
			"componentType":5126,
			"count":60,
			"type":"VEC3"
		},
		{
			"bufferView":33,
			"componentType":5126,
			"count":2,
			"max":[
				2.5
			],
			"min":[
				0.041666666666666664
			],
			"type":"SCALAR"
		},
		{
			"bufferView":34,
			"componentType":5126,
			"count":2,
			"type":"VEC4"
		},
		{
			"bufferView":35,
			"componentType":5126,
			"count":2,
			"type":"VEC3"
		},
		{
			"bufferView":36,
			"componentType":5126,
			"count":2,
			"type":"VEC3"
		},
		{
			"bufferView":37,
			"componentType":5126,
			"count":60,
			"type":"VEC4"
		},
		{
			"bufferView":38,
			"componentType":5126,
			"count":2,
			"type":"VEC3"
		},
		{
			"bufferView":39,
			"componentType":5126,
			"count":2,
			"type":"VEC3"
		},
		{
			"bufferView":40,
			"componentType":5126,
			"count":2,
			"type":"VEC4"
		},
		{
			"bufferView":41,
			"componentType":5126,
			"count":2,
			"type":"VEC3"
		},
		{
			"bufferView":42,
			"componentType":5126,
			"count":2,
			"type":"VEC3"
		},
		{
			"bufferView":43,
			"componentType":5126,
			"count":2,
			"type":"VEC4"
		},
		{
			"bufferView":44,
			"componentType":5126,
			"count":2,
			"type":"VEC3"
		},
		{
			"bufferView":45,
			"componentType":5126,
			"count":2,
			"type":"VEC3"
		},
		{
			"bufferView":46,
			"componentType":5126,
			"count":2,
			"type":"VEC4"
		},
		{
			"bufferView":47,
			"componentType":5126,
			"count":2,
			"type":"VEC3"
		},
		{
			"bufferView":48,
			"componentType":5126,
			"count":2,
			"type":"VEC3"
		},
		{
			"bufferView":49,
			"componentType":5126,
			"count":2,
			"type":"VEC4"
		},
		{
			"bufferView":50,
			"componentType":5126,
			"count":2,
			"type":"VEC3"
		},
		{
			"bufferView":51,
			"componentType":5126,
			"count":2,
			"type":"VEC3"
		},
		{
			"bufferView":52,
			"componentType":5126,
			"count":2,
			"type":"VEC4"
		},
		{
			"bufferView":53,
			"componentType":5126,
			"count":2,
			"type":"VEC3"
		},
		{
			"bufferView":54,
			"componentType":5126,
			"count":2,
			"type":"VEC3"
		},
		{
			"bufferView":55,
			"componentType":5126,
			"count":2,
			"type":"VEC4"
		},
		{
			"bufferView":56,
			"componentType":5126,
			"count":2,
			"type":"VEC3"
		},
		{
			"bufferView":57,
			"componentType":5126,
			"count":2,
			"type":"VEC3"
		},
		{
			"bufferView":58,
			"componentType":5126,
			"count":60,
			"type":"VEC4"
		},
		{
			"bufferView":59,
			"componentType":5126,
			"count":2,
			"type":"VEC3"
		},
		{
			"bufferView":60,
			"componentType":5126,
			"count":2,
			"type":"VEC3"
		},
		{
			"bufferView":61,
			"componentType":5126,
			"count":2,
			"type":"VEC4"
		},
		{
			"bufferView":62,
			"componentType":5126,
			"count":2,
			"type":"VEC3"
		},
		{
			"bufferView":63,
			"componentType":5126,
			"count":2,
			"type":"VEC3"
		},
		{
			"bufferView":64,
			"componentType":5126,
			"count":2,
			"type":"VEC4"
		},
		{
			"bufferView":65,
			"componentType":5126,
			"count":2,
			"type":"VEC3"
		},
		{
			"bufferView":66,
			"componentType":5126,
			"count":2,
			"type":"VEC3"
		},
		{
			"bufferView":67,
			"componentType":5126,
			"count":2,
			"type":"VEC4"
		},
		{
			"bufferView":68,
			"componentType":5126,
			"count":2,
			"type":"VEC3"
		},
		{
			"bufferView":69,
			"componentType":5126,
			"count":2,
			"type":"VEC3"
		},
		{
			"bufferView":70,
			"componentType":5126,
			"count":2,
			"type":"VEC4"
		},
		{
			"bufferView":71,
			"componentType":5126,
			"count":2,
			"type":"VEC3"
		},
		{
			"bufferView":72,
			"componentType":5126,
			"count":2,
			"type":"VEC3"
		},
		{
			"bufferView":73,
			"componentType":5126,
			"count":2,
			"type":"VEC4"
		},
		{
			"bufferView":74,
			"componentType":5126,
			"count":2,
			"type":"VEC3"
		},
		{
			"bufferView":75,
			"componentType":5126,
			"count":2,
			"type":"VEC3"
		},
		{
			"bufferView":76,
			"componentType":5126,
			"count":2,
			"type":"VEC4"
		},
		{
			"bufferView":77,
			"componentType":5126,
			"count":2,
			"type":"VEC3"
		},
		{
			"bufferView":78,
			"componentType":5126,
			"count":2,
			"type":"VEC3"
		},
		{
			"bufferView":79,
			"componentType":5126,
			"count":2,
			"type":"VEC4"
		},
		{
			"bufferView":80,
			"componentType":5126,
			"count":2,
			"type":"VEC3"
		},
		{
			"bufferView":81,
			"componentType":5126,
			"count":2,
			"type":"VEC3"
		},
		{
			"bufferView":82,
			"componentType":5126,
			"count":2,
			"type":"VEC4"
		},
		{
			"bufferView":83,
			"componentType":5126,
			"count":2,
			"type":"VEC3"
		},
		{
			"bufferView":84,
			"componentType":5126,
			"count":2,
			"type":"VEC3"
		},
		{
			"bufferView":85,
			"componentType":5126,
			"count":2,
			"type":"VEC4"
		},
		{
			"bufferView":86,
			"componentType":5126,
			"count":2,
			"type":"VEC3"
		},
		{
			"bufferView":87,
			"componentType":5126,
			"count":2,
			"type":"VEC3"
		},
		{
			"bufferView":88,
			"componentType":5126,
			"count":2,
			"type":"VEC4"
		},
		{
			"bufferView":89,
			"componentType":5126,
			"count":2,
			"type":"VEC3"
		},
		{
			"bufferView":90,
			"componentType":5126,
			"count":2,
			"type":"VEC3"
		},
		{
			"bufferView":91,
			"componentType":5126,
			"count":2,
			"type":"VEC4"
		},
		{
			"bufferView":92,
			"componentType":5126,
			"count":2,
			"type":"VEC3"
		},
		{
			"bufferView":93,
			"componentType":5126,
			"count":2,
			"type":"VEC3"
		},
		{
			"bufferView":94,
			"componentType":5126,
			"count":2,
			"type":"VEC4"
		},
		{
			"bufferView":95,
			"componentType":5126,
			"count":2,
			"type":"VEC3"
		},
		{
			"bufferView":96,
			"componentType":5126,
			"count":2,
			"type":"VEC3"
		},
		{
			"bufferView":97,
			"componentType":5126,
			"count":2,
			"type":"VEC4"
		},
		{
			"bufferView":98,
			"componentType":5126,
			"count":2,
			"type":"VEC3"
		},
		{
			"bufferView":99,
			"componentType":5126,
			"count":2,
			"type":"VEC3"
		},
		{
			"bufferView":100,
			"componentType":5126,
			"count":60,
			"type":"VEC4"
		},
		{
			"bufferView":101,
			"componentType":5126,
			"count":2,
			"type":"VEC3"
		},
		{
			"bufferView":102,
			"componentType":5126,
			"count":60,
			"type":"VEC3"
		},
		{
			"bufferView":103,
			"componentType":5126,
			"count":2,
			"type":"VEC4"
		},
		{
			"bufferView":104,
			"componentType":5126,
			"count":2,
			"type":"VEC3"
		},
		{
			"bufferView":105,
			"componentType":5126,
			"count":2,
			"type":"VEC3"
		},
		{
			"bufferView":106,
			"componentType":5126,
			"count":60,
			"type":"VEC4"
		},
		{
			"bufferView":107,
			"componentType":5126,
			"count":60,
			"type":"VEC3"
		},
		{
			"bufferView":108,
			"componentType":5126,
			"count":60,
			"type":"VEC3"
		},
		{
			"bufferView":109,
			"componentType":5126,
			"count":2,
			"type":"VEC4"
		},
		{
			"bufferView":110,
			"componentType":5126,
			"count":2,
			"type":"VEC3"
		},
		{
			"bufferView":111,
			"componentType":5126,
			"count":2,
			"type":"VEC3"
		},
		{
			"bufferView":112,
			"componentType":5126,
			"count":60,
			"type":"VEC4"
		},
		{
			"bufferView":113,
			"componentType":5126,
			"count":60,
			"type":"VEC3"
		},
		{
			"bufferView":114,
			"componentType":5126,
			"count":2,
			"type":"VEC3"
		},
		{
			"bufferView":115,
			"componentType":5126,
			"count":2,
			"type":"VEC4"
		},
		{
			"bufferView":116,
			"componentType":5126,
			"count":2,
			"type":"VEC3"
		}
	],
	"bufferViews":[
		{
			"buffer":0,
			"byteLength":26568,
			"byteOffset":0,
			"target":34962
		},
		{
			"buffer":0,
			"byteLength":26568,
			"byteOffset":26568,
			"target":34962
		},
		{
			"buffer":0,
			"byteLength":17712,
			"byteOffset":53136,
			"target":34962
		},
		{
			"buffer":0,
			"byteLength":8856,
			"byteOffset":70848,
			"target":34962
		},
		{
			"buffer":0,
			"byteLength":35424,
			"byteOffset":79704,
			"target":34962
		},
		{
			"buffer":0,
			"byteLength":5640,
			"byteOffset":115128,
			"target":34963
		},
		{
			"buffer":0,
			"byteLength":1728,
			"byteOffset":120768
		},
		{
			"buffer":0,
			"byteLength":147192,
			"byteOffset":122496,
			"target":34962
		},
		{
			"buffer":0,
			"byteLength":147192,
			"byteOffset":269688,
			"target":34962
		},
		{
			"buffer":0,
			"byteLength":98128,
			"byteOffset":416880,
			"target":34962
		},
		{
			"buffer":0,
			"byteLength":49064,
			"byteOffset":515008,
			"target":34962
		},
		{
			"buffer":0,
			"byteLength":196256,
			"byteOffset":564072,
			"target":34962
		},
		{
			"buffer":0,
			"byteLength":24576,
			"byteOffset":760328,
			"target":34963
		},
		{
			"buffer":0,
			"byteLength":2196,
			"byteOffset":784904,
			"target":34962
		},
		{
			"buffer":0,
			"byteLength":2196,
			"byteOffset":787100,
			"target":34962
		},
		{
			"buffer":0,
			"byteLength":1464,
			"byteOffset":789296,
			"target":34962
		},
		{
			"buffer":0,
			"byteLength":732,
			"byteOffset":790760,
			"target":34962
		},
		{
			"buffer":0,
			"byteLength":2928,
			"byteOffset":791492,
			"target":34962
		},
		{
			"buffer":0,
			"byteLength":672,
			"byteOffset":794420,
			"target":34963
		},
		{
			"buffer":0,
			"byteLength":144960,
			"byteOffset":795092,
			"target":34962
		},
		{
			"buffer":0,
			"byteLength":144960,
			"byteOffset":940052,
			"target":34962
		},
		{
			"buffer":0,
			"byteLength":96640,
			"byteOffset":1085012,
			"target":34962
		},
		{
			"buffer":0,
			"byteLength":48320,
			"byteOffset":1181652,
			"target":34962
		},
		{
			"buffer":0,
			"byteLength":193280,
			"byteOffset":1229972,
			"target":34962
		},
		{
			"buffer":0,
			"byteLength":24192,
			"byteOffset":1423252,
			"target":34963
		},
		{
			"buffer":0,
			"byteLength":2064,
			"byteOffset":1447444,
			"target":34962
		},
		{
			"buffer":0,
			"byteLength":2064,
			"byteOffset":1449508,
			"target":34962
		},
		{
			"buffer":0,
			"byteLength":1376,
			"byteOffset":1451572,
			"target":34962
		},
		{
			"buffer":0,
			"byteLength":688,
			"byteOffset":1452948,
			"target":34962
		},
		{
			"buffer":0,
			"byteLength":2752,
			"byteOffset":1453636,
			"target":34962
		},
		{
			"buffer":0,
			"byteLength":672,
			"byteOffset":1456388,
			"target":34963
		},
		{
			"buffer":0,
			"byteLength":240,
			"byteOffset":1457060
		},
		{
			"buffer":0,
			"byteLength":720,
			"byteOffset":1457300
		},
		{
			"buffer":0,
			"byteLength":8,
			"byteOffset":1458020
		},
		{
			"buffer":0,
			"byteLength":32,
			"byteOffset":1458028
		},
		{
			"buffer":0,
			"byteLength":24,
			"byteOffset":1458060
		},
		{
			"buffer":0,
			"byteLength":24,
			"byteOffset":1458084
		},
		{
			"buffer":0,
			"byteLength":960,
			"byteOffset":1458108
		},
		{
			"buffer":0,
			"byteLength":24,
			"byteOffset":1459068
		},
		{
			"buffer":0,
			"byteLength":24,
			"byteOffset":1459092
		},
		{
			"buffer":0,
			"byteLength":32,
			"byteOffset":1459116
		},
		{
			"buffer":0,
			"byteLength":24,
			"byteOffset":1459148
		},
		{
			"buffer":0,
			"byteLength":24,
			"byteOffset":1459172
		},
		{
			"buffer":0,
			"byteLength":32,
			"byteOffset":1459196
		},
		{
			"buffer":0,
			"byteLength":24,
			"byteOffset":1459228
		},
		{
			"buffer":0,
			"byteLength":24,
			"byteOffset":1459252
		},
		{
			"buffer":0,
			"byteLength":32,
			"byteOffset":1459276
		},
		{
			"buffer":0,
			"byteLength":24,
			"byteOffset":1459308
		},
		{
			"buffer":0,
			"byteLength":24,
			"byteOffset":1459332
		},
		{
			"buffer":0,
			"byteLength":32,
			"byteOffset":1459356
		},
		{
			"buffer":0,
			"byteLength":24,
			"byteOffset":1459388
		},
		{
			"buffer":0,
			"byteLength":24,
			"byteOffset":1459412
		},
		{
			"buffer":0,
			"byteLength":32,
			"byteOffset":1459436
		},
		{
			"buffer":0,
			"byteLength":24,
			"byteOffset":1459468
		},
		{
			"buffer":0,
			"byteLength":24,
			"byteOffset":1459492
		},
		{
			"buffer":0,
			"byteLength":32,
			"byteOffset":1459516
		},
		{
			"buffer":0,
			"byteLength":24,
			"byteOffset":1459548
		},
		{
			"buffer":0,
			"byteLength":24,
			"byteOffset":1459572
		},
		{
			"buffer":0,
			"byteLength":960,
			"byteOffset":1459596
		},
		{
			"buffer":0,
			"byteLength":24,
			"byteOffset":1460556
		},
		{
			"buffer":0,
			"byteLength":24,
			"byteOffset":1460580
		},
		{
			"buffer":0,
			"byteLength":32,
			"byteOffset":1460604
		},
		{
			"buffer":0,
			"byteLength":24,
			"byteOffset":1460636
		},
		{
			"buffer":0,
			"byteLength":24,
			"byteOffset":1460660
		},
		{
			"buffer":0,
			"byteLength":32,
			"byteOffset":1460684
		},
		{
			"buffer":0,
			"byteLength":24,
			"byteOffset":1460716
		},
		{
			"buffer":0,
			"byteLength":24,
			"byteOffset":1460740
		},
		{
			"buffer":0,
			"byteLength":32,
			"byteOffset":1460764
		},
		{
			"buffer":0,
			"byteLength":24,
			"byteOffset":1460796
		},
		{
			"buffer":0,
			"byteLength":24,
			"byteOffset":1460820
		},
		{
			"buffer":0,
			"byteLength":32,
			"byteOffset":1460844
		},
		{
			"buffer":0,
			"byteLength":24,
			"byteOffset":1460876
		},
		{
			"buffer":0,
			"byteLength":24,
			"byteOffset":1460900
		},
		{
			"buffer":0,
			"byteLength":32,
			"byteOffset":1460924
		},
		{
			"buffer":0,
			"byteLength":24,
			"byteOffset":1460956
		},
		{
			"buffer":0,
			"byteLength":24,
			"byteOffset":1460980
		},
		{
			"buffer":0,
			"byteLength":32,
			"byteOffset":1461004
		},
		{
			"buffer":0,
			"byteLength":24,
			"byteOffset":1461036
		},
		{
			"buffer":0,
			"byteLength":24,
			"byteOffset":1461060
		},
		{
			"buffer":0,
			"byteLength":32,
			"byteOffset":1461084
		},
		{
			"buffer":0,
			"byteLength":24,
			"byteOffset":1461116
		},
		{
			"buffer":0,
			"byteLength":24,
			"byteOffset":1461140
		},
		{
			"buffer":0,
			"byteLength":32,
			"byteOffset":1461164
		},
		{
			"buffer":0,
			"byteLength":24,
			"byteOffset":1461196
		},
		{
			"buffer":0,
			"byteLength":24,
			"byteOffset":1461220
		},
		{
			"buffer":0,
			"byteLength":32,
			"byteOffset":1461244
		},
		{
			"buffer":0,
			"byteLength":24,
			"byteOffset":1461276
		},
		{
			"buffer":0,
			"byteLength":24,
			"byteOffset":1461300
		},
		{
			"buffer":0,
			"byteLength":32,
			"byteOffset":1461324
		},
		{
			"buffer":0,
			"byteLength":24,
			"byteOffset":1461356
		},
		{
			"buffer":0,
			"byteLength":24,
			"byteOffset":1461380
		},
		{
			"buffer":0,
			"byteLength":32,
			"byteOffset":1461404
		},
		{
			"buffer":0,
			"byteLength":24,
			"byteOffset":1461436
		},
		{
			"buffer":0,
			"byteLength":24,
			"byteOffset":1461460
		},
		{
			"buffer":0,
			"byteLength":32,
			"byteOffset":1461484
		},
		{
			"buffer":0,
			"byteLength":24,
			"byteOffset":1461516
		},
		{
			"buffer":0,
			"byteLength":24,
			"byteOffset":1461540
		},
		{
			"buffer":0,
			"byteLength":32,
			"byteOffset":1461564
		},
		{
			"buffer":0,
			"byteLength":24,
			"byteOffset":1461596
		},
		{
			"buffer":0,
			"byteLength":24,
			"byteOffset":1461620
		},
		{
			"buffer":0,
			"byteLength":960,
			"byteOffset":1461644
		},
		{
			"buffer":0,
			"byteLength":24,
			"byteOffset":1462604
		},
		{
			"buffer":0,
			"byteLength":720,
			"byteOffset":1462628
		},
		{
			"buffer":0,
			"byteLength":32,
			"byteOffset":1463348
		},
		{
			"buffer":0,
			"byteLength":24,
			"byteOffset":1463380
		},
		{
			"buffer":0,
			"byteLength":24,
			"byteOffset":1463404
		},
		{
			"buffer":0,
			"byteLength":960,
			"byteOffset":1463428
		},
		{
			"buffer":0,
			"byteLength":720,
			"byteOffset":1464388
		},
		{
			"buffer":0,
			"byteLength":720,
			"byteOffset":1465108
		},
		{
			"buffer":0,
			"byteLength":32,
			"byteOffset":1465828
		},
		{
			"buffer":0,
			"byteLength":24,
			"byteOffset":1465860
		},
		{
			"buffer":0,
			"byteLength":24,
			"byteOffset":1465884
		},
		{
			"buffer":0,
			"byteLength":960,
			"byteOffset":1465908
		},
		{
			"buffer":0,
			"byteLength":720,
			"byteOffset":1466868
		},
		{
			"buffer":0,
			"byteLength":24,
			"byteOffset":1467588
		},
		{
			"buffer":0,
			"byteLength":32,
			"byteOffset":1467612
		},
		{
			"buffer":0,
			"byteLength":24,
			"byteOffset":1467644
		}
	],
	"samplers":[
		{
			"magFilter":9729,
			"minFilter":9987
		}
	],
	"buffers":[
		{
			"byteLength":1467668,
			"uri":"PlayerDown.bin"
		}
	]
}
