{
	"asset":{
		"generator":"Khronos glTF Blender I/O v4.3.47",
		"version":"2.0"
	},
	"scene":0,
	"scenes":[
		{
			"name":"Scene",
			"nodes":[
				12
			]
		}
	],
	"nodes":[
		{
			"name":"Neck",
			"rotation":[
				-7.105427357601002e-15,
				0,
				0,
				1
			],
			"translation":[
				0,
				0.5146140456199646,
				-1.7763568394002505e-15
			]
		},
		{
			"name":"Arm.L",
			"rotation":[
				-1.4850137786126538e-09,
				1.864903538262297e-07,
				0.18076227605342865,
				0.9835268259048462
			],
			"scale":[
				1,
				1.0000001192092896,
				1
			],
			"translation":[
				-3.725297403889272e-09,
				0.8612068295478821,
				-1.2434497875801753e-14
			]
		},
		{
			"children":[
				1
			],
			"name":"Shoulder.L",
			"rotation":[
				-7.561938275557623e-08,
				-5.008059034139478e-08,
				-0.8337376117706299,
				0.5521608591079712
			],
			"scale":[
				1.0000001192092896,
				1,
				1
			],
			"translation":[
				0,
				0.5146140456199646,
				-1.7763568394002505e-15
			]
		},
		{
			"name":"Arm.R",
			"rotation":[
				-1.4850137786126538e-09,
				-1.864903538262297e-07,
				-0.18076227605342865,
				0.9835268259048462
			],
			"scale":[
				1,
				1.0000001192092896,
				1
			],
			"translation":[
				3.725297403889272e-09,
				0.8612068295478821,
				-1.2434497875801753e-14
			]
		},
		{
			"children":[
				3
			],
			"name":"Shoulder.R",
			"rotation":[
				-7.561938275557623e-08,
				5.008059034139478e-08,
				0.8337376117706299,
				0.5521608591079712
			],
			"scale":[
				1.0000001192092896,
				1,
				1
			],
			"translation":[
				0,
				0.5146140456199646,
				-1.7763568394002505e-15
			]
		},
		{
			"children":[
				0,
				2,
				4
			],
			"name":"UpperBody",
			"rotation":[
				-6.717940692624325e-08,
				0,
				0,
				1
			],
			"translation":[
				0,
				0.4725271463394165,
				0
			]
		},
		{
			"children":[
				5
			],
			"name":"LowerBody",
			"translation":[
				0,
				-0.6132078766822815,
				0
			]
		},
		{
			"name":"Foot.L",
			"rotation":[
				-0.5280036926269531,
				1.192103695757396e-07,
				-1.3769651729944599e-07,
				0.849242091178894
			],
			"scale":[
				1,
				0.9999999403953552,
				0.9999999403953552
			],
			"translation":[
				-1.7763568394002505e-15,
				0.6323840022087097,
				-5.960464477539063e-08
			]
		},
		{
			"children":[
				7
			],
			"name":"Thigh.L",
			"rotation":[
				-0.6005048751831055,
				-0.373354971408844,
				-0.6005048155784607,
				0.373354971408844
			],
			"scale":[
				0.9999999403953552,
				0.9999998807907104,
				0.9999999403953552
			],
			"translation":[
				0,
				-0.6132078766822815,
				0
			]
		},
		{
			"name":"Foot.R",
			"rotation":[
				-0.5280036926269531,
				-1.192103695757396e-07,
				1.3769651729944599e-07,
				0.849242091178894
			],
			"scale":[
				1,
				0.9999999403953552,
				0.9999999403953552
			],
			"translation":[
				1.7763568394002505e-15,
				0.6323840022087097,
				-5.960464477539063e-08
			]
		},
		{
			"children":[
				9
			],
			"name":"Thigh.R",
			"rotation":[
				-0.6005048751831055,
				0.373354971408844,
				0.6005048155784607,
				0.373354971408844
			],
			"scale":[
				0.9999999403953552,
				0.9999998807907104,
				0.9999999403953552
			],
			"translation":[
				0,
				-0.6132078766822815,
				0
			]
		},
		{
			"mesh":0,
			"name":"downMouth",
			"skin":0
		},
		{
			"children":[
				11,
				6,
				8,
				10
			],
			"name":"Player"
		}
	],
	"animations":[
		{
			"channels":[
				{
					"sampler":0,
					"target":{
						"node":6,
						"path":"translation"
					}
				},
				{
					"sampler":1,
					"target":{
						"node":6,
						"path":"rotation"
					}
				},
				{
					"sampler":2,
					"target":{
						"node":6,
						"path":"scale"
					}
				},
				{
					"sampler":3,
					"target":{
						"node":5,
						"path":"translation"
					}
				},
				{
					"sampler":4,
					"target":{
						"node":5,
						"path":"rotation"
					}
				},
				{
					"sampler":5,
					"target":{
						"node":5,
						"path":"scale"
					}
				},
				{
					"sampler":6,
					"target":{
						"node":0,
						"path":"translation"
					}
				},
				{
					"sampler":7,
					"target":{
						"node":0,
						"path":"rotation"
					}
				},
				{
					"sampler":8,
					"target":{
						"node":0,
						"path":"scale"
					}
				},
				{
					"sampler":9,
					"target":{
						"node":2,
						"path":"translation"
					}
				},
				{
					"sampler":10,
					"target":{
						"node":2,
						"path":"rotation"
					}
				},
				{
					"sampler":11,
					"target":{
						"node":2,
						"path":"scale"
					}
				},
				{
					"sampler":12,
					"target":{
						"node":1,
						"path":"translation"
					}
				},
				{
					"sampler":13,
					"target":{
						"node":1,
						"path":"rotation"
					}
				},
				{
					"sampler":14,
					"target":{
						"node":1,
						"path":"scale"
					}
				},
				{
					"sampler":15,
					"target":{
						"node":4,
						"path":"translation"
					}
				},
				{
					"sampler":16,
					"target":{
						"node":4,
						"path":"rotation"
					}
				},
				{
					"sampler":17,
					"target":{
						"node":4,
						"path":"scale"
					}
				},
				{
					"sampler":18,
					"target":{
						"node":3,
						"path":"translation"
					}
				},
				{
					"sampler":19,
					"target":{
						"node":3,
						"path":"rotation"
					}
				},
				{
					"sampler":20,
					"target":{
						"node":3,
						"path":"scale"
					}
				},
				{
					"sampler":21,
					"target":{
						"node":8,
						"path":"translation"
					}
				},
				{
					"sampler":22,
					"target":{
						"node":8,
						"path":"rotation"
					}
				},
				{
					"sampler":23,
					"target":{
						"node":8,
						"path":"scale"
					}
				},
				{
					"sampler":24,
					"target":{
						"node":7,
						"path":"translation"
					}
				},
				{
					"sampler":25,
					"target":{
						"node":7,
						"path":"rotation"
					}
				},
				{
					"sampler":26,
					"target":{
						"node":7,
						"path":"scale"
					}
				},
				{
					"sampler":27,
					"target":{
						"node":10,
						"path":"translation"
					}
				},
				{
					"sampler":28,
					"target":{
						"node":10,
						"path":"rotation"
					}
				},
				{
					"sampler":29,
					"target":{
						"node":10,
						"path":"scale"
					}
				},
				{
					"sampler":30,
					"target":{
						"node":9,
						"path":"translation"
					}
				},
				{
					"sampler":31,
					"target":{
						"node":9,
						"path":"rotation"
					}
				},
				{
					"sampler":32,
					"target":{
						"node":9,
						"path":"scale"
					}
				}
			],
			"name":"PlayerAction",
			"samplers":[
				{
					"input":31,
					"interpolation":"LINEAR",
					"output":32
				},
				{
					"input":33,
					"interpolation":"STEP",
					"output":34
				},
				{
					"input":33,
					"interpolation":"STEP",
					"output":35
				},
				{
					"input":33,
					"interpolation":"STEP",
					"output":36
				},
				{
					"input":31,
					"interpolation":"LINEAR",
					"output":37
				},
				{
					"input":33,
					"interpolation":"STEP",
					"output":38
				},
				{
					"input":33,
					"interpolation":"STEP",
					"output":39
				},
				{
					"input":33,
					"interpolation":"STEP",
					"output":40
				},
				{
					"input":33,
					"interpolation":"STEP",
					"output":41
				},
				{
					"input":33,
					"interpolation":"STEP",
					"output":42
				},
				{
					"input":33,
					"interpolation":"STEP",
					"output":43
				},
				{
					"input":33,
					"interpolation":"STEP",
					"output":44
				},
				{
					"input":33,
					"interpolation":"STEP",
					"output":45
				},
				{
					"input":31,
					"interpolation":"LINEAR",
					"output":46
				},
				{
					"input":33,
					"interpolation":"STEP",
					"output":47
				},
				{
					"input":33,
					"interpolation":"STEP",
					"output":48
				},
				{
					"input":33,
					"interpolation":"STEP",
					"output":49
				},
				{
					"input":33,
					"interpolation":"STEP",
					"output":50
				},
				{
					"input":33,
					"interpolation":"STEP",
					"output":51
				},
				{
					"input":31,
					"interpolation":"LINEAR",
					"output":52
				},
				{
					"input":33,
					"interpolation":"STEP",
					"output":53
				},
				{
					"input":31,
					"interpolation":"LINEAR",
					"output":54
				},
				{
					"input":33,
					"interpolation":"STEP",
					"output":55
				},
				{
					"input":33,
					"interpolation":"STEP",
					"output":56
				},
				{
					"input":33,
					"interpolation":"STEP",
					"output":57
				},
				{
					"input":31,
					"interpolation":"LINEAR",
					"output":58
				},
				{
					"input":33,
					"interpolation":"STEP",
					"output":59
				},
				{
					"input":31,
					"interpolation":"LINEAR",
					"output":60
				},
				{
					"input":33,
					"interpolation":"STEP",
					"output":61
				},
				{
					"input":33,
					"interpolation":"STEP",
					"output":62
				},
				{
					"input":33,
					"interpolation":"STEP",
					"output":63
				},
				{
					"input":31,
					"interpolation":"LINEAR",
					"output":64
				},
				{
					"input":33,
					"interpolation":"STEP",
					"output":65
				}
			]
		}
	],
	"materials":[
		{
			"doubleSided":true,
			"name":"\u30de\u30c6\u30ea\u30a2\u30eb",
			"pbrMetallicRoughness":{
				"baseColorTexture":{
					"index":0
				},
				"metallicFactor":0,
				"roughnessFactor":0.5
			}
		},
		{
			"doubleSided":true,
			"name":"\u30de\u30c6\u30ea\u30a2\u30eb.004",
			"pbrMetallicRoughness":{
				"baseColorTexture":{
					"index":1
				},
				"metallicFactor":0,
				"roughnessFactor":0.5
			}
		},
		{
			"doubleSided":true,
			"name":"\u30de\u30c6\u30ea\u30a2\u30eb.003",
			"pbrMetallicRoughness":{
				"baseColorTexture":{
					"index":2
				},
				"metallicFactor":0,
				"roughnessFactor":0.5
			}
		},
		{
			"doubleSided":true,
			"name":"\u30de\u30c6\u30ea\u30a2\u30eb.001",
			"pbrMetallicRoughness":{
				"baseColorTexture":{
					"index":3
				},
				"metallicFactor":0,
				"roughnessFactor":0.5
			}
		},
		{
			"doubleSided":true,
			"name":"\u30de\u30c6\u30ea\u30a2\u30eb.002",
			"pbrMetallicRoughness":{
				"baseColorTexture":{
					"index":4
				},
				"metallicFactor":0,
				"roughnessFactor":0.5
			}
		}
	],
	"meshes":[
		{
			"name":"\u5e73\u9762",
			"primitives":[
				{
					"attributes":{
						"POSITION":0,
						"NORMAL":1,
						"TEXCOORD_0":2,
						"JOINTS_0":3,
						"WEIGHTS_0":4
					},
					"indices":5,
					"material":0
				},
				{
					"attributes":{
						"POSITION":6,
						"NORMAL":7,
						"TEXCOORD_0":8,
						"JOINTS_0":9,
						"WEIGHTS_0":10
					},
					"indices":11,
					"material":1
				},
				{
					"attributes":{
						"POSITION":12,
						"NORMAL":13,
						"TEXCOORD_0":14,
						"JOINTS_0":15,
						"WEIGHTS_0":16
					},
					"indices":17,
					"material":2
				},
				{
					"attributes":{
						"POSITION":18,
						"NORMAL":19,
						"TEXCOORD_0":20,
						"JOINTS_0":21,
						"WEIGHTS_0":22
					},
					"indices":23,
					"material":3
				},
				{
					"attributes":{
						"POSITION":24,
						"NORMAL":25,
						"TEXCOORD_0":26,
						"JOINTS_0":27,
						"WEIGHTS_0":28
					},
					"indices":29,
					"material":4
				}
			]
		}
	],
	"textures":[
		{
			"sampler":0,
			"source":0
		},
		{
			"sampler":0,
			"source":1
		},
		{
			"sampler":0,
			"source":1
		},
		{
			"sampler":0,
			"source":0
		},
		{
			"sampler":0,
			"source":2
		}
	],
	"images":[
		{
			"mimeType":"image/png",
			"name":"mouth",
			"uri":"mouth.png"
		},
		{
			"mimeType":"image/png",
			"name":"Teeth",
			"uri":"teeth.png"
		},
		{
			"mimeType":"image/png",
			"name":"tex",
			"uri":"body.png"
		}
	],
	"skins":[
		{
			"inverseBindMatrices":30,
			"joints":[
				6,
				5,
				0,
				2,
				1,
				4,
				3,
				8,
				7,
				10,
				9
			],
			"name":"Player"
		}
	],
	"accessors":[
		{
			"bufferView":0,
			"componentType":5126,
			"count":12266,
			"max":[
				0.9418588876724243,
				-0.045393817126750946,
				1.2716338634490967
			],
			"min":[
				-0.9381362199783325,
				-0.4187658429145813,
				0.9823680520057678
			],
			"type":"VEC3"
		},
		{
			"bufferView":1,
			"componentType":5126,
			"count":12266,
			"type":"VEC3"
		},
		{
			"bufferView":2,
			"componentType":5126,
			"count":12266,
			"type":"VEC2"
		},
		{
			"bufferView":3,
			"componentType":5121,
			"count":12266,
			"type":"VEC4"
		},
		{
			"bufferView":4,
			"componentType":5126,
			"count":12266,
			"type":"VEC4"
		},
		{
			"bufferView":5,
			"componentType":5123,
			"count":12288,
			"type":"SCALAR"
		},
		{
			"bufferView":6,
			"componentType":5126,
			"count":183,
			"max":[
				0.7290143370628357,
				0.007193356286734343,
				1.1214885711669922
			],
			"min":[
				-0.7290143370628357,
				-0.29623943567276,
				0.8613030910491943
			],
			"type":"VEC3"
		},
		{
			"bufferView":7,
			"componentType":5126,
			"count":183,
			"type":"VEC3"
		},
		{
			"bufferView":8,
			"componentType":5126,
			"count":183,
			"type":"VEC2"
		},
		{
			"bufferView":9,
			"componentType":5121,
			"count":183,
			"type":"VEC4"
		},
		{
			"bufferView":10,
			"componentType":5126,
			"count":183,
			"type":"VEC4"
		},
		{
			"bufferView":11,
			"componentType":5123,
			"count":336,
			"type":"SCALAR"
		},
		{
			"bufferView":12,
			"componentType":5126,
			"count":172,
			"max":[
				0.7257571816444397,
				0.5273213386535645,
				1.1214884519577026
			],
			"min":[
				-0.7257571816444397,
				0.24468539655208588,
				0.8541865944862366
			],
			"type":"VEC3"
		},
		{
			"bufferView":13,
			"componentType":5126,
			"count":172,
			"type":"VEC3"
		},
		{
			"bufferView":14,
			"componentType":5126,
			"count":172,
			"type":"VEC2"
		},
		{
			"bufferView":15,
			"componentType":5121,
			"count":172,
			"type":"VEC4"
		},
		{
			"bufferView":16,
			"componentType":5126,
			"count":172,
			"type":"VEC4"
		},
		{
			"bufferView":17,
			"componentType":5123,
			"count":336,
			"type":"SCALAR"
		},
		{
			"bufferView":18,
			"componentType":5126,
			"count":12080,
			"max":[
				0.9929713606834412,
				0.8289600610733032,
				1.3345853090286255
			],
			"min":[
				-0.9936951994895935,
				0.33266782760620117,
				0.9857506155967712
			],
			"type":"VEC3"
		},
		{
			"bufferView":19,
			"componentType":5126,
			"count":12080,
			"type":"VEC3"
		},
		{
			"bufferView":20,
			"componentType":5126,
			"count":12080,
			"type":"VEC2"
		},
		{
			"bufferView":21,
			"componentType":5121,
			"count":12080,
			"type":"VEC4"
		},
		{
			"bufferView":22,
			"componentType":5126,
			"count":12080,
			"type":"VEC4"
		},
		{
			"bufferView":23,
			"componentType":5123,
			"count":12096,
			"type":"SCALAR"
		},
		{
			"bufferView":24,
			"componentType":5126,
			"count":2206,
			"max":[
				2.032651901245117,
				1.0000001192092896,
				1.0000001192092896
			],
			"min":[
				-2.052729606628418,
				-1.5409338474273682,
				-1.000000238418579
			],
			"type":"VEC3"
		},
		{
			"bufferView":25,
			"componentType":5126,
			"count":2206,
			"type":"VEC3"
		},
		{
			"bufferView":26,
			"componentType":5126,
			"count":2206,
			"type":"VEC2"
		},
		{
			"bufferView":27,
			"componentType":5121,
			"count":2206,
			"type":"VEC4"
		},
		{
			"bufferView":28,
			"componentType":5126,
			"count":2206,
			"type":"VEC4"
		},
		{
			"bufferView":29,
			"componentType":5123,
			"count":2820,
			"type":"SCALAR"
		},
		{
			"bufferView":30,
			"componentType":5126,
			"count":11,
			"type":"MAT4"
		},
		{
			"bufferView":31,
			"componentType":5126,
			"count":60,
			"max":[
				2.5
			],
			"min":[
				0.041666666666666664
			],
			"type":"SCALAR"
		},
		{
			"bufferView":32,
			"componentType":5126,
			"count":60,
			"type":"VEC3"
		},
		{
			"bufferView":33,
			"componentType":5126,
			"count":2,
			"max":[
				2.5
			],
			"min":[
				0.041666666666666664
			],
			"type":"SCALAR"
		},
		{
			"bufferView":34,
			"componentType":5126,
			"count":2,
			"type":"VEC4"
		},
		{
			"bufferView":35,
			"componentType":5126,
			"count":2,
			"type":"VEC3"
		},
		{
			"bufferView":36,
			"componentType":5126,
			"count":2,
			"type":"VEC3"
		},
		{
			"bufferView":37,
			"componentType":5126,
			"count":60,
			"type":"VEC4"
		},
		{
			"bufferView":38,
			"componentType":5126,
			"count":2,
			"type":"VEC3"
		},
		{
			"bufferView":39,
			"componentType":5126,
			"count":2,
			"type":"VEC3"
		},
		{
			"bufferView":40,
			"componentType":5126,
			"count":2,
			"type":"VEC4"
		},
		{
			"bufferView":41,
			"componentType":5126,
			"count":2,
			"type":"VEC3"
		},
		{
			"bufferView":42,
			"componentType":5126,
			"count":2,
			"type":"VEC3"
		},
		{
			"bufferView":43,
			"componentType":5126,
			"count":2,
			"type":"VEC4"
		},
		{
			"bufferView":44,
			"componentType":5126,
			"count":2,
			"type":"VEC3"
		},
		{
			"bufferView":45,
			"componentType":5126,
			"count":2,
			"type":"VEC3"
		},
		{
			"bufferView":46,
			"componentType":5126,
			"count":60,
			"type":"VEC4"
		},
		{
			"bufferView":47,
			"componentType":5126,
			"count":2,
			"type":"VEC3"
		},
		{
			"bufferView":48,
			"componentType":5126,
			"count":2,
			"type":"VEC3"
		},
		{
			"bufferView":49,
			"componentType":5126,
			"count":2,
			"type":"VEC4"
		},
		{
			"bufferView":50,
			"componentType":5126,
			"count":2,
			"type":"VEC3"
		},
		{
			"bufferView":51,
			"componentType":5126,
			"count":2,
			"type":"VEC3"
		},
		{
			"bufferView":52,
			"componentType":5126,
			"count":60,
			"type":"VEC4"
		},
		{
			"bufferView":53,
			"componentType":5126,
			"count":2,
			"type":"VEC3"
		},
		{
			"bufferView":54,
			"componentType":5126,
			"count":60,
			"type":"VEC3"
		},
		{
			"bufferView":55,
			"componentType":5126,
			"count":2,
			"type":"VEC4"
		},
		{
			"bufferView":56,
			"componentType":5126,
			"count":2,
			"type":"VEC3"
		},
		{
			"bufferView":57,
			"componentType":5126,
			"count":2,
			"type":"VEC3"
		},
		{
			"bufferView":58,
			"componentType":5126,
			"count":60,
			"type":"VEC4"
		},
		{
			"bufferView":59,
			"componentType":5126,
			"count":2,
			"type":"VEC3"
		},
		{
			"bufferView":60,
			"componentType":5126,
			"count":60,
			"type":"VEC3"
		},
		{
			"bufferView":61,
			"componentType":5126,
			"count":2,
			"type":"VEC4"
		},
		{
			"bufferView":62,
			"componentType":5126,
			"count":2,
			"type":"VEC3"
		},
		{
			"bufferView":63,
			"componentType":5126,
			"count":2,
			"type":"VEC3"
		},
		{
			"bufferView":64,
			"componentType":5126,
			"count":60,
			"type":"VEC4"
		},
		{
			"bufferView":65,
			"componentType":5126,
			"count":2,
			"type":"VEC3"
		}
	],
	"bufferViews":[
		{
			"buffer":0,
			"byteLength":147192,
			"byteOffset":0,
			"target":34962
		},
		{
			"buffer":0,
			"byteLength":147192,
			"byteOffset":147192,
			"target":34962
		},
		{
			"buffer":0,
			"byteLength":98128,
			"byteOffset":294384,
			"target":34962
		},
		{
			"buffer":0,
			"byteLength":49064,
			"byteOffset":392512,
			"target":34962
		},
		{
			"buffer":0,
			"byteLength":196256,
			"byteOffset":441576,
			"target":34962
		},
		{
			"buffer":0,
			"byteLength":24576,
			"byteOffset":637832,
			"target":34963
		},
		{
			"buffer":0,
			"byteLength":2196,
			"byteOffset":662408,
			"target":34962
		},
		{
			"buffer":0,
			"byteLength":2196,
			"byteOffset":664604,
			"target":34962
		},
		{
			"buffer":0,
			"byteLength":1464,
			"byteOffset":666800,
			"target":34962
		},
		{
			"buffer":0,
			"byteLength":732,
			"byteOffset":668264,
			"target":34962
		},
		{
			"buffer":0,
			"byteLength":2928,
			"byteOffset":668996,
			"target":34962
		},
		{
			"buffer":0,
			"byteLength":672,
			"byteOffset":671924,
			"target":34963
		},
		{
			"buffer":0,
			"byteLength":2064,
			"byteOffset":672596,
			"target":34962
		},
		{
			"buffer":0,
			"byteLength":2064,
			"byteOffset":674660,
			"target":34962
		},
		{
			"buffer":0,
			"byteLength":1376,
			"byteOffset":676724,
			"target":34962
		},
		{
			"buffer":0,
			"byteLength":688,
			"byteOffset":678100,
			"target":34962
		},
		{
			"buffer":0,
			"byteLength":2752,
			"byteOffset":678788,
			"target":34962
		},
		{
			"buffer":0,
			"byteLength":672,
			"byteOffset":681540,
			"target":34963
		},
		{
			"buffer":0,
			"byteLength":144960,
			"byteOffset":682212,
			"target":34962
		},
		{
			"buffer":0,
			"byteLength":144960,
			"byteOffset":827172,
			"target":34962
		},
		{
			"buffer":0,
			"byteLength":96640,
			"byteOffset":972132,
			"target":34962
		},
		{
			"buffer":0,
			"byteLength":48320,
			"byteOffset":1068772,
			"target":34962
		},
		{
			"buffer":0,
			"byteLength":193280,
			"byteOffset":1117092,
			"target":34962
		},
		{
			"buffer":0,
			"byteLength":24192,
			"byteOffset":1310372,
			"target":34963
		},
		{
			"buffer":0,
			"byteLength":26472,
			"byteOffset":1334564,
			"target":34962
		},
		{
			"buffer":0,
			"byteLength":26472,
			"byteOffset":1361036,
			"target":34962
		},
		{
			"buffer":0,
			"byteLength":17648,
			"byteOffset":1387508,
			"target":34962
		},
		{
			"buffer":0,
			"byteLength":8824,
			"byteOffset":1405156,
			"target":34962
		},
		{
			"buffer":0,
			"byteLength":35296,
			"byteOffset":1413980,
			"target":34962
		},
		{
			"buffer":0,
			"byteLength":5640,
			"byteOffset":1449276,
			"target":34963
		},
		{
			"buffer":0,
			"byteLength":704,
			"byteOffset":1454916
		},
		{
			"buffer":0,
			"byteLength":240,
			"byteOffset":1455620
		},
		{
			"buffer":0,
			"byteLength":720,
			"byteOffset":1455860
		},
		{
			"buffer":0,
			"byteLength":8,
			"byteOffset":1456580
		},
		{
			"buffer":0,
			"byteLength":32,
			"byteOffset":1456588
		},
		{
			"buffer":0,
			"byteLength":24,
			"byteOffset":1456620
		},
		{
			"buffer":0,
			"byteLength":24,
			"byteOffset":1456644
		},
		{
			"buffer":0,
			"byteLength":960,
			"byteOffset":1456668
		},
		{
			"buffer":0,
			"byteLength":24,
			"byteOffset":1457628
		},
		{
			"buffer":0,
			"byteLength":24,
			"byteOffset":1457652
		},
		{
			"buffer":0,
			"byteLength":32,
			"byteOffset":1457676
		},
		{
			"buffer":0,
			"byteLength":24,
			"byteOffset":1457708
		},
		{
			"buffer":0,
			"byteLength":24,
			"byteOffset":1457732
		},
		{
			"buffer":0,
			"byteLength":32,
			"byteOffset":1457756
		},
		{
			"buffer":0,
			"byteLength":24,
			"byteOffset":1457788
		},
		{
			"buffer":0,
			"byteLength":24,
			"byteOffset":1457812
		},
		{
			"buffer":0,
			"byteLength":960,
			"byteOffset":1457836
		},
		{
			"buffer":0,
			"byteLength":24,
			"byteOffset":1458796
		},
		{
			"buffer":0,
			"byteLength":24,
			"byteOffset":1458820
		},
		{
			"buffer":0,
			"byteLength":32,
			"byteOffset":1458844
		},
		{
			"buffer":0,
			"byteLength":24,
			"byteOffset":1458876
		},
		{
			"buffer":0,
			"byteLength":24,
			"byteOffset":1458900
		},
		{
			"buffer":0,
			"byteLength":960,
			"byteOffset":1458924
		},
		{
			"buffer":0,
			"byteLength":24,
			"byteOffset":1459884
		},
		{
			"buffer":0,
			"byteLength":720,
			"byteOffset":1459908
		},
		{
			"buffer":0,
			"byteLength":32,
			"byteOffset":1460628
		},
		{
			"buffer":0,
			"byteLength":24,
			"byteOffset":1460660
		},
		{
			"buffer":0,
			"byteLength":24,
			"byteOffset":1460684
		},
		{
			"buffer":0,
			"byteLength":960,
			"byteOffset":1460708
		},
		{
			"buffer":0,
			"byteLength":24,
			"byteOffset":1461668
		},
		{
			"buffer":0,
			"byteLength":720,
			"byteOffset":1461692
		},
		{
			"buffer":0,
			"byteLength":32,
			"byteOffset":1462412
		},
		{
			"buffer":0,
			"byteLength":24,
			"byteOffset":1462444
		},
		{
			"buffer":0,
			"byteLength":24,
			"byteOffset":1462468
		},
		{
			"buffer":0,
			"byteLength":960,
			"byteOffset":1462492
		},
		{
			"buffer":0,
			"byteLength":24,
			"byteOffset":1463452
		}
	],
	"samplers":[
		{
			"magFilter":9729,
			"minFilter":9987
		}
	],
	"buffers":[
		{
			"byteLength":1463476,
			"uri":"PlayerAvoidance.bin"
		}
	]
}
