{
	"asset":{
		"generator":"Khronos glTF Blender I/O v3.5.30",
		"version":"2.0"
	},
	"scene":0,
	"scenes":[
		{
			"name":"Scene",
			"nodes":[
				12,
				21,
				22,
				23,
				24,
				25,
				26,
				27,
				28,
				29,
				42
			]
		}
	],
	"nodes":[
		{
			"name":"Bone"
		},
		{
			"name":"Bone.002.L",
			"rotation":[
				0.04980804771184921,
				3.095655287665977e-08,
				9.589914640173447e-09,
				0.9987587928771973
			],
			"translation":[
				8.817712782160925e-09,
				0.7161574959754944,
				-8.799904094303201e-08
			]
		},
		{
			"children":[
				1
			],
			"name":"Bone.001.L",
			"rotation":[
				-0.5550042390823364,
				-0.43814417719841003,
				-0.5550041794776917,
				0.43814414739608765
			],
			"scale":[
				0.9999999403953552,
				0.9999999403953552,
				1
			]
		},
		{
			"name":"Bone.005.L",
			"rotation":[
				-0.40232446789741516,
				1.040052168832517e-07,
				-4.609449661074905e-06,
				0.9154971241950989
			],
			"scale":[
				1,
				0.9999999403953552,
				0.9999998807907104
			],
			"translation":[
				1.2287500794627704e-08,
				0.5319564938545227,
				4.67164227302419e-08
			]
		},
		{
			"children":[
				3
			],
			"name":"Bone.004.L",
			"rotation":[
				0.44438621401786804,
				6.645861816423349e-08,
				5.007769686926622e-06,
				0.895835280418396
			],
			"scale":[
				1,
				1,
				1.0000001192092896
			],
			"translation":[
				-5.398637092923764e-09,
				1.2903857231140137,
				6.157392817840446e-09
			]
		},
		{
			"name":"Bone.005.R",
			"rotation":[
				-0.40232446789741516,
				-9.298724279460657e-08,
				4.614292265614495e-06,
				0.9154971241950989
			],
			"scale":[
				1,
				1.0000001192092896,
				1
			],
			"translation":[
				-1.1596057447604835e-11,
				0.5319564938545227,
				1.3911426322010811e-07
			]
		},
		{
			"children":[
				5
			],
			"name":"Bone.004.R",
			"rotation":[
				-3.9181749400540866e-08,
				0.890315592288971,
				-0.45534396171569824,
				1.0043801921710838e-05
			],
			"scale":[
				1,
				0.9999998211860657,
				1
			],
			"translation":[
				3.4904613244179927e-07,
				1.2899974584579468,
				-0.03166113793849945
			]
		},
		{
			"children":[
				4,
				6
			],
			"name":"Bone.003",
			"rotation":[
				-0.7070895433425903,
				-0.0043378728441894054,
				-0.7070974707603455,
				0.004337809979915619
			],
			"scale":[
				1,
				0.9999998807907104,
				0.9999999403953552
			]
		},
		{
			"mesh":1,
			"name":"\u5186\u67f1",
			"rotation":[
				0.5324921607971191,
				-0.46524399518966675,
				-0.5324922800064087,
				0.4652441143989563
			],
			"scale":[
				1,
				0.9999999403953552,
				1
			],
			"translation":[
				0.7037500739097595,
				1.4087693691253662,
				0.6400678753852844
			]
		},
		{
			"children":[
				8
			],
			"name":"Bone.002.R",
			"rotation":[
				0.04980804771184921,
				-3.095655287665977e-08,
				-9.589914640173447e-09,
				0.9987587928771973
			],
			"translation":[
				-8.817712782160925e-09,
				0.7161574959754944,
				-8.799904094303201e-08
			]
		},
		{
			"children":[
				9
			],
			"name":"Bone.001.R",
			"rotation":[
				-0.5550042390823364,
				0.43814417719841003,
				0.5550041794776917,
				0.43814414739608765
			],
			"scale":[
				0.9999999403953552,
				0.9999999403953552,
				1
			]
		},
		{
			"mesh":0,
			"name":"\u5186",
			"skin":0
		},
		{
			"children":[
				11,
				0,
				2,
				7,
				10
			],
			"name":"\u30a2\u30fc\u30de\u30c1\u30e5\u30a2.001",
			"translation":[
				0,
				3.4541738033294678,
				0.11821048706769943
			]
		},
		{
			"name":"Bone.007",
			"rotation":[
				1.3055068848188967e-07,
				-5.844905004437351e-08,
				0.2403162568807602,
				0.9706946611404419
			],
			"scale":[
				0.9999999403953552,
				1,
				1
			],
			"translation":[
				-7.183112984421314e-07,
				0.5103287100791931,
				3.2317416298610624e-08
			]
		},
		{
			"children":[
				13
			],
			"name":"Bone.006",
			"rotation":[
				1.892131535896624e-07,
				-4.9444498273487625e-08,
				0.4421848952770233,
				0.8969239592552185
			],
			"scale":[
				0.9999999403953552,
				0.9999998807907104,
				1
			],
			"translation":[
				3.336988925184414e-07,
				0.48561152815818787,
				2.831498235877916e-08
			]
		},
		{
			"children":[
				14
			],
			"name":"Bone.005",
			"rotation":[
				1.1940204558413825e-07,
				-5.7405369346952284e-08,
				0.38443076610565186,
				0.923153817653656
			],
			"scale":[
				1.0000001192092896,
				1.0000001192092896,
				1
			],
			"translation":[
				-5.686118242920202e-07,
				0.5733625292778015,
				6.575345423698309e-08
			]
		},
		{
			"children":[
				15
			],
			"name":"Bone.004",
			"rotation":[
				8.754551572565106e-08,
				-1.2043067876277291e-08,
				0.37184253334999084,
				0.9282958507537842
			],
			"translation":[
				6.250327544421452e-08,
				0.7882718443870544,
				5.348408649297198e-08
			]
		},
		{
			"children":[
				16
			],
			"name":"Bone.003",
			"rotation":[
				2.3323898368232676e-09,
				-6.19395237322351e-08,
				0.014530329965054989,
				0.9998944401741028
			],
			"translation":[
				-4.055084801279918e-08,
				1.1715737581253052,
				-4.8506038297091436e-08
			]
		},
		{
			"children":[
				17
			],
			"name":"Bone.002",
			"rotation":[
				3.786576607822667e-10,
				4.425469768420953e-09,
				0.0036762922536581755,
				0.9999932646751404
			],
			"translation":[
				1.9661760575218068e-07,
				1.0766099691390991,
				5.478592868257692e-08
			]
		},
		{
			"children":[
				18
			],
			"name":"Bone.001",
			"rotation":[
				-6.737643332144216e-08,
				-5.395796165430511e-08,
				-0.00367634161375463,
				0.9999932646751404
			],
			"scale":[
				0.9999999403953552,
				0.9999999403953552,
				1
			],
			"translation":[
				2.9802322387695312e-08,
				1.0000001192092896,
				0
			]
		},
		{
			"children":[
				19
			],
			"name":"Bone",
			"translation":[
				2.7939677238464355e-08,
				-2.7008354663848877e-08,
				0
			]
		},
		{
			"children":[
				20
			],
			"name":"\u30a2\u30fc\u30de\u30c1\u30e5\u30a2.002",
			"rotation":[
				0,
				0,
				0.002218632260337472,
				0.9999975562095642
			],
			"translation":[
				-2.1797847747802734,
				1.891932725906372,
				-0.6003473997116089
			]
		},
		{
			"mesh":2,
			"name":"Body",
			"rotation":[
				0.7071068286895752,
				0,
				0,
				0.7071068286895752
			],
			"translation":[
				0,
				4.597020149230957,
				1.0274276733398438
			]
		},
		{
			"name":"\u5e73\u9762",
			"rotation":[
				0.7071068286895752,
				0,
				0,
				0.7071068286895752
			],
			"scale":[
				0.22702592611312866,
				0.22702592611312866,
				0.22702592611312866
			],
			"translation":[
				-0.3486100137233734,
				4.9858598709106445,
				-0.6692748665809631
			]
		},
		{
			"mesh":3,
			"name":"Eye",
			"rotation":[
				0.7070437073707581,
				0.009441723115742207,
				0.009441722184419632,
				0.7070437669754028
			],
			"scale":[
				1.1812444925308228,
				1.1812443733215332,
				1.1812444925308228
			],
			"translation":[
				0.1369861513376236,
				4.336294651031494,
				-0.5724009275436401
			]
		},
		{
			"name":"\u30c8\u30fc\u30e9\u30b9.001",
			"rotation":[
				0.7071068286895752,
				0,
				0,
				0.7071068286895752
			],
			"scale":[
				0.16387946903705597,
				0.16387946903705597,
				0.16387946903705597
			],
			"translation":[
				0,
				3.2512571811676025,
				-0.5913844108581543
			]
		},
		{
			"name":"\u30c8\u30fc\u30e9\u30b9.002",
			"rotation":[
				0.7071068286895752,
				0,
				0,
				0.7071068286895752
			],
			"scale":[
				0.16387946903705597,
				0.16387946903705597,
				0.16387946903705597
			],
			"translation":[
				0,
				3.2512571811676025,
				-0.5913844108581543
			]
		},
		{
			"mesh":4,
			"name":"Button2",
			"rotation":[
				0.7071068286895752,
				0,
				0,
				0.7071068286895752
			],
			"scale":[
				0.14673535525798798,
				0.14673535525798798,
				0.14673535525798798
			],
			"translation":[
				0,
				3.160930633544922,
				-0.5969512462615967
			]
		},
		{
			"mesh":5,
			"name":"Button1",
			"rotation":[
				0.7071068286895752,
				0,
				0,
				0.7071068286895752
			],
			"scale":[
				0.14673535525798798,
				0.14673535525798798,
				0.14673535525798798
			],
			"translation":[
				0,
				3.160930633544922,
				-0.5969512462615967
			]
		},
		{
			"mesh":6,
			"name":"Mouth",
			"rotation":[
				0.7071068286895752,
				0,
				0,
				0.7071068286895752
			],
			"scale":[
				0.5117757320404053,
				0.5117757320404053,
				0.5117757320404053
			],
			"translation":[
				0,
				4.513814449310303,
				-0.5802367329597473
			]
		},
		{
			"name":"Bone.007",
			"rotation":[
				1.8923314826224669e-07,
				1.3473673732278257e-08,
				0.0023129109758883715,
				0.9999973177909851
			],
			"translation":[
				-1.1651508202703553e-08,
				0.5879509449005127,
				2.7803077173871316e-08
			]
		},
		{
			"children":[
				30
			],
			"name":"Bone.002",
			"rotation":[
				-1.5299890776532266e-07,
				-1.7697990983833733e-07,
				-0.0008957965765148401,
				0.9999995827674866
			],
			"scale":[
				0.9999998807907104,
				1,
				1
			],
			"translation":[
				-6.15347062193905e-09,
				1.038812518119812,
				-1.0523692139940977e-08
			]
		},
		{
			"name":"Bone.004.L",
			"rotation":[
				-3.309536111828493e-08,
				-4.4983089253491926e-08,
				0.06041228771209717,
				0.9981735348701477
			],
			"scale":[
				0.9999999403953552,
				1.0000001192092896,
				1
			],
			"translation":[
				-5.359238741675654e-08,
				1.2735525369644165,
				-4.074196624515025e-08
			]
		},
		{
			"children":[
				32
			],
			"name":"Bone.003.L",
			"rotation":[
				2.832040877365216e-07,
				9.10262940578832e-08,
				-0.7886940836906433,
				0.61478590965271
			],
			"scale":[
				1,
				0.9999998807907104,
				1
			],
			"translation":[
				-6.15347062193905e-09,
				1.038812518119812,
				-1.0523692139940977e-08
			]
		},
		{
			"name":"Bone.004.R",
			"rotation":[
				-3.309535756557125e-08,
				4.498305017364146e-08,
				-0.06041227653622627,
				0.9981735348701477
			],
			"scale":[
				1,
				1.0000001192092896,
				1
			],
			"translation":[
				1.1319706771928395e-07,
				1.2735527753829956,
				-1.0939885441985098e-08
			]
		},
		{
			"children":[
				34
			],
			"name":"Bone.003.R",
			"rotation":[
				1.1413508360647029e-07,
				-2.2017323431100522e-07,
				0.7962182760238647,
				0.6050094962120056
			],
			"scale":[
				0.9999998807907104,
				0.9999998807907104,
				1
			],
			"translation":[
				-0.02562856301665306,
				1.0384963750839233,
				-1.6053789408942976e-08
			]
		},
		{
			"children":[
				31,
				33,
				35
			],
			"name":"Bone.001",
			"rotation":[
				-9.90158497415905e-08,
				-1.193914034303134e-08,
				-0.00616834033280611,
				0.9999809861183167
			],
			"scale":[
				1,
				0.9999999403953552,
				0.9999999403953552
			],
			"translation":[
				7.105427357601002e-15,
				1.3002116680145264,
				0
			]
		},
		{
			"children":[
				36
			],
			"name":"Bone",
			"rotation":[
				-2.980232594040899e-08,
				1.1920927533992653e-07,
				0,
				1
			],
			"scale":[
				1,
				0.9999998807907104,
				0.9999998807907104
			],
			"translation":[
				0,
				0.1566324234008789,
				-0.48534679412841797
			]
		},
		{
			"name":"Bone.006.L",
			"rotation":[
				-0.333784818649292,
				-4.846034684646838e-09,
				-2.0715616244615376e-07,
				0.9426493048667908
			],
			"translation":[
				1.273886596209195e-08,
				0.9052585959434509,
				6.365077069858671e-07
			]
		},
		{
			"children":[
				38
			],
			"name":"Bone.005.L",
			"rotation":[
				-0.6476263999938965,
				-0.28386563062667847,
				-0.6476268768310547,
				0.283865749835968
			],
			"translation":[
				0,
				0.1566324234008789,
				-0.48534679412841797
			]
		},
		{
			"name":"Bone.006.R",
			"rotation":[
				-0.333784818649292,
				4.846034684646838e-09,
				2.0715616244615376e-07,
				0.9426493048667908
			],
			"translation":[
				-1.273886596209195e-08,
				0.9052585959434509,
				6.365077069858671e-07
			]
		},
		{
			"children":[
				40
			],
			"name":"Bone.005.R",
			"rotation":[
				-0.6476263999938965,
				0.28386563062667847,
				0.6476268768310547,
				0.283865749835968
			],
			"translation":[
				0,
				0.1566324234008789,
				-0.48534679412841797
			]
		},
		{
			"children":[
				37,
				39,
				41
			],
			"name":"\u30a2\u30fc\u30de\u30c1\u30e5\u30a2",
			"scale":[
				0.6064416170120239,
				0.6064416170120239,
				0.6064416170120239
			],
			"translation":[
				0,
				2.002671241760254,
				0
			]
		}
	],
	"materials":[
		{
			"doubleSided":true,
			"name":"\u30de\u30c6\u30ea\u30a2\u30eb",
			"pbrMetallicRoughness":{
				"metallicFactor":0,
				"roughnessFactor":0.5
			}
		},
		{
			"doubleSided":true,
			"name":"\u30de\u30c6\u30ea\u30a2\u30eb.005",
			"pbrMetallicRoughness":{
				"metallicFactor":0,
				"roughnessFactor":0.5
			}
		},
		{
			"doubleSided":true,
			"name":"\u30de\u30c6\u30ea\u30a2\u30eb.006",
			"pbrMetallicRoughness":{
				"metallicFactor":0,
				"roughnessFactor":0.5
			}
		},
		{
			"doubleSided":true,
			"name":"\u30de\u30c6\u30ea\u30a2\u30eb.001",
			"pbrMetallicRoughness":{
				"metallicFactor":0,
				"roughnessFactor":0.5
			}
		},
		{
			"doubleSided":true,
			"name":"\u30de\u30c6\u30ea\u30a2\u30eb.004",
			"pbrMetallicRoughness":{
				"metallicFactor":0,
				"roughnessFactor":0.5
			}
		},
		{
			"doubleSided":true,
			"name":"\u30de\u30c6\u30ea\u30a2\u30eb.003",
			"pbrMetallicRoughness":{
				"metallicFactor":0,
				"roughnessFactor":0.5
			}
		},
		{
			"doubleSided":true,
			"name":"\u30de\u30c6\u30ea\u30a2\u30eb.002",
			"pbrMetallicRoughness":{
				"metallicFactor":0,
				"roughnessFactor":0.5
			}
		}
	],
	"meshes":[
		{
			"name":"\u5186.001",
			"primitives":[
				{
					"attributes":{
						"POSITION":0,
						"TEXCOORD_0":1,
						"NORMAL":2,
						"JOINTS_0":3,
						"WEIGHTS_0":4
					},
					"indices":5,
					"material":0
				}
			]
		},
		{
			"name":"\u5186\u67f1.001",
			"primitives":[
				{
					"attributes":{
						"POSITION":7,
						"TEXCOORD_0":8,
						"NORMAL":9
					},
					"indices":10,
					"material":1
				},
				{
					"attributes":{
						"POSITION":11,
						"TEXCOORD_0":12,
						"NORMAL":13
					},
					"indices":14,
					"material":2
				}
			]
		},
		{
			"name":"\u5186",
			"primitives":[
				{
					"attributes":{
						"POSITION":15,
						"TEXCOORD_0":16,
						"NORMAL":17
					},
					"indices":18
				}
			]
		},
		{
			"name":"\u5e73\u9762.001",
			"primitives":[
				{
					"attributes":{
						"POSITION":19,
						"TEXCOORD_0":20,
						"NORMAL":21
					},
					"indices":22,
					"material":3
				}
			]
		},
		{
			"name":"\u7403.002",
			"primitives":[
				{
					"attributes":{
						"POSITION":23,
						"TEXCOORD_0":24,
						"NORMAL":25
					},
					"indices":26,
					"material":4
				}
			]
		},
		{
			"name":"\u7403.006",
			"primitives":[
				{
					"attributes":{
						"POSITION":27,
						"TEXCOORD_0":28,
						"NORMAL":29
					},
					"indices":26,
					"material":5
				}
			]
		},
		{
			"name":"\u30c8\u30fc\u30e9\u30b9",
			"primitives":[
				{
					"attributes":{
						"POSITION":30,
						"TEXCOORD_0":31,
						"NORMAL":32
					},
					"indices":33,
					"material":6
				}
			]
		}
	],
	"skins":[
		{
			"inverseBindMatrices":6,
			"joints":[
				0,
				2,
				1,
				7,
				4,
				3,
				6,
				5,
				10,
				9
			],
			"name":"\u30a2\u30fc\u30de\u30c1\u30e5\u30a2.001"
		},
		{
			"inverseBindMatrices":34,
			"joints":[
				20,
				19,
				18,
				17,
				16,
				15,
				14,
				13
			],
			"name":"\u30a2\u30fc\u30de\u30c1\u30e5\u30a2.002"
		},
		{
			"inverseBindMatrices":35,
			"joints":[
				37,
				36,
				31,
				30,
				33,
				32,
				35,
				34,
				39,
				38,
				41,
				40
			],
			"name":"\u30a2\u30fc\u30de\u30c1\u30e5\u30a2"
		}
	],
	"accessors":[
		{
			"bufferView":0,
			"componentType":5126,
			"count":400,
			"max":[
				2.5809168815612793,
				5.74350118637085,
				-0.03755435347557068
			],
			"min":[
				-2.580916404724121,
				-0.09167729318141937,
				-0.5847006440162659
			],
			"type":"VEC3"
		},
		{
			"bufferView":1,
			"componentType":5126,
			"count":400,
			"type":"VEC2"
		},
		{
			"bufferView":2,
			"componentType":5126,
			"count":400,
			"type":"VEC3"
		},
		{
			"bufferView":3,
			"componentType":5121,
			"count":400,
			"type":"VEC4"
		},
		{
			"bufferView":4,
			"componentType":5126,
			"count":400,
			"type":"VEC4"
		},
		{
			"bufferView":5,
			"componentType":5123,
			"count":1404,
			"type":"SCALAR"
		},
		{
			"bufferView":6,
			"componentType":5126,
			"count":10,
			"type":"MAT4"
		},
		{
			"bufferView":7,
			"componentType":5126,
			"count":30774,
			"max":[
				0.09925198554992676,
				2.712080717086792,
				0.1204981878399849
			],
			"min":[
				-1.357610821723938,
				-1.9798277616500854,
				-0.12049789726734161
			],
			"type":"VEC3"
		},
		{
			"bufferView":8,
			"componentType":5126,
			"count":30774,
			"type":"VEC2"
		},
		{
			"bufferView":9,
			"componentType":5126,
			"count":30774,
			"type":"VEC3"
		},
		{
			"bufferView":10,
			"componentType":5123,
			"count":34560,
			"type":"SCALAR"
		},
		{
			"bufferView":11,
			"componentType":5126,
			"count":31158,
			"max":[
				0.09922272711992264,
				2.681649923324585,
				0.11995907127857208
			],
			"min":[
				-1.3807929754257202,
				-1.8010964393615723,
				-0.11995881050825119
			],
			"type":"VEC3"
		},
		{
			"bufferView":12,
			"componentType":5126,
			"count":31158,
			"type":"VEC2"
		},
		{
			"bufferView":13,
			"componentType":5126,
			"count":31158,
			"type":"VEC3"
		},
		{
			"bufferView":14,
			"componentType":5123,
			"count":34560,
			"type":"SCALAR"
		},
		{
			"bufferView":15,
			"componentType":5126,
			"count":4217,
			"max":[
				2.564297676086426,
				0.003050361992791295,
				4.633002281188965
			],
			"min":[
				-2.564297676086426,
				-0.5471205711364746,
				-1.0602830648422241
			],
			"type":"VEC3"
		},
		{
			"bufferView":16,
			"componentType":5126,
			"count":4217,
			"type":"VEC2"
		},
		{
			"bufferView":17,
			"componentType":5126,
			"count":4217,
			"type":"VEC3"
		},
		{
			"bufferView":18,
			"componentType":5123,
			"count":25290,
			"type":"SCALAR"
		},
		{
			"bufferView":19,
			"componentType":5126,
			"count":3648,
			"max":[
				0.41887983679771423,
				-0.002779426984488964,
				-0.31639358401298523
			],
			"min":[
				-0.6198251843452454,
				-0.058663852512836456,
				-0.5988172888755798
			],
			"type":"VEC3"
		},
		{
			"bufferView":20,
			"componentType":5126,
			"count":3648,
			"type":"VEC2"
		},
		{
			"bufferView":21,
			"componentType":5126,
			"count":3648,
			"type":"VEC3"
		},
		{
			"bufferView":22,
			"componentType":5123,
			"count":21864,
			"type":"SCALAR"
		},
		{
			"bufferView":23,
			"componentType":5126,
			"count":427,
			"max":[
				0.9622617363929749,
				0.507256805896759,
				6.953202247619629
			],
			"min":[
				-0.9622616171836853,
				-0.9830832481384277,
				5.027033805847168
			],
			"type":"VEC3"
		},
		{
			"bufferView":24,
			"componentType":5126,
			"count":427,
			"type":"VEC2"
		},
		{
			"bufferView":25,
			"componentType":5126,
			"count":427,
			"type":"VEC3"
		},
		{
			"bufferView":26,
			"componentType":5123,
			"count":2208,
			"type":"SCALAR"
		},
		{
			"bufferView":27,
			"componentType":5126,
			"count":427,
			"max":[
				0.9622617363929749,
				0.5072565674781799,
				0.9608047604560852
			],
			"min":[
				-0.9622616171836853,
				-0.9830834865570068,
				-0.9653634428977966
			],
			"type":"VEC3"
		},
		{
			"bufferView":28,
			"componentType":5126,
			"count":427,
			"type":"VEC2"
		},
		{
			"bufferView":29,
			"componentType":5126,
			"count":427,
			"type":"VEC3"
		},
		{
			"bufferView":30,
			"componentType":5126,
			"count":1225,
			"max":[
				0.8559768199920654,
				0.14196202158927917,
				0.6620581150054932
			],
			"min":[
				-0.8559768199920654,
				-0.14196208119392395,
				-0.07776045799255371
			],
			"type":"VEC3"
		},
		{
			"bufferView":31,
			"componentType":5126,
			"count":1225,
			"type":"VEC2"
		},
		{
			"bufferView":32,
			"componentType":5126,
			"count":1225,
			"type":"VEC3"
		},
		{
			"bufferView":33,
			"componentType":5123,
			"count":6912,
			"type":"SCALAR"
		},
		{
			"bufferView":34,
			"componentType":5126,
			"count":8,
			"type":"MAT4"
		},
		{
			"bufferView":35,
			"componentType":5126,
			"count":12,
			"type":"MAT4"
		}
	],
	"bufferViews":[
		{
			"buffer":0,
			"byteLength":4800,
			"byteOffset":0,
			"target":34962
		},
		{
			"buffer":0,
			"byteLength":3200,
			"byteOffset":4800,
			"target":34962
		},
		{
			"buffer":0,
			"byteLength":4800,
			"byteOffset":8000,
			"target":34962
		},
		{
			"buffer":0,
			"byteLength":1600,
			"byteOffset":12800,
			"target":34962
		},
		{
			"buffer":0,
			"byteLength":6400,
			"byteOffset":14400,
			"target":34962
		},
		{
			"buffer":0,
			"byteLength":2808,
			"byteOffset":20800,
			"target":34963
		},
		{
			"buffer":0,
			"byteLength":640,
			"byteOffset":23608
		},
		{
			"buffer":0,
			"byteLength":369288,
			"byteOffset":24248,
			"target":34962
		},
		{
			"buffer":0,
			"byteLength":246192,
			"byteOffset":393536,
			"target":34962
		},
		{
			"buffer":0,
			"byteLength":369288,
			"byteOffset":639728,
			"target":34962
		},
		{
			"buffer":0,
			"byteLength":69120,
			"byteOffset":1009016,
			"target":34963
		},
		{
			"buffer":0,
			"byteLength":373896,
			"byteOffset":1078136,
			"target":34962
		},
		{
			"buffer":0,
			"byteLength":249264,
			"byteOffset":1452032,
			"target":34962
		},
		{
			"buffer":0,
			"byteLength":373896,
			"byteOffset":1701296,
			"target":34962
		},
		{
			"buffer":0,
			"byteLength":69120,
			"byteOffset":2075192,
			"target":34963
		},
		{
			"buffer":0,
			"byteLength":50604,
			"byteOffset":2144312,
			"target":34962
		},
		{
			"buffer":0,
			"byteLength":33736,
			"byteOffset":2194916,
			"target":34962
		},
		{
			"buffer":0,
			"byteLength":50604,
			"byteOffset":2228652,
			"target":34962
		},
		{
			"buffer":0,
			"byteLength":50580,
			"byteOffset":2279256,
			"target":34963
		},
		{
			"buffer":0,
			"byteLength":43776,
			"byteOffset":2329836,
			"target":34962
		},
		{
			"buffer":0,
			"byteLength":29184,
			"byteOffset":2373612,
			"target":34962
		},
		{
			"buffer":0,
			"byteLength":43776,
			"byteOffset":2402796,
			"target":34962
		},
		{
			"buffer":0,
			"byteLength":43728,
			"byteOffset":2446572,
			"target":34963
		},
		{
			"buffer":0,
			"byteLength":5124,
			"byteOffset":2490300,
			"target":34962
		},
		{
			"buffer":0,
			"byteLength":3416,
			"byteOffset":2495424,
			"target":34962
		},
		{
			"buffer":0,
			"byteLength":5124,
			"byteOffset":2498840,
			"target":34962
		},
		{
			"buffer":0,
			"byteLength":4416,
			"byteOffset":2503964,
			"target":34963
		},
		{
			"buffer":0,
			"byteLength":5124,
			"byteOffset":2508380,
			"target":34962
		},
		{
			"buffer":0,
			"byteLength":3416,
			"byteOffset":2513504,
			"target":34962
		},
		{
			"buffer":0,
			"byteLength":5124,
			"byteOffset":2516920,
			"target":34962
		},
		{
			"buffer":0,
			"byteLength":14700,
			"byteOffset":2522044,
			"target":34962
		},
		{
			"buffer":0,
			"byteLength":9800,
			"byteOffset":2536744,
			"target":34962
		},
		{
			"buffer":0,
			"byteLength":14700,
			"byteOffset":2546544,
			"target":34962
		},
		{
			"buffer":0,
			"byteLength":13824,
			"byteOffset":2561244,
			"target":34963
		},
		{
			"buffer":0,
			"byteLength":512,
			"byteOffset":2575068
		},
		{
			"buffer":0,
			"byteLength":768,
			"byteOffset":2575580
		}
	],
	"buffers":[
		{
			"byteLength":2576348,
			"uri":"GingerManSkin.bin"
		}
	]
}
