{
	"asset":{
		"generator":"Khronos glTF Blender I/O v4.3.47",
		"version":"2.0"
	},
	"scene":0,
	"scenes":[
		{
			"name":"Scene",
			"nodes":[
				0,
				1
			]
		}
	],
	"nodes":[
		{
			"mesh":0,
			"name":"Pancakes"
		},
		{
			"mesh":1,
			"name":"test"
		}
	],
	"materials":[
		{
			"doubleSided":true,
			"name":"LightBeige",
			"pbrMetallicRoughness":{
				"baseColorTexture":{
					"index":0
				},
				"metallicFactor":0,
				"roughnessFactor":0.690034806728363
			}
		},
		{
			"doubleSided":true,
			"name":"Light",
			"pbrMetallicRoughness":{
				"baseColorTexture":{
					"index":1
				},
				"metallicFactor":0,
				"roughnessFactor":0.690034806728363
			}
		},
		{
			"doubleSided":true,
			"name":"Yellow",
			"pbrMetallicRoughness":{
				"baseColorTexture":{
					"index":2
				},
				"metallicFactor":0,
				"roughnessFactor":0.690034806728363
			}
		},
		{
			"doubleSided":true,
			"name":"Syrup",
			"pbrMetallicRoughness":{
				"baseColorTexture":{
					"index":3
				},
				"metallicFactor":0,
				"roughnessFactor":0.690034806728363
			}
		},
		{
			"doubleSided":true,
			"name":"Field",
			"pbrMetallicRoughness":{
				"baseColorTexture":{
					"index":4
				},
				"metallicFactor":0,
				"roughnessFactor":0.5
			}
		}
	],
	"meshes":[
		{
			"name":"Cylinder.033",
			"primitives":[
				{
					"attributes":{
						"POSITION":0,
						"NORMAL":1,
						"TEXCOORD_0":2
					},
					"indices":3,
					"material":0
				},
				{
					"attributes":{
						"POSITION":4,
						"NORMAL":5,
						"TEXCOORD_0":6
					},
					"indices":7,
					"material":1
				},
				{
					"attributes":{
						"POSITION":8,
						"NORMAL":9,
						"TEXCOORD_0":10
					},
					"indices":11,
					"material":2
				},
				{
					"attributes":{
						"POSITION":12,
						"NORMAL":13,
						"TEXCOORD_0":14
					},
					"indices":15,
					"material":3
				}
			]
		},
		{
			"name":"test",
			"primitives":[
				{
					"attributes":{
						"POSITION":16,
						"NORMAL":17,
						"TEXCOORD_0":18
					},
					"indices":19,
					"material":4
				}
			]
		}
	],
	"textures":[
		{
			"sampler":0,
			"source":0
		},
		{
			"sampler":0,
			"source":0
		},
		{
			"sampler":0,
			"source":1
		},
		{
			"sampler":0,
			"source":2
		},
		{
			"sampler":0,
			"source":3
		}
	],
	"images":[
		{
			"mimeType":"image/png",
			"name":"Body",
			"uri":"Body.png"
		},
		{
			"mimeType":"image/png",
			"name":"Icing",
			"uri":"Icing.png"
		},
		{
			"mimeType":"image/png",
			"name":"Cream",
			"uri":"Cream.png"
		},
		{
			"mimeType":"image/png",
			"name":"Cap",
			"uri":"Cap.png"
		}
	],
	"accessors":[
		{
			"bufferView":0,
			"componentType":5126,
			"count":452,
			"max":[
				14.895866394042969,
				48.97346878051758,
				436.5009460449219
			],
			"min":[
				-116.99895477294922,
				-48.327964782714844,
				321.73150634765625
			],
			"type":"VEC3"
		},
		{
			"bufferView":1,
			"componentType":5126,
			"count":452,
			"type":"VEC3"
		},
		{
			"bufferView":2,
			"componentType":5126,
			"count":452,
			"type":"VEC2"
		},
		{
			"bufferView":3,
			"componentType":5123,
			"count":804,
			"type":"SCALAR"
		},
		{
			"bufferView":4,
			"componentType":5126,
			"count":29,
			"max":[
				6.4614715576171875,
				43.494449615478516,
				424.0423278808594
			],
			"min":[
				-106.11548614501953,
				-32.692344665527344,
				330.077392578125
			],
			"type":"VEC3"
		},
		{
			"bufferView":5,
			"componentType":5126,
			"count":29,
			"type":"VEC3"
		},
		{
			"bufferView":6,
			"componentType":5126,
			"count":29,
			"type":"VEC2"
		},
		{
			"bufferView":7,
			"componentType":5123,
			"count":69,
			"type":"SCALAR"
		},
		{
			"bufferView":8,
			"componentType":5126,
			"count":12,
			"max":[
				-38.01728820800781,
				36.16902160644531,
				391.0304260253906
			],
			"min":[
				-67.20655822753906,
				12.766098022460938,
				357.72882080078125
			],
			"type":"VEC3"
		},
		{
			"bufferView":9,
			"componentType":5126,
			"count":12,
			"type":"VEC3"
		},
		{
			"bufferView":10,
			"componentType":5126,
			"count":12,
			"type":"VEC2"
		},
		{
			"bufferView":11,
			"componentType":5123,
			"count":54,
			"type":"SCALAR"
		},
		{
			"bufferView":12,
			"componentType":5126,
			"count":208,
			"max":[
				-11.267776489257812,
				41.04585266113281,
				414.070068359375
			],
			"min":[
				-93.91919708251953,
				-43.596397399902344,
				325.6983642578125
			],
			"type":"VEC3"
		},
		{
			"bufferView":13,
			"componentType":5126,
			"count":208,
			"type":"VEC3"
		},
		{
			"bufferView":14,
			"componentType":5126,
			"count":208,
			"type":"VEC2"
		},
		{
			"bufferView":15,
			"componentType":5123,
			"count":663,
			"type":"SCALAR"
		},
		{
			"bufferView":16,
			"componentType":5126,
			"count":995405,
			"max":[
				367.9090270996094,
				123.0743637084961,
				420.4732360839844
			],
			"min":[
				-296.7447204589844,
				-130.96878051757812,
				-244.11871337890625
			],
			"type":"VEC3"
		},
		{
			"bufferView":17,
			"componentType":5126,
			"count":995405,
			"type":"VEC3"
		},
		{
			"bufferView":18,
			"componentType":5126,
			"count":995405,
			"type":"VEC2"
		},
		{
			"bufferView":19,
			"componentType":5125,
			"count":1494006,
			"type":"SCALAR"
		}
	],
	"bufferViews":[
		{
			"buffer":0,
			"byteLength":5424,
			"byteOffset":0,
			"target":34962
		},
		{
			"buffer":0,
			"byteLength":5424,
			"byteOffset":5424,
			"target":34962
		},
		{
			"buffer":0,
			"byteLength":3616,
			"byteOffset":10848,
			"target":34962
		},
		{
			"buffer":0,
			"byteLength":1608,
			"byteOffset":14464,
			"target":34963
		},
		{
			"buffer":0,
			"byteLength":348,
			"byteOffset":16072,
			"target":34962
		},
		{
			"buffer":0,
			"byteLength":348,
			"byteOffset":16420,
			"target":34962
		},
		{
			"buffer":0,
			"byteLength":232,
			"byteOffset":16768,
			"target":34962
		},
		{
			"buffer":0,
			"byteLength":138,
			"byteOffset":17000,
			"target":34963
		},
		{
			"buffer":0,
			"byteLength":144,
			"byteOffset":17140,
			"target":34962
		},
		{
			"buffer":0,
			"byteLength":144,
			"byteOffset":17284,
			"target":34962
		},
		{
			"buffer":0,
			"byteLength":96,
			"byteOffset":17428,
			"target":34962
		},
		{
			"buffer":0,
			"byteLength":108,
			"byteOffset":17524,
			"target":34963
		},
		{
			"buffer":0,
			"byteLength":2496,
			"byteOffset":17632,
			"target":34962
		},
		{
			"buffer":0,
			"byteLength":2496,
			"byteOffset":20128,
			"target":34962
		},
		{
			"buffer":0,
			"byteLength":1664,
			"byteOffset":22624,
			"target":34962
		},
		{
			"buffer":0,
			"byteLength":1326,
			"byteOffset":24288,
			"target":34963
		},
		{
			"buffer":0,
			"byteLength":11944860,
			"byteOffset":25616,
			"target":34962
		},
		{
			"buffer":0,
			"byteLength":11944860,
			"byteOffset":11970476,
			"target":34962
		},
		{
			"buffer":0,
			"byteLength":7963240,
			"byteOffset":23915336,
			"target":34962
		},
		{
			"buffer":0,
			"byteLength":5976024,
			"byteOffset":31878576,
			"target":34963
		}
	],
	"samplers":[
		{
			"magFilter":9729,
			"minFilter":9987
		}
	],
	"buffers":[
		{
			"byteLength":37854600,
			"uri":"Field.bin"
		}
	]
}
