{
	"asset":{
		"generator":"Khronos glTF Blender I/O v3.5.30",
		"version":"2.0"
	},
	"scene":0,
	"scenes":[
		{
			"name":"Scene",
			"nodes":[
				6
			]
		}
	],
	"nodes":[
		{
			"name":"Bone.002",
			"rotation":[
				5.782121760149238e-15,
				-6.1238836224219995e-09,
				1.246767978270551e-21,
				1
			],
			"translation":[
				-2.5568239571822532e-21,
				0.7967839241027832,
				8.881784197001252e-15
			]
		},
		{
			"children":[
				0
			],
			"name":"Bone.001",
			"rotation":[
				-1.92010531857112e-15,
				1.0944114592348342e-07,
				-2.8623364824240454e-22,
				1
			],
			"scale":[
				1,
				0.9999999403953552,
				1
			],
			"translation":[
				-3.3087224502121107e-23,
				0.7548357248306274,
				2.220446049250313e-16
			]
		},
		{
			"children":[
				1
			],
			"name":"Bone",
			"rotation":[
				-8.557136332854043e-09,
				1.7114272665708086e-08,
				-2.928983286277023e-16,
				1
			]
		},
		{
			"mesh":0,
			"name":"\u5186.002",
			"skin":0
		},
		{
			"mesh":1,
			"name":"\u7403",
			"skin":0
		},
		{
			"mesh":2,
			"name":"\u7acb\u65b9\u4f53",
			"skin":0
		},
		{
			"children":[
				3,
				4,
				5,
				2
			],
			"name":"\u30a2\u30fc\u30de\u30c1\u30e5\u30a2",
			"translation":[
				0,
				-0.6742017269134521,
				0
			]
		}
	],
	"materials":[
		{
			"doubleSided":true,
			"name":"\u30de\u30c6\u30ea\u30a2\u30eb.001",
			"pbrMetallicRoughness":{
				"baseColorTexture":{
					"index":0
				},
				"metallicFactor":0,
				"roughnessFactor":0.5
			}
		},
		{
			"doubleSided":true,
			"name":"\u30de\u30c6\u30ea\u30a2\u30eb.002",
			"pbrMetallicRoughness":{
				"baseColorTexture":{
					"index":1
				},
				"metallicFactor":0,
				"roughnessFactor":0.5
			}
		},
		{
			"doubleSided":true,
			"name":"\u30de\u30c6\u30ea\u30a2\u30eb",
			"pbrMetallicRoughness":{
				"metallicFactor":0,
				"roughnessFactor":0.5
			}
		}
	],
	"meshes":[
		{
			"name":"\u5186.002",
			"primitives":[
				{
					"attributes":{
						"POSITION":0,
						"TEXCOORD_0":1,
						"NORMAL":2,
						"JOINTS_0":3,
						"WEIGHTS_0":4
					},
					"indices":5,
					"material":0
				}
			]
		},
		{
			"name":"\u7403",
			"primitives":[
				{
					"attributes":{
						"POSITION":7,
						"TEXCOORD_0":8,
						"NORMAL":9,
						"JOINTS_0":10,
						"WEIGHTS_0":11
					},
					"indices":12,
					"material":1
				}
			]
		},
		{
			"name":"\u7acb\u65b9\u4f53",
			"primitives":[
				{
					"attributes":{
						"POSITION":13,
						"TEXCOORD_0":14,
						"NORMAL":15,
						"JOINTS_0":16,
						"WEIGHTS_0":17
					},
					"indices":18,
					"material":2
				}
			]
		}
	],
	"textures":[
		{
			"sampler":0,
			"source":0
		},
		{
			"sampler":0,
			"source":1
		}
	],
	"images":[
		{
			"mimeType":"image/png",
			"name":"cap.png",
			"uri":"cap.png"
		},
		{
			"mimeType":"image/png",
			"name":"cream.png",
			"uri":"cream.png"
		}
	],
	"skins":[
		{
			"inverseBindMatrices":6,
			"joints":[
				2,
				1,
				0
			],
			"name":"\u30a2\u30fc\u30de\u30c1\u30e5\u30a2"
		}
	],
	"accessors":[
		{
			"bufferView":0,
			"componentType":5126,
			"count":272,
			"max":[
				1.077636480331421,
				0.11557620763778687,
				1.077636480331421
			],
			"min":[
				-1.077636480331421,
				-0.8625486493110657,
				-1.077636480331421
			],
			"type":"VEC3"
		},
		{
			"bufferView":1,
			"componentType":5126,
			"count":272,
			"type":"VEC2"
		},
		{
			"bufferView":2,
			"componentType":5126,
			"count":272,
			"type":"VEC3"
		},
		{
			"bufferView":3,
			"componentType":5121,
			"count":272,
			"type":"VEC4"
		},
		{
			"bufferView":4,
			"componentType":5126,
			"count":272,
			"type":"VEC4"
		},
		{
			"bufferView":5,
			"componentType":5123,
			"count":1482,
			"type":"SCALAR"
		},
		{
			"bufferView":6,
			"componentType":5126,
			"count":3,
			"type":"MAT4"
		},
		{
			"bufferView":7,
			"componentType":5126,
			"count":992,
			"max":[
				0.4392686188220978,
				1.984926462173462,
				0.39569008350372314
			],
			"min":[
				-0.473458856344223,
				1.3611295223236084,
				-0.3957013785839081
			],
			"type":"VEC3"
		},
		{
			"bufferView":8,
			"componentType":5126,
			"count":992,
			"type":"VEC2"
		},
		{
			"bufferView":9,
			"componentType":5126,
			"count":992,
			"type":"VEC3"
		},
		{
			"bufferView":10,
			"componentType":5121,
			"count":992,
			"type":"VEC4"
		},
		{
			"bufferView":11,
			"componentType":5126,
			"count":992,
			"type":"VEC4"
		},
		{
			"bufferView":12,
			"componentType":5123,
			"count":1440,
			"type":"SCALAR"
		},
		{
			"bufferView":13,
			"componentType":5126,
			"count":448,
			"max":[
				1.1553114652633667,
				1.4980504512786865,
				1.1553114652633667
			],
			"min":[
				-1.1553114652633667,
				-0.7841969728469849,
				-1.1553114652633667
			],
			"type":"VEC3"
		},
		{
			"bufferView":14,
			"componentType":5126,
			"count":448,
			"type":"VEC2"
		},
		{
			"bufferView":15,
			"componentType":5126,
			"count":448,
			"type":"VEC3"
		},
		{
			"bufferView":16,
			"componentType":5121,
			"count":448,
			"type":"VEC4"
		},
		{
			"bufferView":17,
			"componentType":5126,
			"count":448,
			"type":"VEC4"
		},
		{
			"bufferView":18,
			"componentType":5123,
			"count":672,
			"type":"SCALAR"
		}
	],
	"bufferViews":[
		{
			"buffer":0,
			"byteLength":3264,
			"byteOffset":0,
			"target":34962
		},
		{
			"buffer":0,
			"byteLength":2176,
			"byteOffset":3264,
			"target":34962
		},
		{
			"buffer":0,
			"byteLength":3264,
			"byteOffset":5440,
			"target":34962
		},
		{
			"buffer":0,
			"byteLength":1088,
			"byteOffset":8704,
			"target":34962
		},
		{
			"buffer":0,
			"byteLength":4352,
			"byteOffset":9792,
			"target":34962
		},
		{
			"buffer":0,
			"byteLength":2964,
			"byteOffset":14144,
			"target":34963
		},
		{
			"buffer":0,
			"byteLength":192,
			"byteOffset":17108
		},
		{
			"buffer":0,
			"byteLength":11904,
			"byteOffset":17300,
			"target":34962
		},
		{
			"buffer":0,
			"byteLength":7936,
			"byteOffset":29204,
			"target":34962
		},
		{
			"buffer":0,
			"byteLength":11904,
			"byteOffset":37140,
			"target":34962
		},
		{
			"buffer":0,
			"byteLength":3968,
			"byteOffset":49044,
			"target":34962
		},
		{
			"buffer":0,
			"byteLength":15872,
			"byteOffset":53012,
			"target":34962
		},
		{
			"buffer":0,
			"byteLength":2880,
			"byteOffset":68884,
			"target":34963
		},
		{
			"buffer":0,
			"byteLength":5376,
			"byteOffset":71764,
			"target":34962
		},
		{
			"buffer":0,
			"byteLength":3584,
			"byteOffset":77140,
			"target":34962
		},
		{
			"buffer":0,
			"byteLength":5376,
			"byteOffset":80724,
			"target":34962
		},
		{
			"buffer":0,
			"byteLength":1792,
			"byteOffset":86100,
			"target":34962
		},
		{
			"buffer":0,
			"byteLength":7168,
			"byteOffset":87892,
			"target":34962
		},
		{
			"buffer":0,
			"byteLength":1344,
			"byteOffset":95060,
			"target":34963
		}
	],
	"samplers":[
		{
			"magFilter":9729,
			"minFilter":9987
		}
	],
	"buffers":[
		{
			"byteLength":96404,
			"uri":"Capcake.bin"
		}
	]
}
